<svg width="31" height="40" viewBox="0 0 31 40" fill="none" xmlns="http://www.w3.org/2000/svg">
<path d="M30.3894 25.7109L25.8531 2.74181C25.5438 1.19362 24.1605 0.0599693 22.5539 0.0768895L8.12847 0.00074878C6.52183 -0.0330915 5.12139 1.08364 4.8035 2.63183L0.0179512 25.5502C-0.0335987 25.7955 0.0265429 26.0493 0.189784 26.2439C0.353026 26.4385 0.84275 26.5569 0.84275 26.5569L12.6133 26.6162L12.1665 31.5568C11.9947 33.4688 10.3365 34.9493 8.38622 34.924C6.53042 34.8986 5.02688 36.4045 5.01829 38.2318L5.0097 39.0694C5.0097 39.5262 5.38773 39.9069 5.85168 39.9069L24.4354 40C24.8994 40 25.286 39.6278 25.286 39.1709L25.2946 38.3334C25.3032 36.4975 23.7996 34.9916 21.9353 34.9832C20.0021 34.9747 18.3697 33.4773 18.2237 31.5738L17.8284 26.6246L23.6965 26.6585L23.6794 29.408C23.1381 29.6956 22.7858 30.2032 22.7772 30.8124C22.7686 31.726 23.5247 32.479 24.4612 32.4875C25.3891 32.4959 26.1538 31.7514 26.1624 30.8293C26.1624 30.2201 25.8187 29.7125 25.3461 29.4164L25.3633 26.6669L29.5646 26.6923C29.8138 26.6923 30.0544 26.5823 30.2176 26.3877C30.3723 26.2101 30.441 25.9563 30.3894 25.7109ZM21.8923 36.616C22.8202 36.6244 23.5763 37.3689 23.5677 38.2826L6.71085 38.198C6.71944 37.2843 7.47551 36.5398 8.4034 36.5483C11.2043 36.5652 13.5842 34.4248 13.8333 31.6837L14.2887 26.6246L16.1101 26.6331L16.5139 31.7007C16.7287 34.4417 19.0914 36.6075 21.8923 36.616ZM1.86516 24.9241L6.44451 2.97024C6.60775 2.19191 7.30367 1.63354 8.11129 1.642L22.5539 1.71814C23.3615 1.71814 24.0488 2.29343 24.2035 3.0633L28.5508 25.0595L1.86516 24.9241Z" fill="black"/>
<path d="M28.5519 25.0602L1.86621 24.9248L6.44556 2.97093C6.6088 2.1926 7.30473 1.63424 8.11234 1.6427L22.5549 1.71884C23.3625 1.71884 24.0499 2.29412 24.2045 3.06399L28.5519 25.0602Z" fill="#F8EC7D"/>
<path d="M21.8934 36.6167C22.8213 36.6252 23.5773 37.3697 23.5687 38.2834L6.71191 38.1988C6.72051 37.2851 7.47657 36.5406 8.40447 36.549C11.2053 36.566 13.5852 34.4256 13.8344 31.6845L14.2898 26.6254L16.1112 26.6338L16.515 31.7014C16.7298 34.4425 19.0925 36.6083 21.8934 36.6167Z" fill="#E48E66"/>
</svg>
