<svg width="40" height="40" viewBox="0 0 40 26" fill="none" xmlns="http://www.w3.org/2000/svg">
<g clip-path="url(#clip0)">
<path d="M39.0937 18.7719V23.0858C39.0937 23.9376 38.4062 24.6254 37.5547 24.6254H32.8516V18.7719H39.0937Z" fill="#666666"/>
<path d="M39.0938 2.44613V18.7719H32.8516V0.906555H37.5547C38.4063 0.906555 39.0938 1.59428 39.0938 2.44613Z" fill="#CCC2B8"/>
<path d="M32.8516 18.7719V24.6254H2.44531C1.59375 24.6254 0.90625 23.9376 0.90625 23.0858V2.44613C0.90625 1.59428 1.59375 0.906555 2.44531 0.906555H32.8516V18.7719ZM29.1406 20.8819V4.64999H4.61719V20.8819H29.1406Z" fill="#CCC2B8"/>
<path d="M29.1406 4.64999H4.61719V20.8819H29.1406V4.64999Z" fill="#DAEDE2"/>
<path d="M23.0156 5.55654H23.7109C24.2109 5.55654 24.6172 5.15016 24.6172 4.64999C24.6172 4.14982 24.2109 3.74344 23.7109 3.74344H23.0156C22.5156 3.74344 22.1094 4.14982 22.1094 4.64999C22.1094 5.15016 22.5156 5.55654 23.0156 5.55654Z" fill="black"/>
<path d="M29.1406 3.74344H26.7891C26.2891 3.74344 25.8828 4.14982 25.8828 4.64999C25.8828 5.15016 26.2891 5.55654 26.7891 5.55654H28.2344V19.9754H5.52344V5.55654H20C20.5 5.55654 20.9063 5.15016 20.9063 4.64999C20.9063 4.14982 20.5 3.74344 20 3.74344H4.61719C4.11719 3.74344 3.71094 4.14982 3.71094 4.64999V20.8819C3.71094 21.3821 4.11719 21.7885 4.61719 21.7885H29.1406C29.6406 21.7885 30.0469 21.3821 30.0469 20.8819V4.64999C30.0469 4.14982 29.6406 3.74344 29.1406 3.74344Z" fill="black"/>
<path d="M37.5547 0H32.8516H2.44531C1.09375 0 0 1.09411 0 2.44612V23.0858C0 24.43 1.09375 25.5319 2.44531 25.5319H32.8516H37.5547C38.8984 25.5319 40 24.4378 40 23.0858V18.7719V2.44612C40 1.09411 38.9062 0 37.5547 0ZM38.1875 2.44612V17.8653H33.75V1.8131H37.5547C37.9062 1.8131 38.1875 2.09445 38.1875 2.44612ZM1.8125 23.0858V2.44612C1.8125 2.09445 2.09375 1.8131 2.44531 1.8131H31.9453V18.7719V23.7188H2.44531C2.09375 23.7188 1.8125 23.4375 1.8125 23.0858ZM38.1875 23.0858C38.1875 23.4375 37.9062 23.7188 37.5547 23.7188H33.75V19.6784H38.1875V23.0858Z" fill="black"/>
<path d="M35.9766 7.16643C36.4766 7.16643 36.8828 6.76005 36.8828 6.25988V5.53308C36.8828 5.03291 36.4766 4.62653 35.9766 4.62653C35.4766 4.62653 35.0703 5.03291 35.0703 5.53308V6.25988C35.0703 6.76005 35.4766 7.16643 35.9766 7.16643Z" fill="black"/>
<path d="M35.9766 11.1052C36.4766 11.1052 36.8828 10.6989 36.8828 10.1987V9.47189C36.8828 8.97172 36.4766 8.56534 35.9766 8.56534C35.4766 8.56534 35.0703 8.97172 35.0703 9.47189V10.1987C35.0703 10.6989 35.4766 11.1052 35.9766 11.1052Z" fill="black"/>
<path d="M35.9766 15.0441C36.4766 15.0441 36.8828 14.6377 36.8828 14.1375V13.4107C36.8828 12.9105 36.4766 12.5042 35.9766 12.5042C35.4766 12.5042 35.0703 12.9105 35.0703 13.4107V14.1375C35.0703 14.6377 35.4766 15.0441 35.9766 15.0441Z" fill="black"/>
</g>
<defs>
<clipPath id="clip0">
<rect width="40" height="25.5319" fill="white"/>
</clipPath>
</defs>
</svg>
