<svg width="29" height="40" viewBox="0 0 29 40" fill="none" xmlns="http://www.w3.org/2000/svg">
<rect x="1" y="1" width="26" height="38" fill="white"/>
<path d="M28.0061 7.12328C27.519 6.63622 26.9102 6.94063 26.9102 7.4277V38.4779C26.9102 38.6606 26.7884 38.7823 26.6058 38.7823H1.46119C1.27854 38.7823 1.15677 38.6606 1.15677 38.4779V34.7032C1.15677 34.6423 1.15677 34.6423 1.09589 34.5814C0.608828 34.1553 0 34.4597 0 35.0076V39.3912C0 39.7565 0.304414 40 0.608828 40H27.3973C27.7626 40 28.0061 39.6956 28.0061 39.3912V7.24505C28.0061 7.18417 28.0061 7.18417 28.0061 7.12328Z" fill="black"/>
<path d="M27.3973 0H0.608828C0.304414 0 0 0.304414 0 0.608828V28.6149C0 28.6758 0 28.6758 0.0608828 28.7367C0.547945 29.2237 1.15677 28.9193 1.15677 28.4323V1.46119C1.15677 1.27854 1.27854 1.15677 1.46119 1.15677H26.6058C26.7884 1.15677 26.9102 1.27854 26.9102 1.46119V5.23592C26.9102 5.2968 26.9102 5.2968 26.9711 5.35769C27.3973 5.84475 28.0061 5.47945 28.0061 4.99239V0.608828C28.0061 0.304414 27.7626 0 27.3973 0Z" fill="black"/>
<path d="M1.15677 32.5114V30.9893C1.15677 30.6849 0.913242 30.4414 0.669711 30.3805C0.304414 30.3196 0 30.624 0 30.9893V32.5723C0 32.9376 0.365297 33.242 0.730594 33.1202C0.974125 32.9985 1.15677 32.7549 1.15677 32.5114Z" fill="black"/>
<path d="M25.6925 37.0776V2.92237C25.6925 2.61795 25.4489 2.31354 25.0836 2.31354H2.9223C2.61789 2.31354 2.31348 2.55707 2.31348 2.92237V37.0776C2.31348 37.382 2.55701 37.6864 2.9223 37.6864H25.0836C25.4489 37.6256 25.6925 37.382 25.6925 37.0776ZM3.53113 3.53119H24.5357V36.4688H3.53113V3.53119Z" fill="black"/>
<path d="M14.0028 34.3988C17.7015 34.3988 20.6999 31.4004 20.6999 27.7017C20.6999 24.003 17.7015 21.0046 14.0028 21.0046C10.3041 21.0046 7.30566 24.003 7.30566 27.7017C7.30566 31.4004 10.3041 34.3988 14.0028 34.3988Z" fill="#FFE6B9"/>
<path d="M14.0635 20.3349C9.86256 20.3349 6.45312 23.7443 6.45312 27.9452C6.45312 32.1461 9.86256 35.5556 14.0635 35.5556C18.2644 35.5556 21.6738 32.1461 21.6738 27.9452C21.6738 23.7443 18.2644 20.3349 14.0635 20.3349ZM14.0635 34.3988C10.5323 34.3988 7.6099 31.5373 7.6099 27.9452C7.6099 24.3531 10.4714 21.4916 14.0635 21.4916C17.5947 21.4916 20.5171 24.3531 20.5171 27.9452C20.5171 31.5373 17.5947 34.3988 14.0635 34.3988Z" fill="black"/>
<path d="M14.0635 20.3349C9.86256 20.3349 6.45312 23.7443 6.45312 27.9452C6.45312 32.1461 9.86256 35.5556 14.0635 35.5556C18.2644 35.5556 21.6738 32.1461 21.6738 27.9452C21.6738 23.7443 18.2644 20.3349 14.0635 20.3349ZM14.0635 34.3988C10.5323 34.3988 7.6099 31.5373 7.6099 27.9452C7.6099 24.3531 10.4714 21.4916 14.0635 21.4916C17.5947 21.4916 20.5171 24.3531 20.5171 27.9452C20.5171 31.5373 17.5947 34.3988 14.0635 34.3988Z" fill="black"/>
<path d="M13.0285 26.1796V25.1446C13.0285 24.2922 12.4197 23.5617 11.5674 23.5008C10.5932 23.4399 9.80176 24.1705 9.80176 25.0837V26.1796C9.80176 27.032 10.4106 27.7626 11.2629 27.8235C12.2371 27.8843 13.0285 27.1537 13.0285 26.1796ZM11.8718 26.1796C11.8718 26.4231 11.6282 26.6667 11.3238 26.6058C11.1412 26.5449 10.9585 26.3623 10.9585 26.1796V25.1446C10.9585 24.962 11.0803 24.7184 11.3238 24.7184C11.6282 24.6575 11.8718 24.9011 11.8718 25.1446V26.1796Z" fill="black"/>
<path d="M14.9775 25.1446V26.1796C14.9775 27.032 15.5864 27.7626 16.4387 27.8234C17.4129 27.8843 18.2043 27.1537 18.2043 26.2405V25.1446C18.2043 24.2314 17.4129 23.4399 16.4387 23.5616C15.5864 23.5616 14.9775 24.2922 14.9775 25.1446ZM17.0476 26.1796C17.0476 26.4231 16.804 26.6667 16.4996 26.6058C16.317 26.5449 16.1343 26.3623 16.1343 26.1796V25.1446C16.1343 24.962 16.2561 24.7184 16.4996 24.7184C16.804 24.6575 17.0476 24.9011 17.0476 25.1446V26.1796Z" fill="black"/>
<path d="M12.4199 30.5023V30.7458C12.4199 31.5982 13.0287 32.3288 13.8811 32.3897C14.8552 32.4505 15.6467 31.72 15.6467 30.8067V30.5023C15.6467 29.5891 14.8552 28.7976 13.8811 28.9193C13.0287 28.9802 12.4199 29.7108 12.4199 30.5023ZM14.4291 30.8067C14.4291 31.0502 14.1855 31.2938 13.8811 31.2329C13.6985 31.172 13.5158 30.9894 13.5158 30.8067V30.5023C13.5158 30.3196 13.6376 30.0761 13.8811 30.0761C14.1855 30.0152 14.4291 30.2588 14.4291 30.5023V30.8067Z" fill="black"/>
<path d="M20.9437 5.72299H7.06238C6.39267 5.72299 5.84473 6.27094 5.84473 6.94065V16.621C5.84473 17.2907 6.39267 17.8387 7.06238 17.8387H20.9437C21.6134 17.8387 22.1613 17.2907 22.1613 16.621V6.94065C22.1613 6.27094 21.6134 5.72299 20.9437 5.72299ZM20.9437 16.621H7.06238C7.06238 16.621 7.0015 16.621 7.0015 16.5601V6.94065C7.0015 6.94065 7.0015 6.87977 7.06238 6.87977H20.9437C20.9437 6.87977 21.0045 6.87977 21.0045 6.94065L20.9437 16.621C21.0045 16.621 21.0045 16.621 20.9437 16.621Z" fill="black"/>
<path d="M20.9441 16.621H7.06284C7.06284 16.621 7.00195 16.621 7.00195 16.5601V6.94064C7.00195 6.94064 7.00195 6.87976 7.06284 6.87976H20.9441C20.9441 6.87976 21.005 6.87976 21.005 6.94064L20.9441 16.621C21.005 16.621 21.005 16.621 20.9441 16.621Z" fill="#C9F3FF"/>
<path d="M8.21875 7.97564V11.933C8.21875 12.2374 8.46228 12.481 8.70581 12.5418C9.07111 12.6027 9.37552 12.2983 9.37552 11.933V7.97564C9.37552 7.61034 9.01023 7.30592 8.64493 7.42769C8.4014 7.42769 8.21875 7.7321 8.21875 7.97564Z" fill="black"/>
<path d="M12.4807 7.4277H11.9937C11.2022 7.4277 10.4716 8.03653 10.4107 8.82801C10.3498 9.25419 10.4716 9.68037 10.776 10.0457C10.5325 10.3501 10.3498 10.7763 10.4107 11.2633C10.5325 12.0548 11.2022 12.6636 11.9937 12.6636H12.4807C13.2722 12.6636 14.0028 12.0548 14.0637 11.2633C14.1246 10.8371 14.0028 10.411 13.6984 10.0457C13.9419 9.74125 14.1246 9.31507 14.0637 8.82801C14.0028 7.97565 13.2722 7.4277 12.4807 7.4277ZM11.9328 8.52359H12.5416C12.6634 8.52359 12.846 8.58448 12.9069 8.70624C13.0896 9.01066 12.846 9.37595 12.5416 9.37595H11.9328C11.811 9.37595 11.6284 9.31507 11.5675 9.19331C11.3849 8.88889 11.6284 8.52359 11.9328 8.52359ZM12.5416 11.3851H11.9328C11.811 11.3851 11.6284 11.3242 11.5675 11.2024C11.3849 10.898 11.6284 10.5327 11.9328 10.5327H12.5416C12.6634 10.5327 12.846 10.5936 12.9069 10.7154C13.0896 11.0807 12.846 11.3851 12.5416 11.3851Z" fill="black"/>
<path d="M16.2558 12.6027H16.8646C17.717 12.6027 18.4476 11.8721 18.4476 11.0198V9.01066C18.4476 8.1583 17.717 7.4277 16.8646 7.4277H16.2558C15.4034 7.4277 14.6729 8.1583 14.6729 9.01066V11.0198C14.6729 11.8721 15.4034 12.6027 16.2558 12.6027ZM16.2558 8.58448H16.8646C17.1082 8.58448 17.2908 8.76713 17.2908 9.01066V11.0198C17.2908 11.2633 17.1082 11.446 16.8646 11.446H16.2558C16.0123 11.446 15.8296 11.2633 15.8296 11.0198V9.01066C15.8296 8.76713 16.0123 8.58448 16.2558 8.58448Z" fill="black"/>
<path d="M19.5438 13.1507C19.2394 12.968 18.9349 13.0898 18.7523 13.3333L18.2652 14.1857L17.8999 13.7595C17.6564 13.4551 17.2302 13.4551 16.9867 13.7595L16.6214 14.1857L16.1343 13.3333C15.9517 13.0289 15.5864 12.968 15.3429 13.1507C15.0993 13.3333 14.9776 13.6986 15.1602 13.9422L16.0734 15.5251C16.2561 15.8904 16.7432 15.8904 17.0476 15.586L17.4738 15.0381L17.8999 15.586C18.1435 15.8904 18.6305 15.8904 18.8741 15.5251L19.7873 13.9422C19.9091 13.6377 19.7873 13.2724 19.5438 13.1507Z" fill="black"/>
</svg>
