<svg width="26" height="40" viewBox="0 0 26 40" fill="none" xmlns="http://www.w3.org/2000/svg">
<g clip-path="url(#clip0)">
<path d="M22.2689 0H3.51454C1.57149 0 0 1.57149 0 3.51454V40H25.7835V3.51454C25.7835 1.57149 24.2059 0 22.2689 0ZM3.51454 2.34506H22.2628C22.9085 2.34506 23.4323 2.86889 23.4323 3.51454V32.9709H2.34506V3.51454C2.34506 2.86889 2.86889 2.34506 3.51454 2.34506ZM18.7483 35.316V37.661H7.02908V35.316H18.7483ZM2.34506 35.316H4.69012V37.661H2.34506V35.316ZM21.0933 37.661V35.316H23.4384V37.661H21.0933Z" fill="black"/>
<path d="M3.51421 2.34503H22.2625C22.9082 2.34503 23.432 2.86886 23.432 3.51452V32.9709H2.34473V3.51452C2.34473 2.86886 2.86856 2.34503 3.51421 2.34503Z" fill="#A0A0A0"/>
<path d="M12.8889 30.5893C16.1172 30.5893 18.7485 27.958 18.7485 24.7297C18.7485 22.878 17.8653 21.1421 16.4034 20.0457V8.22295C16.4034 6.38954 14.9111 4.75105 13.0838 4.65359C11.0555 4.54395 9.37436 6.15808 9.37436 8.16204V20.0396C7.9125 21.136 7.0293 22.878 7.0293 24.7236C7.0293 27.958 9.66064 30.5893 12.8889 30.5893ZM14.0645 8.23513V10.5497H11.7194V8.20468C11.7194 7.51639 12.3224 6.9621 13.029 7.04129C13.6259 7.10829 14.0645 7.63212 14.0645 8.23513ZM11.1347 21.7207L11.7194 21.3796V12.8887H14.0645V21.3796L14.6492 21.7207C15.7334 22.3481 16.4095 23.5176 16.4095 24.7663C16.4095 26.7032 14.8319 28.2808 12.895 28.2808C10.958 28.2808 9.38045 26.7032 9.38045 24.7663C9.37436 23.5176 10.0505 22.3481 11.1347 21.7207Z" fill="black"/>
<path d="M14.0638 8.23509V10.5497H11.7188V8.20463C11.7188 7.51634 12.3218 6.96206 13.0283 7.04124C13.6253 7.10824 14.0638 7.63207 14.0638 8.23509Z" fill="white"/>
<path d="M11.1341 21.7207L11.7189 21.3796V12.8887H14.064V21.3796L14.6487 21.7207C15.7329 22.3481 16.409 23.5176 16.409 24.7662C16.409 26.7032 14.8314 28.2808 12.8945 28.2808C10.9575 28.2808 9.37992 26.7032 9.37992 24.7662C9.37383 23.5176 10.0499 22.3481 11.1341 21.7207Z" fill="#FF0000"/>
</g>
<defs>
<clipPath id="clip0">
<rect width="25.7835" height="40" fill="white"/>
</clipPath>
</defs>
</svg>
