<svg width="30" height="40" viewBox="0 0 30 40" fill="none" xmlns="http://www.w3.org/2000/svg">
<g clip-path="url(#clip0)">
<path d="M26.6448 0H3.33879C1.50573 0 0 1.50573 0 3.33879V36.6612C0 38.4943 1.50573 40 3.33879 40H26.6448C28.4779 40 29.9836 38.4943 29.9836 36.6612V3.33879C29.9836 1.50573 28.4779 0 26.6448 0Z" fill="black"/>
<path d="M28.347 36.6612C28.347 37.5777 27.6269 38.2979 26.7103 38.2979H3.33881C2.42228 38.2979 1.70215 37.5777 1.70215 36.6612V3.33879C1.70215 2.42226 2.42228 1.70213 3.33881 1.70213H26.6449C27.5614 1.70213 28.2815 2.42226 28.2815 3.33879V36.6612H28.347Z" fill="white"/>
<path d="M20.033 19.0507V10.8674C20.033 10.4092 19.6402 10.0164 19.1819 10.0164H10.8677C10.4094 10.0164 10.0166 10.4092 10.0166 10.8674V27.4959C10.0166 27.9542 10.4094 28.347 10.8677 28.347H18.3308C18.5927 28.347 18.8546 28.216 18.9855 28.0196L21.4732 24.6809C21.6042 24.4845 21.6696 24.1571 21.6042 23.8953L20.033 19.0507Z" fill="black"/>
<path d="M19.7054 23.3061H13.8789L12.1768 20.0327H18.5925L19.7054 23.3061Z" fill="#F75632"/>
<path d="M11.6533 25.0082V22.7169L12.3735 24.0917L11.6533 25.0082Z" fill="#F2F2F2"/>
<path d="M11.6533 25.0082V22.7169L12.3735 24.0917L11.6533 25.0082Z" fill="#E33629"/>
<path d="M18.3309 11.653H11.6533V18.3306H18.3309V11.653Z" fill="#E33629"/>
<path d="M17.9386 26.6448H12.5049L13.7487 25.0082H19.1825L17.9386 26.6448Z" fill="#E6E6E6"/>
<path d="M17.9376 26.6448H12.5039L13.7478 25.0082H19.1815L17.9376 26.6448Z" fill="#C72E24"/>
<path d="M14.9921 6.61211C15.896 6.61211 16.6288 5.87935 16.6288 4.97544C16.6288 4.07154 15.896 3.33878 14.9921 3.33878C14.0882 3.33878 13.3555 4.07154 13.3555 4.97544C13.3555 5.87935 14.0882 6.61211 14.9921 6.61211Z" fill="black"/>
<path d="M14.9921 36.6612C15.896 36.6612 16.6288 35.9285 16.6288 35.0246C16.6288 34.1206 15.896 33.3879 14.9921 33.3879C14.0882 33.3879 13.3555 34.1206 13.3555 35.0246C13.3555 35.9285 14.0882 36.6612 14.9921 36.6612Z" fill="black"/>
</g>
<defs>
<clipPath id="clip0">
<rect width="29.9836" height="40" fill="white"/>
</clipPath>
</defs>
</svg>
