<svg width="40" height="31" viewBox="0 0 40 31" fill="none" xmlns="http://www.w3.org/2000/svg">
<path d="M35.302 0H4.69797C2.1075 0 0 2.10711 0 4.69695V19.4293V25.0198V29.0564C0 29.6316 0.46625 30.0979 1.04148 30.0979C1.61672 30.0979 2.08297 29.6316 2.08297 29.0564V26.0612H37.9172V29.0564C37.9172 29.6316 38.3834 30.0979 38.9587 30.0979C39.5339 30.0979 40 29.6316 40 29.0565V25.0198V19.4294V4.69695C40 2.10711 37.8925 0 35.302 0ZM4.69797 2.08297H35.302C36.7441 2.08297 37.9171 3.25563 37.9171 4.69703V12.3874C36.7807 11.349 35.269 10.7145 33.6117 10.7145H32.9504V8.47961C32.9504 6.92906 31.689 5.66766 30.1384 5.66766H21.7705C21.1 5.66766 20.4837 5.90398 20 6.29711C19.5163 5.90398 18.9 5.66766 18.2295 5.66766H9.86148C8.31094 5.66766 7.04953 6.92906 7.04953 8.47961V10.7145H6.38828C4.73102 10.7145 3.21945 11.3491 2.08289 12.3874V4.69703C2.08289 3.25563 3.25602 2.08297 4.69797 2.08297ZM9.1325 10.7145V8.47953C9.1325 8.0775 9.45953 7.75055 9.86148 7.75055H18.2295C18.6316 7.75055 18.9585 8.07758 18.9585 8.47953V10.7145H9.1325ZM21.0415 8.47953C21.0415 8.0775 21.3685 7.75055 21.7705 7.75055H30.1385C30.5405 7.75055 30.8675 8.07758 30.8675 8.47953V10.7145H21.0415V8.47953ZM2.08289 20.4708H4.10063C4.67578 20.4708 5.14211 20.0045 5.14211 19.4293C5.14211 18.8541 4.67586 18.3878 4.10063 18.3878H2.08289V17.1016C2.08289 14.7282 4.0143 12.7973 6.38828 12.7973H8.09102H20H31.909H33.6117C35.9857 12.7973 37.917 14.7283 37.917 17.1016V18.3878H11.3559C10.7808 18.3878 10.3145 18.8541 10.3145 19.4293C10.3145 20.0045 10.7807 20.4708 11.3559 20.4708H37.917V23.9784H2.08289V20.4708Z" fill="black"/>
</svg>
