<svg width="40" height="28" viewBox="0 0 40 28" fill="none" xmlns="http://www.w3.org/2000/svg">
<path d="M37.1919 15.8188V18.8609H28.0806V18.0812C28.0806 16.8316 29.0934 15.8188 30.343 15.8188H37.1919Z" fill="#DF4D60"/>
<path d="M21.872 9.54639H18.127V26.7701H21.872V9.54639Z" fill="#C0BFD4"/>
<path d="M11.9193 18.0812V18.8609H2.80817V15.8188H9.65699C10.9065 15.8188 11.9193 16.8317 11.9193 18.0812Z" fill="#DF4D60"/>
<path d="M30.8269 10.4826C31.3438 10.4826 31.7629 10.0636 31.7629 9.54661C31.7629 9.02966 31.3438 8.6106 30.8269 8.6106H21.872H18.127H9.17497C8.65809 8.6106 8.23895 9.02966 8.23895 9.54661C8.23895 10.0636 8.65809 10.4826 9.17497 10.4826H17.1911V26.7703C17.1911 27.2872 17.6103 27.7063 18.1272 27.7063H21.8721C22.389 27.7063 22.8082 27.2872 22.8082 26.7703V10.4826H30.8269ZM20.936 25.8343H19.063V10.4826H20.936V25.8343Z" fill="black"/>
<path d="M39.1807 0.00734472C38.6684 -0.0567959 38.1998 0.306251 38.1351 0.819141L38.0912 1.16859C38.0266 1.68156 38.3901 2.14961 38.903 2.21414C38.9427 2.21906 38.982 2.22156 39.0211 2.22156C39.4859 2.22156 39.8891 1.87555 39.9486 1.40234L39.9926 1.05289C40.0571 0.539922 39.6937 0.0718759 39.1807 0.00734472Z" fill="black"/>
<path d="M38.7837 3.16361C38.2707 3.09939 37.8028 3.46259 37.7382 3.97548L36.3662 14.8827H30.343C28.5793 14.8827 27.1446 16.3176 27.1446 18.0811V18.8608V26.7702C27.1446 27.2871 27.5637 27.7062 28.0806 27.7062C28.5975 27.7062 29.0166 27.2871 29.0166 26.7702V19.7968H36.2558V26.7702C36.2558 27.2871 36.6749 27.7062 37.1918 27.7062C37.7087 27.7062 38.1278 27.2871 38.1278 26.7702V18.8608V15.8774L39.5955 4.20923C39.6601 3.69627 39.2965 3.22822 38.7837 3.16361ZM30.343 16.7548H36.2558V17.9248H29.0258C29.1034 17.2668 29.6645 16.7548 30.343 16.7548Z" fill="black"/>
<path d="M9.65702 14.8828H3.63382L1.86484 0.819294C1.80047 0.306481 1.33289 -0.0571121 0.819294 0.00741911C0.306482 0.0719503 -0.0571121 0.539997 0.0074191 1.05297L1.87218 15.8775V18.8609V26.7702C1.87218 27.2872 2.29132 27.7062 2.8082 27.7062C3.32507 27.7062 3.74421 27.2872 3.74421 26.7702V19.7969H10.9834V26.7702C10.9834 27.2872 11.4025 27.7062 11.9194 27.7062C12.4362 27.7062 12.8554 27.2872 12.8554 26.7702V18.8609V18.0812C12.8554 16.3176 11.4206 14.8828 9.65702 14.8828ZM3.74421 17.9248V16.7548H9.65702C10.3355 16.7548 10.8966 17.2669 10.9742 17.9248H3.74421Z" fill="black"/>
</svg>
