<svg width="35" height="28" viewBox="0 0 35 28" fill="none" xmlns="http://www.w3.org/2000/svg">
<path d="M3.57902 21.5652C2.08185 21.5652 0.862305 20.3456 0.862305 18.8485V24.381C0.862305 25.6601 1.89347 26.6912 3.1725 26.6912C4.45154 26.6912 5.4827 25.6601 5.4827 24.381V21.5652H3.57902Z" fill="#999999"/>
<path d="M31.4008 21.5652H29.4971V24.381C29.4971 25.6601 30.5282 26.6912 31.8073 26.6912C33.0863 26.6912 34.1175 25.6601 34.1175 24.381V18.8485C34.1175 20.3456 32.8979 21.5652 31.4008 21.5652Z" fill="#999999"/>
<path d="M8.16967 11.4122H3.57902C2.08185 11.4122 0.862305 12.6317 0.862305 14.1289V18.8484C0.862305 20.3456 2.08185 21.5652 3.57902 21.5652H31.4005C32.8977 21.5652 34.1173 20.3456 34.1173 18.8484V14.1289C34.1173 12.6317 32.8977 11.4122 31.4005 11.4122H14.3269H8.16967Z" fill="#A82304"/>
<path d="M29.8143 7.71388H5.16553C5.16553 7.71388 7.34683 2.1813 7.67403 1.76487C8.11029 1.20963 8.78451 0.8626 9.54796 0.8626H25.4417C26.2647 0.8626 26.9885 1.27903 27.4148 1.90368C27.6825 2.29036 29.8143 7.71388 29.8143 7.71388Z" fill="#9CD4F2"/>
<path d="M32.4915 11.4122L29.6855 7.71391H5.03678L2.49854 11.4122H32.4915Z" fill="#EA1E03"/>
<path d="M5.94897 18.4816C7.04963 18.4816 7.94189 17.5893 7.94189 16.4887C7.94189 15.388 7.04963 14.4957 5.94897 14.4957C4.84831 14.4957 3.95605 15.388 3.95605 16.4887C3.95605 17.5893 4.84831 18.4816 5.94897 18.4816Z" fill="black"/>
<path d="M10.1827 17.6587C10.8288 17.6587 11.3526 17.1348 11.3526 16.4887C11.3526 15.8425 10.8288 15.3187 10.1827 15.3187C9.53651 15.3187 9.0127 15.8425 9.0127 16.4887C9.0127 17.1348 9.53651 17.6587 10.1827 17.6587Z" fill="black"/>
<path d="M29.0315 18.4816C30.1322 18.4816 31.0244 17.5893 31.0244 16.4887C31.0244 15.388 30.1322 14.4957 29.0315 14.4957C27.9308 14.4957 27.0386 15.388 27.0386 16.4887C27.0386 17.5893 27.9308 18.4816 29.0315 18.4816Z" fill="black"/>
<path d="M24.7974 17.6587C25.4436 17.6587 25.9674 17.1348 25.9674 16.4887C25.9674 15.8425 25.4436 15.3187 24.7974 15.3187C24.1513 15.3187 23.6274 15.8425 23.6274 16.4887C23.6274 17.1348 24.1513 17.6587 24.7974 17.6587Z" fill="black"/>
<path d="M34.9802 14.1289C34.9802 12.8399 34.296 11.7195 33.2748 11.0949C33.245 11.0255 33.2252 10.9561 33.1756 10.8966L31.5 8.68555H32.2734C33.0963 8.68555 33.7606 8.02125 33.7606 7.1983C33.7606 6.37535 33.0963 5.71105 32.2734 5.71105H31.3314C30.8654 5.71105 30.449 5.93909 30.1714 6.2762C29.289 4.04533 28.3569 1.75496 28.1289 1.42776C27.5241 0.535411 26.5127 0 25.4419 0H9.54816C8.54674 0 7.61473 0.446176 6.99009 1.22946C6.74221 1.53683 5.97875 3.31161 4.72946 6.46459C4.47167 6.0085 3.99575 5.70113 3.44051 5.70113H2.49858C1.67564 5.70113 1.01133 6.36544 1.01133 7.18839C1.01133 8.01133 1.67564 8.67564 2.49858 8.67564H3.32153L1.77479 10.9164C1.73513 10.966 1.72521 11.0255 1.70538 11.085C0.684136 11.7195 0 12.8399 0 14.1289V18.8484V24.381C0 26.136 1.42776 27.5637 3.18272 27.5637C4.93768 27.5637 6.36544 26.136 6.36544 24.381V22.4278H28.6346V24.381C28.6346 26.136 30.0623 27.5637 31.8173 27.5637C33.5722 27.5637 35 26.136 35 24.381V18.8484V14.1289H34.9802ZM8.34844 2.3102C8.64589 1.94334 9.08215 1.73513 9.54816 1.73513H25.4419C25.9476 1.73513 26.4136 1.983 26.6813 2.36969C26.8399 2.65722 27.6827 4.69972 28.5354 6.84136H6.44476C7.31728 4.66997 8.17989 2.58782 8.34844 2.3102ZM4.6204 24.381C4.6204 25.1742 3.97592 25.8286 3.1728 25.8286C2.36969 25.8286 1.72521 25.1841 1.72521 24.381V21.9122C1.86402 22.0014 2.01275 22.0708 2.17139 22.1402C2.19122 22.1501 2.21105 22.1501 2.24079 22.1601C2.40935 22.2295 2.58782 22.289 2.7762 22.3286C2.82578 22.3385 2.88527 22.3484 2.93484 22.3584C3.14306 22.398 3.36119 22.4278 3.57932 22.4278H4.6204V24.381ZM6.35552 20.6926H3.57932C3.45042 20.6926 3.33144 20.6827 3.20255 20.653C2.35977 20.4844 1.72521 19.7309 1.72521 18.8385V14.119C1.72521 13.0977 2.55807 12.2748 3.56941 12.2748H8.15014C8.62606 12.2748 9.02266 11.8881 9.02266 11.4023C9.02266 10.9164 8.63598 10.5297 8.15014 10.5297H4.14448L5.49292 8.56657H29.2493L30.7365 10.5297H14.3371C13.8612 10.5297 13.4646 10.9164 13.4646 11.4023C13.4646 11.8881 13.8513 12.2748 14.3371 12.2748H31.4009C32.4221 12.2748 33.245 13.1076 33.245 14.119V18.8385C33.245 19.7309 32.6105 20.4745 31.7677 20.653C31.6487 20.6728 31.5198 20.6926 31.3909 20.6926H28.6147H6.35552ZM33.245 24.381C33.245 25.1742 32.6006 25.8286 31.7975 25.8286C30.9943 25.8286 30.3499 25.1841 30.3499 24.381V22.4278H31.3909C31.6091 22.4278 31.8272 22.398 32.0354 22.3584C32.0949 22.3484 32.1445 22.3385 32.1941 22.3286C32.3824 22.289 32.5609 22.2295 32.7295 22.1601C32.7493 22.1501 32.7691 22.1501 32.789 22.1402C32.9377 22.0708 33.0864 22.0014 33.2351 21.9122V24.381H33.245Z" fill="black"/>
<path d="M11.7095 10.5397H10.7675C10.2916 10.5397 9.89502 10.9263 9.89502 11.4122C9.89502 11.898 10.2817 12.2847 10.7675 12.2847H11.7095C12.1854 12.2847 12.582 11.898 12.582 11.4122C12.582 10.9263 12.1854 10.5397 11.7095 10.5397Z" fill="black"/>
<path d="M5.94897 14.4957C4.84841 14.4957 3.95605 15.3881 3.95605 16.4887C3.95605 17.5892 4.84841 18.4816 5.94897 18.4816C7.04954 18.4816 7.94189 17.5892 7.94189 16.4887C7.95181 15.3881 7.04954 14.4957 5.94897 14.4957Z" fill="black"/>
<path d="M10.1827 15.3187C9.53819 15.3187 9.0127 15.8442 9.0127 16.4887C9.0127 17.1332 9.53819 17.6587 10.1827 17.6587C10.8271 17.6587 11.3526 17.1332 11.3526 16.4887C11.3626 15.8343 10.8371 15.3187 10.1827 15.3187Z" fill="black"/>
<path d="M29.0315 14.4957C27.9309 14.4957 27.0386 15.3881 27.0386 16.4887C27.0386 17.5892 27.9309 18.4816 29.0315 18.4816C30.1321 18.4816 31.0244 17.5892 31.0244 16.4887C31.0244 15.3881 30.1321 14.4957 29.0315 14.4957Z" fill="black"/>
<path d="M24.7974 15.3187C24.1529 15.3187 23.6274 15.8442 23.6274 16.4887C23.6274 17.1332 24.1529 17.6587 24.7974 17.6587C25.4419 17.6587 25.9674 17.1332 25.9674 16.4887C25.9674 15.8343 25.4419 15.3187 24.7974 15.3187Z" fill="black"/>
</svg>
