<svg width="40" height="27" viewBox="0 0 40 27" fill="none" xmlns="http://www.w3.org/2000/svg">
<path d="M14.1558 9.22328H17.2455H33.7388V12.7934V18.0939V19.8877C33.7388 22.8593 31.3302 25.2679 28.3586 25.2679H11.6415C8.66982 25.2679 6.26123 22.8593 6.26123 19.8877V18.0939V12.7934V9.22328H10.7124H13.8992H14.1558Z" fill="#B3B3B3"/>
<path d="M6.26123 9.22325C6.26123 6.56966 8.41232 4.4195 11.065 4.4195H20H28.935C31.5886 4.4195 33.7387 6.56966 33.7387 9.22325H17.2455H14.1558H13.8993H10.7125H6.26123Z" fill="#666666"/>
<path d="M38.9423 12.8904C38.2602 12.2084 37.3537 11.8327 36.3895 11.8327H34.6995V10.1841H35.9168C36.4473 10.1841 36.8776 9.75383 36.8776 9.22328C36.8776 8.69273 36.4473 8.2625 35.9168 8.2625H34.618C34.159 5.53984 31.7862 3.45875 28.935 3.45875H20.9608V0.960781C20.9608 0.430234 20.5305 0 20 0C19.4695 0 19.0392 0.430234 19.0392 0.960781V3.45875H11.065C8.21391 3.45875 5.84102 5.53984 5.38203 8.2625H4.08414C3.55359 8.2625 3.12336 8.69273 3.12336 9.22328C3.12336 9.75383 3.55359 10.1841 4.08414 10.1841H5.30047V11.8327H3.61055C1.61961 11.8327 0 13.4527 0 15.4442C0 16.4084 0.375625 17.315 1.05766 17.997C1.73969 18.6791 2.64633 19.0547 3.61047 19.0547H5.30047V19.8877C5.30047 23.3841 8.145 26.2286 11.6414 26.2286H28.3585C31.855 26.2286 34.6995 23.3841 34.6995 19.8877V19.0547H36.3895C38.3803 19.0547 40 17.4351 40 15.4441C40 14.4794 39.6244 13.5724 38.9423 12.8904ZM2.41641 16.6383C2.09727 16.3191 1.92148 15.8951 1.92148 15.4441C1.92148 14.5123 2.67922 13.7541 3.61047 13.7541H5.30047V17.1331H3.61055C3.15961 17.1332 2.73555 16.9575 2.41641 16.6383ZM32.778 19.8877C32.778 22.3245 30.7955 24.3071 28.3586 24.3071H11.6415C9.20461 24.3071 7.22203 22.3245 7.22203 19.8877V18.0939V12.7934V10.1841H10.7124C11.243 10.1841 11.6732 9.75383 11.6732 9.22328C11.6732 8.69273 11.243 8.2625 10.7124 8.2625H7.34367C7.77141 6.6068 9.27766 5.38023 11.0651 5.38023H28.9351C30.7225 5.38023 32.2287 6.6068 32.6565 8.2625H17.2455C16.715 8.2625 16.2848 8.69273 16.2848 9.22328C16.2848 9.75383 16.715 10.1841 17.2455 10.1841H32.778V12.7934V18.0939V19.8877ZM36.3895 17.1332H34.6995V13.7542H36.3895C36.8403 13.7542 37.2644 13.9299 37.5836 14.2491C37.9027 14.5682 38.0785 14.9927 38.0785 15.4441C38.0785 16.3755 37.3208 17.1332 36.3895 17.1332Z" fill="black"/>
<path d="M14.1557 8.26256H13.8993C13.3687 8.26256 12.9385 8.69279 12.9385 9.22334C12.9385 9.75389 13.3687 10.1841 13.8993 10.1841H14.1557C14.6863 10.1841 15.1165 9.75389 15.1165 9.22334C15.1165 8.69279 14.6863 8.26256 14.1557 8.26256Z" fill="black"/>
</svg>
