<svg width="40" height="23" viewBox="0 0 40 23" fill="none" xmlns="http://www.w3.org/2000/svg">
<path d="M36.3956 17.7098V19.6095C36.3956 20.232 36.1435 20.7963 35.7346 21.2041C35.3268 21.613 34.7624 21.8652 34.14 21.8652C32.8932 21.8652 31.8833 20.8553 31.8833 19.6095V17.7098H36.3956V17.7098Z" fill="#6E5B3F"/>
<path d="M35.6658 4.61415V9.12446C34.7434 9.77532 34.1404 10.8492 34.1404 12.0635V12.872H20.0308V1.01704H32.0688C34.0549 1.01704 35.6658 2.62798 35.6658 4.61415Z" fill="#A3875E"/>
<path d="M4.36449 9.14578C5.26957 9.79867 5.85949 10.8624 5.85949 12.0635V12.872H19.9996H20.0301H34.1397V12.0635C34.1397 10.8492 34.7428 9.77531 35.6652 9.12445C36.25 8.71156 36.9639 8.46953 37.7327 8.46953H38.9825V15.1227C38.9825 15.8366 38.6927 16.4834 38.2249 16.9522C37.7561 17.42 37.1093 17.7098 36.3953 17.7098H31.883H8.11613H3.60379C2.17496 17.7098 1.0166 16.5515 1.0166 15.1227V8.46953H2.26645C3.04949 8.46953 3.77465 8.7207 4.36449 9.14578Z" fill="#6E5B3F"/>
<path d="M19.9994 1.01704V12.872H5.85926V12.0635C5.85926 10.8624 5.26941 9.79868 4.36426 9.14579V4.61415C4.36426 2.62798 5.97418 1.01704 7.96137 1.01704H19.9994Z" fill="#A3875E"/>
<path d="M8.11684 17.7098V19.6095C8.11684 20.232 7.86465 20.7963 7.45582 21.2041C7.04801 21.613 6.48356 21.8652 5.8602 21.8652C4.61441 21.8652 3.60449 20.8553 3.60449 19.6095V17.7098H8.11684V17.7098Z" fill="#6E5B3F"/>
<path d="M38.983 7.4525H37.7332C37.3759 7.4525 37.024 7.4932 36.6827 7.57258V4.61406C36.6827 2.06977 34.6128 0 32.0686 0H20.0305C20.0254 0 20.0205 0.000703292 20.0153 0.000781417C20.0102 0.000703292 20.0052 0 20.0001 0H7.96195C5.41773 0 3.34789 2.06984 3.34789 4.61406V7.57977C2.99727 7.49555 2.63508 7.45242 2.26688 7.45242H1.01695C0.455312 7.4525 0 7.90789 0 8.46953V15.1227C0 16.7569 1.09367 18.1396 2.58719 18.5797V19.6096C2.58719 21.4141 4.05531 22.8823 5.85984 22.8823C6.7357 22.8823 7.55813 22.5414 8.17367 21.9243C8.79258 21.307 9.13352 20.4849 9.13352 19.6096V18.7269H30.8665V19.6097C30.8665 21.4142 32.335 22.8823 34.1402 22.8823C35.0152 22.8823 35.8373 22.5415 36.453 21.9244C37.0719 21.307 37.4128 20.485 37.4128 19.6097V18.5813C37.985 18.4137 38.5102 18.1048 38.9453 17.6707C39.6255 16.989 40 16.0841 40 15.1227V8.46961C40 7.90789 39.5447 7.4525 38.983 7.4525ZM32.0685 2.03406C33.4912 2.03406 34.6486 3.19148 34.6486 4.61414V8.63836C33.7363 9.46164 33.1839 10.6209 33.1278 11.8551H21.0475V2.03406H32.0685ZM7.09953 19.6095C7.09953 19.9405 6.97086 20.2512 6.73547 20.4859C6.50234 20.7195 6.19141 20.8482 5.85984 20.8482C5.17687 20.8482 4.62117 20.2925 4.62117 19.6095V18.7268H7.09953V19.6095ZM35.3788 19.6095C35.3788 19.9405 35.2502 20.2512 35.0148 20.4859C34.7817 20.7195 34.4711 20.8482 34.1402 20.8482C33.4566 20.8482 32.9005 20.2925 32.9005 19.6095V18.7268H35.3788V19.6095ZM37.966 15.1226C37.966 15.5415 37.8025 15.9362 37.507 16.2322C37.2094 16.5291 36.8148 16.6927 36.3958 16.6927H31.8834H8.11656H3.60422C2.73836 16.6927 2.03398 15.9883 2.03398 15.1225V9.48648H2.26688C2.81078 9.48648 3.33063 9.65391 3.77 9.97055C4.4418 10.4552 4.84289 11.2376 4.84289 12.0635V12.872C4.84289 13.4336 5.2982 13.889 5.85984 13.889H7.51648C8.0782 13.889 8.53344 13.4336 8.53344 12.872C8.53344 12.3105 8.07812 11.8551 7.51648 11.8551H6.87203C6.81641 10.6368 6.27516 9.48766 5.38188 8.66594V4.61414C5.38188 3.19148 6.5393 2.03406 7.96195 2.03406H18.983V11.8551H13.7201C13.1584 11.8551 12.7031 12.3105 12.7031 12.872C12.7031 13.4336 13.1584 13.889 13.7201 13.889H34.1401C34.7018 13.889 35.157 13.4336 35.157 12.872V12.0635C35.157 11.2271 35.5662 10.4391 36.2521 9.95523C36.6865 9.64859 37.1985 9.48664 37.7331 9.48664H37.966V15.1227V15.1226Z" fill="black"/>
<path d="M10.8975 11.855H10.389C9.82738 11.855 9.37207 12.3104 9.37207 12.872C9.37207 13.4335 9.82738 13.8889 10.389 13.8889H10.8975C11.4593 13.8889 11.9145 13.4335 11.9145 12.872C11.9145 12.3104 11.4592 11.855 10.8975 11.855Z" fill="black"/>
</svg>
