<svg width="40" height="25" viewBox="0 0 40 25" fill="none" xmlns="http://www.w3.org/2000/svg">
<path d="M39.1249 2.2757V4.37632H37.3079H23.8952H6.23564H2.69252H0.875488V2.2757C0.875488 1.50195 1.50221 0.875229 2.27596 0.875229H37.7246C38.4982 0.875229 39.1249 1.50195 39.1249 2.2757Z" fill="#A3875E"/>
<path d="M37.3077 20.1689V23.3943H23.895V20.1689H26.5453H26.6959H29.1685H37.3077Z" fill="#A3875E"/>
<path d="M37.3077 12.2722V20.1689H29.1685H26.6959H26.5453H23.895V12.2722H37.3077Z" fill="#DBB67E"/>
<path d="M37.3077 4.37633H23.895V12.2722H37.3077V4.37633Z" fill="#DBB67E"/>
<path d="M6.23551 4.37633H2.69238V23.3943H6.23551V4.37633Z" fill="#6E5B3F"/>
<path d="M37.7243 0H2.2757C1.02094 0 0 1.02078 0 2.2757V4.37633C0 4.85969 0.391875 5.25164 0.875313 5.25164H1.81711V23.3943C1.81711 23.8777 2.20898 24.2695 2.69242 24.2695H6.23555C6.71898 24.2695 7.11078 23.8776 7.11078 23.3943V5.25164H23.0198V12.2722V20.1689V23.3943C23.0198 23.8777 23.4116 24.2695 23.8951 24.2695H37.3077C37.7912 24.2695 38.183 23.8776 38.183 23.3943V20.1689V12.2722V5.25164H39.1248C39.6082 5.25164 40 4.85969 40 4.37641V2.27578C40 1.02078 38.9791 0 37.7243 0ZM5.36016 22.519H3.56758V5.25164H5.36016V22.519ZM36.4324 11.3969H24.7702V5.25156H36.4323V11.3969H36.4324ZM24.7702 22.519V20.1689V13.1475H36.4323V19.2937H29.1684C28.685 19.2937 28.2931 19.6856 28.2931 20.1689C28.2931 20.6522 28.685 21.0441 29.1684 21.0441H36.4323V22.519H24.7702ZM38.2495 3.50109H37.3077H23.895H6.23547H2.69234H1.75055V2.2757C1.75055 1.98609 1.98609 1.75055 2.2757 1.75055H37.7243C38.0139 1.75055 38.2495 1.98609 38.2495 2.2757V3.50109Z" fill="black"/>
<path d="M30.0437 9.19907H31.1588C31.6422 9.19907 32.034 8.80711 32.034 8.32375C32.034 7.84039 31.6421 7.44844 31.1588 7.44844H30.0437C29.5603 7.44844 29.1685 7.84039 29.1685 8.32375C29.1685 8.80719 29.5603 9.19907 30.0437 9.19907Z" fill="black"/>
<path d="M26.6957 19.2936H26.5452C26.0617 19.2936 25.6699 19.6855 25.6699 20.1688C25.6699 20.6521 26.0618 21.0441 26.5452 21.0441H26.6957C27.1791 21.0441 27.5709 20.6521 27.5709 20.1688C27.5709 19.6855 27.1791 19.2936 26.6957 19.2936Z" fill="black"/>
<path d="M30.0437 17.0958H31.1588C31.6422 17.0958 32.034 16.7038 32.034 16.2205C32.034 15.7372 31.6421 15.3452 31.1588 15.3452H30.0437C29.5603 15.3452 29.1685 15.7372 29.1685 16.2205C29.1685 16.7038 29.5603 17.0958 30.0437 17.0958Z" fill="black"/>
</svg>
