<svg width="21" height="35" viewBox="0 0 21 35" fill="none" xmlns="http://www.w3.org/2000/svg">
<path d="M18.3131 0.722984C19.099 0.722984 19.7368 1.35996 19.7368 2.14664V32.8533C19.7368 33.64 19.099 34.277 18.3131 34.277H17.9212C17.1353 34.277 16.4976 33.64 16.4976 32.8533V30.2649V25.1589V20.053V14.947V9.84096V4.735V2.14657C16.4976 1.35989 17.1353 0.722916 17.9212 0.722916C17.9212 0.722984 18.3131 0.722984 18.3131 0.722984Z" fill="#A3875E"/>
<path d="M2.53821 0.72303C3.32414 0.72303 3.96187 1.36 3.96187 2.14668V4.73511V9.84108V14.947V20.053V25.159V30.2649V32.8534C3.96187 33.6401 3.32414 34.277 2.53821 34.277H2.14631C1.36038 34.277 0.722656 33.6401 0.722656 32.8534V2.14661C0.722656 1.35993 1.36038 0.722961 2.14631 0.722961H2.53821V0.72303Z" fill="#A3875E"/>
<path d="M18.3134 0H17.9215C16.7379 0 15.775 0.962978 15.775 2.14662V4.01201H4.68515V2.14662C4.68515 0.962978 3.72217 0 2.53853 0H2.14662C0.96291 0 0 0.962978 0 2.14662V32.8533C0 34.037 0.962978 34.9999 2.14662 34.9999H2.53853C3.72217 34.9999 4.68515 34.037 4.68515 32.8533V30.988H15.7748V32.8534C15.7748 34.037 16.7377 35 17.9214 35H18.3133C19.4969 35 20.4599 34.037 20.4599 32.8534V2.14662C20.46 0.962978 19.497 0 18.3134 0ZM15.7749 19.33H4.68515V15.67H15.7748V19.33H15.7749ZM4.68515 20.776H15.7748V24.4359H4.68515V20.776ZM15.7749 5.45809V9.11805H15.1949C14.7957 9.11805 14.4719 9.4418 14.4719 9.84108C14.4719 10.2403 14.7956 10.5641 15.1949 10.5641H15.7749V14.2241H4.68515V10.5641H10.6876C11.0869 10.5641 11.4107 10.2404 11.4107 9.84108C11.4107 9.44186 11.0869 9.11805 10.6876 9.11805H4.68515V5.45809H15.7749ZM3.23914 32.8534C3.23914 33.2397 2.92482 33.554 2.53853 33.554H2.14662C1.76032 33.554 1.44601 33.2397 1.44601 32.8534V2.14662C1.44601 1.76025 1.76032 1.44601 2.14662 1.44601H2.53853C2.92482 1.44601 3.23914 1.76032 3.23914 2.14662V32.8534ZM4.68515 29.5419V25.882H15.7748V29.5419H4.68515ZM19.014 32.8534C19.014 33.2397 18.6997 33.554 18.3134 33.554H17.9215C17.5352 33.554 17.221 33.2397 17.221 32.8534V2.14662C17.221 1.76025 17.5353 1.44601 17.9215 1.44601H18.3134C18.6998 1.44601 19.014 1.76032 19.014 2.14662V32.8534Z" fill="black"/>
<path d="M12.809 10.5641H13.0982C13.4974 10.5641 13.8212 10.2403 13.8212 9.84102C13.8212 9.4418 13.4975 9.11798 13.0982 9.11798H12.809C12.4098 9.11798 12.0859 9.44173 12.0859 9.84102C12.0859 10.2403 12.4097 10.5641 12.809 10.5641Z" fill="black"/>
</svg>
