<?xml version="1.0" encoding="utf-8"?>
<!-- Generator: Adobe Illustrator 24.0.1, SVG Export Plug-In . SVG Version: 6.00 Build 0)  -->
<svg version="1.1" id="Layer_1" xmlns="http://www.w3.org/2000/svg" xmlns:xlink="http://www.w3.org/1999/xlink" x="0px" y="0px"
	 viewBox="0 0 668 357" style="enable-background:new 0 0 668 357;" xml:space="preserve">
<style type="text/css">
	.st0{fill:#FFFFFF;}
</style>
<g id="background-bathroom">
	<g>
		<path class="st0" d="M527.5,222.7h-3.7c-0.8,0-1.5-0.6-1.5-1.4l-0.9-16.4h-0.7c-0.8,0-1.5-0.7-1.5-1.5V194c0-0.8,0.7-1.5,1.5-1.5
			h9.5c0.8,0,1.5,0.7,1.5,1.5v9.5c0,0.8-0.7,1.5-1.5,1.5h-0.6l-0.6,16.3C528.9,222.1,528.3,222.7,527.5,222.7z M525.2,219.7h0.8
			l0.6-16.3c0-0.8,0.7-1.4,1.5-1.4h0.6v-6.5h-6.5v6.5h0.6c0.8,0,1.5,0.6,1.5,1.4L525.2,219.7z"/>
	</g>
	<g>
		<path class="st0" d="M535,232.4c-0.3,0-0.7-0.1-1-0.3c-0.3-0.3-0.5-0.7-0.5-1.2v-40.7c0-0.8,0.7-1.5,1.5-1.5h9.4
			c0.8,0,1.5,0.7,1.5,1.5v5.5h17.3c0.8,0,1.5,0.7,1.5,1.5v4.8c0,0.7-0.5,1.4-1.2,1.5v0.8c0,0.8-0.7,1.5-1.5,1.5h-5
			c-0.8,0-1.5-0.7-1.5-1.5v-0.8h-9.5v25.6c0,0.7-0.5,1.3-1.2,1.5c-3.1,0.6-6.2,1.2-9.4,1.8C535.1,232.4,535,232.4,535,232.4z
			 M536.5,191.7v37.4c2.2-0.4,4.3-0.8,6.4-1.2V202c0-0.8,0.7-1.5,1.5-1.5h12.5c0.8,0,1.5,0.7,1.5,1.5v0.8h2V202
			c0-0.7,0.5-1.4,1.2-1.5v-1.9h-17.3c-0.8,0-1.5-0.7-1.5-1.5v-5.5H536.5z"/>
	</g>
	<g>
		<path class="st0" d="M577.8,308.7H457c-28.2,0-67.6-25.1-67.6-66c0-0.8,0.7-1.5,1.5-1.5c70.1,0,110.6-5.6,143.9-11.7
			c3.2-0.6,6.3-1.2,9.4-1.7c2.3-0.4,4.6-0.9,6.9-1.3c28.5-5.5,53.1-10.2,92.4-10.2c0.4,0,0.8,0.2,1.1,0.5c0.3,0.3,0.4,0.7,0.4,1.1
			c-1.4,26.2-8,48.5-19.2,64.6C613.7,299.6,597.2,308.7,577.8,308.7z M392.3,244.2c0.9,38.2,38,61.5,64.6,61.5h120.8
			c18.4,0,34.1-8.6,45.4-25c10.7-15.3,17.1-36.6,18.6-61.5c-38.1,0.1-62.3,4.8-90.3,10.1c-2.3,0.4-4.6,0.9-6.9,1.3
			c-3.1,0.6-6.2,1.2-9.4,1.8C502,238.5,461.8,244.1,392.3,244.2z"/>
	</g>
	<g>
		<path class="st0" d="M252.4,143.4H79.8c-0.8,0-1.5-0.7-1.5-1.5V37.7c0-0.8,0.7-1.5,1.5-1.5h172.6c0.8,0,1.5,0.7,1.5,1.5v104.2
			C253.9,142.7,253.3,143.4,252.4,143.4z M81.3,140.4h169.6V39.2H81.3V140.4z"/>
	</g>
	<g>
		<path class="st0" d="M245.4,137H85.1c-0.8,0-1.5-0.7-1.5-1.5V44.4c0-0.8,0.7-1.5,1.5-1.5h160.3c0.8,0,1.5,0.7,1.5,1.5v91.1
			C246.9,136.3,246.2,137,245.4,137z M86.6,134h157.3V45.9H86.6V134z"/>
	</g>
	<g>
		<path class="st0" d="M240.6,132.5H89.8c-0.8,0-1.5-0.7-1.5-1.5V48.6c0-0.8,0.7-1.5,1.5-1.5h150.8c0.8,0,1.5,0.7,1.5,1.5V131
			C242.1,131.8,241.4,132.5,240.6,132.5z M91.3,129.5h147.8V50.1H91.3V129.5z"/>
	</g>
	<g>
		<path class="st0" d="M34.5,155.6c-0.4,0-0.7-0.1-1-0.4c-3.9-3.5-6.1-8.5-6.1-13.8c0-7.8,4.8-14.6,12-17.3v-6.6
			c0-0.8,0.7-1.5,1.5-1.5h9.9c0.8,0,1.5,0.7,1.5,1.5v6.6c7.2,2.7,12,9.5,12,17.3c0,4.6-1.7,9.1-4.9,12.5c-0.3,0.4-0.8,0.5-1.3,0.5
			c-0.5-0.1-0.9-0.4-1.1-0.8c-0.6-1.2-1.3-2.2-1.9-2.9c-0.5-0.5-0.5-1.4-0.1-1.9c1.7-2.1,2.6-4.6,2.6-7.4c0-4.1-2-7.7-5.3-9.9v3.2
			c0,0.8-0.7,1.5-1.5,1.5h-9.9c-0.8,0-1.5-0.7-1.5-1.5v-3.2c-3.3,2.1-5.3,5.8-5.3,9.9c0,2.9,1,5.6,2.9,7.7c0.4,0.4,0.5,1.1,0.2,1.6
			c-0.4,0.9-0.8,2.1-1.2,3.7c-0.1,0.5-0.5,0.9-1,1C34.8,155.6,34.6,155.6,34.5,155.6z M42.4,119v6.1c0,0.7-0.4,1.2-1.1,1.4
			c-6.6,2-11,8-11,14.8c0,3.6,1.2,7,3.4,9.7c0.1-0.3,0.2-0.5,0.3-0.8c-2-2.6-3-5.7-3-9c0-6.1,3.6-11.5,9.3-13.7
			c0.5-0.2,1-0.1,1.4,0.1c0.4,0.3,0.7,0.7,0.7,1.2v4.2h6.9v-4.2c0-0.5,0.2-1,0.7-1.2c0.4-0.3,0.9-0.3,1.4-0.1
			c5.6,2.3,9.3,7.6,9.3,13.7c0,3-0.9,5.8-2.5,8.2c0.1,0.2,0.3,0.4,0.4,0.6c1.8-2.6,2.8-5.7,2.8-8.9c0-6.7-4.5-12.8-10.9-14.8
			c-0.6-0.2-1.1-0.8-1.1-1.4V119H42.4z"/>
	</g>
	<g>
		<g>
			<path class="st0" d="M66.2,173.4c-1.3-6.6-3.6-15.6-6.5-21.2c-0.8-1.5-1.5-2.6-2.3-3.5c-1.2-1.4-2.6-2.1-3.9-2.2
				c-0.1,0-0.1,0-0.1,0c-1.6,0-2.8,0.2-4,0.4c-1.3,0.2-2.7,0.5-4.7,0.5c-0.3,0-1-0.2-1.6-0.3c-1.1-0.3-2.5-0.6-3.8-0.6
				c-2.4,0-3.6,1.2-4.2,2.1c-0.2,0.3-0.4,0.6-0.5,1c-0.4,1-0.9,2.4-1.4,4.2c-0.8,3-1.4,6.5-1.4,8.2c0,10.6-1.9,18.6-4,27.8
				c-0.9,3.8-1.8,7.8-2.7,12.4c-0.1,0.8,0.3,1.5,1,1.7c4.5,1.4,14.1,2.6,20.8,2.6c1,0,2,0,2.8-0.1v-3c-0.8,0.1-1.7,0.1-2.8,0.1
				c-6.4,0-14.3-1-18.6-2.1c0.8-3.9,1.6-7.5,2.4-10.9c2.2-9.4,4.1-17.5,4.1-28.5c0-1.2,0.5-4.4,1.3-7.4c0.4-1.6,0.8-2.8,1.2-3.7
				c0.1-0.2,0.2-0.5,0.3-0.6c0.2-0.4,0.6-0.7,1.6-0.7c0.9,0,2,0.3,3,0.5c0.9,0.2,1.7,0.4,2.4,0.4c2.2,0,3.8-0.3,5.2-0.5
				c1.2-0.2,2.2-0.4,3.4-0.4c0.7,0.1,1.4,0.7,1.9,1.2c0.6,0.7,1.3,1.7,1.9,2.9c2.8,5.3,4.9,14,6.2,20.4c0.1,0.5,0.2,0.9,0.3,1.4h3
				C66.4,174.8,66.3,174.1,66.2,173.4z"/>
		</g>
	</g>
	<g>
		<path class="st0" d="M155.4,189.9h-9.3c-0.8,0-1.5-0.7-1.5-1.5v-36c0-0.8,0.7-1.5,1.5-1.5h9.3c0.8,0,1.5,0.7,1.5,1.5v5.4H174
			c0.8,0,1.5,0.7,1.5,1.5v4.8c0,0.7-0.5,1.3-1.2,1.5v0.8c0,0.8-0.7,1.5-1.5,1.5h-5c-0.8,0-1.5-0.7-1.5-1.5v-0.8h-9.4v22.8
			C156.9,189.2,156.3,189.9,155.4,189.9z M147.6,186.9h6.3v-22.8c0-0.8,0.7-1.5,1.5-1.5h12.4c0.8,0,1.5,0.7,1.5,1.5v0.8h2v-0.8
			c0-0.7,0.5-1.3,1.2-1.5v-1.8h-17.1c-0.8,0-1.5-0.7-1.5-1.5v-5.4h-6.3V186.9z"/>
	</g>
	<g>
		<path class="st0" d="M202.4,211.3h-64.2c-0.2,0-0.4,0-0.6-0.1c-11.9-5.6-18.8-13.9-18.8-22.8c0-0.8,0.7-1.5,1.5-1.5h100
			c0.8,0,1.5,0.7,1.5,1.5c0,8.9-6.8,17.2-18.8,22.8C202.8,211.3,202.6,211.3,202.4,211.3z M138.5,208.3h63.6
			c9.9-4.7,15.9-11.4,16.7-18.4h-96.9C122.6,197,128.5,203.6,138.5,208.3z"/>
	</g>
	<g>
		<path class="st0" d="M286.4,223.5H45.8c-0.8,0-1.5-0.7-1.5-1.5v-12.2c0-0.8,0.7-1.5,1.5-1.5h240.6c0.8,0,1.5,0.7,1.5,1.5V222
			C287.9,222.9,287.2,223.5,286.4,223.5z M47.3,220.5h237.6v-9.2H47.3V220.5z"/>
	</g>
	<g>
		<path class="st0" d="M283.6,331.3h-234c-0.8,0-1.5-0.7-1.5-1.5V222c0-0.8,0.7-1.5,1.5-1.5h234c0.8,0,1.5,0.7,1.5,1.5v107.7
			C285.1,330.6,284.4,331.3,283.6,331.3z M51.1,328.3h231V223.5h-231V328.3z"/>
	</g>
	<g>
		<path class="st0" d="M139.6,237.4h-47c-0.8,0-1.5-0.7-1.5-1.5v-3.6c0-0.8,0.7-1.5,1.5-1.5h47c0.8,0,1.5,0.7,1.5,1.5v3.6
			C141.1,236.7,140.5,237.4,139.6,237.4z M94.1,234.4h44v-0.6h-44V234.4z"/>
	</g>
	<g>
		<path class="st0" d="M196.1,298.2h-3.6c-0.8,0-1.5-0.7-1.5-1.5v-47c0-0.8,0.7-1.5,1.5-1.5h3.6c0.8,0,1.5,0.7,1.5,1.5v47
			C197.6,297.5,197,298.2,196.1,298.2z M194.1,295.2h0.6v-44h-0.6V295.2z"/>
	</g>
	<g>
		<path class="st0" d="M139.6,291.9h-47c-0.8,0-1.5-0.7-1.5-1.5v-3.6c0-0.8,0.7-1.5,1.5-1.5h47c0.8,0,1.5,0.7,1.5,1.5v3.6
			C141.1,291.3,140.5,291.9,139.6,291.9z M94.1,288.9h44v-0.6h-44V288.9z"/>
	</g>
	<g>
		<path class="st0" d="M68.5,356.9h-7.7c-0.7,0-1.4-0.5-1.5-1.3L55.4,330c-0.1-0.4,0.1-0.9,0.3-1.2c0.3-0.3,0.7-0.5,1.1-0.5h15.4
			c0.4,0,0.9,0.2,1.1,0.5c0.3,0.3,0.4,0.8,0.3,1.2l-3.8,25.6C69.8,356.4,69.2,356.9,68.5,356.9z M62.1,353.9h5.1l3.4-22.7H58.7
			L62.1,353.9z"/>
	</g>
	<g>
		<path class="st0" d="M271.8,356.9h-7.7c-0.7,0-1.4-0.5-1.5-1.3l-3.8-25.6c-0.1-0.4,0.1-0.9,0.3-1.2c0.3-0.3,0.7-0.5,1.1-0.5h15.4
			c0.4,0,0.9,0.2,1.1,0.5c0.3,0.3,0.4,0.8,0.3,1.2l-3.8,25.6C273.1,356.4,272.5,356.9,271.8,356.9z M265.4,353.9h5.1l3.4-22.7H262
			L265.4,353.9z"/>
	</g>
	<g>
		<g>
			<path class="st0" d="M250.3,211.3h-28.5c-0.7,0-1.3-0.5-1.5-1.1l-1.5-5.6c-0.1-0.4,0-0.9,0.3-1.3c0.3-0.4,0.7-0.6,1.2-0.6h3.2
				c0.2-0.7,0.6-1.3,1.1-1.8c0.9-0.9,2-1.3,3.2-1.3h16.6c2,0,3.7,1.3,4.2,3.1h3.2c0.5,0,0.9,0.2,1.2,0.6c0.3,0.4,0.4,0.8,0.3,1.3
				l-1.4,5.6C251.6,210.8,251,211.3,250.3,211.3z M222.9,208.3h26.2l0.7-2.6h-2.5c-0.4,0-0.9-0.2-1.2-0.5c-0.3-0.3-0.4-0.7-0.3-1.1
				c0-0.8-0.7-1.4-1.4-1.4h-16.6c-0.4,0-0.8,0.2-1,0.4c-0.3,0.3-0.4,0.6-0.4,1c0,0.4-0.1,0.8-0.3,1.1c-0.3,0.3-0.7,0.6-1.2,0.6h-2.5
				L222.9,208.3z"/>
		</g>
	</g>
	<g>
		<path class="st0" d="M257.4,184.7c-0.3,0-0.6-0.1-0.9-0.3c-0.3-0.3-0.6-0.6-0.6-1.1l-0.8-8.6c0-0.4,0.1-0.8,0.4-1.2
			c0.3-0.3,0.7-0.5,1.1-0.5l3.5,0c0.8,0,1.4,0.6,1.5,1.4l0.8,7.9c0.1,0.8-0.4,1.5-1.2,1.6l-3.5,0.7
			C257.6,184.7,257.5,184.7,257.4,184.7z M258.2,176.1l0.5,5.3l0.5-0.1l-0.5-5.2L258.2,176.1z"/>
	</g>
	<g>
		<path class="st0" d="M279.5,184.8c-0.1,0-0.2,0-0.3,0l-3.5-0.7c-0.8-0.2-1.3-0.9-1.2-1.6l0.9-7.9c0.1-0.8,0.7-1.3,1.5-1.3
			c0,0,0,0,0,0l3.5,0c0.4,0,0.8,0.2,1.1,0.5c0.3,0.3,0.4,0.7,0.4,1.2l-0.9,8.6c0,0.4-0.3,0.8-0.6,1.1
			C280.1,184.7,279.8,184.8,279.5,184.8z M277.6,181.4l0.5,0.1l0.6-5.3l-0.5,0L277.6,181.4z"/>
	</g>
	<g>
		<path class="st0" d="M277.3,211.3h-17.8c-0.8,0-1.5-0.7-1.5-1.5v-17.3c0-0.8,0.7-1.5,1.5-1.5h17.8c0.8,0,1.5,0.7,1.5,1.5v17.3
			C278.8,210.6,278.1,211.3,277.3,211.3z M261,208.3h14.8V194H261V208.3z"/>
	</g>
	<g>
		<path class="st0" d="M93.2,211.3H72.1c-0.8,0-1.5-0.7-1.5-1.5v-23.7c0-0.8,0.7-1.5,1.5-1.5h21.1c0.8,0,1.5,0.7,1.5,1.5v23.7
			C94.7,210.6,94.1,211.3,93.2,211.3z M73.6,208.3h18.1v-20.7H73.6V208.3z"/>
	</g>
	<g>
		<path class="st0" d="M88.7,187.6H77.9c-0.5,0-1-0.3-1.3-0.7c-0.4-0.7-1-1.3-1.5-1.9c-0.3-0.3-0.5-0.6-0.7-0.9
			c-0.4-0.5-0.5-1.3-0.1-1.8c0.5-0.7,1.3-0.9,1.7-1c0,0,0,0,0,0c0.5-0.7,1.1-0.9,1.5-1.1c0.1,0,0.2-0.1,0.3-0.1
			c0.6-0.3,0.9-0.3,1.4-0.3l0.3,0c0.3,0,0.6,0,0.9,0c0.6,0,1.3,0,1.8,0.1c0.5-0.5,1-0.6,1.5-0.6c0.3,0,0.5,0.1,0.8,0.1
			c0.1,0,0.2,0,0.3,0.1l0.2,0c0.5,0.1,0.9,0.1,0.9,0c0.3-0.2,0.7-0.4,1.3-0.4c0.2,0,0.3,0,0.5,0.1c0.5,0.1,0.9,0.4,1.2,0.6
			c0.1,0.1,0.1,0.1,0.2,0.1c0.4,0.2,0.7,0.4,1.1,0.5c0.4,0.1,0.8,0.4,1,0.8c0.2,0.4,0.2,0.9,0,1.3c0,0.1-0.1,0.1-0.1,0.2
			c0,0,0,0.1,0,0.2c0.1,0.6,0,1-0.4,1.6c-0.3,0.4-0.4,0.5-0.4,0.8c-0.1,0.4-0.1,0.7-0.2,1.1l0,0.1C90,187.1,89.4,187.6,88.7,187.6z
			 M78.6,184.6h8.8c0.2-0.8,0.4-1.3,0.8-1.8c0-0.1,0-0.1,0-0.2c-0.2-0.1-0.3-0.2-0.5-0.3c-0.1-0.1-0.3-0.2-0.4-0.3c0,0,0,0,0,0
			c-0.5,0.2-1,0.3-1.5,0.3c-0.4,0-0.8-0.1-1.2-0.1l-0.2,0c-0.1,0-0.1,0-0.2,0c-0.4,0.5-0.9,0.6-1.3,0.6c-0.1,0-0.1,0-0.2,0
			c-0.3,0-0.6-0.1-0.8-0.1c-0.1,0-0.3-0.1-0.3-0.1c-0.3,0-0.6,0-0.9,0c-0.4,0-0.7,0-1.1,0l-0.3,0c0,0,0,0,0,0
			c-0.2,0.1-0.3,0.2-0.5,0.2c-0.1,0-0.2,0.1-0.3,0.1c-0.1,0.3-0.3,0.5-0.5,0.6C78.2,184,78.4,184.3,78.6,184.6z"/>
	</g>
	<g>
		<path class="st0" d="M114.3,211.3h-14c-0.8,0-1.5-0.7-1.5-1.5v-23.7c0-0.8,0.7-1.5,1.5-1.5h14c0.8,0,1.5,0.7,1.5,1.5v23.7
			C115.8,210.6,115.1,211.3,114.3,211.3z M101.7,208.3h11v-20.7h-11V208.3z"/>
	</g>
	<g>
		<g>
			<path class="st0" d="M66.8,211.3H55.2c-1.3,0-2.4-1.1-2.4-2.4v-18.6c0-2.7,1.3-5.2,3.5-6.7v-1.9c0-0.4,0.2-0.8,0.4-1.1v-1.1
				c0-1.1,0.9-2,2-2h4.6c1.1,0,2,0.9,2,2v1.1c0.3,0.3,0.4,0.6,0.4,1.1v1.9c0.4,0.3,0.8,0.6,1.1,0.9c1.5,1.5,2.4,3.6,2.4,5.8v18.6
				C69.2,210.2,68.1,211.3,66.8,211.3z M55.8,208.3h10.4v-18c0-1.4-0.5-2.7-1.5-3.7c-0.4-0.4-0.8-0.7-1.2-0.9
				c-0.6-0.3-0.9-1-0.8-1.7v-1.3c-0.3-0.3-0.4-0.6-0.4-1.1v-1.1h-2.5v1.1c0,0.4-0.2,0.8-0.4,1.1v1.4c0.1,0.6-0.2,1.3-0.8,1.6
				c-1.7,0.9-2.7,2.7-2.7,4.6V208.3z"/>
		</g>
	</g>
	<g>
		<path class="st0" d="M643.4,158H373.9c-0.8,0-1.5-0.7-1.5-1.5V36.8c0-0.8,0.7-1.5,1.5-1.5h269.5c0.8,0,1.5,0.7,1.5,1.5v119.8
			C644.9,157.4,644.2,158,643.4,158z M375.4,155h266.5V38.3H375.4V155z"/>
	</g>
	<g>
		<path class="st0" d="M635.4,150H381.9c-0.8,0-1.5-0.7-1.5-1.5V44.8c0-0.8,0.7-1.5,1.5-1.5h253.5c0.8,0,1.5,0.7,1.5,1.5v103.8
			C636.9,149.4,636.2,150,635.4,150z M383.4,147h250.5V46.3H383.4V147z"/>
	</g>
	<g>
		<g>
			<path class="st0" d="M297.6,64.9h-20.2c-0.8,0-1.5-0.7-1.5-1.5V37.7c0-0.8,0.7-1.5,1.5-1.5h20.2c0.8,0,1.5,0.7,1.5,1.5v25.7
				C299.1,64.2,298.5,64.9,297.6,64.9z M278.9,61.9h17.2V39.2h-17.2V61.9z"/>
		</g>
		<g>
			<path class="st0" d="M297.6,103.4h-20.2c-0.8,0-1.5-0.7-1.5-1.5V76.2c0-0.8,0.7-1.5,1.5-1.5h20.2c0.8,0,1.5,0.7,1.5,1.5v25.7
				C299.1,102.8,298.5,103.4,297.6,103.4z M278.9,100.4h17.2V77.7h-17.2V100.4z"/>
		</g>
		<g>
			<path class="st0" d="M293.5,77.7h-12.1c-0.8,0-1.5-0.7-1.5-1.5V63.4c0-0.8,0.7-1.5,1.5-1.5h12.1c0.8,0,1.5,0.7,1.5,1.5v12.8
				C295,77,294.4,77.7,293.5,77.7z M283,74.7h9.1v-9.8H283V74.7z"/>
		</g>
	</g>
	<g>
		<path class="st0" d="M233.7,115.3c-0.4,0-0.8-0.1-1.1-0.4l-58.3-58.3c-0.6-0.6-0.6-1.5,0-2.1c0.6-0.6,1.5-0.6,2.1,0l58.3,58.3
			c0.6,0.6,0.6,1.5,0,2.1C234.5,115.1,234.1,115.3,233.7,115.3z"/>
	</g>
	<g>
		<path class="st0" d="M232.8,72.4c-0.4,0-0.8-0.1-1.1-0.4l-15.4-15.4c-0.6-0.6-0.6-1.5,0-2.1c0.6-0.6,1.5-0.6,2.1,0l15.4,15.4
			c0.6,0.6,0.6,1.5,0,2.1C233.5,72.2,233.1,72.4,232.8,72.4z"/>
	</g>
	<g>
		<path class="st0" d="M220.3,124.1c-0.4,0-0.8-0.1-1.1-0.4l-67.1-67.1c-0.6-0.6-0.6-1.5,0-2.1c0.6-0.6,1.5-0.6,2.1,0l67.1,67.1
			c0.6,0.6,0.6,1.5,0,2.1C221.1,123.9,220.7,124.1,220.3,124.1z"/>
	</g>
	<g>
		<path class="st0" d="M137.1,122.7c-0.4,0-0.8-0.1-1.1-0.4L97.2,83.5c-0.6-0.6-0.6-1.5,0-2.1c0.6-0.6,1.5-0.6,2.1,0l38.8,38.8
			c0.6,0.6,0.6,1.5,0,2.1C137.8,122.5,137.5,122.7,137.1,122.7z"/>
	</g>
	<g>
		<path class="st0" d="M115.9,124.1c-0.4,0-0.8-0.1-1.1-0.4L97.2,106c-0.6-0.6-0.6-1.5,0-2.1c0.6-0.6,1.5-0.6,2.1,0l17.6,17.6
			c0.6,0.6,0.6,1.5,0,2.1C116.7,123.9,116.3,124.1,115.9,124.1z"/>
	</g>
	<g>
		<path class="st0" d="M525.5,230.1c-0.8,0-1.5-0.7-1.5-1.5v-3.7c0-0.8,0.7-1.5,1.5-1.5c0.8,0,1.5,0.7,1.5,1.5v3.7
			C527,229.4,526.3,230.1,525.5,230.1z"/>
	</g>
	<g>
		<path class="st0" d="M292,58.9c-0.8,0-1.5-0.7-1.5-1.5v-15c0-0.8,0.7-1.5,1.5-1.5s1.5,0.7,1.5,1.5v15
			C293.5,58.2,292.9,58.9,292,58.9z"/>
	</g>
	<g>
		<path class="st0" d="M292,98.6c-0.8,0-1.5-0.7-1.5-1.5V80.9c0-0.8,0.7-1.5,1.5-1.5s1.5,0.7,1.5,1.5v16.2
			C293.5,98,292.9,98.6,292,98.6z"/>
	</g>
	<g>
		<g>
			<path class="st0" d="M54,64.9H33.7c-0.8,0-1.5-0.7-1.5-1.5V37.7c0-0.8,0.7-1.5,1.5-1.5H54c0.8,0,1.5,0.7,1.5,1.5v25.7
				C55.5,64.2,54.8,64.9,54,64.9z M35.2,61.9h17.2V39.2H35.2V61.9z"/>
		</g>
		<g>
			<path class="st0" d="M54,103.4H33.7c-0.8,0-1.5-0.7-1.5-1.5V76.2c0-0.8,0.7-1.5,1.5-1.5H54c0.8,0,1.5,0.7,1.5,1.5v25.7
				C55.5,102.8,54.8,103.4,54,103.4z M35.2,100.4h17.2V77.7H35.2V100.4z"/>
		</g>
		<g>
			<path class="st0" d="M49.9,77.7H37.8c-0.8,0-1.5-0.7-1.5-1.5V63.4c0-0.8,0.7-1.5,1.5-1.5h12.1c0.8,0,1.5,0.7,1.5,1.5v12.8
				C51.4,77,50.7,77.7,49.9,77.7z M39.3,74.7h9.1v-9.8h-9.1V74.7z"/>
		</g>
	</g>
	<g>
		<path class="st0" d="M48.4,58.9c-0.8,0-1.5-0.7-1.5-1.5v-15c0-0.8,0.7-1.5,1.5-1.5c0.8,0,1.5,0.7,1.5,1.5v15
			C49.9,58.2,49.2,58.9,48.4,58.9z"/>
	</g>
	<g>
		<path class="st0" d="M48.4,98.6c-0.8,0-1.5-0.7-1.5-1.5V80.9c0-0.8,0.7-1.5,1.5-1.5c0.8,0,1.5,0.7,1.5,1.5v16.2
			C49.9,98,49.2,98.6,48.4,98.6z"/>
	</g>
	<g>
		<path class="st0" d="M109.7,183.8c-0.8,0-1.5-0.7-1.5-1.5v-4.6h-2v1.4c0,0.8-0.7,1.5-1.5,1.5h-6.4c-0.8,0-1.5-0.7-1.5-1.5
			s0.7-1.5,1.5-1.5h4.9v-1.4c0-0.8,0.7-1.5,1.5-1.5h5c0.8,0,1.5,0.7,1.5,1.5v6.1C111.2,183.1,110.5,183.8,109.7,183.8z"/>
	</g>
	<g>
		<path class="st0" d="M180.8,324.4c-0.8,0-1.5-0.7-1.5-1.5v-94.7c0-0.8,0.7-1.5,1.5-1.5c0.8,0,1.5,0.7,1.5,1.5v94.7
			C182.3,323.7,181.6,324.4,180.8,324.4z"/>
	</g>
	<g>
		<path class="st0" d="M172.8,272.3H56.9c-0.8,0-1.5-0.7-1.5-1.5s0.7-1.5,1.5-1.5h115.9c0.8,0,1.5,0.7,1.5,1.5
			S173.6,272.3,172.8,272.3z"/>
	</g>
	<g>
		<path class="st0" d="M262.8,194c-0.7,0-1.4-0.5-1.5-1.3l-2.7-17.9c-0.1-0.8,0.4-1.6,1.3-1.7c0.8-0.1,1.6,0.4,1.7,1.3l2.7,17.9
			c0.1,0.8-0.4,1.6-1.3,1.7C262.9,194,262.9,194,262.8,194z"/>
	</g>
	<g>
		<path class="st0" d="M274.5,194c-0.1,0-0.1,0-0.2,0c-0.8-0.1-1.4-0.9-1.3-1.7l2.3-17.8c0.1-0.8,0.9-1.4,1.7-1.3
			c0.8,0.1,1.4,0.9,1.3,1.7l-2.3,17.8C275.9,193.5,275.3,194,274.5,194z"/>
	</g>
	<g>
		<path class="st0" d="M666.1,292C666.1,292,666.1,292,666.1,292l-36.7-0.2c-0.8,0-1.5-0.7-1.5-1.5c0-0.8,0.7-1.5,1.5-1.5
			c0,0,0,0,0,0l36.7,0.2c0.8,0,1.5,0.7,1.5,1.5C667.6,291.4,666.9,292,666.1,292z"/>
	</g>
	<g>
		<path class="st0" d="M400.2,291.9h-57.8c-0.8,0-1.5-0.7-1.5-1.5s0.7-1.5,1.5-1.5h57.8c0.8,0,1.5,0.7,1.5,1.5
			S401,291.9,400.2,291.9z"/>
	</g>
	<g>
		<path class="st0" d="M331.9,338.1c-0.8,0-1.5-0.7-1.5-1.5V2.4c0-0.8,0.7-1.5,1.5-1.5c0.8,0,1.5,0.7,1.5,1.5v334.3
			C333.4,337.5,332.8,338.1,331.9,338.1z"/>
	</g>
	<g>
		<path class="st0" d="M331.9,338.1H292c-0.8,0-1.5-0.7-1.5-1.5c0-0.8,0.7-1.5,1.5-1.5h39.9c0.8,0,1.5,0.7,1.5,1.5
			C333.4,337.5,332.8,338.1,331.9,338.1z"/>
	</g>
	<g>
		<path class="st0" d="M43.9,338.1H1.4c-0.8,0-1.5-0.7-1.5-1.5c0-0.8,0.7-1.5,1.5-1.5h42.5c0.8,0,1.5,0.7,1.5,1.5
			C45.4,337.5,44.7,338.1,43.9,338.1z"/>
	</g>
	<g>
		<path class="st0" d="M248.1,338.1H82.7c-0.8,0-1.5-0.7-1.5-1.5c0-0.8,0.7-1.5,1.5-1.5h165.4c0.8,0,1.5,0.7,1.5,1.5
			C249.6,337.5,248.9,338.1,248.1,338.1z"/>
	</g>
	<g>
		<path class="st0" d="M549.1,137h-23.6c-0.8,0-1.5-0.7-1.5-1.5v-7.9h-27.7v7.9c0,0.8-0.7,1.5-1.5,1.5h-9.3c-0.8,0-1.5-0.7-1.5-1.5
			v-25.8h-31v25.8c0,0.8-0.7,1.5-1.5,1.5h-6c-0.8,0-1.5-0.7-1.5-1.5v-12h-21v2.5c0,0.8-0.7,1.5-1.5,1.5h-14.5v7.9
			c0,0.8-0.7,1.5-1.5,1.5h-12c-0.8,0-1.5-0.7-1.5-1.5s0.7-1.5,1.5-1.5h10.5v-7.9c0-0.8,0.7-1.5,1.5-1.5h14.5V122
			c0-0.8,0.7-1.5,1.5-1.5h24c0.8,0,1.5,0.7,1.5,1.5v12h3v-25.8c0-0.8,0.7-1.5,1.5-1.5h34c0.8,0,1.5,0.7,1.5,1.5V134h6.3v-7.9
			c0-0.8,0.7-1.5,1.5-1.5h30.7c0.8,0,1.5,0.7,1.5,1.5v7.9h20.6v-30.5c0-0.8,0.7-1.5,1.5-1.5h36.4c0.8,0,1.5,0.7,1.5,1.5v21.1h7V80.9
			c0-0.8,0.7-1.5,1.5-1.5h30.7c0.8,0,1.5,0.7,1.5,1.5c0,0.8-0.7,1.5-1.5,1.5h-29.2v43.7c0,0.8-0.7,1.5-1.5,1.5h-10
			c-0.8,0-1.5-0.7-1.5-1.5V105h-33.4v30.5C550.6,136.3,549.9,137,549.1,137z"/>
	</g>
	<g>
		<path class="st0" d="M606.7,133.7c-0.8,0-1.5-0.7-1.5-1.5v-45c0-0.8,0.7-1.5,1.5-1.5s1.5,0.7,1.5,1.5v45
			C608.2,133,607.6,133.7,606.7,133.7z"/>
	</g>
	<g>
		<path class="st0" d="M617.2,133.7c-0.8,0-1.5-0.7-1.5-1.5v-45c0-0.8,0.7-1.5,1.5-1.5s1.5,0.7,1.5,1.5v45
			C618.7,133,618.1,133.7,617.2,133.7z"/>
	</g>
	<g>
		<path class="st0" d="M578.7,113.1h-22.5c-0.8,0-1.5-0.7-1.5-1.5c0-0.8,0.7-1.5,1.5-1.5h22.5c0.8,0,1.5,0.7,1.5,1.5
			C580.2,112.5,579.5,113.1,578.7,113.1z"/>
	</g>
	<g>
		<path class="st0" d="M578.7,122.1h-22.5c-0.8,0-1.5-0.7-1.5-1.5c0-0.8,0.7-1.5,1.5-1.5h22.5c0.8,0,1.5,0.7,1.5,1.5
			C580.2,121.5,579.5,122.1,578.7,122.1z"/>
	</g>
	<g>
		<path class="st0" d="M477.8,117.2h-18.4c-0.8,0-1.5-0.7-1.5-1.5c0-0.8,0.7-1.5,1.5-1.5h18.4c0.8,0,1.5,0.7,1.5,1.5
			C479.3,116.5,478.7,117.2,477.8,117.2z"/>
	</g>
	<g>
		<path class="st0" d="M477.8,128.2h-18.4c-0.8,0-1.5-0.7-1.5-1.5c0-0.8,0.7-1.5,1.5-1.5h18.4c0.8,0,1.5,0.7,1.5,1.5
			C479.3,127.5,478.7,128.2,477.8,128.2z"/>
	</g>
</g>
</svg>
