<?xml version="1.0" encoding="utf-8"?>
<!-- Generator: Adobe Illustrator 24.0.1, SVG Export Plug-In . SVG Version: 6.00 Build 0)  -->
<svg version="1.1" id="Layer_1" xmlns="http://www.w3.org/2000/svg" xmlns:xlink="http://www.w3.org/1999/xlink" x="0px" y="0px"
	 viewBox="0 0 613 337" style="enable-background:new 0 0 613 337;" xml:space="preserve">
<style type="text/css">
	.st0{opacity:0.2;fill:#C4C4C4;enable-background:new    ;}
</style>
<g>
	<path class="st0" d="M1.2,3.1h610c0.7,0,1.2-0.6,1.2-1.2c0-0.6-0.5-1.2-1.2-1.2H1.2C0.6,0.7,0,1.2,0,1.9C0,2.6,0.6,3.1,1.2,3.1z"/>
	<path class="st0" d="M571.2,60.9c0-0.6-0.5-1.2-1.2-1.2H356.5c-0.6,0-1.2,0.6-1.2,1.2c0,0.6,0.5,1.2,1.2,1.2H570
		C570.7,62.1,571.2,61.5,571.2,60.9z"/>
	<path class="st0" d="M254.9,60.9c0-0.6-0.5-1.2-1.2-1.2H43c-0.6,0-1.2,0.6-1.2,1.2c0,0.6,0.5,1.2,1.2,1.2h210.7
		C254.4,62.1,254.9,61.5,254.9,60.9z"/>
	<path class="st0" d="M320.6,28.7c-3.8-0.8-8.7-1.2-14-1.2s-10.3,0.4-14,1.2c-4.1,0.9-6.2,2-6.6,3.5l-23.1,35.5
		c-0.3,0.5-0.2,1.3,0.4,1.7c0.2,0.1,0.5,0.2,0.7,0.2c0.4,0,0.8-0.2,1-0.6l22.1-34c1.1,0.8,2.9,1.4,5.5,1.9c3.8,0.8,8.7,1.2,14,1.2
		s10.3-0.4,14-1.2c2.5-0.5,4.2-1.1,5.3-1.9l22.2,34c0.2,0.4,0.6,0.6,1,0.6c0.3,0,0.5-0.1,0.7-0.2c0.6-0.3,0.8-1.1,0.4-1.7
		l-22.9-35.1C327.1,30.8,325,29.6,320.6,28.7z M306.7,35.7c-10.5,0-17-1.7-18.1-2.8c1.1-1.1,7.6-2.8,18.1-2.8s17,1.7,18.1,2.8
		C323.7,34,317.2,35.7,306.7,35.7z"/>
	<path class="st0" d="M451.6,225.1c-0.6,0.3-0.8,1.1-0.4,1.7l1.8,2.7c0.2,0.4,0.6,0.6,1,0.6c0.3,0,0.5,0,0.7-0.2
		c0.6-0.3,0.8-1.1,0.4-1.7l-1.8-2.7C453,224.9,452.2,224.7,451.6,225.1z"/>
	<path class="st0" d="M444.5,214.1c-0.6,0.3-0.8,1.1-0.4,1.7l4.2,6.4c0.2,0.4,0.6,0.6,1,0.6c0.2,0,0.4-0.1,0.7-0.2
		c0.6-0.3,0.8-1.1,0.4-1.7l-4.2-6.4C445.9,213.9,445.1,213.7,444.5,214.1z"/>
	<path class="st0" d="M434.5,199.2c-0.6,0.3-0.8,1.1-0.4,1.7l6.9,10.6c0.2,0.4,0.6,0.6,1,0.6c0.3,0,0.5,0,0.7-0.2
		c0.6-0.3,0.8-1.1,0.4-1.7l-6.9-10.6C435.9,199,435.1,198.8,434.5,199.2z"/>
	<path class="st0" d="M421.6,179.4c-0.6,0.3-0.8,1.1-0.4,1.7l9.1,14c0.2,0.4,0.6,0.6,1,0.6c0.2,0,0.5-0.1,0.7-0.2
		c0.6-0.3,0.8-1.1,0.4-1.7l-9.1-14C423,179.2,422.2,179,421.6,179.4z"/>
	<path class="st0" d="M404.1,152.4c-0.6,0.3-0.8,1.1-0.4,1.7l13.7,21.1c0.2,0.4,0.6,0.6,1,0.6c0.2,0,0.5,0,0.7-0.2
		c0.6-0.3,0.8-1.1,0.4-1.7l-13.7-21.1C405.5,152.2,404.7,152,404.1,152.4z"/>
	<path class="st0" d="M379.9,115.5c-0.6,0.3-0.8,1.1-0.4,1.7l20.1,30.8c0.2,0.4,0.6,0.6,1,0.6c0.3,0,0.5-0.1,0.7-0.2
		c0.6-0.3,0.8-1.1,0.4-1.7l-20.1-30.8C381.3,115.3,380.5,115.2,379.9,115.5z"/>
	<path class="st0" d="M353.7,75.2c-0.6,0.3-0.8,1.1-0.4,1.7l22.1,33.9c0.2,0.4,0.6,0.6,1,0.6c0.2,0,0.4-0.1,0.7-0.2
		c0.6-0.3,0.8-1.1,0.4-1.7l-22.1-33.9C355.1,75,354.3,74.8,353.7,75.2z"/>
	<path class="st0" d="M159.7,225.5l-1.8,2.7c-0.3,0.5-0.2,1.3,0.4,1.7c0.2,0.1,0.5,0.2,0.7,0.2c0.4,0,0.8-0.2,1-0.6l1.8-2.7
		c0.3-0.5,0.2-1.3-0.4-1.7C160.9,224.8,160.1,224.9,159.7,225.5z"/>
	<path class="st0" d="M166.9,214.5l-4.2,6.4c-0.3,0.5-0.2,1.3,0.4,1.7c0.2,0.1,0.5,0.2,0.7,0.2c0.4,0,0.8-0.2,1-0.6l4.2-6.4
		c0.3-0.5,0.2-1.3-0.4-1.7C168.1,213.8,167.3,213.9,166.9,214.5z"/>
	<path class="st0" d="M176.8,199.6l-6.9,10.6c-0.3,0.5-0.2,1.3,0.4,1.7c0.2,0.1,0.5,0.2,0.7,0.2c0.4,0,0.8-0.2,1-0.6l6.9-10.6
		c0.3-0.5,0.2-1.3-0.4-1.7C178,198.9,177.2,199,176.8,199.6z"/>
	<path class="st0" d="M189.8,179.8l-9.1,14c-0.3,0.5-0.2,1.3,0.4,1.7c0.2,0.1,0.5,0.2,0.7,0.2c0.4,0,0.8-0.2,1-0.6l9.1-14
		c0.3-0.5,0.2-1.3-0.4-1.7C191,179.1,190.2,179.2,189.8,179.8z"/>
	<path class="st0" d="M207.3,152.8l-13.7,21.1c-0.3,0.5-0.2,1.3,0.4,1.7c0.2,0.1,0.5,0.2,0.7,0.2c0.4,0,0.8-0.2,1-0.6l13.7-21.1
		c0.3-0.5,0.2-1.3-0.4-1.7C208.5,152.1,207.7,152.2,207.3,152.8z"/>
	<path class="st0" d="M231.5,115.9l-20.1,30.8c-0.3,0.5-0.2,1.3,0.4,1.7c0.2,0.1,0.5,0.2,0.7,0.2c0.4,0,0.8-0.2,1-0.6l20.1-30.8
		c0.3-0.5,0.2-1.3-0.4-1.7C232.7,115.2,231.9,115.3,231.5,115.9z"/>
	<path class="st0" d="M236.7,111.4c0.4,0,0.8-0.2,1-0.6l22.1-33.9c0.3-0.5,0.2-1.3-0.4-1.7c-0.5-0.3-1.3-0.2-1.7,0.4l-22.1,33.9
		c-0.3,0.5-0.2,1.3,0.4,1.7C236.2,111.3,236.5,111.4,236.7,111.4z"/>
	<path class="st0" d="M611,334.7H361.8V122.9c0-0.6-0.5-1.2-1.2-1.2h-109c-0.6,0-1.2,0.5-1.2,1.2v211.8H1.2c-0.6,0-1.2,0.6-1.2,1.2
		c0,0.6,0.5,1.2,1.2,1.2h250.6c0.6,0,1.2-0.5,1.2-1.2V124.1h106.5v211.8c0,0.6,0.5,1.2,1.2,1.2h250.5c0.7,0,1-0.6,1-1.2
		C612.2,335.3,611.7,334.7,611,334.7z"/>
</g>
</svg>
