<?xml version="1.0" encoding="utf-8"?>
<!-- Generator: Adobe Illustrator 24.0.1, SVG Export Plug-In . SVG Version: 6.00 Build 0)  -->
<svg version="1.1" id="Layer_1" xmlns="http://www.w3.org/2000/svg" xmlns:xlink="http://www.w3.org/1999/xlink" x="0px" y="0px"
	 viewBox="0 0 668 357" style="enable-background:new 0 0 668 357;" xml:space="preserve">
<style type="text/css">
	.st0{opacity:0.2;fill:#C4C4C4;enable-background:new    ;}
</style>
<g>
	<path class="st0" d="M529,221.3l0.6-16.3h0.6c0.8,0,1.5-0.7,1.5-1.5V194c0-0.8-0.7-1.5-1.5-1.5h-9.5c-0.8,0-1.5,0.7-1.5,1.5v9.4
		c0,0.8,0.7,1.5,1.5,1.5h0.7l0.9,16.4c0,0.8,0.7,1.4,1.5,1.4h3.7C528.3,222.7,528.9,222.1,529,221.3z M526.6,203.4l-0.6,16.3h-0.8
		l-0.9-16.3c0-0.8-0.7-1.4-1.5-1.4h-0.6v-6.5h6.5v6.5h-0.6C527.3,202,526.6,202.6,526.6,203.4z"/>
	<path class="st0" d="M644.6,216.8c-0.3-0.3-0.7-0.5-1.1-0.5c-39.3,0-63.9,4.7-92.4,10.2c-1.7,0.3-3.4,0.6-5.1,1v-24h9.5v0.8
		c0,0.8,0.7,1.5,1.5,1.5h5c0.8,0,1.5-0.7,1.5-1.5v-0.8c0.7-0.1,1.2-0.8,1.2-1.5v-4.8c0-0.8-0.7-1.5-1.5-1.5h-17.3v-5.5
		c0-0.8-0.7-1.5-1.5-1.5H535c-0.8,0-1.5,0.7-1.5,1.5v39.5c-33.1,6-73.4,11.5-142.6,11.5c-0.8,0-1.5,0.7-1.5,1.5
		c0,40.9,39.4,66,67.6,66h120.8c19.4,0,35.9-9.1,48-26.2c11.2-16.1,17.8-38.4,19.2-64.6C645,217.5,644.9,217.1,644.6,216.8z
		 M536.5,191.7v-0.1h6.3v5.5c0,0.8,0.7,1.5,1.5,1.5h17.3v1.9c-0.7,0.1-1.2,0.8-1.2,1.5v0.8h-2V202c0-0.8-0.7-1.5-1.5-1.5h-12.5
		c-0.8,0-1.5,0.7-1.5,1.5v25.9c-2.1,0.4-4.2,0.8-6.4,1.2V191.7z M623.1,280.7c-11.3,16.4-27,25-45.4,25H456.9
		c-26.6,0-63.7-23.3-64.6-61.5c69.5-0.1,109.7-5.7,142.8-11.8c0,0,0,0,0,0c0.1,0,0.2,0,0.3,0c3.2-0.6,6.3-1.2,9.4-1.8
		c0.1,0,0.1-0.1,0.2-0.1c2.1-0.4,4.3-0.8,6.4-1.2c28-5.3,52.2-10,90.3-10.1C640.2,244.1,633.8,265.4,623.1,280.7z"/>
	<path class="st0" d="M79.8,143.4h172.6c0.9,0,1.5-0.7,1.5-1.5V37.7c0-0.8-0.7-1.5-1.5-1.5H79.8c-0.8,0-1.5,0.7-1.5,1.5v104.2
		C78.3,142.7,79,143.4,79.8,143.4z M81.3,39.2h169.6v101.2H81.3V39.2z"/>
	<path class="st0" d="M245.4,42.9H85.1c-0.8,0-1.5,0.7-1.5,1.5v91.1c0,0.8,0.7,1.5,1.5,1.5h160.3c0.8,0,1.5-0.7,1.5-1.5V44.4
		C246.9,43.6,246.2,42.9,245.4,42.9z M243.9,134H86.6V45.9h157.3V134z"/>
	<path class="st0" d="M89.8,132.5h150.8c0.8,0,1.5-0.7,1.5-1.5V48.6c0-0.8-0.7-1.5-1.5-1.5H89.8c-0.8,0-1.5,0.7-1.5,1.5V131
		C88.3,131.8,89,132.5,89.8,132.5z M91.3,50.1h147.8v79.4H91.3V50.1z"/>
	<path class="st0" d="M27.8,189.8c-0.9,3.8-1.8,7.8-2.7,12.4c-0.1,0.8,0.3,1.5,1,1.7c4.5,1.4,14.1,2.6,20.8,2.6c1,0,2,0,2.8-0.1v-3
		c-0.8,0.1-1.7,0.1-2.8,0.1c-6.4,0-14.3-1-18.6-2.1c0.8-3.9,1.6-7.5,2.4-10.9c2.2-9.4,4.1-17.5,4.1-28.5c0-1.2,0.5-4.4,1.3-7.4
		c0.4-1.6,0.8-2.8,1.2-3.7c0.1-0.2,0.2-0.5,0.3-0.6c0.2-0.4,0.6-0.7,1.6-0.7c0.9,0,2,0.3,3,0.5c0.9,0.2,1.7,0.4,2.4,0.4
		c2.2,0,3.8-0.3,5.2-0.5c1.2-0.2,2.2-0.4,3.4-0.4c0.7,0.1,1.4,0.7,1.9,1.2c0.6,0.7,1.3,1.7,1.9,2.9c2.8,5.3,4.9,14,6.2,20.4
		c0.1,0.5,0.2,0.9,0.3,1.4h3c-0.1-0.7-0.2-1.4-0.3-2.1c-1.2-6.3-3.4-14.7-6.1-20.3c2.7-3.3,4.2-7.4,4.2-11.7c0-7.8-4.8-14.6-12-17.3
		v-6.6c0-0.8-0.7-1.5-1.5-1.5h-9.9c-0.8,0-1.5,0.7-1.5,1.5v6.6c-7.2,2.7-12,9.5-12,17.3c0,5,2,9.8,5.6,13.3
		c-0.7,2.8-1.2,5.8-1.2,7.3C31.8,172.6,29.9,180.6,27.8,189.8z M53.4,146.5c-1.6,0-2.8,0.2-4,0.4c-1.3,0.2-2.7,0.5-4.7,0.5
		c-0.3,0-1-0.2-1.6-0.3c-1.1-0.3-2.5-0.6-3.8-0.6c-1.6,0-2.7,0.5-3.4,1.2c-1.2-1.8-1.8-4-1.8-6.3c0-4.1,2-7.8,5.3-9.9v3.2
		c0,0.8,0.7,1.5,1.5,1.5h9.9c0.8,0,1.5-0.7,1.5-1.5v-3.2c3.3,2.2,5.3,5.8,5.3,9.9c0,2.2-0.6,4.2-1.6,6
		C55.2,146.9,54.3,146.6,53.4,146.5C53.4,146.5,53.4,146.5,53.4,146.5z M30.3,141.3c0-6.8,4.4-12.8,11-14.8c0.7-0.2,1.1-0.7,1.1-1.4
		V119h7v5.9c0,0.6,0.5,1.2,1.1,1.4c6.4,2,10.9,8.1,10.9,14.8c0,3.2-1,6.3-2.8,8.9c-0.1-0.2-0.3-0.4-0.4-0.6c1.6-2.4,2.5-5.2,2.5-8.2
		c0-6.1-3.7-11.4-9.3-13.7c-0.5-0.2-1-0.2-1.4,0.1c-0.5,0.2-0.7,0.7-0.7,1.2v4.2h-6.9v-4.2c0-0.5-0.3-0.9-0.7-1.2
		c-0.4-0.2-0.9-0.3-1.4-0.1c-5.7,2.2-9.3,7.6-9.3,13.7c0,3.3,1,6.4,3,9c-0.1,0.3-0.2,0.5-0.3,0.8C31.5,148.3,30.3,144.9,30.3,141.3z
		"/>
	<path class="st0" d="M286.4,208.3h-7.6v-15.8c0-0.8-0.7-1.5-1.5-1.5h-1.1l0.9-6.6l2.1,0.4c0.1,0,0.2,0,0.3,0c0.3,0,0.6-0.1,0.9-0.1
		c0.3-0.3,0.6-0.7,0.6-1.1l0.9-8.6c0-0.5-0.1-0.9-0.4-1.2s-0.7-0.5-1.1-0.5h-3c-0.1,0-0.2-0.1-0.4-0.1c-0.8-0.1-1.6,0.5-1.7,1.3
		l-2.1,16.5h-9.1l-2.5-16.6v0c0,0,0,0,0,0c0-0.2-0.1-0.3-0.1-0.5c-0.2-0.5-0.7-0.9-1.4-0.9h-3.5c-0.4,0-0.8,0.2-1.1,0.5
		c-0.3,0.4-0.4,0.8-0.4,1.2l0.8,8.6c0,0.5,0.3,0.8,0.6,1.1c0.3,0.2,0.6,0.3,0.9,0.3c0.1,0,0.2,0,0.3-0.1l2.3-0.5l1,6.9h-1.5
		c-0.8,0-1.5,0.7-1.5,1.5v15.8h-5.6l0.9-3.7c0.1-0.5,0-0.9-0.3-1.3c-0.3-0.4-0.7-0.6-1.2-0.6h-3.2c-0.5-1.8-2.2-3.1-4.2-3.1h-16.6
		c-1.2,0-2.3,0.4-3.2,1.3c-0.5,0.5-0.9,1.1-1.1,1.8h-3.2c-0.5,0-0.9,0.2-1.2,0.6c-0.3,0.4-0.4,0.9-0.3,1.3l1,3.7h-11.4
		c8.6-5.4,13.5-12.4,13.5-19.9c0-0.8-0.7-1.5-1.5-1.5h-63.4v-21.3h9.4v0.8c0,0.8,0.7,1.5,1.5,1.5h5c0.8,0,1.5-0.7,1.5-1.5v-0.8
		c0.7-0.2,1.2-0.8,1.2-1.5v-4.8c0-0.8-0.7-1.5-1.5-1.5h-17.1v-5.4c0-0.8-0.7-1.5-1.5-1.5h-9.3c-0.8,0-1.5,0.7-1.5,1.5v34.5h-24.3
		c-0.8,0-1.5,0.7-1.5,1.5c0,7.5,4.9,14.5,13.5,19.9h-16.5v-22.2c0-0.8-0.7-1.5-1.5-1.5h-14c-0.8,0-1.5,0.7-1.5,1.5v22.2h-4.1v-22.2
		c0-0.8-0.7-1.5-1.5-1.5h-2.6c0,0,0-0.1,0.1-0.1c0.4-0.6,0.5-1,0.4-1.6c0-0.1,0-0.2,0-0.2c0-0.1,0.1-0.1,0.1-0.2
		c0.2-0.4,0.2-0.9,0-1.3c-0.2-0.4-0.6-0.7-1-0.8c-0.4-0.1-0.7-0.3-1.1-0.5c-0.1,0-0.1,0-0.2-0.1c-0.3-0.2-0.7-0.5-1.2-0.6
		c-0.2-0.1-0.3-0.1-0.5-0.1c-0.6,0-1,0.2-1.3,0.4c0,0.1-0.4,0.1-0.9,0h-0.2c-0.1-0.1-0.2-0.1-0.3-0.1c-0.3,0-0.5-0.1-0.8-0.1
		c-0.5,0-1,0.1-1.5,0.6c-0.5-0.1-1.2-0.1-1.8-0.1c-0.3,0-0.6,0-0.9,0h-0.3c-0.5,0-0.8,0-1.4,0.3c-0.1,0-0.2,0.1-0.3,0.1
		c-0.4,0.2-1,0.4-1.5,1.1c-0.4,0.1-1.2,0.3-1.7,1c-0.4,0.5-0.3,1.3,0.1,1.8c0.1,0.2,0.2,0.3,0.4,0.5h-2.7c-0.8,0-1.5,0.7-1.5,1.5
		v22.2h-1.4v-18c0-2.2-0.9-4.3-2.4-5.8c-0.3-0.3-0.7-0.6-1.1-0.9v-1.9c0-0.5-0.1-0.8-0.4-1.1v-1.1c0-1.1-0.9-2-2-2h-4.6
		c-1.1,0-2,0.9-2,2v1.1c-0.2,0.3-0.4,0.7-0.4,1.1v1.9c-2.2,1.5-3.5,4-3.5,6.7v18h-7c-0.8,0-1.5,0.7-1.5,1.5V222
		c0,0.8,0.7,1.5,1.5,1.5h2.3v106.3c0,0.8,0.7,1.5,1.5,1.5h6l3.7,24.3c0.1,0.8,0.8,1.3,1.5,1.3h7.7c0.7,0,1.3-0.5,1.3-1.3l3.6-24.3
		H259l3.6,24.3c0.1,0.8,0.8,1.3,1.5,1.3h7.7c0.7,0,1.3-0.5,1.4-1.3l3.6-24.3h6.8c0.8,0,1.5-0.7,1.5-1.6V223.5h1.3
		c0.8,0,1.5-0.6,1.5-1.5v-12.2C287.9,209,287.2,208.3,286.4,208.3z M278.1,181.5l-0.5-0.1l0.6-5.2h0.5L278.1,181.5z M258.7,181.4
		l-0.5-5.3h0.5l0.5,5.2L258.7,181.4z M261,194h1.8h0.2h11.3h0.2h1.3v14.3H261V194z M222.4,205.8h2.5c0.5,0,0.9-0.3,1.2-0.6
		c0.2-0.3,0.3-0.7,0.3-1.1c0-0.4,0.1-0.7,0.4-1c0.2-0.2,0.6-0.4,1-0.4h16.6c0.7,0,1.4,0.6,1.4,1.4c-0.1,0.4,0,0.8,0.3,1.1
		c0.3,0.3,0.8,0.5,1.2,0.5h2.5l-0.7,2.6h-26.2L222.4,205.8z M147.6,153.9h6.3v5.4c0,0.8,0.7,1.5,1.5,1.5h17.1v1.8
		c-0.7,0.2-1.2,0.8-1.2,1.5v0.8h-2v-0.8c0-0.8-0.7-1.5-1.5-1.5h-12.4c-0.8,0-1.5,0.7-1.5,1.5v22.8h-6.3h0V153.9z M121.9,189.9h96.9
		c-0.8,7-6.8,13.7-16.7,18.4h-63.6C128.5,203.6,122.6,197,121.9,189.9z M101.7,187.6h11v20.7h-11V187.6z M78,183.5
		c0.2-0.1,0.4-0.3,0.5-0.6c0.1,0,0.2-0.1,0.3-0.1c0.2,0,0.3-0.1,0.5-0.2h0.3c0.4,0,0.7,0,1.1,0c0.3,0,0.6,0,0.9,0
		c0,0,0.2,0.1,0.3,0.1c0.2,0,0.5,0.1,0.8,0.1c0.1,0,0.1,0,0.2,0c0.4,0,0.9-0.1,1.3-0.6c0.1,0,0.1,0,0.2,0h0.2c0.4,0,0.8,0.1,1.2,0.1
		c0.5,0,1-0.1,1.5-0.3c0.1,0.1,0.3,0.2,0.4,0.3c0.2,0.1,0.3,0.2,0.5,0.3c0,0.1,0,0.1,0,0.2c-0.4,0.5-0.6,1-0.8,1.8h-8.8
		C78.4,184.3,78.2,184,78,183.5z M73.6,187.6h4.3h10.8h3v20.7H73.6V187.6z M55.9,190.3c0-1.9,1-3.7,2.7-4.6c0.6-0.3,0.9-1,0.8-1.6
		v-1.4c0.2-0.3,0.4-0.7,0.4-1.1v-1.1h2.5v1.1c0,0.5,0.1,0.8,0.4,1.1v1.3c-0.1,0.7,0.2,1.4,0.8,1.7c0.4,0.2,0.8,0.5,1.2,0.9
		c1,1,1.5,2.3,1.5,3.7v18H55.9V190.3z M47.3,211.3h7.9h11.6h5.3h21.1h7.1h14h23.9h64.2h19.4h28.5h9.2h17.8h7.6v9.2h-1.3h-234h-2.3
		V211.3z M67.2,353.9h-5.1l-3.4-22.6h11.9L67.2,353.9z M270.5,353.9h-5.1l-3.4-22.6h11.9L270.5,353.9z M282.1,328.3h-6.5h-15.4h-188
		H56.8h-5.7c0,0,0-104.8,0-104.8h231V328.3z"/>
	<path class="st0" d="M92.6,237.4h47c0.9,0,1.5-0.7,1.5-1.5v-3.6c0-0.8-0.7-1.5-1.5-1.5h-47c-0.8,0-1.5,0.7-1.5,1.5v3.6
		C91.1,236.7,91.8,237.4,92.6,237.4z M94.1,233.8h44v0.6h-44C94.1,234.4,94.1,233.8,94.1,233.8z"/>
	<path class="st0" d="M192.5,298.2h3.6c0.9,0,1.5-0.7,1.5-1.5v-47c0-0.8-0.7-1.5-1.5-1.5h-3.6c-0.8,0-1.5,0.7-1.5,1.5v47
		C191,297.5,191.7,298.2,192.5,298.2z M194.1,251.2h0.6v44h-0.6V251.2z"/>
	<path class="st0" d="M139.6,285.3h-47c-0.8,0-1.5,0.7-1.5,1.5v3.6c0,0.8,0.7,1.5,1.5,1.5h47c0.9,0,1.5-0.6,1.5-1.5v-3.6
		C141.1,286,140.4,285.3,139.6,285.3z M138.1,288.9h-44c0,0,0-0.6,0-0.6h44V288.9z"/>
	<path class="st0" d="M373.9,158h269.5c0.8,0,1.5-0.6,1.5-1.4V36.8c0-0.8-0.7-1.5-1.5-1.5H373.9c-0.8,0-1.5,0.7-1.5,1.5v119.7
		C372.4,157.3,373.1,158,373.9,158z M375.4,38.3h266.5V155H375.4V38.3z"/>
	<path class="st0" d="M635.4,43.3H381.9c-0.8,0-1.5,0.7-1.5,1.5v103.7c0,0.8,0.7,1.5,1.5,1.5h253.5c0.8,0,1.5-0.6,1.5-1.4V44.8
		C636.9,44,636.2,43.3,635.4,43.3z M633.9,147H383.4V46.3h250.5V147z"/>
	<path class="st0" d="M277.4,103.4h20.2c0.9,0,1.5-0.6,1.5-1.5V76.2c0-0.8-0.7-1.5-1.5-1.5H295v-9.8h2.6c0.9,0,1.5-0.7,1.5-1.5V37.7
		c0-0.8-0.7-1.5-1.5-1.5h-20.2c-0.8,0-1.5,0.7-1.5,1.5v25.7c0,0.8,0.7,1.5,1.5,1.5h2.5v9.8h-2.5c-0.8,0-1.5,0.7-1.5,1.5v25.7
		C275.9,102.7,276.6,103.4,277.4,103.4z M278.9,39.2h17.2v22.7h-2.6h-12.1h-2.5V39.2z M283,64.9h9.1v9.8H283V64.9z M278.9,77.7h2.5
		h12.1h2.6v22.7h-17.2V77.7z"/>
	<path class="st0" d="M176.4,54.5c-0.6-0.6-1.5-0.6-2.1,0c-0.6,0.6-0.6,1.5,0,2.1l58.3,58.3c0.3,0.3,0.7,0.4,1.1,0.4s0.8-0.2,1-0.4
		c0.6-0.6,0.6-1.5,0-2.1L176.4,54.5z"/>
	<path class="st0" d="M231.7,72c0.3,0.3,0.7,0.4,1.1,0.4c0.3,0,0.7-0.2,1-0.4c0.6-0.6,0.6-1.5,0-2.1l-15.4-15.4
		c-0.6-0.6-1.5-0.6-2.1,0c-0.6,0.6-0.6,1.5,0,2.1L231.7,72z"/>
	<path class="st0" d="M154.2,54.5c-0.6-0.6-1.5-0.6-2.1,0c-0.6,0.6-0.6,1.5,0,2.1l67.1,67.1c0.3,0.3,0.7,0.4,1.1,0.4
		c0.4,0,0.8-0.2,1-0.4c0.6-0.6,0.6-1.5,0-2.1L154.2,54.5z"/>
	<path class="st0" d="M99.3,81.4c-0.6-0.6-1.5-0.6-2.1,0c-0.6,0.6-0.6,1.5,0,2.1l38.8,38.8c0.3,0.3,0.7,0.4,1.1,0.4
		c0.4,0,0.7-0.2,1-0.4c0.6-0.6,0.6-1.5,0-2.1L99.3,81.4z"/>
	<path class="st0" d="M99.3,103.9c-0.6-0.6-1.5-0.6-2.1,0c-0.6,0.6-0.6,1.5,0,2.1l17.6,17.7c0.3,0.3,0.7,0.4,1.1,0.4
		c0.4,0,0.8-0.2,1-0.5c0.6-0.6,0.6-1.5,0-2.1L99.3,103.9z"/>
	<path class="st0" d="M524,224.9v3.7c0,0.8,0.7,1.5,1.5,1.5s1.5-0.7,1.5-1.5v-3.7c0-0.8-0.7-1.5-1.5-1.5S524,224.1,524,224.9z"/>
	<path class="st0" d="M292,58.9c0.9,0,1.5-0.7,1.5-1.5v-15c0-0.8-0.7-1.5-1.5-1.5s-1.5,0.7-1.5,1.5v15
		C290.5,58.2,291.2,58.9,292,58.9z"/>
	<path class="st0" d="M292,79.4c-0.8,0-1.5,0.7-1.5,1.5v16.2c0,0.8,0.7,1.5,1.5,1.5c0.9,0,1.5-0.6,1.5-1.5V80.9
		C293.5,80.1,292.8,79.4,292,79.4z"/>
	<path class="st0" d="M33.7,103.4H54c0.8,0,1.5-0.6,1.5-1.5V76.2c0-0.8-0.7-1.5-1.5-1.5h-2.6v-9.8H54c0.8,0,1.5-0.7,1.5-1.5V37.7
		c0-0.8-0.7-1.5-1.5-1.5H33.7c-0.8,0-1.5,0.7-1.5,1.5v25.7c0,0.8,0.7,1.5,1.5,1.5h2.6v9.8h-2.6c-0.8,0-1.5,0.7-1.5,1.5v25.7
		C32.2,102.7,32.9,103.4,33.7,103.4z M35.2,39.2h17.2v22.7h-2.5H37.8h-2.6V39.2z M39.3,64.9h9.1v9.8h-9.1
		C39.3,74.7,39.3,64.9,39.3,64.9z M35.2,77.7h2.6h12.1h2.5v22.7H35.2V77.7z"/>
	<path class="st0" d="M48.4,58.9c0.8,0,1.5-0.7,1.5-1.5v-15c0-0.8-0.7-1.5-1.5-1.5c-0.8,0-1.5,0.7-1.5,1.5v15
		C46.9,58.2,47.6,58.9,48.4,58.9z"/>
	<path class="st0" d="M48.4,79.4c-0.8,0-1.5,0.7-1.5,1.5v16.2c0,0.8,0.7,1.5,1.5,1.5c0.8,0,1.5-0.6,1.5-1.5V80.9
		C49.9,80.1,49.2,79.4,48.4,79.4z"/>
	<path class="st0" d="M109.7,183.8c0.8,0,1.5-0.7,1.5-1.5v-6.1c0-0.8-0.7-1.5-1.5-1.5h-5c-0.8,0-1.5,0.7-1.5,1.5v1.4h-4.9
		c-0.8,0-1.5,0.7-1.5,1.5s0.7,1.5,1.5,1.5h6.4c0.8,0,1.5-0.7,1.5-1.5v-1.4h2v4.6C108.2,183.1,108.9,183.8,109.7,183.8z"/>
	<path class="st0" d="M180.8,324.4c0.8,0,1.5-0.7,1.5-1.5v-94.7c0-0.8-0.7-1.5-1.5-1.5c-0.8,0-1.5,0.7-1.5,1.5v94.7
		C179.3,323.7,180,324.4,180.8,324.4z"/>
	<path class="st0" d="M56.9,272.3h115.9c0.8,0,1.5-0.7,1.5-1.5s-0.7-1.5-1.5-1.5H56.9c-0.8,0-1.5,0.7-1.5,1.5S56.1,272.3,56.9,272.3
		z"/>
	<path class="st0" d="M666.1,289l-36.7-0.2c-0.8,0-1.5,0.7-1.5,1.5s0.7,1.5,1.5,1.5l36.7,0.2c0.8,0,1.5-0.6,1.5-1.5
		C667.6,289.7,666.9,289,666.1,289z"/>
	<path class="st0" d="M400.2,288.9h-57.8c-0.8,0-1.5,0.7-1.5,1.5s0.7,1.5,1.5,1.5h57.8c0.8,0,1.5-0.7,1.5-1.5S401,288.9,400.2,288.9
		z"/>
	<path class="st0" d="M331.9,0.9c-0.8,0-1.5,0.7-1.5,1.5v332.7H292c-0.8,0-1.5,0.7-1.5,1.5s0.7,1.5,1.5,1.5h39.9
		c0.9,0,1.5-0.6,1.5-1.4V2.4C333.4,1.6,332.7,0.9,331.9,0.9z"/>
	<path class="st0" d="M43.9,335.1H1.4c-0.8,0-1.5,0.7-1.5,1.5s0.7,1.5,1.5,1.5h42.5c0.8,0,1.5-0.6,1.5-1.5
		C45.4,335.8,44.7,335.1,43.9,335.1z"/>
	<path class="st0" d="M248.1,335.1H82.7c-0.8,0-1.5,0.7-1.5,1.5s0.7,1.5,1.5,1.5h165.4c0.8,0,1.5-0.6,1.5-1.5
		C249.6,335.8,248.9,335.1,248.1,335.1z"/>
	<path class="st0" d="M393.5,136.9h12c0.8,0,1.5-0.7,1.5-1.5v-7.9h14.5c0.8,0,1.5-0.7,1.5-1.5v-2.5h21v12c0,0.8,0.7,1.5,1.5,1.5h6
		c0.8,0,1.5-0.7,1.5-1.5v-25.8h31v25.8c0,0.8,0.7,1.5,1.5,1.5h9.3c0.8,0,1.5-0.7,1.5-1.5v-7.9H524v7.9c0,0.8,0.7,1.5,1.5,1.5h23.6
		c0.8,0,1.5-0.7,1.5-1.5V105H584v21.1c0,0.8,0.7,1.5,1.5,1.5h10c0.8,0,1.5-0.7,1.5-1.5V82.4h29.2c0.8,0,1.5-0.7,1.5-1.5
		c0-0.8-0.7-1.5-1.5-1.5h-30.7c-0.8,0-1.5,0.7-1.5,1.5v43.7h-7v-21.1c0-0.8-0.7-1.5-1.5-1.5h-36.4c-0.8,0-1.5,0.7-1.5,1.5V134H527
		v-7.9c0-0.8-0.7-1.5-1.5-1.5h-30.7c-0.8,0-1.5,0.7-1.5,1.5v7.9H487v-25.8c0-0.8-0.7-1.5-1.5-1.5h-34c-0.8,0-1.5,0.7-1.5,1.5V134h-3
		v-12c0-0.8-0.7-1.5-1.5-1.5h-24c-0.8,0-1.5,0.7-1.5,1.5v2.5h-14.5c-0.8,0-1.5,0.7-1.5,1.5v7.9h-10.5c-0.8,0-1.5,0.7-1.5,1.5
		C392,136.2,392.7,136.9,393.5,136.9z"/>
	<path class="st0" d="M606.7,85.7c-0.8,0-1.5,0.7-1.5,1.5v45c0,0.8,0.7,1.5,1.5,1.5c0.9,0,1.5-0.7,1.5-1.5v-45
		C608.2,86.4,607.5,85.7,606.7,85.7z"/>
	<path class="st0" d="M617.2,85.7c-0.8,0-1.5,0.7-1.5,1.5v45c0,0.8,0.7,1.5,1.5,1.5c0.9,0,1.5-0.7,1.5-1.5v-45
		C618.7,86.4,618,85.7,617.2,85.7z"/>
	<path class="st0" d="M578.7,110.1h-22.5c-0.8,0-1.5,0.7-1.5,1.5c0,0.8,0.7,1.5,1.5,1.5h22.5c0.8,0,1.5-0.6,1.5-1.5
		C580.2,110.8,579.5,110.1,578.7,110.1z"/>
	<path class="st0" d="M578.7,119.1h-22.5c-0.8,0-1.5,0.7-1.5,1.5c0,0.8,0.7,1.5,1.5,1.5h22.5c0.8,0,1.5-0.6,1.5-1.5
		C580.2,119.8,579.5,119.1,578.7,119.1z"/>
	<path class="st0" d="M477.8,114.2h-18.4c-0.8,0-1.5,0.7-1.5,1.5c0,0.8,0.7,1.5,1.5,1.5h18.4c0.9,0,1.5-0.7,1.5-1.5
		C479.3,114.9,478.6,114.2,477.8,114.2z"/>
	<path class="st0" d="M477.8,125.2h-18.4c-0.8,0-1.5,0.7-1.5,1.5c0,0.8,0.7,1.5,1.5,1.5h18.4c0.9,0,1.5-0.7,1.5-1.5
		C479.3,125.9,478.6,125.2,477.8,125.2z"/>
</g>
</svg>
