<?xml version="1.0" encoding="utf-8"?>
<!-- Generator: Adobe Illustrator 24.0.1, SVG Export Plug-In . SVG Version: 6.00 Build 0)  -->
<svg version="1.1" id="Layer_1" xmlns="http://www.w3.org/2000/svg" xmlns:xlink="http://www.w3.org/1999/xlink" x="0px" y="0px"
	 viewBox="0 0 684 357" style="enable-background:new 0 0 684 357;" xml:space="preserve">
<style type="text/css">
	.st0{fill:#FFFFFF;}
</style>
<g id="background-bedroom">
	<g>
		<g>
			<path class="st0" d="M510.8,271.3H175.3c-0.8,0-1.5-0.7-1.5-1.5v-55c0-0.8,0.7-1.5,1.5-1.5h335.5c0.8,0,1.5,0.7,1.5,1.5v55
				C512.3,270.7,511.7,271.3,510.8,271.3z M176.8,268.3h332.5v-52H176.8V268.3z"/>
		</g>
		<g>
			<path class="st0" d="M510.8,340.9H175.3c-0.8,0-1.5-0.7-1.5-1.5v-19.2c0-0.8,0.7-1.5,1.5-1.5h335.5c0.8,0,1.5,0.7,1.5,1.5v19.2
				C512.3,340.2,511.7,340.9,510.8,340.9z M176.8,337.9h332.5v-16.2H176.8V337.9z"/>
		</g>
		<g>
			<path class="st0" d="M201.4,356.9h-15c-0.7,0-1.4-0.5-1.5-1.3l-2.4-16c-0.1-0.4,0.1-0.9,0.3-1.2c0.3-0.3,0.7-0.5,1.1-0.5h20
				c0.4,0,0.9,0.2,1.1,0.5c0.3,0.3,0.4,0.8,0.3,1.2l-2.6,16C202.8,356.4,202.2,356.9,201.4,356.9z M187.8,353.9h12.4l2.1-13h-16.5
				L187.8,353.9z"/>
		</g>
		<g>
			<path class="st0" d="M499.4,356.9h-15c-0.7,0-1.4-0.5-1.5-1.3l-2.4-16c-0.1-0.4,0.1-0.9,0.3-1.2c0.3-0.3,0.7-0.5,1.1-0.5h20
				c0.4,0,0.9,0.2,1.1,0.5c0.3,0.3,0.4,0.8,0.3,1.2l-2.6,16C500.8,356.4,500.1,356.9,499.4,356.9z M485.7,353.9h12.4l2.1-13h-16.5
				L485.7,353.9z"/>
		</g>
		<g>
			<path class="st0" d="M513.9,321.7H171.5c-1.8,0-3.3-1.5-3.3-3.3v-36.8c0-1.8,1.5-3.3,3.3-3.3h342.3c1.8,0,3.3,1.5,3.3,3.3v36.8
				C517.2,320.2,515.7,321.7,513.9,321.7z M171.5,281.3c-0.2,0-0.3,0.1-0.3,0.3v36.8c0,0.2,0.1,0.3,0.3,0.3h342.3
				c0.2,0,0.3-0.1,0.3-0.3v-36.8c0-0.2-0.1-0.3-0.3-0.3H171.5z"/>
		</g>
		<g>
			<path class="st0" d="M319.2,271.3H203.6c-0.8,0-1.5-0.7-1.5-1.5v-20.3c0-6.1,5-11.1,11.1-11.1h96.4c6.1,0,11.1,5,11.1,11.1v20.3
				C320.7,270.7,320.1,271.3,319.2,271.3z M205.1,268.3h112.6v-18.8c0-4.5-3.6-8.1-8.1-8.1h-96.4c-4.5,0-8.1,3.6-8.1,8.1V268.3z"/>
		</g>
		<g>
			<path class="st0" d="M482,271.3H366.4c-0.8,0-1.5-0.7-1.5-1.5v-20.3c0-6.1,5-11.1,11.1-11.1h96.4c6.1,0,11.1,5,11.1,11.1v20.3
				C483.5,270.7,482.8,271.3,482,271.3z M367.9,268.3h112.6v-18.8c0-4.5-3.6-8.1-8.1-8.1H376c-4.5,0-8.1,3.6-8.1,8.1V268.3z"/>
		</g>
		<g>
			<path class="st0" d="M516.2,337.5c-1.9,0-3.9-0.2-5.5-0.3c-0.8-0.1-1.4-0.7-1.4-1.5v-15.5c0-0.8,0.7-1.5,1.5-1.5h3
				c0.2,0,0.3-0.1,0.3-0.3v-36.8c0-0.2-0.1-0.3-0.3-0.3H171.5c-0.2,0-0.3,0.1-0.3,0.3v36.8c0,0.2,0.1,0.3,0.3,0.3h3.8
				c0.8,0,1.5,0.7,1.5,1.5v11c0,0.4-0.2,0.8-0.5,1.1c-0.3,0.3-0.8,0.4-1.2,0.4c-1.6-0.2-2.9-0.4-4.1-0.5c0,0-0.1,0-0.1,0
				c-0.2,0-1.1-0.2-2.1-0.2c-1.3,0-1.8,0.2-1.9,0.3c-0.1,0-0.1,0.1-0.2,0.1c-0.7,0.4-0.8,0.7-1,1.2c-0.4,1.1-1,2.2-3.4,2.7
				c-1.7,0.3-3.6,0.2-5.7-0.3c-2.1-0.5-4.4-1.3-6.8-2.4c-0.6-0.3-1-1-0.8-1.7l11.3-52.5c0.2-1.2,2.1-11.2,15.1-11.2h335.4
				c0.1,0,0.4,0,0.7,0c2.4,0,10.5,0.7,12.9,9.3c0.6,2.3,2.6,10.2,5.5,21.7c2.5,9.7,5.2,20.6,7,28l0.1,0.4c0.1,0.4,0,0.8-0.2,1.2
				c-0.2,0.3-0.6,0.6-0.9,0.7c-1.3,0.3-2.6,0.5-4,0.8c-1.1,0.2-2.1,0.4-3.1,0.6c-3,0.7-4,1.2-4.3,1.4c0.1,0.1,0.2,0.3,0.5,0.6
				c0.3,0.3,0.5,0.7,0.5,1.1c0,0.4-0.2,0.8-0.5,1.1C523.2,336.8,520.4,337.5,516.2,337.5z M512.3,334.4c1.2,0.1,2.6,0.2,3.9,0.2
				c2.4,0,4.3-0.3,5.6-0.9c-0.4-0.7-0.5-1.4-0.3-2.1c0.5-1.9,2.9-2.8,6.6-3.6c1-0.2,2.1-0.4,3.2-0.6c0.8-0.1,1.6-0.3,2.4-0.5
				c-1.8-7.3-4.4-17.6-6.7-26.8c-2.9-11.5-4.9-19.4-5.5-21.7c-1.7-6.4-7.6-7.1-10-7.1c-0.3,0-0.5,0-0.6,0c0,0-0.1,0-0.1,0H175.3
				c-11,0-12.1,8.3-12.1,8.6c0,0,0,0.1,0,0.1l-11.1,51.3c1.8,0.8,3.5,1.4,5.1,1.7c1.7,0.4,3.3,0.5,4.5,0.3c0.9-0.2,0.9-0.3,1.1-0.7
				c0.3-0.7,0.6-1.8,2.2-2.7c0.8-0.6,2-0.9,3.7-0.9c1.1,0,2.1,0.1,2.6,0.2c0.8,0.1,1.6,0.1,2.5,0.3v-7.8h-2.3
				c-1.8,0-3.3-1.5-3.3-3.3v-36.8c0-1.8,1.5-3.3,3.3-3.3h342.3c1.8,0,3.3,1.5,3.3,3.3v36.8c0,1.8-1.5,3.3-3.3,3.3h-1.5V334.4z"/>
		</g>
	</g>
	<g>
		<g>
			<g>
				<path class="st0" d="M664.5,349.4H657c-0.8,0-1.5-0.7-1.5-1.5v-70.7h-118v70.7c0,0.8-0.7,1.5-1.5,1.5h-7.5
					c-0.8,0-1.5-0.7-1.5-1.5v-18.5c0-0.7,0.5-1.3,1.2-1.5c1-0.2,2.1-0.4,3.2-0.6c0.8-0.1,1.6-0.3,2.4-0.5
					c-1.8-7.3-4.4-17.6-6.7-26.8c0-0.1,0-0.2,0-0.4v-32c0-0.8,0.7-1.5,1.5-1.5h136c0.8,0,1.5,0.7,1.5,1.5v80.3
					C666,348.8,665.3,349.4,664.5,349.4z M658.5,346.4h4.5v-77.3H530v30.3c1.5,6,3.1,12.4,4.5,18.1v-41.9c0-0.8,0.7-1.5,1.5-1.5h121
					c0.8,0,1.5,0.7,1.5,1.5V346.4z M530,346.4h4.5v-16.7c-0.9,0.2-1.7,0.3-2.6,0.5c-0.7,0.1-1.3,0.3-1.9,0.4V346.4z"/>
			</g>
			<g>
				<path class="st0" d="M657,332.9H536c-0.8,0-1.5-0.7-1.5-1.5v-28.5c0-0.8,0.7-1.5,1.5-1.5h121c0.8,0,1.5,0.7,1.5,1.5v28.5
					C658.5,332.3,657.8,332.9,657,332.9z M537.5,329.9h118v-25.5h-118V329.9z"/>
			</g>
			<g>
				<path class="st0" d="M611.2,288.4h-29.4c-0.8,0-1.5-0.7-1.5-1.5v-4.4c0-0.8,0.7-1.5,1.5-1.5h29.4c0.8,0,1.5,0.7,1.5,1.5v4.4
					C612.7,287.8,612,288.4,611.2,288.4z M583.3,285.4h26.4v-1.4h-26.4V285.4z"/>
			</g>
			<g>
				<path class="st0" d="M611.2,317.3h-29.4c-0.8,0-1.5-0.7-1.5-1.5v-4.4c0-0.8,0.7-1.5,1.5-1.5h29.4c0.8,0,1.5,0.7,1.5,1.5v4.4
					C612.7,316.6,612,317.3,611.2,317.3z M583.3,314.3h26.4v-1.4h-26.4V314.3z"/>
			</g>
		</g>
		<g>
			<g>
				<path class="st0" d="M636.3,259.7h-17.1c-2,0-3.7-1.7-3.7-3.7v-17.5c0-0.8,0.7-1.5,1.5-1.5h21.5c0.8,0,1.5,0.7,1.5,1.5v0.7
					c3.1,0.7,5.4,3.4,5.4,6.7c0,3.3-2.3,6-5.4,6.7v3.4C640,258.1,638.4,259.7,636.3,259.7z M618.6,240v16c0,0.4,0.3,0.7,0.7,0.7
					h17.1c0.4,0,0.7-0.3,0.7-0.7v-4.7c0-0.8,0.7-1.5,1.5-1.5c2.1,0,3.9-1.7,3.9-3.9c0-2.1-1.7-3.9-3.9-3.9c-0.8,0-1.5-0.7-1.5-1.5
					V240H618.6z"/>
			</g>
			<g>
				<path class="st0" d="M649.6,264.2h-42.1c-0.8,0-1.5-0.7-1.5-1.5c0-0.8,0.7-1.5,1.5-1.5h42.1c0.8,0,1.5,0.7,1.5,1.5
					C651.1,263.5,650.5,264.2,649.6,264.2z"/>
			</g>
			<g>
				<path class="st0" d="M630.5,233.4c-0.5,0-1-0.3-1.3-0.8c-5.5-9.6-2-15.4,1-20.6c2.8-4.8,5-8.5,0.8-14.8
					c-0.5-0.7-0.3-1.6,0.4-2.1c0.7-0.5,1.6-0.3,2.1,0.4c5.2,7.8,2.1,13.2-0.7,18c-2.9,4.9-5.6,9.6-1,17.6c0.4,0.7,0.2,1.6-0.6,2
					C631,233.3,630.7,233.4,630.5,233.4z"/>
			</g>
			<g>
				<path class="st0" d="M625.1,231.9c-0.6,0-1.1-0.3-1.4-0.9c-2.9-6.8-1.4-11.5-0.1-15.5c1.3-3.9,2.3-7-0.3-11.7
					c-0.4-0.7-0.1-1.6,0.6-2c0.7-0.4,1.6-0.1,2,0.6c3.2,5.9,1.9,10,0.5,14.1c-1.3,3.9-2.5,7.6,0,13.4c0.3,0.8,0,1.6-0.8,2
					C625.5,231.9,625.3,231.9,625.1,231.9z"/>
			</g>
		</g>
		<g>
			<g>
				<path class="st0" d="M584.4,269.2h-28.2c-0.8,0-1.5-0.7-1.5-1.5v-3.5c0-0.6,0.3-1.1,0.9-1.4c12.7-5.7,8.8-39.4,8.7-39.8
					c-0.1-0.4,0.1-0.9,0.4-1.2c0.3-0.3,0.7-0.5,1.1-0.5h9c0.4,0,0.8,0.2,1.1,0.5c0.3,0.3,0.4,0.8,0.4,1.2c0,0.3-4,34.1,8.7,39.8
					c0.5,0.2,0.9,0.8,0.9,1.4v3.5C585.9,268.5,585.2,269.2,584.4,269.2z M557.6,266.2h25.2v-1c-12.1-6.7-10.5-33.6-9.8-40.8h-5.7
					c0.7,7.1,2.3,34-9.8,40.8V266.2z"/>
			</g>
			<g>
				<path class="st0" d="M598.9,224.4h-57.3c-0.8,0-1.5-0.7-1.5-1.5v-36.2c0-0.8,0.7-1.5,1.5-1.5h57.3c0.8,0,1.5,0.7,1.5,1.5v36.2
					C600.4,223.7,599.7,224.4,598.9,224.4z M543.1,221.4h54.3v-33.2h-54.3V221.4z"/>
			</g>
			<g>
				<path class="st0" d="M557.8,241.3c-0.8,0-1.5-0.7-1.5-1.5v-17c0-0.8,0.7-1.5,1.5-1.5c0.8,0,1.5,0.7,1.5,1.5v17
					C559.3,240.7,558.6,241.3,557.8,241.3z"/>
			</g>
		</g>
	</g>
	<g>
		<g>
			<g>
				<path class="st0" d="M156.9,349.4h-7.5c-0.8,0-1.5-0.7-1.5-1.5v-70.7h-118v70.7c0,0.8-0.7,1.5-1.5,1.5h-7.5
					c-0.8,0-1.5-0.7-1.5-1.5v-80.3c0-0.8,0.7-1.5,1.5-1.5h136c0.8,0,1.5,0.7,1.5,1.5v34.6c0,0.1,0,0.2,0,0.3l-6.2,28.8
					c1.8,0.8,3.5,1.4,5.1,1.7c0.7,0.1,1.2,0.8,1.2,1.5v13.4C158.4,348.8,157.7,349.4,156.9,349.4z M150.9,346.4h4.5v-10.7
					c-1.4-0.4-2.9-0.9-4.5-1.6V346.4z M22.4,346.4h4.5v-70.7c0-0.8,0.7-1.5,1.5-1.5h121c0.8,0,1.5,0.7,1.5,1.5v47.4l4.5-21v-33h-133
					V346.4z"/>
			</g>
			<g>
				<path class="st0" d="M149.4,332.9h-121c-0.8,0-1.5-0.7-1.5-1.5v-28.5c0-0.8,0.7-1.5,1.5-1.5h121c0.8,0,1.5,0.7,1.5,1.5v28.5
					C150.9,332.3,150.2,332.9,149.4,332.9z M29.9,329.9h118v-25.5h-118V329.9z"/>
			</g>
			<g>
				<path class="st0" d="M103.6,288.4H74.2c-0.8,0-1.5-0.7-1.5-1.5v-4.4c0-0.8,0.7-1.5,1.5-1.5h29.4c0.8,0,1.5,0.7,1.5,1.5v4.4
					C105.1,287.8,104.4,288.4,103.6,288.4z M75.7,285.4h26.4v-1.4H75.7V285.4z"/>
			</g>
			<g>
				<path class="st0" d="M103.6,317.3H74.2c-0.8,0-1.5-0.7-1.5-1.5v-4.4c0-0.8,0.7-1.5,1.5-1.5h29.4c0.8,0,1.5,0.7,1.5,1.5v4.4
					C105.1,316.6,104.4,317.3,103.6,317.3z M75.7,314.3h26.4v-1.4H75.7V314.3z"/>
			</g>
		</g>
		<g>
			<g>
				<path class="st0" d="M127.5,269.2H99.3c-0.8,0-1.5-0.7-1.5-1.5v-3.5c0-0.6,0.3-1.1,0.9-1.4c12.7-5.7,8.8-39.4,8.7-39.8
					c-0.1-0.4,0.1-0.9,0.4-1.2c0.3-0.3,0.7-0.5,1.1-0.5h9c0.4,0,0.8,0.2,1.1,0.5c0.3,0.3,0.4,0.8,0.4,1.2c0,0.3-4,34.1,8.7,39.8
					c0.5,0.2,0.9,0.8,0.9,1.4v3.5C129,268.5,128.3,269.2,127.5,269.2z M100.8,266.2H126v-1c-12.1-6.7-10.5-33.6-9.8-40.8h-5.7
					c0.7,7.1,2.3,34-9.8,40.8V266.2z"/>
			</g>
			<g>
				<path class="st0" d="M142.1,224.4H84.7c-0.8,0-1.5-0.7-1.5-1.5v-36.2c0-0.8,0.7-1.5,1.5-1.5h57.3c0.8,0,1.5,0.7,1.5,1.5v36.2
					C143.6,223.7,142.9,224.4,142.1,224.4z M86.2,221.4h54.3v-33.2H86.2V221.4z"/>
			</g>
			<g>
				<path class="st0" d="M125.8,241.3c-0.8,0-1.5-0.7-1.5-1.5v-17c0-0.8,0.7-1.5,1.5-1.5c0.8,0,1.5,0.7,1.5,1.5v17
					C127.3,240.7,126.7,241.3,125.8,241.3z"/>
			</g>
		</g>
		<g>
			<g>
				<path class="st0" d="M69,269.2C69,269.2,69,269.2,69,269.2H43.7c-0.4,0-0.8-0.2-1.1-0.5c-0.3-0.3-0.4-0.7-0.4-1.1l2.5-53.9
					c0-0.8,0.7-1.4,1.5-1.4h20.4c0.8,0,1.5,0.6,1.5,1.4l2.4,53.6c0,0.1,0,0.2,0,0.3C70.5,268.5,69.9,269.2,69,269.2z M45.3,266.2
					h22.2l-2.3-50.9H47.7L45.3,266.2z"/>
			</g>
			<g>
				<path class="st0" d="M56.4,186.7c-0.3,0-0.5-0.1-0.8-0.2c-0.4-0.2-9.7-6-9.9-20.7c0-0.1,0-0.3,0-0.5c0-0.2,0-0.4,0-0.7
					c0.3-4,2.6-7.4,6.2-9c2.6-1.2,5.7-1.3,8.4-0.2c3.7,1.5,6.3,5.1,6.6,9.1c0,0.2,0,0.5,0,0.7c0,0.2,0,0.4,0,0.5
					c-0.2,14.6-9.5,20.4-9.9,20.6C56.9,186.6,56.6,186.7,56.4,186.7z M56.4,157.7c-1.1,0-2.2,0.2-3.1,0.7c-2.6,1.2-4.3,3.7-4.5,6.5
					c0,0.1,0,0.3,0,0.5c0,0.1,0,0.3,0,0.4c0.1,10.6,5.6,16,7.6,17.6c2.1-1.6,7.5-6.9,7.6-17.6c0-0.2,0-0.3,0-0.5c0-0.2,0-0.3,0-0.5
					c-0.2-2.9-2.1-5.5-4.7-6.6C58.3,157.8,57.4,157.7,56.4,157.7z"/>
			</g>
			<g>
				<path class="st0" d="M56.4,171.4c-0.8,0-1.5-0.7-1.5-1.5v-7.4c0-0.8,0.7-1.5,1.5-1.5c0.8,0,1.5,0.7,1.5,1.5v7.4
					C57.9,170.7,57.2,171.4,56.4,171.4z"/>
			</g>
			<g>
				<path class="st0" d="M79.8,171.4c-3.7,0-9.4-1-15.3-5.5c-0.3-0.3-0.6-0.7-0.6-1.1c-0.2-2.9-2-5.5-4.7-6.6
					c-0.5-0.2-0.8-0.6-0.9-1.2c-0.5-3.4,0.6-6.7,3-9c2-2,4.7-3.1,7.5-3.1c2.8,0,5.5,1.1,7.5,3.1c0.1,0.1,0.2,0.2,0.4,0.4
					c10.2,10.5,7.7,21.1,7.6,21.6c-0.1,0.5-0.6,1-1.1,1.1C83.2,171.1,81.9,171.4,79.8,171.4z M66.9,163.9c5,3.7,9.8,4.5,12.9,4.5
					c0.7,0,1.3,0,1.8-0.1c0.3-2.6,0.4-10.2-7-17.8c-0.1-0.1-0.2-0.2-0.3-0.3c-1.4-1.4-3.4-2.2-5.4-2.2c-2,0-4,0.8-5.4,2.2
					c-1.5,1.5-2.3,3.6-2.2,5.7C64.3,157.4,66.4,160.5,66.9,163.9z"/>
			</g>
			<g>
				<path class="st0" d="M72.1,160.2c-0.4,0-0.8-0.1-1.1-0.4l-5.3-5.3c-0.6-0.6-0.6-1.5,0-2.1c0.6-0.6,1.5-0.6,2.1,0l5.3,5.3
					c0.6,0.6,0.6,1.5,0,2.1C72.9,160.1,72.5,160.2,72.1,160.2z"/>
			</g>
			<g>
				<path class="st0" d="M32.6,171.6c-2.1,0-3.3-0.3-3.5-0.3c-0.5-0.1-1-0.6-1.1-1.1c-0.1-0.4-2.6-11.1,7.6-21.6
					c0.1-0.1,0.2-0.2,0.3-0.4c2-2,4.7-3.1,7.5-3.1c2.8,0,5.5,1.1,7.5,3.1c2.3,2.3,3.5,5.6,3,8.9c-0.1,0.5-0.4,1-0.9,1.2
					c-2.6,1.2-4.3,3.6-4.5,6.5c0,0.4-0.2,0.8-0.6,1.1C42.2,170.6,36.4,171.6,32.6,171.6z M30.8,168.5c0.5,0.1,1.1,0.1,1.8,0.1
					c3.2,0,8.1-0.8,13.2-4.7c0.4-3.3,2.4-6.3,5.4-7.9c0.1-2.1-0.7-4.1-2.2-5.6c-1.4-1.4-3.4-2.2-5.4-2.2c-2,0-4,0.8-5.4,2.2
					c-0.1,0.1-0.2,0.2-0.3,0.3C30.4,158.4,30.5,165.9,30.8,168.5z"/>
			</g>
			<g>
				<path class="st0" d="M40.3,160.5c-0.4,0-0.8-0.1-1.1-0.4c-0.6-0.6-0.6-1.5,0-2.1l5.3-5.3c0.6-0.6,1.5-0.6,2.1,0
					c0.6,0.6,0.6,1.5,0,2.1l-5.3,5.3C41.1,160.4,40.7,160.5,40.3,160.5z"/>
			</g>
			<g>
				<path class="st0" d="M56.4,215.3c-0.8,0-1.5-0.7-1.5-1.5v-28.6c0-0.8,0.7-1.5,1.5-1.5c0.8,0,1.5,0.7,1.5,1.5v28.6
					C57.9,214.6,57.2,215.3,56.4,215.3z"/>
			</g>
			<g>
				<path class="st0" d="M52.4,215.3c-0.7,0-1.3-0.5-1.5-1.2l-9.5-45.7c-0.2-0.8,0.4-1.6,1.2-1.8c0.8-0.2,1.6,0.4,1.8,1.2l9.5,45.7
					c0.2,0.8-0.4,1.6-1.2,1.8C52.6,215.3,52.5,215.3,52.4,215.3z"/>
			</g>
			<g>
				<path class="st0" d="M60.3,215.3c-0.1,0-0.2,0-0.3,0c-0.8-0.2-1.3-1-1.2-1.8l9.7-46.3c0.2-0.8,1-1.3,1.8-1.2
					c0.8,0.2,1.3,1,1.2,1.8l-9.7,46.3C61.7,214.8,61,215.3,60.3,215.3z"/>
			</g>
			<g>
				<path class="st0" d="M49.2,263.4C49.2,263.4,49.2,263.4,49.2,263.4c-0.9,0-1.5-0.7-1.5-1.6l1.7-42.7c0-0.8,0.7-1.5,1.6-1.4
					c0.8,0,1.5,0.7,1.4,1.6L50.7,262C50.7,262.8,50,263.4,49.2,263.4z"/>
			</g>
		</g>
	</g>
	<g>
		<g>
			<path class="st0" d="M447,145H232.7c-0.8,0-1.5-0.7-1.5-1.5V27.1c0-0.8,0.7-1.5,1.5-1.5H447c0.8,0,1.5,0.7,1.5,1.5v116.4
				C448.5,144.3,447.8,145,447,145z M234.2,142h211.3V28.6H234.2V142z"/>
		</g>
		<g>
			<path class="st0" d="M434.6,132.6H245.1c-0.8,0-1.5-0.7-1.5-1.5V39.4c0-0.8,0.7-1.5,1.5-1.5h189.5c0.8,0,1.5,0.7,1.5,1.5v91.7
				C436.1,131.9,435.5,132.6,434.6,132.6z M246.6,129.6h186.5V40.9H246.6V129.6z"/>
		</g>
		<g>
			<path class="st0" d="M245.1,102.9c-0.7,0-1.3-0.4-1.4-1.1c-0.2-0.8,0.3-1.6,1.1-1.8l51.5-13.8c0.4-0.1,0.9,0,1.3,0.2l7.6,5.7
				l41.5-14.4c0.4-0.1,0.9-0.1,1.3,0.2l10.9,7l40.4-26c0.5-0.3,1.1-0.3,1.6,0l8.9,5.2l8.7-2.8c0.6-0.2,1.3,0,1.7,0.6l15.7,22.6
				c0.5,0.7,0.3,1.6-0.4,2.1c-0.7,0.5-1.6,0.3-2.1-0.4l-15-21.7l-8.2,2.7c-0.4,0.1-0.8,0.1-1.2-0.1l-8.7-5l-40.5,26
				c-0.5,0.3-1.1,0.3-1.6,0L347,80.8l-41.6,14.4c-0.5,0.2-1,0.1-1.4-0.2l-7.6-5.7l-50.8,13.6C245.4,102.9,245.3,102.9,245.1,102.9z"
				/>
		</g>
		<g>
			<path class="st0" d="M341.3,82.6c-0.3,0-0.6-0.1-0.8-0.3l-15.1-10.1l-13.3,4.3c-0.4,0.1-0.7,0.1-1.1-0.1l-26.2-12l-39.2,12.1
				c-0.8,0.2-1.6-0.2-1.9-1c-0.2-0.8,0.2-1.6,1-1.9l39.8-12.2c0.4-0.1,0.7-0.1,1.1,0.1l26.2,12l13.4-4.3c0.4-0.1,0.9-0.1,1.3,0.2
				l15.7,10.5c0.7,0.5,0.9,1.4,0.4,2.1C342.3,82.4,341.8,82.6,341.3,82.6z"/>
		</g>
		<g>
			<path class="st0" d="M404.2,86.8c-0.3,0-0.6-0.1-0.9-0.3l-12-9.4c-0.7-0.5-0.8-1.5-0.3-2.1c0.5-0.7,1.5-0.8,2.1-0.3l10.8,8.5
				l6.8-8.3c0.4-0.5,1.2-0.7,1.8-0.4l14.8,7.5c0.7,0.4,1,1.3,0.7,2c-0.4,0.7-1.3,1-2,0.7l-13.7-7l-7,8.5
				C405,86.6,404.6,86.8,404.2,86.8z"/>
		</g>
		<g>
			<path class="st0" d="M321,115.8c-0.4,0-0.9-0.2-1.2-0.5l-3.9-4.8l-7.3,3.2c-0.4,0.2-0.8,0.2-1.2,0l-3.6-1.5l-8.6,1.6
				c-0.4,0.1-0.8,0-1.1-0.2l-7-4.5l-4.5,4.3c-0.4,0.4-1.1,0.5-1.6,0.3l-6.1-2.5h-9.7c-0.2,0-0.5-0.1-0.7-0.2l-1.4-0.7l-4.4,1.7
				c-0.5,0.2-1,0.1-1.4-0.1l-2.3-1.6l-4.3,1.7c-0.4,0.1-0.7,0.1-1.1,0l-5.2-2c-0.8-0.3-1.2-1.2-0.9-1.9c0.3-0.8,1.2-1.2,1.9-0.9
				l4.7,1.8l4.5-1.8c0.5-0.2,1-0.1,1.4,0.1l2.3,1.6l4.3-1.7c0.4-0.2,0.8-0.1,1.2,0.1l1.7,0.8h9.6c0.2,0,0.4,0,0.6,0.1l5.4,2.3
				l4.6-4.4c0.5-0.5,1.3-0.6,1.8-0.2l7.5,4.8l8.4-1.6c0.3-0.1,0.6,0,0.9,0.1l3.4,1.4l7.7-3.4c0.6-0.3,1.3-0.1,1.8,0.4l4,4.9l6-2
				c0.3-0.1,0.7-0.1,1,0l5.9,2.1l6-4.7c0.4-0.3,1.1-0.4,1.6-0.2c2.8,1.3,6.2,2.8,7.1,3c0.7-0.1,4.2-1.4,7.1-2.6
				c0.5-0.2,1.2-0.1,1.6,0.3l4.3,4l9.4-4.3c0.6-0.2,1.2-0.1,1.6,0.3l4.1,3.8l7.3-5.6c0.5-0.4,1.1-0.4,1.7-0.1l6.2,3.6l4.5-2
				c0.4-0.2,0.9-0.2,1.3,0l4.6,2.3l3.3-2.2c0.7-0.4,1.6-0.3,2,0.3l2.1,2.8l12.3-3.4c0.6-0.2,1.2,0,1.5,0.5l3.2,3.7l6.9-4
				c0.7-0.4,1.6-0.2,2.1,0.5c0.4,0.7,0.2,1.6-0.5,2.1l-8,4.7c-0.6,0.4-1.4,0.2-1.9-0.3l-3.4-3.9l-12.3,3.4c-0.6,0.2-1.2-0.1-1.6-0.5
				l-1.9-2.5l-2.8,1.9c-0.4,0.3-1,0.3-1.5,0.1l-4.7-2.3l-4.5,2c-0.4,0.2-1,0.2-1.4-0.1l-6-3.5l-7.5,5.7c-0.6,0.4-1.4,0.4-1.9-0.1
				l-4.3-4l-9.4,4.3c-0.6,0.2-1.2,0.1-1.6-0.3l-4.3-4c-3,1.2-6.4,2.4-7.3,2.4c-0.8,0-3.3-1-7.5-2.9l-5.9,4.6
				c-0.4,0.3-0.9,0.4-1.4,0.2l-6.2-2.2l-6.5,2.2C321.3,115.7,321.2,115.8,321,115.8z"/>
		</g>
		<g>
			<path class="st0" d="M360.5,68.5c-5.6,0-10.2-4.6-10.2-10.2S354.9,48,360.5,48c5.6,0,10.2,4.6,10.2,10.2S366.2,68.5,360.5,68.5z
				 M360.5,51c-4,0-7.2,3.2-7.2,7.2s3.2,7.2,7.2,7.2c4,0,7.2-3.2,7.2-7.2S364.5,51,360.5,51z"/>
		</g>
		<g>
			<path class="st0" d="M357.7,56.4h-32.5c-0.8,0-1.5-0.7-1.5-1.5c0-0.8,0.7-1.5,1.5-1.5h32.5c0.8,0,1.5,0.7,1.5,1.5
				C359.2,55.7,358.5,56.4,357.7,56.4z"/>
		</g>
		<g>
			<path class="st0" d="M356.4,61.6h-13.5c-0.8,0-1.5-0.7-1.5-1.5c0-0.8,0.7-1.5,1.5-1.5h13.5c0.8,0,1.5,0.7,1.5,1.5
				C357.9,60.9,357.2,61.6,356.4,61.6z"/>
		</g>
		<g>
			<path class="st0" d="M412.9,53.1h-28c-0.8,0-1.5-0.7-1.5-1.5c0-0.8,0.7-1.5,1.5-1.5h28c0.8,0,1.5,0.7,1.5,1.5
				C414.4,52.4,413.7,53.1,412.9,53.1z"/>
		</g>
		<g>
			<path class="st0" d="M395.4,47.9h-18.5c-0.8,0-1.5-0.7-1.5-1.5c0-0.8,0.7-1.5,1.5-1.5h18.5c0.8,0,1.5,0.7,1.5,1.5
				C396.9,47.2,396.2,47.9,395.4,47.9z"/>
		</g>
		<g>
			<path class="st0" d="M303.4,47.9h-39.2c-0.8,0-1.5-0.7-1.5-1.5c0-0.8,0.7-1.5,1.5-1.5h39.2c0.8,0,1.5,0.7,1.5,1.5
				C304.9,47.2,304.2,47.9,303.4,47.9z"/>
		</g>
		<g>
			<path class="st0" d="M434.6,125.1H245.1c-0.8,0-1.5-0.7-1.5-1.5s0.7-1.5,1.5-1.5h189.5c0.8,0,1.5,0.7,1.5,1.5
				S435.5,125.1,434.6,125.1z"/>
		</g>
	</g>
	<g>
		<g>
			<path class="st0" d="M184.1,204.5c-0.8,0-1.5-0.7-1.5-1.5V2.1c0-0.8,0.7-1.5,1.5-1.5s1.5,0.7,1.5,1.5v201
				C185.6,203.9,184.9,204.5,184.1,204.5z"/>
		</g>
		<g>
			<path class="st0" d="M500.9,204.5c-0.8,0-1.5-0.7-1.5-1.5V2.1c0-0.8,0.7-1.5,1.5-1.5c0.8,0,1.5,0.7,1.5,1.5v201
				C502.4,203.9,501.7,204.5,500.9,204.5z"/>
		</g>
		<g>
			<path class="st0" d="M10.4,340.9h-9c-0.8,0-1.5-0.7-1.5-1.5c0-0.8,0.7-1.5,1.5-1.5h9c0.8,0,1.5,0.7,1.5,1.5
				C11.9,340.2,11.2,340.9,10.4,340.9z"/>
		</g>
		<g>
			<path class="st0" d="M137.9,340.9h-100c-0.8,0-1.5-0.7-1.5-1.5c0-0.8,0.7-1.5,1.5-1.5h100c0.8,0,1.5,0.7,1.5,1.5
				C139.4,340.2,138.7,340.9,137.9,340.9z"/>
		</g>
		<g>
			<path class="st0" d="M644.2,340.9h-96.3c-0.8,0-1.5-0.7-1.5-1.5c0-0.8,0.7-1.5,1.5-1.5h96.3c0.8,0,1.5,0.7,1.5,1.5
				C645.7,340.2,645,340.9,644.2,340.9z"/>
		</g>
		<g>
			<path class="st0" d="M682,340.9h-7.8c-0.8,0-1.5-0.7-1.5-1.5s0.7-1.5,1.5-1.5h7.8c0.8,0,1.5,0.7,1.5,1.5S682.8,340.9,682,340.9z"
				/>
		</g>
	</g>
</g>
</svg>
