<?xml version="1.0" encoding="utf-8"?>
<!-- Generator: Adobe Illustrator 24.0.1, SVG Export Plug-In . SVG Version: 6.00 Build 0)  -->
<svg version="1.1" id="Layer_1" xmlns="http://www.w3.org/2000/svg" xmlns:xlink="http://www.w3.org/1999/xlink" x="0px" y="0px"
	 viewBox="0 0 613 347" style="enable-background:new 0 0 613 347;" xml:space="preserve">
<style type="text/css">
	.st0{fill:#FFFFFF;}
</style>
<g>
	<g id="background-generic-room-2_2_">
		<g>
			<g>
				<path class="st0" d="M611.2,3.1H1.2C0.6,3.1,0,2.6,0,1.9s0.6-1.2,1.2-1.2h610c0.7,0,1.2,0.6,1.2,1.2S611.9,3.1,611.2,3.1z"/>
			</g>
			<path class="st0" d="M611.2,347.1H465.7c-0.7,0-1.2-0.6-1.2-1.2V109.1H358v236.8c0,0.7-0.6,1.2-1.2,1.2H1.2
				c-0.7,0-1.2-0.6-1.2-1.2s0.6-1.2,1.2-1.2h354.2V107.9c0-0.7,0.6-1.2,1.2-1.2h109c0.7,0,1.2,0.6,1.2,1.2v236.8h144.2
				c0.7,0,1.2,0.6,1.2,1.2S611.9,347.1,611.2,347.1z"/>
		</g>
	</g>
	<g>
		<path class="st0" d="M58.3,347h-3.8c-0.5,0-1-0.4-1-0.9c-2.1-26.5,12.7-35.3,13.3-35.7c0.4-0.2,1-0.1,1.3,0.2
			c0.3,0.4,0.3,0.9,0,1.3c-3.5,3.9-6.2,10-8.1,18c2.3-3.3,4.6-4.6,4.7-4.7c0.4-0.2,1-0.1,1.3,0.2c0.3,0.4,0.3,0.9,0,1.3
			c-3.3,3.7-5.6,10.4-6.6,19.4C59.2,346.6,58.8,347,58.3,347z M55.4,345h2c0.5-3.9,1.2-7.3,2.1-10.2c-0.4,0.8-0.7,1.7-1,2.7
			c-0.2,0.5-0.7,0.8-1.2,0.7c-0.5-0.1-0.8-0.6-0.8-1.1c1.1-7.5,2.8-13.8,5.1-18.8c-0.3,0.4-0.5,0.8-0.8,1.2
			C57.9,324.1,54.6,332.3,55.4,345z"/>
		<path class="st0" d="M54.2,347h-3.8c-0.5,0-0.9-0.4-1-0.9c-1-7.3-3-12.8-5.8-15.8c-0.3-0.4-0.3-0.9,0-1.3c0.3-0.4,0.8-0.5,1.3-0.2
			c0.1,0.1,2,1.2,4,3.9c-1.6-7-4-12.3-7.1-15.7c-0.3-0.4-0.3-0.9,0-1.3c0.3-0.4,0.8-0.5,1.3-0.2c0.5,0.3,13.3,7.9,12.2,30.7
			C55.1,346.6,54.7,347,54.2,347z M51.3,345h2c0.3-10-2.3-16.9-5-21.3c1.8,4.3,3.1,9.5,4,15.8c0.1,0.5-0.3,1-0.8,1.1
			c-0.5,0.1-1-0.2-1.2-0.7c0-0.1-0.1-0.2-0.1-0.2C50.6,341.3,51,343.1,51.3,345z"/>
		<path class="st0" d="M90,347h-3.3c-0.5,0-0.8-0.3-0.9-0.8c-1.8-22.9,10.9-30.5,11.5-30.8c0.4-0.2,0.8-0.1,1.1,0.2
			c0.3,0.3,0.3,0.8,0,1.1c-3,3.4-5.4,8.6-7,15.5c2-2.8,4-4,4.1-4.1c0.4-0.2,0.8-0.1,1.1,0.2c0.3,0.3,0.3,0.8,0,1.1
			c-2.8,3.2-4.8,9-5.7,16.7C90.8,346.7,90.5,347,90,347z M87.5,345.3h1.8c0.4-3.3,1-6.3,1.8-8.8c-0.3,0.7-0.6,1.5-0.8,2.3
			c-0.1,0.4-0.6,0.7-1,0.6c-0.4-0.1-0.7-0.5-0.7-1c0.9-6.5,2.4-11.9,4.4-16.2c-0.2,0.3-0.5,0.7-0.7,1
			C89.7,327.2,86.8,334.3,87.5,345.3z"/>
		<path class="st0" d="M86.4,347h-3.3c-0.4,0-0.8-0.3-0.9-0.7c-0.9-6.3-2.6-11-5-13.7c-0.3-0.3-0.3-0.8,0-1.1
			c0.3-0.3,0.7-0.4,1.1-0.2c0.1,0.1,1.8,1,3.5,3.4c-1.4-6-3.5-10.6-6.2-13.6c-0.3-0.3-0.3-0.8,0-1.1c0.3-0.3,0.7-0.4,1.1-0.2
			c0.5,0.3,11.5,6.9,10.5,26.5C87.3,346.6,86.9,347,86.4,347z M83.9,345.3h1.7c0.3-8.7-2-14.6-4.3-18.4c1.5,3.7,2.7,8.2,3.5,13.6
			c0.1,0.4-0.2,0.9-0.7,1c-0.4,0.1-0.9-0.2-1-0.6c0-0.1,0-0.1-0.1-0.2C83.4,342.1,83.7,343.6,83.9,345.3z"/>
	</g>
	<g>
		<path class="st0" d="M127.3,347h-3.8c-0.5,0-1-0.4-1-0.9c-2.1-26.5,12.7-35.3,13.3-35.7c0.4-0.2,1-0.1,1.3,0.2
			c0.3,0.4,0.3,0.9,0,1.3c-3.5,3.9-6.2,10-8.1,18c2.3-3.3,4.6-4.6,4.7-4.7c0.4-0.2,1-0.1,1.3,0.2c0.3,0.4,0.3,0.9,0,1.3
			c-3.3,3.7-5.6,10.4-6.6,19.4C128.2,346.6,127.8,347,127.3,347z M124.4,345h2c0.5-3.9,1.2-7.3,2.1-10.2c-0.4,0.8-0.7,1.7-1,2.7
			c-0.2,0.5-0.7,0.8-1.2,0.7c-0.5-0.1-0.8-0.6-0.8-1.1c1.1-7.5,2.8-13.8,5.1-18.8c-0.3,0.4-0.5,0.8-0.8,1.2
			C126.9,324.1,123.6,332.3,124.4,345z"/>
		<path class="st0" d="M123.2,347h-3.8c-0.5,0-0.9-0.4-1-0.9c-1-7.3-3-12.8-5.8-15.8c-0.3-0.4-0.3-0.9,0-1.3
			c0.3-0.4,0.8-0.5,1.3-0.2c0.1,0.1,2,1.2,4,3.9c-1.6-7-4-12.3-7.1-15.7c-0.3-0.4-0.3-0.9,0-1.3c0.3-0.4,0.8-0.5,1.3-0.2
			c0.5,0.3,13.3,7.9,12.2,30.7C124.1,346.6,123.7,347,123.2,347z M120.3,345h2c0.3-10-2.3-16.9-5-21.3c1.8,4.3,3.1,9.5,4,15.8
			c0.1,0.5-0.3,1-0.8,1.1c-0.5,0.1-1-0.2-1.2-0.7c0-0.1-0.1-0.2-0.1-0.2C119.6,341.3,120,343.1,120.3,345z"/>
		<path class="st0" d="M159,347h-3.3c-0.5,0-0.8-0.3-0.9-0.8c-1.8-22.9,10.9-30.5,11.5-30.8c0.4-0.2,0.8-0.1,1.1,0.2
			c0.3,0.3,0.3,0.8,0,1.1c-3,3.4-5.4,8.6-7,15.5c2-2.8,4-4,4.1-4.1c0.4-0.2,0.8-0.1,1.1,0.2c0.3,0.3,0.3,0.8,0,1.1
			c-2.8,3.2-4.8,9-5.7,16.7C159.8,346.7,159.5,347,159,347z M156.5,345.3h1.8c0.4-3.3,1-6.3,1.8-8.8c-0.3,0.7-0.6,1.5-0.9,2.3
			c-0.1,0.4-0.6,0.7-1,0.6c-0.4-0.1-0.7-0.5-0.7-1c0.9-6.5,2.4-11.9,4.4-16.2c-0.2,0.3-0.5,0.7-0.7,1
			C158.7,327.2,155.8,334.3,156.5,345.3z"/>
		<path class="st0" d="M155.4,347h-3.3c-0.4,0-0.8-0.3-0.9-0.7c-0.9-6.3-2.6-11-5-13.7c-0.3-0.3-0.3-0.8,0-1.1
			c0.3-0.3,0.7-0.4,1.1-0.2c0.1,0.1,1.8,1,3.5,3.4c-1.4-6-3.5-10.6-6.2-13.6c-0.3-0.3-0.3-0.8,0-1.1c0.3-0.3,0.7-0.4,1.1-0.2
			c0.5,0.3,11.5,6.9,10.5,26.5C156.3,346.6,155.9,347,155.4,347z M152.9,345.3h1.7c0.3-8.7-2-14.6-4.3-18.4
			c1.5,3.7,2.7,8.2,3.5,13.6c0.1,0.4-0.2,0.9-0.7,1c-0.4,0.1-0.9-0.2-1-0.6c0-0.1,0-0.1-0.1-0.2
			C152.4,342.1,152.7,343.6,152.9,345.3z"/>
	</g>
	<g>
		<path class="st0" d="M197.3,347h-3.8c-0.5,0-1-0.4-1-0.9c-2.1-26.5,12.7-35.3,13.3-35.7c0.4-0.2,1-0.1,1.3,0.2
			c0.3,0.4,0.3,0.9,0,1.3c-3.5,3.9-6.2,10-8.1,18c2.3-3.3,4.6-4.6,4.7-4.7c0.4-0.2,1-0.1,1.3,0.2c0.3,0.4,0.3,0.9,0,1.3
			c-3.3,3.7-5.6,10.4-6.6,19.4C198.2,346.6,197.8,347,197.3,347z M194.4,345h2c0.5-3.9,1.2-7.3,2.1-10.2c-0.4,0.8-0.7,1.7-1,2.7
			c-0.2,0.5-0.7,0.8-1.2,0.7c-0.5-0.1-0.8-0.6-0.8-1.1c1.1-7.5,2.8-13.8,5.1-18.8c-0.3,0.4-0.5,0.8-0.8,1.2
			C196.9,324.1,193.6,332.3,194.4,345z"/>
		<path class="st0" d="M193.2,347h-3.8c-0.5,0-0.9-0.4-1-0.9c-1-7.3-3-12.8-5.8-15.8c-0.3-0.4-0.3-0.9,0-1.3
			c0.3-0.4,0.8-0.5,1.3-0.2c0.1,0.1,2,1.2,4,3.9c-1.6-7-4-12.3-7.1-15.7c-0.3-0.4-0.3-0.9,0-1.3c0.3-0.4,0.8-0.5,1.3-0.2
			c0.5,0.3,13.3,7.9,12.2,30.7C194.1,346.6,193.7,347,193.2,347z M190.3,345h2c0.3-10-2.3-16.9-5-21.3c1.8,4.3,3.1,9.5,4,15.8
			c0.1,0.5-0.3,1-0.8,1.1c-0.5,0.1-1-0.2-1.2-0.7c0-0.1-0.1-0.2-0.1-0.2C189.6,341.3,190,343.1,190.3,345z"/>
		<path class="st0" d="M229,347h-3.3c-0.5,0-0.8-0.3-0.9-0.8c-1.8-22.9,10.9-30.5,11.5-30.8c0.4-0.2,0.8-0.1,1.1,0.2
			c0.3,0.3,0.3,0.8,0,1.1c-3,3.4-5.4,8.6-7,15.5c2-2.8,4-4,4.1-4.1c0.4-0.2,0.8-0.1,1.1,0.2c0.3,0.3,0.3,0.8,0,1.1
			c-2.8,3.2-4.8,9-5.7,16.7C229.8,346.7,229.5,347,229,347z M226.5,345.3h1.8c0.4-3.3,1-6.3,1.8-8.8c-0.3,0.7-0.6,1.5-0.9,2.3
			c-0.1,0.4-0.6,0.7-1,0.6c-0.4-0.1-0.7-0.5-0.7-1c0.9-6.5,2.4-11.9,4.4-16.2c-0.2,0.3-0.5,0.7-0.7,1
			C228.7,327.2,225.8,334.3,226.5,345.3z"/>
		<path class="st0" d="M225.4,347h-3.3c-0.4,0-0.8-0.3-0.9-0.7c-0.9-6.3-2.6-11-5-13.7c-0.3-0.3-0.3-0.8,0-1.1
			c0.3-0.3,0.7-0.4,1.1-0.2c0.1,0.1,1.8,1,3.5,3.4c-1.4-6-3.5-10.6-6.2-13.6c-0.3-0.3-0.3-0.8,0-1.1c0.3-0.3,0.7-0.4,1.1-0.2
			c0.5,0.3,11.5,6.9,10.5,26.5C226.3,346.6,225.9,347,225.4,347z M222.9,345.3h1.7c0.3-8.7-2-14.6-4.3-18.4
			c1.5,3.7,2.7,8.2,3.5,13.6c0.1,0.4-0.2,0.9-0.7,1c-0.4,0.1-0.9-0.2-1-0.6c0-0.1,0-0.1-0.1-0.2
			C222.4,342.1,222.7,343.6,222.9,345.3z"/>
	</g>
	<g>
		<path class="st0" d="M266.3,347h-3.8c-0.5,0-1-0.4-1-0.9c-2.1-26.5,12.7-35.3,13.3-35.7c0.4-0.2,1-0.1,1.3,0.2
			c0.3,0.4,0.3,0.9,0,1.3c-3.5,3.9-6.2,10-8.1,18c2.3-3.3,4.6-4.6,4.7-4.7c0.4-0.2,1-0.1,1.3,0.2c0.3,0.4,0.3,0.9,0,1.3
			c-3.3,3.7-5.6,10.4-6.6,19.4C267.2,346.6,266.8,347,266.3,347z M263.4,345h2c0.5-3.9,1.2-7.3,2.1-10.2c-0.4,0.8-0.7,1.7-1,2.7
			c-0.2,0.5-0.7,0.8-1.2,0.7c-0.5-0.1-0.8-0.6-0.8-1.1c1.1-7.5,2.8-13.8,5.1-18.8c-0.3,0.4-0.5,0.8-0.8,1.2
			C265.9,324.1,262.6,332.3,263.4,345z"/>
		<path class="st0" d="M262.2,347h-3.8c-0.5,0-0.9-0.4-1-0.9c-1-7.3-3-12.8-5.8-15.8c-0.3-0.4-0.3-0.9,0-1.3
			c0.3-0.4,0.8-0.5,1.3-0.2c0.1,0.1,2,1.2,4,3.9c-1.6-7-4-12.3-7.1-15.7c-0.3-0.4-0.3-0.9,0-1.3c0.3-0.4,0.8-0.5,1.3-0.2
			c0.5,0.3,13.3,7.9,12.2,30.7C263.1,346.6,262.7,347,262.2,347z M259.3,345h2c0.3-10-2.3-16.9-5-21.3c1.8,4.3,3.1,9.5,4,15.8
			c0.1,0.5-0.3,1-0.8,1.1c-0.5,0.1-1-0.2-1.2-0.7c0-0.1-0.1-0.2-0.1-0.2C258.6,341.3,259,343.1,259.3,345z"/>
		<path class="st0" d="M298,347h-3.3c-0.5,0-0.8-0.3-0.9-0.8c-1.8-22.9,10.9-30.5,11.5-30.8c0.4-0.2,0.8-0.1,1.1,0.2
			c0.3,0.3,0.3,0.8,0,1.1c-3,3.4-5.4,8.6-7,15.5c2-2.8,4-4,4.1-4.1c0.4-0.2,0.8-0.1,1.1,0.2c0.3,0.3,0.3,0.8,0,1.1
			c-2.8,3.2-4.8,9-5.7,16.7C298.8,346.7,298.5,347,298,347z M295.5,345.3h1.8c0.4-3.3,1-6.3,1.8-8.8c-0.3,0.7-0.6,1.5-0.9,2.3
			c-0.1,0.4-0.6,0.7-1,0.6c-0.4-0.1-0.7-0.5-0.7-1c0.9-6.5,2.4-11.9,4.4-16.2c-0.2,0.3-0.5,0.7-0.7,1
			C297.7,327.2,294.8,334.3,295.5,345.3z"/>
		<path class="st0" d="M294.4,347h-3.3c-0.4,0-0.8-0.3-0.9-0.7c-0.9-6.3-2.6-11-5-13.7c-0.3-0.3-0.3-0.8,0-1.1
			c0.3-0.3,0.7-0.4,1.1-0.2c0.1,0.1,1.8,1,3.5,3.4c-1.4-6-3.5-10.6-6.2-13.6c-0.3-0.3-0.3-0.8,0-1.1c0.3-0.3,0.7-0.4,1.1-0.2
			c0.5,0.3,11.5,6.9,10.5,26.5C295.3,346.6,294.9,347,294.4,347z M291.9,345.3h1.7c0.3-8.7-2-14.6-4.3-18.4
			c1.5,3.7,2.7,8.2,3.5,13.6c0.1,0.4-0.2,0.9-0.7,1c-0.4,0.1-0.9-0.2-1-0.6c0-0.1,0-0.1-0.1-0.2
			C291.4,342.1,291.7,343.6,291.9,345.3z"/>
	</g>
</g>
</svg>
