<?xml version="1.0" encoding="utf-8"?>
<!-- Generator: Adobe Illustrator 24.0.1, SVG Export Plug-In . SVG Version: 6.00 Build 0)  -->
<svg version="1.1" id="Layer_1" xmlns="http://www.w3.org/2000/svg" xmlns:xlink="http://www.w3.org/1999/xlink" x="0px" y="0px"
	 viewBox="0 0 684 357" style="enable-background:new 0 0 684 357;" xml:space="preserve">
<style type="text/css">
	.st0{fill:#FFFFFF;}
</style>
<g id="background-attic">
	<g>
		<path class="st0" d="M454.3,105.1H229.9c-0.7,0-1.2-0.6-1.2-1.2s0.6-1.2,1.2-1.2h224.3c0.7,0,1.2,0.6,1.2,1.2
			S455,105.1,454.3,105.1z"/>
		<path class="st0" d="M467.8,116h-251c-0.7,0-1.2-0.6-1.2-1.2s0.6-1.2,1.2-1.2h251c0.7,0,1.2,0.6,1.2,1.2S468.5,116,467.8,116z"/>
		<path class="st0" d="M260.4,65.8c-0.4,0-0.7-0.2-1-0.5c-0.4-0.5-0.3-1.3,0.2-1.8l12.2-9.4c0.5-0.4,1.3-0.3,1.8,0.2
			c0.4,0.5,0.3,1.3-0.2,1.8l-12.2,9.4C261,65.8,260.7,65.8,260.4,65.8z"/>
		<path class="st0" d="M327.1,27c-0.4,0-0.7-0.2-1-0.5c-0.4-0.5-0.3-1.3,0.2-1.8L341,13l0-9.2l-28.5,22.1c-0.5,0.4-1.3,0.3-1.8-0.2
			c-0.4-0.5-0.3-1.3,0.2-1.8l30.6-23.6c0.4-0.3,0.9-0.3,1.3-0.1c0.4,0.2,0.7,0.6,0.7,1.1l-0.1,12.4c0,0.4-0.2,0.7-0.5,1l-15.2,12.1
			C327.6,26.9,327.3,27,327.1,27z"/>
		<path class="st0" d="M277.4,66.6c-0.4,0-0.7-0.2-1-0.5c-0.4-0.5-0.3-1.3,0.2-1.8l11.7-9.3c0.5-0.4,1.3-0.3,1.8,0.2
			c0.4,0.5,0.3,1.3-0.2,1.8l-11.7,9.3C278,66.5,277.7,66.6,277.4,66.6z"/>
		<path class="st0" d="M46.8,250.4c-0.4,0-0.7-0.2-1-0.5c-0.4-0.5-0.3-1.3,0.2-1.8L244.6,90.3c0.5-0.4,1.3-0.3,1.8,0.2
			c0.4,0.5,0.3,1.3-0.2,1.8L47.6,250.1C47.4,250.3,47.1,250.4,46.8,250.4z"/>
		<path class="st0" d="M46.8,231c-0.4,0-0.7-0.2-1-0.5c-0.4-0.5-0.3-1.3,0.2-1.8L226.6,89.3c0.5-0.4,1.3-0.3,1.8,0.2
			c0.4,0.5,0.3,1.3-0.2,1.8L47.6,230.8C47.4,231,47.1,231,46.8,231z"/>
		<path class="st0" d="M372.8,26.1c-0.3,0-0.5-0.1-0.8-0.3L343.5,3.8l0,9.2l13.6,10.9c0.5,0.4,0.6,1.2,0.2,1.8
			c-0.4,0.5-1.2,0.6-1.8,0.2l-14.1-11.2c-0.3-0.2-0.5-0.6-0.5-1L341,1.3c0-0.5,0.3-0.9,0.7-1.1c0.4-0.2,0.9-0.2,1.3,0.1l30.6,23.6
			c0.5,0.4,0.6,1.2,0.2,1.8C373.6,26,373.2,26.1,372.8,26.1z"/>
		<path class="st0" d="M407.1,66.5c-0.3,0-0.5-0.1-0.8-0.3l-10.7-8.5c-0.5-0.4-0.6-1.2-0.2-1.8c0.4-0.5,1.2-0.6,1.8-0.2l10.7,8.5
			c0.5,0.4,0.6,1.2,0.2,1.8C407.8,66.3,407.4,66.5,407.1,66.5z"/>
		<path class="st0" d="M635,248.2c-0.3,0-0.5-0.1-0.8-0.3L439.6,92.2c-0.5-0.4-0.6-1.2-0.2-1.8c0.4-0.5,1.2-0.6,1.8-0.2L635.8,246
			c0.5,0.4,0.6,1.2,0.2,1.8C635.8,248,635.4,248.2,635,248.2z"/>
		<path class="st0" d="M635,228.9c-0.3,0-0.5-0.1-0.8-0.3L456.6,91.2c-0.5-0.4-0.6-1.2-0.2-1.8c0.4-0.5,1.2-0.6,1.8-0.2l177.7,137.4
			c0.5,0.4,0.6,1.2,0.2,1.8C635.8,228.7,635.4,228.9,635,228.9z"/>
		<path class="st0" d="M424.8,66.3c-0.3,0-0.5-0.1-0.8-0.3L412.3,57c-0.5-0.4-0.6-1.2-0.2-1.8c0.4-0.5,1.2-0.6,1.8-0.2l11.7,9.1
			c0.5,0.4,0.6,1.2,0.2,1.8C425.6,66.2,425.2,66.3,424.8,66.3z"/>
	</g>
	<g>
		<g>
			<path class="st0" d="M499.3,70.9h-305c-0.7,0-1.2-0.6-1.2-1.2s0.6-1.2,1.2-1.2h305c0.7,0,1.2,0.6,1.2,1.2S500,70.9,499.3,70.9z"
				/>
			<path class="st0" d="M518.3,86.1H176c-0.7,0-1.2-0.6-1.2-1.2s0.6-1.2,1.2-1.2h342.4c0.7,0,1.2,0.6,1.2,1.2S519,86.1,518.3,86.1z"
				/>
		</g>
		<path class="st0" d="M436.3,23.4c-0.3,0-0.5-0.1-0.7-0.2L412.4,6c-0.6-0.4-0.7-1.2-0.3-1.7c0.4-0.6,1.2-0.7,1.7-0.3L437,21.1
			c0.6,0.4,0.7,1.2,0.3,1.7C437,23.2,436.7,23.4,436.3,23.4z"/>
		<path class="st0" d="M635,176.5c-0.3,0-0.5-0.1-0.8-0.3l-151-117.8c-0.5-0.4-0.6-1.2-0.2-1.8c0.4-0.5,1.2-0.6,1.8-0.2l151,117.8
			c0.5,0.4,0.6,1.2,0.2,1.8C635.8,176.3,635.4,176.5,635,176.5z"/>
		<path class="st0" d="M634.9,151.2c-0.3,0-0.5-0.1-0.7-0.2L509.3,58.7c-0.6-0.4-0.7-1.2-0.3-1.7c0.4-0.6,1.2-0.7,1.7-0.3
			l124.9,92.2c0.6,0.4,0.7,1.2,0.3,1.7C635.7,151,635.3,151.2,634.9,151.2z"/>
		<path class="st0" d="M460.9,22.6c-0.3,0-0.5-0.1-0.7-0.2L438.1,6.1c-0.6-0.4-0.7-1.2-0.3-1.7c0.4-0.6,1.2-0.7,1.7-0.3l22.1,16.3
			c0.6,0.4,0.7,1.2,0.3,1.7C461.7,22.5,461.3,22.6,460.9,22.6z"/>
		<path class="st0" d="M255.3,25.3c-0.4,0-0.8-0.2-1-0.5c-0.4-0.6-0.3-1.3,0.3-1.7L280.4,4c0.6-0.4,1.3-0.3,1.7,0.3
			c0.4,0.6,0.3,1.3-0.3,1.7L256,25.1C255.8,25.2,255.5,25.3,255.3,25.3z"/>
		<path class="st0" d="M46.9,186.1c-0.4,0-0.7-0.2-1-0.5c-0.4-0.5-0.3-1.3,0.2-1.8L209.3,56.5c0.5-0.4,1.3-0.3,1.8,0.2
			c0.4,0.5,0.3,1.3-0.2,1.8L47.7,185.8C47.4,186,47.2,186.1,46.9,186.1z"/>
		<path class="st0" d="M46.8,160.3c-0.4,0-0.8-0.2-1-0.5c-0.4-0.6-0.3-1.3,0.3-1.7l138.1-102c0.6-0.4,1.3-0.3,1.7,0.3
			c0.4,0.6,0.3,1.3-0.3,1.7l-138.1,102C47.4,160.3,47.1,160.3,46.8,160.3z"/>
		<path class="st0" d="M232.8,23c-0.4,0-0.8-0.2-1-0.5c-0.4-0.6-0.3-1.3,0.3-1.7l22.5-16.5c0.6-0.4,1.3-0.3,1.7,0.3
			c0.4,0.6,0.3,1.3-0.3,1.7l-22.5,16.5C233.3,22.9,233.1,23,232.8,23z"/>
	</g>
	<g>
		<path class="st0" d="M532.3,31h-360c-0.7,0-1.2-0.6-1.2-1.2s0.6-1.2,1.2-1.2h360c0.7,0,1.2,0.6,1.2,1.2S533,31,532.3,31z"/>
		<path class="st0" d="M561.3,53h-419c-0.7,0-1.2-0.6-1.2-1.2s0.6-1.2,1.2-1.2h419c0.7,0,1.2,0.6,1.2,1.2S562,53,561.3,53z"/>
		<path class="st0" d="M633.8,107.4c-0.3,0-0.5-0.1-0.8-0.3L500.4,6.4c-0.5-0.4-0.7-1.2-0.2-1.8c0.4-0.6,1.2-0.7,1.8-0.2
			l132.7,100.7c0.5,0.4,0.7,1.2,0.2,1.8C634.6,107.2,634.2,107.4,633.8,107.4z"/>
		<path class="st0" d="M635.2,76.2c-0.3,0-0.5-0.1-0.7-0.2L537.3,4.2c-0.6-0.4-0.7-1.2-0.3-1.7c0.4-0.6,1.2-0.7,1.7-0.3l97.2,71.8
			c0.6,0.4,0.7,1.2,0.3,1.7C635.9,76,635.5,76.2,635.2,76.2z"/>
		<path class="st0" d="M47.7,125c-0.4,0-0.8-0.2-1-0.5c-0.4-0.5-0.3-1.3,0.2-1.8L203,4.3c0.5-0.4,1.3-0.3,1.8,0.2
			c0.4,0.5,0.3,1.3-0.2,1.8L48.4,124.7C48.2,124.9,47.9,125,47.7,125z"/>
		<path class="st0" d="M47.3,93.3c-0.4,0-0.8-0.2-1-0.5c-0.4-0.6-0.3-1.3,0.3-1.7L164.1,4.2c0.6-0.4,1.3-0.3,1.7,0.3
			s0.3,1.3-0.3,1.7L48,93.1C47.8,93.2,47.6,93.3,47.3,93.3z"/>
	</g>
</g>
</svg>
