<?xml version="1.0" encoding="utf-8"?>
<!-- Generator: Adobe Illustrator 24.0.1, SVG Export Plug-In . SVG Version: 6.00 Build 0)  -->
<svg version="1.1" id="Layer_1" xmlns="http://www.w3.org/2000/svg" xmlns:xlink="http://www.w3.org/1999/xlink" x="0px" y="0px"
	 viewBox="0 0 613 344" style="enable-background:new 0 0 613 344;" xml:space="preserve">
<style type="text/css">
	.st0{fill:#FFFFFF;}
</style>
<g>
	<g id="background-generic-room-1_1_">
		<g>
			<path class="st0" d="M611.2,2.4H1.2C0.6,2.4,0,1.8,0,1.1s0.6-1.2,1.2-1.2h610c0.7,0,1.2,0.6,1.2,1.2S611.9,2.4,611.2,2.4z"/>
			<path class="st0" d="M570,61.4H356.5c-0.7,0-1.2-0.6-1.2-1.2s0.6-1.2,1.2-1.2H570c0.7,0,1.2,0.6,1.2,1.2S570.7,61.4,570,61.4z"/>
			<path class="st0" d="M253.7,61.4H43c-0.7,0-1.2-0.6-1.2-1.2s0.6-1.2,1.2-1.2h210.7c0.7,0,1.2,0.6,1.2,1.2S254.4,61.4,253.7,61.4z
				"/>
			<g>
				<path class="st0" d="M306.6,37.4c-5.3,0-10.2-0.4-14-1.2c-4.6-0.9-6.7-2.2-6.7-4.1c0-1.8,2.1-3.1,6.7-4.1
					c3.7-0.8,8.7-1.2,14-1.2c5.3,0,10.2,0.4,14,1.2c4.6,0.9,6.7,2.2,6.7,4.1c0,1.8-2.1,3.1-6.7,4.1C316.9,37,311.9,37.4,306.6,37.4z
					 M288.6,32.1c1.1,1.1,7.6,2.8,18.1,2.8s17-1.7,18.1-2.8c-1.1-1.1-7.6-2.7-18.1-2.7S289.7,31.1,288.6,32.1z M324.8,32.3
					L324.8,32.3L324.8,32.3z"/>
				<g>
					<path class="st0" d="M454,229.4c-0.4,0-0.8-0.2-1-0.6l-1.8-2.7c-0.4-0.6-0.2-1.4,0.4-1.7c0.6-0.4,1.4-0.2,1.7,0.4l1.8,2.7
						c0.4,0.6,0.2,1.4-0.4,1.7C454.5,229.3,454.3,229.4,454,229.4z"/>
					<path class="st0" d="M449.3,222.1c-0.4,0-0.8-0.2-1-0.6l-4.2-6.4c-0.4-0.6-0.2-1.4,0.4-1.7c0.6-0.4,1.4-0.2,1.7,0.4l4.2,6.4
						c0.4,0.6,0.2,1.4-0.4,1.7C449.7,222,449.5,222.1,449.3,222.1z"/>
					<path class="st0" d="M442,211.4c-0.4,0-0.8-0.2-1-0.6l-6.9-10.6c-0.4-0.6-0.2-1.4,0.4-1.7c0.6-0.4,1.4-0.2,1.7,0.4l6.9,10.6
						c0.4,0.6,0.2,1.4-0.4,1.7C442.5,211.3,442.3,211.4,442,211.4z"/>
					<path class="st0" d="M431.3,194.9c-0.4,0-0.8-0.2-1-0.6l-9.1-14c-0.4-0.6-0.2-1.4,0.4-1.7c0.6-0.4,1.4-0.2,1.7,0.4l9.1,14
						c0.4,0.6,0.2,1.4-0.4,1.7C431.8,194.8,431.5,194.9,431.3,194.9z"/>
					<path class="st0" d="M418.4,175.1c-0.4,0-0.8-0.2-1-0.6l-13.7-21.1c-0.4-0.6-0.2-1.4,0.4-1.7c0.6-0.4,1.4-0.2,1.7,0.4
						l13.7,21.1c0.4,0.6,0.2,1.4-0.4,1.7C418.9,175,418.6,175.1,418.4,175.1z"/>
					<path class="st0" d="M400.6,147.8c-0.4,0-0.8-0.2-1-0.6l-20.1-30.8c-0.4-0.6-0.2-1.4,0.4-1.7s1.4-0.2,1.7,0.4l20.1,30.8
						c0.4,0.6,0.2,1.4-0.4,1.7C401.1,147.8,400.9,147.8,400.6,147.8z"/>
					<path class="st0" d="M376.4,110.6c-0.4,0-0.8-0.2-1-0.6l-22.1-33.9c-0.4-0.6-0.2-1.4,0.4-1.7c0.6-0.4,1.4-0.2,1.7,0.4
						l22.1,33.9c0.4,0.6,0.2,1.4-0.4,1.7C376.8,110.6,376.6,110.6,376.4,110.6z"/>
					<path class="st0" d="M349.1,68.8c-0.4,0-0.8-0.2-1-0.6L325,32.8c-0.4-0.6-0.2-1.4,0.4-1.7c0.6-0.4,1.4-0.2,1.7,0.4l23.1,35.4
						c0.4,0.6,0.2,1.4-0.4,1.7C349.6,68.7,349.4,68.8,349.1,68.8z"/>
				</g>
				<g>
					<path class="st0" d="M159,229.4c-0.2,0-0.5-0.1-0.7-0.2c-0.6-0.4-0.7-1.2-0.4-1.7l1.8-2.7c0.4-0.6,1.2-0.7,1.7-0.4
						c0.6,0.4,0.7,1.2,0.4,1.7l-1.8,2.7C159.8,229.2,159.4,229.4,159,229.4z"/>
					<path class="st0" d="M163.8,222.1c-0.2,0-0.5-0.1-0.7-0.2c-0.6-0.4-0.7-1.2-0.4-1.7l4.2-6.4c0.4-0.6,1.2-0.7,1.7-0.4
						c0.6,0.4,0.7,1.2,0.4,1.7l-4.2,6.4C164.6,221.9,164.2,222.1,163.8,222.1z"/>
					<path class="st0" d="M171,211.4c-0.2,0-0.5-0.1-0.7-0.2c-0.6-0.4-0.7-1.2-0.4-1.7l6.9-10.6c0.4-0.6,1.2-0.7,1.7-0.4
						c0.6,0.4,0.7,1.2,0.4,1.7l-6.9,10.6C171.8,211.2,171.4,211.4,171,211.4z"/>
					<path class="st0" d="M181.8,194.9c-0.2,0-0.5-0.1-0.7-0.2c-0.6-0.4-0.7-1.2-0.4-1.7l9.1-14c0.4-0.6,1.2-0.7,1.7-0.4
						c0.6,0.4,0.7,1.2,0.4,1.7l-9.1,14C182.6,194.7,182.2,194.9,181.8,194.9z"/>
					<path class="st0" d="M194.7,175.1c-0.2,0-0.5-0.1-0.7-0.2c-0.6-0.4-0.7-1.2-0.4-1.7l13.7-21.1c0.4-0.6,1.2-0.7,1.7-0.4
						c0.6,0.4,0.7,1.2,0.4,1.7l-13.7,21.1C195.5,174.9,195.1,175.1,194.7,175.1z"/>
					<path class="st0" d="M212.5,147.8c-0.2,0-0.5-0.1-0.7-0.2c-0.6-0.4-0.7-1.2-0.4-1.7l20.1-30.8c0.4-0.6,1.2-0.7,1.7-0.4
						c0.6,0.4,0.7,1.2,0.4,1.7l-20.1,30.8C213.3,147.6,212.9,147.8,212.5,147.8z"/>
					<path class="st0" d="M236.7,110.6c-0.2,0-0.5-0.1-0.7-0.2c-0.6-0.4-0.7-1.2-0.4-1.7l22.1-33.9c0.4-0.6,1.2-0.7,1.7-0.4
						c0.6,0.4,0.7,1.2,0.4,1.7l-22.1,33.9C237.5,110.4,237.1,110.6,236.7,110.6z"/>
					<path class="st0" d="M264,68.8c-0.2,0-0.5-0.1-0.7-0.2c-0.6-0.4-0.7-1.2-0.4-1.7L286,31.5c0.4-0.6,1.2-0.7,1.7-0.4
						c0.6,0.4,0.7,1.2,0.4,1.7L265,68.2C264.8,68.6,264.4,68.8,264,68.8z"/>
				</g>
			</g>
		</g>
	</g>
	<g>
		<g>
			<g>
				<g>
					<g>
						<g>
							<path class="st0" d="M286.2,276.4h-70c-7.4,0-13.5-6.1-13.5-13.6v-70c0-0.6,0.4-1,1-1c7.7,0,13.9,7,17.9,20.3
								c3.2,10.5,5,25,5,39.9c0,4,1.5,7.4,4.4,10.1c10.8,9.7,38,8.1,49.3,7c3.7-0.4,6.8,2.6,6.8,6.2
								C287.2,275.9,286.7,276.4,286.2,276.4z M204.7,193.9v68.9c0,6.4,5.1,11.6,11.5,11.6H285c-0.5-2-2.4-3.4-4.5-3.2
								c-11.5,1.2-39.4,2.8-50.8-7.5c-3.4-3.1-5.1-6.9-5.1-11.6C224.6,224.7,218.4,195.3,204.7,193.9z"/>
							<path class="st0" d="M280.6,276.4h-64.4c-7.4,0-13.5-6.1-13.5-13.6v-66c0-0.3,0.2-0.7,0.5-0.8c0.3-0.2,0.6-0.2,1-0.1
								c13.2,6,17.8,35.6,17.8,59.2c0,4,1.5,7.4,4.4,10.1c10.8,9.7,38.1,8.1,49.3,7c2.3-0.2,4.5,0.8,5.8,2.7c0.2,0.3,0.2,0.7,0.1,1
								C281.3,276.2,281,276.4,280.6,276.4z M273,274.4h4.9c-0.6-0.2-1.3-0.3-2-0.3C275,274.2,274,274.3,273,274.4z M204.7,198.5
								v64.3c0,6.4,5.1,11.6,11.5,11.6h31.2c-8.8-0.9-17.2-3.2-22.3-7.8c-3.4-3.1-5.1-6.9-5.1-11.6
								C220,231.3,215.2,205.2,204.7,198.5z"/>
						</g>
						<path class="st0" d="M262.5,282.4h-42.3c-3.8,0-7-3.1-7-7c0-0.6,0.4-1,1-1h54.2c0.6,0,1,0.4,1,1
							C269.5,279.2,266.4,282.4,262.5,282.4z M215.3,276.4c0.5,2.3,2.5,4,4.9,4h42.3c2.4,0,4.4-1.7,4.9-4H215.3z"/>
						<path class="st0" d="M269,343.9h-4.2c-0.5,0-0.9-0.4-1-0.8l-2.4-14.1h-39.9l-2.4,14.1c-0.1,0.5-0.5,0.8-1,0.8h-4.2
							c-0.3,0-0.6-0.1-0.8-0.3c-0.2-0.2-0.3-0.5-0.2-0.8l8.5-61.5c0.1-0.5,0.5-0.9,1-0.9h6.4c0.3,0,0.6,0.1,0.8,0.4
							c0.2,0.2,0.3,0.5,0.2,0.8l-7.1,40.9h37.7l-7.1-40.9c0-0.3,0-0.6,0.2-0.8c0.2-0.2,0.5-0.4,0.8-0.4h6.4c0.5,0,0.9,0.4,1,0.9
							l8.5,61.5c0,0.3,0,0.6-0.2,0.8C269.6,343.8,269.3,343.9,269,343.9z M265.6,341.9h2.3l-8.2-59.5h-4.3l7.1,40.9
							c0,0.3,0,0.6-0.2,0.8c-0.2,0.2-0.5,0.4-0.8,0.4h-40.1c-0.3,0-0.6-0.1-0.8-0.4c-0.2-0.2-0.3-0.5-0.2-0.8l7.1-40.9h-4.3
							l-8.2,59.5h2.3l2.4-14.1c0.1-0.5,0.5-0.8,1-0.8h41.6c0.5,0,0.9,0.4,1,0.8L265.6,341.9z"/>
					</g>
				</g>
			</g>
			<g>
				<g>
					<g>
						<path class="st0" d="M416,238.6H273.2c-0.6,0-1-0.4-1-1v-15.5c0-0.6,0.4-1,1-1H416c0.6,0,1,0.4,1,1v15.5
							C417,238.1,416.6,238.6,416,238.6z M274.2,236.6H415v-13.5H274.2V236.6z"/>
						<path class="st0" d="M416,230.8H273.2c-0.6,0-1-0.4-1-1v-7.7c0-0.6,0.4-1,1-1H416c0.6,0,1,0.4,1,1v7.7
							C417,230.4,416.6,230.8,416,230.8z M274.2,228.8H415v-5.7H274.2V228.8z"/>
					</g>
					<g>
						<g>
							<path class="st0" d="M291.8,343.9h-5.6c-0.3,0-0.6-0.1-0.8-0.3c-0.2-0.2-0.3-0.5-0.2-0.8l14.6-105.3c0.1-0.5,0.5-0.9,1-0.9
								h9.3c0.3,0,0.6,0.1,0.8,0.4c0.2,0.2,0.3,0.5,0.2,0.8l-18.3,105.3C292.7,343.5,292.2,343.9,291.8,343.9z M287.3,341.9h3.6
								l18-103.3h-7.2L287.3,341.9z"/>
							<path class="st0" d="M403.1,343.9h-5.6c-0.5,0-0.9-0.3-1-0.8l-18.3-105.3c-0.1-0.3,0-0.6,0.2-0.8c0.2-0.2,0.5-0.4,0.8-0.4
								h9.3c0.5,0,0.9,0.4,1,0.9L404,342.7c0,0.3,0,0.6-0.2,0.8C403.6,343.8,403.3,343.9,403.1,343.9z M398.3,341.9h3.6l-14.4-103.3
								h-7.2L398.3,341.9z"/>
						</g>
					</g>
				</g>
			</g>
		</g>
		<path class="st0" d="M603,336.9H408.9c-0.6,0-1-0.4-1-1s0.4-1,1-1H603c0.6,0,1,0.4,1,1S603.5,336.9,603,336.9z"/>
		<path class="st0" d="M391.1,336.9h-91.6c-0.6,0-1-0.4-1-1s0.4-1,1-1h91.6c0.6,0,1,0.4,1,1S391.7,336.9,391.1,336.9z"/>
		<path class="st0" d="M283,336.9h-9.8c-0.6,0-1-0.4-1-1s0.4-1,1-1h9.8c0.6,0,1,0.4,1,1S283.5,336.9,283,336.9z"/>
		<path class="st0" d="M257.6,336.9H224c-0.6,0-1-0.4-1-1s0.4-1,1-1h33.6c0.6,0,1,0.4,1,1S258.2,336.9,257.6,336.9z"/>
		<path class="st0" d="M207.8,336.9H9c-0.6,0-1-0.4-1-1s0.4-1,1-1h198.9c0.6,0,1,0.4,1,1S208.4,336.9,207.8,336.9z"/>
	</g>
</g>
</svg>
