<?xml version="1.0" encoding="utf-8"?>
<!-- Generator: Adobe Illustrator 24.0.1, SVG Export Plug-In . SVG Version: 6.00 Build 0)  -->
<svg version="1.1" id="Layer_1" xmlns="http://www.w3.org/2000/svg" xmlns:xlink="http://www.w3.org/1999/xlink" x="0px" y="0px"
	 viewBox="0 0 684 357" style="enable-background:new 0 0 684 357;" xml:space="preserve">
<style type="text/css">
	.st0{opacity:0.2;fill:#C4C4C4;enable-background:new    ;}
</style>
<g>
	<path class="st0" d="M261.2,65.5l12.2-9.4c0.5-0.5,0.6-1.3,0.2-1.8c-0.5-0.5-1.3-0.6-1.8-0.2l-12.2,9.4c-0.5,0.5-0.6,1.3-0.2,1.8
		c0.3,0.3,0.6,0.5,1,0.5C260.7,65.8,261,65.8,261.2,65.5z"/>
	<path class="st0" d="M312.5,25.9L341,3.8l-0.1,9.3l-14.6,11.6c-0.5,0.5-0.6,1.3-0.2,1.8c0.3,0.3,0.6,0.5,1,0.5
		c0.2,0,0.5-0.1,0.6-0.2l14.5-11.5l13.3,10.6c0.6,0.4,1.4,0.3,1.8-0.2c0.4-0.6,0.3-1.4-0.2-1.8L343.5,13V3.8l28.5,22
		c0.3,0.2,0.5,0.3,0.8,0.3c0.4,0,0.8-0.1,1-0.4c0.4-0.6,0.3-1.4-0.2-1.8L343,0.3c-0.2-0.1-0.3-0.2-0.5-0.2c0,0,0,0,0,0
		c-0.1,0-0.2,0-0.2,0c-0.1,0-0.2,0-0.2,0c0,0,0,0,0,0c-0.2,0-0.4,0.1-0.5,0.2l-30.6,23.6c-0.5,0.5-0.6,1.3-0.2,1.8
		C311.2,26.2,312,26.3,312.5,25.9z"/>
	<path class="st0" d="M278.2,66.3l11.7-9.3c0.5-0.5,0.6-1.3,0.2-1.8c-0.5-0.5-1.3-0.6-1.8-0.2l-11.7,9.3c-0.5,0.5-0.6,1.3-0.2,1.8
		c0.3,0.3,0.6,0.5,1,0.5C277.7,66.6,278,66.5,278.2,66.3z"/>
	<path class="st0" d="M46.8,231c0.3,0,0.6,0,0.8-0.2L228.2,91.3c0.5-0.5,0.6-1.3,0.2-1.8c-0.5-0.5-1.3-0.6-1.8-0.2L46,228.7
		c-0.5,0.5-0.6,1.3-0.2,1.8C46.1,230.8,46.4,231,46.8,231z"/>
	<path class="st0" d="M407.1,66.5c0.3,0,0.7-0.2,1-0.5c0.4-0.6,0.3-1.4-0.2-1.8l-10.7-8.5c-0.6-0.4-1.4-0.3-1.8,0.2
		c-0.4,0.6-0.3,1.4,0.2,1.8l10.7,8.5C406.6,66.4,406.8,66.5,407.1,66.5z"/>
	<path class="st0" d="M441.2,90.2c-0.6-0.4-1.4-0.3-1.8,0.2c-0.4,0.6-0.3,1.4,0.2,1.8l13.1,10.5H233.1l13.1-10.4
		c0.5-0.5,0.6-1.3,0.2-1.8c-0.5-0.5-1.3-0.6-1.8-0.2L46,248.1c-0.5,0.5-0.6,1.3-0.2,1.8c0.3,0.3,0.6,0.5,1,0.5
		c0.3,0,0.6-0.1,0.8-0.3l168.9-134.2c0.1,0,0.2,0.1,0.3,0.1h251c0.4,0,0.7-0.2,0.9-0.5l165.5,132.4c0.3,0.2,0.5,0.3,0.8,0.3
		c0.4,0,0.8-0.2,1-0.4c0.4-0.6,0.3-1.4-0.2-1.8L441.2,90.2z M219.4,113.6l10.7-8.5h224.2c0.4,0,0.7-0.2,0.9-0.5l11.2,9H219.4z"/>
	<path class="st0" d="M458.2,89.2c-0.6-0.4-1.4-0.3-1.8,0.2c-0.4,0.6-0.3,1.4,0.2,1.8l177.6,137.4c0.3,0.2,0.5,0.3,0.8,0.3
		c0.4,0,0.8-0.2,1.1-0.5c0.4-0.6,0.3-1.4-0.2-1.8L458.2,89.2z"/>
	<path class="st0" d="M424.8,66.3c0.4,0,0.8-0.1,1-0.4c0.4-0.6,0.3-1.4-0.2-1.8L413.9,55c-0.6-0.4-1.4-0.3-1.8,0.2
		c-0.4,0.6-0.3,1.4,0.2,1.8l11.7,9C424.3,66.2,424.5,66.3,424.8,66.3z"/>
	<path class="st0" d="M435.6,23.2c0.2,0.1,0.4,0.2,0.7,0.2c0.4,0,0.7-0.2,1-0.6c0.4-0.5,0.3-1.3-0.3-1.7L413.8,4
		c-0.5-0.4-1.3-0.3-1.7,0.3c-0.4,0.5-0.3,1.3,0.3,1.7L435.6,23.2z"/>
	<path class="st0" d="M634.9,151.2c0.4,0,0.8-0.2,1-0.6c0.4-0.5,0.3-1.3-0.3-1.7L510.7,56.7c-0.5-0.4-1.3-0.3-1.7,0.3
		c-0.4,0.5-0.3,1.3,0.3,1.7L634.2,151C634.4,151.1,634.6,151.2,634.9,151.2z"/>
	<path class="st0" d="M460.2,22.4c0.2,0.1,0.4,0.2,0.7,0.2c0.4,0,0.8-0.1,1-0.5c0.4-0.5,0.3-1.3-0.3-1.7L439.5,4.1
		c-0.5-0.4-1.3-0.3-1.7,0.3c-0.4,0.5-0.3,1.3,0.3,1.7L460.2,22.4z"/>
	<path class="st0" d="M254.3,24.8c0.2,0.3,0.6,0.5,1,0.5c0.2,0,0.5-0.1,0.7-0.2L281.8,6c0.6-0.4,0.7-1.1,0.3-1.7
		c-0.4-0.6-1.1-0.7-1.7-0.3l-25.8,19.1C254,23.5,253.9,24.2,254.3,24.8z"/>
	<path class="st0" d="M211.1,56.7c-0.5-0.5-1.3-0.6-1.8-0.2L46.1,183.8c-0.5,0.5-0.6,1.3-0.2,1.8c0.3,0.3,0.6,0.5,1,0.5
		c0.3,0,0.5-0.1,0.8-0.3L175.6,86c0.1,0,0.2,0.1,0.4,0.1h342.3c0.1,0,0.2,0,0.3-0.1l115.6,90.2c0.3,0.2,0.5,0.3,0.8,0.3
		c0.4,0,0.8-0.2,1-0.5c0.4-0.6,0.3-1.4-0.2-1.8l-151-117.8c-0.6-0.4-1.4-0.3-1.8,0.2c-0.4,0.6-0.3,1.4,0.2,1.8l12.9,10.1H198.1
		l12.8-10C211.4,58,211.5,57.2,211.1,56.7z M499.2,70.9l16.4,12.8h-337L195,70.9H499.2z"/>
	<path class="st0" d="M46.8,160.3c0.3,0,0.6,0,0.7-0.2l138.1-102c0.6-0.4,0.7-1.1,0.3-1.7c-0.4-0.6-1.1-0.7-1.7-0.3l-138.1,102
		c-0.6,0.4-0.7,1.1-0.3,1.7C46,160.1,46.4,160.3,46.8,160.3z"/>
	<path class="st0" d="M232.8,23c0.3,0,0.5-0.1,0.7-0.2L256,6.3c0.6-0.4,0.7-1.1,0.3-1.7c-0.4-0.6-1.1-0.7-1.7-0.3l-22.5,16.5
		c-0.6,0.4-0.7,1.1-0.3,1.7C232,22.8,232.4,23,232.8,23z"/>
	<path class="st0" d="M634.5,76c0.2,0.1,0.4,0.2,0.7,0.2s0.7-0.2,1-0.5c0.4-0.5,0.3-1.3-0.3-1.7L538.7,2.2c-0.5-0.4-1.3-0.3-1.7,0.3
		c-0.4,0.5-0.3,1.3,0.3,1.7L634.5,76z"/>
	<path class="st0" d="M46.7,124.5c0.2,0.3,0.6,0.5,1,0.5c0.2,0,0.5-0.1,0.7-0.3L143,53h418.3c0.1,0,0.2,0,0.4-0.1l71.3,54.2
		c0.3,0.2,0.5,0.3,0.8,0.3c0.4,0,0.8-0.2,1.1-0.5c0.5-0.6,0.3-1.4-0.2-1.8L502,4.4c-0.6-0.5-1.4-0.4-1.8,0.2
		c-0.5,0.6-0.3,1.4,0.2,1.8l29.2,22.2H175.2l29.4-22.3c0.5-0.5,0.6-1.3,0.2-1.8c-0.5-0.5-1.3-0.6-1.8-0.2L46.9,122.7
		C46.4,123.2,46.3,124,46.7,124.5z M172.3,31h360c0.1,0,0.3,0,0.4-0.1l25.9,19.7H146.2L172.1,31C172.2,31,172.2,31,172.3,31z"/>
	<path class="st0" d="M47.3,93.3c0.3,0,0.5-0.1,0.7-0.2L165.5,6.2c0.6-0.4,0.7-1.1,0.3-1.7c-0.4-0.6-1.1-0.7-1.7-0.3L46.6,91.1
		c-0.6,0.4-0.7,1.1-0.3,1.7C46.5,93.1,46.9,93.3,47.3,93.3z"/>
</g>
</svg>
