<?xml version="1.0" encoding="utf-8"?>
<!-- Generator: Adobe Illustrator 24.0.1, SVG Export Plug-In . SVG Version: 6.00 Build 0)  -->
<svg version="1.1" id="Layer_1" xmlns="http://www.w3.org/2000/svg" xmlns:xlink="http://www.w3.org/1999/xlink" x="0px" y="0px"
	 viewBox="0 0 596 340" style="enable-background:new 0 0 596 340;" xml:space="preserve">
<style type="text/css">
	.st0{opacity:0.2;fill:#C4C4C4;enable-background:new    ;}
</style>
<g>
	<path class="st0" d="M190.4,135.5c0,0.6,0.4,1,1,1h10.4c0.5,0,1-0.4,1-1c0-0.6-0.4-1-1-1h-10.4
		C190.8,134.5,190.4,134.9,190.4,135.5z"/>
	<path class="st0" d="M232.9,68.3c0.2,0.2,0.4,0.3,0.7,0.3h1.6c0.6,0,1-0.4,1-1c0-0.6-0.4-1-1-1H234l-4.1-4.1
		c-0.2-0.2-0.4-0.3-0.7-0.3s-0.5,0.1-0.7,0.3l-6.2,6.2c-0.4,0.4-0.4,1,0,1.4c0.2,0.2,0.4,0.3,0.7,0.3c0.2,0,0.5-0.1,0.7-0.3l5.5-5.5
		L232.9,68.3z"/>
	<path class="st0" d="M170,134.5H11.4V27.8h225.9v106.7h-12.2c-0.6,0-1,0.4-1,1c0,0.6,0.4,1,1,1h13.2c0.6,0,1-0.4,1-0.9V26.8
		c0-0.6-0.4-1-1-1H10.4c-0.6,0-1,0.4-1,1v108.8c0,0.6,0.4,1,1,1c0.2,0,0.3,0,0.5-0.1h159.2c0.5,0,0.9-0.4,0.9-1
		C171,134.9,170.6,134.5,170,134.5z"/>
	<path class="st0" d="M203.1,57.8h-1.7l-9-3.8v-2.8c0-0.6-0.4-1-1-1h-1.1V39.4c0-0.6-0.4-1-1-1h-1.2c-0.6,0-1,0.4-1,1v10.7h-0.8
		c-0.6,0-1,0.4-1,1v1.8l-14.1,3.9c-0.4,0.2-0.7,0.5-0.7,1v7.8h-0.2c-0.4,0-0.7,0.2-0.9,0.6l-3.6,3.6c-0.2,0.2-0.3,0.4-0.3,0.7v32.4
		h-1.9V75.2c0-0.3-0.1-0.5-0.3-0.7l-3.7-3.7c-0.2-0.2-0.4-0.3-0.7-0.3H158v-9.9c0-0.6-0.4-1-1-1h-1.2c-0.6,0-1,0.4-1,1v9.1h-1.1
		v-1.9c0-0.6-0.4-1-1-1h-6.9c-0.5,0-0.9,0.4-1,0.9h-2.2c-0.6,0-1,0.4-1,1v0.5h-5.3c-0.6,0-1,0.4-1,1v36.5h-1.6V89.4c0-0.6-0.4-1-1-1
		h-3.8v-2.3c0-0.6-0.4-1-1-1H91.2c-0.3,0-0.6,0.2-0.8,0.5L88,89.5c-0.1,0.1-0.2,0.3-0.2,0.5v22.2h-1.4l-5.7-9.4
		c-0.2-0.3-0.5-0.5-0.9-0.5h-7.3c-0.6,0-1,0.4-1,1v0.7h-3c-0.6,0-1,0.4-1,1v7.8h-1.8c-0.6,0-1,0.4-1,1v2.2H49.5v-10c0-0.6-0.4-1-1-1
		h-2v-3.2c0-0.3-0.2-0.6-0.4-0.8c-0.2-0.2-0.5-0.2-0.8-0.2l-3.8,0.6V70.2c0-0.6-0.4-1-1-1h-5.3v-0.5c0-0.6-0.4-1-1-1H32
		c-0.1-0.5-0.5-0.9-1-0.9h-6.9c-0.6,0-1,0.4-1,1v1.9H22v-9.1c0-0.6-0.4-1-1-1h-1.3c-0.6,0-1,0.4-1,1v9.9h-0.9
		c-0.3,0-0.5,0.1-0.7,0.3l-3.7,3.7c-0.4,0.4-0.4,1,0,1.4c0.4,0.4,1,0.4,1.4,0l3.4-3.4h1.5c0.5,0,0.9-0.3,1-0.8c0.1,0,0.2,0,0.3,0
		h3.1c0.6,0,1-0.4,1-1v-1.9H30c0.1,0.5,0.5,0.9,1,0.9h2.1v0.5c0,0.6,0.4,1,1,1h5.3v31.4c0,0.3,0.2,0.6,0.4,0.8
		c0.2,0.2,0.5,0.2,0.8,0.2l3.8-0.6v3.1c0,0.6,0.4,1,1,1h2v10c0,0.6,0.4,1,1,1h17.2c0.6,0,1-0.5,1.1-0.9V115h1.8c0.6,0,1-0.4,1-1
		v-7.9h3c0.6,0,1-0.4,1-1v-0.7h5.7l5.7,9.4c0.2,0.3,0.5,0.5,0.9,0.5h3c0.6,0,1-0.4,1-1v-23l2-3.2h35.1v2.3c0,0.6,0.4,1,1,1h3.8v17.3
		c0,0.6,0.4,1,1,1h3.6c0.6,0,1-0.4,1-1V71.2h5.3c0.6,0,1-0.4,1-1v-0.5h2.1c0.5,0,0.9-0.4,1-0.9h4.9v1.9c0,0.6,0.4,1,1,1h3.1
		c0.1,0,0.2,0,0.3,0c0.1,0.4,0.5,0.8,1,0.8h1.5l3.1,3.1v28.5c0,0.6,0.4,1,1,1h3.9c0.6,0,1-0.4,1-1v-33l3.3-3.4h0.7c0.6,0,1-0.4,1-1
		v-8l14.1-3.9c0.4-0.2,0.7-0.5,0.7-1v-1.6h0.8c0.2,0,0.4-0.1,0.6-0.2c0.2,0.1,0.4,0.2,0.6,0.2h1.1v2.5c0,0.4,0.2,0.7,0.6,0.9
		l9.8,4.1c0.1,0.1,0.3,0.1,0.4,0.1h0.9v10c0,0.6,0.4,1,1,1c0.6,0,1-0.4,1-1v-11C204.1,58.2,203.7,57.8,203.1,57.8z"/>
	<path class="st0" d="M1.1,152.4h246.5c0.5,0,1-0.4,0.9-1v-7v-4.6c0-0.6-0.4-1-1-1h-3.6V22.5c0-0.6-0.4-1-1-1H5.8c-0.6,0-1,0.4-1,1
		v116.3H1.1c-0.6,0-1,0.4-1,1v4.6v7C0.1,152,0.5,152.4,1.1,152.4z M2.1,150.4v-5h244.4v5H2.1z M6.8,23.5h235.1v115.3h-19.2l2.7-15.2
		h2.1c0.6,0,1-0.5,1-1v-5.2c0-0.6-0.4-1-1-1h-12.7v-6c2.1,0,6.7-0.3,9.7-3.3c3.8-3.9,3.2-10.5,3.2-10.8c0-0.5-0.4-0.9-0.9-0.9
		c-0.2,0-6.9-0.6-10.7,3.2c-0.5,0.5-0.9,1-1.2,1.5v-4c1.9,0,5.5-0.4,7.8-2.7c3.2-3.2,2.7-8.8,2.7-9c0-0.5-0.4-0.9-0.9-0.9
		c-0.2,0-5.8-0.5-9,2.7c-0.2,0.2-0.4,0.4-0.6,0.6V84c1.5-0.1,3.8-0.5,5.4-2.1c2.4-2.5,2-6.6,2-6.8c0-0.5-0.4-0.9-0.9-0.9
		c-0.1,0-4-0.4-6.5,1.8v-0.9c1-0.2,2.3-0.5,3.3-1.5c1.9-1.8,1.6-5,1.6-5.1c0-0.5-0.4-0.9-0.9-0.9c-0.1,0-3.2-0.3-5.1,1.6
		c-0.2,0.2-0.4,0.5-0.6,0.7c-0.2-0.2-0.4-0.5-0.6-0.7c-1.8-1.9-5-1.6-5.1-1.6c-0.5,0-0.9,0.4-0.9,0.9c0,0.1-0.3,3.2,1.6,5.1
		c1,1,2.3,1.4,3.3,1.5V76c-2.4-2.2-6.3-1.8-6.5-1.8c-0.5,0-0.9,0.4-0.9,0.9c-0.1,0.2-0.4,4.4,2,6.8c1.6,1.6,3.9,2,5.4,2.1v2.7
		c-0.2-0.2-0.4-0.4-0.6-0.6c-3.2-3.2-8.8-2.7-9-2.7c-0.5,0-0.9,0.4-0.9,0.9c0,0.2-0.5,5.8,2.7,9c2.4,2.3,5.9,2.7,7.8,2.7v4
		c-0.3-0.5-0.7-1-1.2-1.5c-3.8-3.8-10.4-3.2-10.7-3.2c-0.5,0-0.9,0.4-0.9,0.9c0,0.3-0.6,7,3.2,10.8c3,3,7.6,3.3,9.7,3.3v6.1h-12.5
		c-0.6,0-1,0.4-1,1v5.2c0,0.6,0.4,1,1,1h2.4l2.7,15.2H189l2.1-11.6h1.6c0.5,0,1-0.5,1-1.1V122c0-0.6-0.4-1-1-1h-4.9
		c0.4-1,0.8-2,1.1-3c1-3.1,1.7-6.1,2-8.5c0.4-3.1,0.1-4.6-1.1-5c-0.6-0.2-1.1,0.1-1.3,0.6l-4.3,13.4c0.1-2.1,0.2-4.4,0.1-6.8
		c-0.2-4.5-0.6-8.7-1.4-11.9c-0.9-3.9-2.1-5.6-3.6-5.6c-0.6,0-1,0.4-1,1L179,118c-1.3-3.9-3.9-10.3-6.3-9.6
		c-0.3,0.1-0.5,0.3-0.6,0.5c-0.1,0.3-0.2,0.5-0.1,0.8l3.4,11.3h-5.1c-0.6,0-1,0.4-1,1v4.2c0,0.6,0.4,1,1,1h1.6l2.1,11.6H6.8V23.5z
		 M212.7,80.7c0.2,0,0.4-0.1,0.6-0.3c0.2,0.2,0.4,0.3,0.6,0.3c0.5,0.1,1-0.2,1.1-0.7c0.2-1,0.7-1.8,1.2-2.3c1.2-1.2,3.2-1.5,4.3-1.5
		c-0.1,1.2-0.3,3.1-1.5,4.3c-1.5,1.5-4.1,1.5-4.9,1.5c-0.2,0-0.5,0.1-0.7,0.3c-0.2-0.2-0.4-0.3-0.7-0.3c-0.8,0.1-3.5,0-5.1-1.5
		c-1.2-1.2-1.5-3.2-1.5-4.3c1.2,0.1,3.1,0.3,4.3,1.5c0.5,0.6,0.9,1.3,1.2,2.3C211.7,80.4,212.2,80.8,212.7,80.7z M209.8,72.3
		c-0.7-0.7-0.9-1.8-1-2.6c0.8,0,1.9,0.3,2.6,1c0.7,0.7,0.9,1.9,1,2.6C211.6,73.2,210.5,73,209.8,72.3z M214.4,73.3
		c0.1-0.7,0.3-1.9,1-2.6c0.7-0.7,1.8-0.9,2.6-1c0,0.8-0.3,1.9-1,2.6S215.2,73.2,214.4,73.3z M212.8,92.9c0.2,0,0.4-0.1,0.6-0.3
		c0.1,0.2,0.3,0.3,0.6,0.3c0.6,0.1,1-0.3,1.1-0.8c0.3-1.9,1-3.5,2-4.5c1.9-1.8,5-2.1,6.5-2.1c0,1.5-0.2,4.6-2.1,6.5
		c-2.4,2.4-6.8,2.1-7.3,2.1c-0.3,0-0.6,0.1-0.8,0.3c-0.2-0.2-0.4-0.3-0.7-0.3c-0.5,0-4.9,0.3-7.4-2.1c-1.8-1.9-2.1-5-2.1-6.5
		c1.5,0,4.6,0.2,6.5,2.1c1,1,1.7,2.5,2,4.5C211.8,92.6,212.3,92.9,212.8,92.9z M212.7,107.9c0.3,0,0.5-0.1,0.7-0.3
		c0.2,0.2,0.4,0.3,0.7,0.3c0.5,0.1,1-0.4,1-0.9c0.1-2.1,0.7-5,2.6-6.9c2.5-2.5,6.5-2.7,8.3-2.7c0,1.8-0.3,5.9-2.7,8.3
		c-3.1,3.1-9,2.6-9.1,2.6c-0.3,0-0.6,0.1-0.8,0.3c-0.2-0.2-0.5-0.3-0.7-0.3c-0.1,0-6.1,0.5-9.2-2.6c-2.5-2.5-2.7-6.5-2.7-8.3
		c1.8,0,5.9,0.3,8.3,2.7c1.9,1.9,2.5,4.8,2.6,6.9C211.7,107.5,212.2,107.9,212.7,107.9z M226.6,118.4v3.2h-2h-22.1h-2.3v-3.2H226.6z
		 M223.3,123.6l-2.8,15.2h-14.2l-2.7-15.2H223.3z M175.7,114.9c0.6,1.6,1.3,3.4,2,5.7c0,0.2,0.1,0.3,0.1,0.4h-0.3L175.7,114.9z
		 M180.5,98.3c0.9,2.4,1.7,7,1.9,13.4c0,3.4-0.1,6.6-0.4,9.3h-0.9L180.5,98.3z M185.6,121h-0.2l3.1-9.5c-0.4,1.6-0.9,3.6-1.6,5.8
		C186.5,118.6,186.1,119.8,185.6,121z M176.8,123h2.4h0.9h2.7h1.3h2.2h5.5v2.2h-1.5h-17.5h-1.5V123H176.8z M189.1,127.2l-2.1,11.6
		h-10.9l-2.1-11.6H189.1z M2.1,140.8h3.7h169.5h12.5h17.8h15.8h21.5h3.6v2.6H2.1V140.8z"/>
	<path class="st0" d="M497.7,27.6h-52.5c-0.6,0-1,0.4-1,1v52c0,0.6,0.4,1,1,1h5.2h15.4h4.5h3.3h24.1c0.6,0,1-0.4,1-1v-52
		C498.7,28,498.3,27.6,497.7,27.6z M451.4,79.6L451.4,79.6l0-20.5c0-2,1.7-3.7,3.7-3.7h2.1h1.8h2.1c2,0,3.7,1.7,3.7,3.7v20.5H451.4z
		 M496.8,79.6h-18.5c1.1-1.2,1.8-2.7,1.8-4.5v-1.8c0-3.5-2.8-6.4-6.3-6.5v-2.1c0-0.6-0.4-1-1-1H471c-0.6,0-1,0.4-1,1v2.1
		c-0.8,0-1.6,0.2-2.4,0.6c-0.5,0.2-0.7,0.8-0.5,1.3c0.2,0.5,0.8,0.7,1.3,0.5c0.6-0.3,1.3-0.4,1.9-0.4h0.7h1.8h0.8
		c2.5,0,4.5,2,4.5,4.5v1.8c0,2.5-2,4.5-4.5,4.5h-3.3c-0.7,0-1.3-0.1-1.9-0.4c-0.5-0.2-1,0-1.2,0.4h-0.4V59.1c0-3.2-2.6-5.7-5.7-5.7
		H460v-3.3c0-0.6-0.4-1-1-1h-1.8c-0.6,0-1,0.4-1,1v3.3h-1.1c-3.2,0-5.7,2.6-5.7,5.7v20.5h-3.1v-50h50.5V79.6z"/>
	<path class="st0" d="M438.7,87.8h156c0.6,0,1-0.4,1-0.9V22.5c0-0.6-0.4-1-1-1h-156c-0.6,0-1,0.4-1,1v64.3
		C437.7,87.4,438.1,87.8,438.7,87.8z M439.7,23.5h154v62.3h-154V23.5z"/>
	<path class="st0" d="M588.2,27.6H506c-0.6,0-1,0.4-1,1v52c0,0.6,0.4,1,1,1h62.8h7.5h11.9c0.5,0,1-0.4,1-1v-52
		C589.2,28,588.8,27.6,588.2,27.6z M520.2,55.7h31.3c1.2,0,2.3,0.4,3.2,1h-34.3v-0.5C520.4,56,520.3,55.9,520.2,55.7z M556.5,58.7
		c0.2,0.4,0.3,0.8,0.5,1.2h-36.5v-1.2H556.5z M520.4,61.9h36.7c-0.1,0.6-0.2,1.2-0.5,1.7h-36.2V61.9z M520.2,66.9
		c0.1-0.2,0.1-0.4,0.2-0.5v-0.8h34.7c-1,0.8-2.2,1.3-3.6,1.3h-28.4H520.2z M518.1,76.2c-0.2-0.4-0.3-0.9-0.4-1.4h36.7v1.4H518.1z
		 M518.2,71.7h36.2v1.1h-36.6C517.9,72.4,518,72,518.2,71.7z M554.5,69c-0.1,0.1-0.1,0.2-0.1,0.4v0.3h-34.2c0.9-0.5,1.9-0.8,3-0.8
		V69H554.5z M554.4,78.2v0.7c0,0.1,0,0.3,0.1,0.4h-31.3c-1.3,0-2.5-0.4-3.5-1.1H554.4z M569.5,79.6c-1.4-3.8-2.2-9.5-2.2-15.5
		c0-6.6,1-12.8,2.6-16.5c0.1-0.1,0.1-0.3,0.1-0.4v-10h5.1v10c0,0.1,0,0.3,0.1,0.4c1.6,3.7,2.6,9.9,2.6,16.5c0,6-0.8,11.7-2.2,15.5
		H569.5z M587.2,79.6h-9.5c1.4-4,2.1-9.5,2.1-15.5c0-6.7-1-13.1-2.7-17.1V36.2c0-0.6-0.4-1-1-1H569c-0.6,0-1,0.4-1,1V47
		c-1.7,4-2.7,10.3-2.7,17.1c0,6,0.8,11.5,2.1,15.5h-10.2l-0.9-1.1v-8.7l1-1.2c0.3-0.3,0.4-0.7,0.2-1.1c-0.1-0.4-0.5-0.6-0.9-0.6
		h-0.1c1.6-1.4,2.6-3.5,2.6-5.8c0-4.2-3.4-7.6-7.6-7.6H518c-0.4,0-0.7,0.2-0.9,0.6c-0.2,0.4-0.2,0.8,0.1,1.1l1.1,1.3v9.4l-1.1,1.3
		c-0.2,0.3-0.3,0.7-0.1,1.1c0.2,0.4,0.4,0.5,0.8,0.6c-1.5,1.3-2.4,3.2-2.4,5.2c0,2.2,1,4.2,2.7,5.5H507v-50h80.2V79.6z"/>
	<path class="st0" d="M289,67.1h17.6c1.3,4,5,6.7,9.3,6.7c4.3,0,8-2.8,9.3-6.7h17.6c0.4,0,0.7-0.2,1.1-0.6c0.1-0.4,0.1-0.8-0.2-1.1
		l-19.1-21.7V38c0-0.6-0.4-1-1-1h-4.7V1.4c0-0.6-0.4-1-1-1h-4c-0.6,0-1,0.4-1,1V37h-4.8c-0.6,0-1,0.4-1,1v6.1l-18.8,21.3
		c-0.3,0.3-0.4,0.7-0.2,1.1C288.2,66.9,288.6,67.1,289,67.1z M315.9,71.7c-3.1,0-5.9-1.8-7.1-4.6H323
		C321.8,69.8,319,71.7,315.9,71.7z M314.9,2.4h2V37h-2V2.4z M309.1,39h4.8h4h4.7v4.3h-13.5V39z M308.7,45.3h14.4l17.5,19.8h-16.2
		h-17h-16.2L308.7,45.3z"/>
	<path class="st0" d="M487.7,114.3c-0.6,0-1,0.4-1,1v34.1c0,0.6,0.4,1,1,1h28.2c0.6,0,1-0.5,1-1v-34.1c0-0.6-0.4-1-1-1H487.7z
		 M515,148.4h-26.2v-32.1H515V148.4z"/>
	<path class="st0" d="M490.7,146.8H513c0.6,0,1-0.4,1-1v-27c0-0.6-0.4-1-1-1h-22.3c-0.6,0-1,0.4-1,1v27
		C489.7,146.4,490.1,146.8,490.7,146.8z M491.7,119.8H512v25h-20.3V119.8z"/>
	<path class="st0" d="M509.2,122.5h-14.7c-0.6,0-1,0.4-1,1v17.7c0,0.6,0.4,1,1,1h14.7c0.5,0,1-0.4,1-1v-17.7
		C510.2,122.9,509.8,122.5,509.2,122.5z M495.5,140.2v-15.7h12.7v15.7H495.5z"/>
	<path class="st0" d="M522.8,97.3c-0.6,0-1,0.4-1,1v34c0,0.6,0.4,1,1,1H551c0.5,0,1-0.4,1-0.9V98.3c0-0.6-0.4-1-1-1H522.8z
		 M550,131.3h-26.2v-32H550V131.3z"/>
	<path class="st0" d="M525.7,129.8H548c0.6,0,1-0.5,1-1v-27c0-0.6-0.4-1-1-1h-22.3c-0.6,0-1,0.4-1,1v27
		C524.7,129.4,525.1,129.8,525.7,129.8z M526.7,102.8H547v25h-20.3V102.8z"/>
	<path class="st0" d="M544.2,105.5h-14.7c-0.6,0-1,0.4-1,1v17.7c0,0.6,0.4,1,1,1h14.7c0.6,0,1-0.4,1-1v-17.7
		C545.2,105.9,544.8,105.5,544.2,105.5z M530.6,123.2v-15.7h12.7v15.7H530.6z"/>
	<path class="st0" d="M190.3,278.1c3.6,0,6.4-2.6,6.8-6h11.3h5.5c0.6,0,1-0.4,0.9-1.1c0-3.6-3.1-6.6-6.8-6.2
		c-11.3,1.1-38.5,2.7-49.3-7c-2.9-2.7-4.4-6.1-4.4-10.1c0-14.9-1.8-29.4-5-39.9c-4-13.3-10.2-20.3-17.9-20.3c-0.6,0-1,0.4-1,1v70
		c0,6.5,4.6,11.9,10.6,13.3c0.3,3.6,3.4,6.3,7,6.3h0.9l-8.2,60.4c-0.1,0.3,0,0.6,0.2,0.8s0.5,0.3,0.8,0.3h4.2c0.5,0,0.9-0.3,1-0.8
		l2.4-14.1h39.9l2.4,14.1c0.1,0.4,0.5,0.8,1,0.8h4.2c0.3,0,0.6-0.1,0.8-0.3c0.2-0.2,0.2-0.5,0.2-0.8l-8.3-60.4H190.3z M132.5,258.5
		v-64.3c10.5,6.8,15.3,32.9,15.3,56.5c0,4.7,1.7,8.5,5.1,11.6c5.1,4.6,13.5,6.9,22.3,7.8H144C137.6,270.1,132.5,264.9,132.5,258.5z
		 M200.7,270.1c1.1-0.1,2.1-0.2,2.9-0.3c0.7,0,1.4,0.1,2,0.3H200.7z M152.4,247.8c0,4.7,1.7,8.5,5.1,11.6
		c11.4,10.3,39.3,8.7,50.8,7.5c2.1-0.2,4,1.2,4.5,3.2h-3.9c-1.3-1.6-3.3-2.4-5.4-2.2c-11.2,1.1-38.5,2.7-49.3-7
		c-2.9-2.7-4.4-6.1-4.4-10.1c0-23.3-4.5-52.4-17.3-58.9v-2.3C146.2,191,152.4,220.4,152.4,247.8z M143.1,272.1h0.8h0.1h51.2
		c-0.5,2.3-2.5,4-4.9,4h-2h-6.4h-25.5H150h-2C145.6,276.1,143.6,274.4,143.1,272.1z M181,278.1l7,40.1h-37.7l7-40.1H181z
		 M195.7,337.6h-2.3l-2.4-14.1c-0.1-0.4-0.5-0.8-1-0.8h-41.5c-0.5,0-0.9,0.3-1,0.8l-2.4,14.1h-2.3l8.2-59.5h4.3l-7.1,40.9
		c-0.1,0.3,0,0.6,0.2,0.8c0.2,0.3,0.5,0.4,0.8,0.4h40.1c0.3,0,0.6-0.2,0.8-0.4c0.2-0.2,0.2-0.5,0.2-0.8l-7.1-40.9h4.3L195.7,337.6z"
		/>
	<path class="st0" d="M480.3,278.1c3.6,0,6.5-2.7,6.9-6.3c6-1.3,10.6-6.8,10.7-13.3v-66c0-0.2-0.1-0.4-0.2-0.5v-3.5c0-0.6-0.4-1-1-1
		c-7.7,0-13.9,7-17.9,20.3c-3.2,10.5-5,25-5,39.9c0,4-1.4,7.4-4.4,10.1c-10.8,9.8-38.1,8.1-49.3,7c-0.2,0-0.4,0-0.6,0
		c-3.4,0-6.2,2.9-6.2,6.3c0,0.6,0.4,1,1,1h5.6h11.2c0.5,3.4,3.5,6,6.9,6h0.9l-8.2,60.4c-0.1,0.3,0,0.6,0.2,0.8
		c0.2,0.2,0.5,0.3,0.8,0.3h4.2c0.5,0,0.9-0.3,1-0.8l2.4-14.1h39.9l2.4,14.1c0.1,0.4,0.5,0.8,1,0.8h4.2c0.3,0,0.5-0.1,0.8-0.3
		c0.2-0.2,0.2-0.5,0.2-0.8l-8.3-60.4H480.3z M495.7,258.5c0,6.4-5.2,11.6-11.5,11.6h-31.1c8.8-0.9,17.2-3.1,22.4-7.7
		c3.4-3.1,5.1-7,5.1-11.6c0-23.7,4.7-49.7,15.1-56.5V258.5z M419.5,266.9c0.1,0,0.3,0,0.4,0c11.5,1.2,39.4,2.8,50.8-7.5
		c3.4-3.1,5.1-7,5.1-11.6c0-27.4,6.3-56.8,19.9-58.2v2.4c-12.6,6.7-17.1,35.7-17.1,58.8c0,4-1.4,7.4-4.4,10.1
		c-10.8,9.8-38.1,8.1-49.3,7c-2.1-0.2-4.1,0.6-5.4,2.2h-4.1C415.9,268.2,417.6,266.9,419.5,266.9z M422.6,270.1
		c0.6-0.2,1.3-0.3,2-0.3c0.9,0.1,1.8,0.2,2.9,0.3H422.6z M433.1,272.1h51.2h0.9c-0.5,2.3-2.5,4-4.9,4h-2h-6.4h-25.5H440h-2
		C435.6,276.1,433.6,274.4,433.1,272.1z M471,278.1l7,40.1h-37.7l7-40.1H471z M485.7,337.6h-2.3l-2.3-14.1c-0.1-0.4-0.5-0.8-1-0.8
		h-41.6c-0.5,0-0.9,0.3-1,0.8l-2.4,14.1h-2.3l8.2-59.5h4.3l-7.1,40.9c-0.1,0.3,0,0.6,0.2,0.8c0.2,0.3,0.5,0.4,0.8,0.4h40.1
		c0.3,0,0.6-0.2,0.8-0.4s0.2-0.5,0.2-0.8l-7.1-40.9h4.3L485.7,337.6z"/>
	<path class="st0" d="M430.8,234.3c0.5,0,1-0.4,1-1v-7.7v-7.7v-0.1c0-0.6-0.4-1-1-1h-40.3c0.5-0.7,0.8-1.5,0.8-2.4c0-0.6-0.4-1-1-1
		h-1.5c2.1-0.3,4-1.5,5.1-3.4c0.7-1.2,1.1-2.6,1.1-3.9c-0.1-3.9-3.2-7-7-7.3l0.3-2.1h-19.7l1.4,11c-0.1,0.1-0.1,0.3-0.1,0.5l0.1,0.9
		c0.2,1.6,1,3.1,2,4.3h-5.2c-0.6,0-1,0.4-1,1c0,0.9,0.3,1.7,0.7,2.4h-17.7l-5.5-30.6c-0.1-0.5-0.5-0.8-1-0.8h-16.2
		c-0.5,0-0.9,0.3-1,0.8l-6,30.6h-12.7v-3.1c3.6-3.1,5.7-8.2,5.7-13.7c0-4.1-1.1-8-3.2-11c-1.9-2.7-2.6-6.2-2.1-9.7l0.7-4.7
		c0.1-0.3,0-0.6-0.2-0.8s-0.5-0.3-0.8-0.3h-2.6c1.1-8.5,3.3-14.8,6.5-18.4c0.3-0.4,0.3-0.9,0-1.3c-0.3-0.3-0.9-0.4-1.3-0.2
		c-0.1,0.1-2.4,1.4-4.7,4.7c1.9-8,4.6-14.1,8.1-18c0.3-0.4,0.3-0.9,0-1.3c-0.3-0.3-0.9-0.4-1.3-0.2c-0.5,0.3-10.1,6.1-12.8,22.1
		c-3.1-12.3-10.6-16.7-11-17c-0.5-0.3-1-0.2-1.3,0.2c-0.3,0.4-0.3,0.9,0,1.3c3.1,3.4,5.5,8.7,7.1,15.7c-2-2.7-3.9-3.8-4-3.9
		c-0.5-0.3-1-0.2-1.3,0.2c-0.3,0.4-0.3,0.9,0,1.3c2.7,2.9,4.6,8,5.7,14.8h-1.5c-0.3,0-0.6,0.1-0.8,0.3s-0.2,0.5-0.2,0.8l0.7,4.7
		c0.5,3.5-0.2,6.9-2.1,9.7c-2.1,3.1-3.2,7-3.2,11c0,5.5,2.1,10.6,5.6,13.6v3.2h-24.2c0.5-0.7,0.8-1.5,0.8-2.4c0-0.6-0.4-1-1-1h-1.6
		c2.1-0.3,4-1.5,5.1-3.4c0.7-1.2,1.1-2.6,1.1-3.9c0-3.8-3.1-7-6.9-7.3l0.3-2.1h-19.8l1.4,11.4c0,0,0,0.1,0,0.1l0.1,0.9
		c0,0.3,0.1,0.5,0.2,0.8c0.3,1.3,0.9,2.5,1.8,3.5h-5.1c-0.6,0-1,0.4-1,1c0,0.9,0.3,1.7,0.7,2.4H201c-0.6,0-1,0.4-1,1v0.1v7.7v7.7
		c0,0.6,0.4,1,1,1h26.3l-14.4,104.2c-0.1,0.3,0,0.6,0.2,0.8c0.2,0.2,0.5,0.3,0.8,0.3h5.6c0.5,0,0.9-0.3,1-0.8l18.2-104.5h154.5
		l18.1,104.5c0.1,0.5,0.5,0.8,1,0.8h5.6c0.3,0,0.6-0.1,0.9-0.3c0.2-0.2,0.2-0.5,0.2-0.8l-14.4-104.2H430.8z M384.9,213.2
		c0.2,0.1,0.4,0.1,0.6,0.2h-0.8C384.8,213.3,384.8,213.3,384.9,213.2z M385.9,198.7l-0.3,2.1h1.9c2.9,0,5.4,2.4,5.5,5.3
		c0,0.9-0.3,2-0.9,2.9c-1,1.6-2.7,2.5-4.5,2.5c-1,0-1.8-0.2-2.5-0.6l-0.8-0.5l-0.5,0.8c-0.5,0.8-1.2,1.5-2.1,2H375
		c-1.6-0.9-2.7-2.6-3-4.5l-1.3-10.1H385.9z M374.8,215.4h7.1h7.1c-0.4,0.8-1.2,1.3-2.1,1.3h-16.8c-0.9,0-1.7-0.5-2.1-1.3H374.8z
		 M262.3,213.2c0.2,0.1,0.4,0.1,0.6,0.2h-0.8C262.2,213.3,262.2,213.3,262.3,213.2z M263.3,198.7l-0.3,2.1h1.9
		c2.9,0,5.4,2.4,5.4,5.3c0,0.9-0.3,2-0.9,2.9c-1,1.6-2.7,2.5-4.5,2.5c-1,0-1.8-0.2-2.5-0.6l-0.8-0.5l-0.5,0.8
		c-0.5,0.8-1.2,1.5-2.1,2h-6.6c-1.6-0.9-2.7-2.6-3-4.5l-0.1-0.4l0-0.4c0,0,0,0,0,0l-1.2-9.3H263.3z M252.2,215.4h7.1h7.1
		c-0.4,0.8-1.2,1.3-2.1,1.3h-16.8c-0.9,0-1.7-0.5-2.1-1.3H252.2z M329.4,216.8h-8.3l4.8-24.4L329.4,216.8z M202,218.9h227.8v5.7H202
		V218.9z M346.8,216.8h-15.3l-4.2-29.4h14.1L346.8,216.8z M305.2,147.9c0.3-0.4,0.5-0.8,0.8-1.2c-2.3,5-4,11.3-5.1,18.8
		c0,0.5,0.3,1,0.8,1.1c0.5,0.1,1-0.2,1.2-0.7c0.3-1,0.6-1.9,1-2.7c-0.9,2.9-1.6,6.3-2.1,10.2h-2
		C298.9,160.8,302.3,152.6,305.2,147.9z M292.6,152.1c2.7,4.4,5.3,11.3,5,21.3h-2c-0.3-1.9-0.6-3.6-1.1-5.3c0,0,0.1,0.1,0.1,0.2
		c0.2,0.5,0.7,0.8,1.2,0.7c0.5-0.1,0.9-0.6,0.8-1.1C295.7,161.6,294.4,156.4,292.6,152.1z M288.4,200c0-3.6,1-7.1,2.8-9.8
		c2.2-3.1,3.1-7.1,2.5-11.1l-0.5-3.6h12.1l-0.5,3.6c-0.5,4,0.3,7.9,2.5,11.1c1.8,2.7,2.8,6.2,2.8,9.8c0,4.9-2,9.6-5.1,12.3h-11.5
		C290.4,209.7,288.4,205,288.4,200z M294.1,214.4h10.3v2.4h-10.3V214.4z M202,226.6h227.8v5.7h-26.5H394H202V226.6z M218.7,337.6
		h-3.6l14.4-103.3h7.2L218.7,337.6z M416.7,337.6h-3.6l-18-103.3h7.2L416.7,337.6z"/>
	<path class="st0" d="M594.8,330.6H492.7c-0.6,0-1,0.4-1,1c0,0.6,0.4,1,1,1h102.1c0.5,0,1-0.4,1-1
		C595.8,331,595.4,330.6,594.8,330.6z"/>
	<path class="st0" d="M474.9,330.6h-32.1c-0.6,0-1,0.4-1,1c0,0.6,0.4,1,1,1h32.1c0.6,0,1-0.4,1-1C475.9,331,475.5,330.6,474.9,330.6
		z"/>
	<path class="st0" d="M427.7,330.6h-6.9c-0.6,0-1,0.4-1,1c0,0.6,0.4,1,1,1h6.9c0.6,0,1-0.4,1-1C428.7,331,428.3,330.6,427.7,330.6z"
		/>
	<path class="st0" d="M404.9,330.6H227.3c-0.6,0-1,0.4-1,1c0,0.6,0.4,1,1,1h177.6c0.5,0,1-0.4,1-1
		C405.9,331,405.5,330.6,404.9,330.6z"/>
	<path class="st0" d="M210.8,330.6H201c-0.6,0-1,0.4-1,1c0,0.6,0.4,1,1,1h9.8c0.5,0,1-0.4,1-1C211.8,331,211.4,330.6,210.8,330.6z"
		/>
	<path class="st0" d="M185.4,330.6h-33.6c-0.6,0-1,0.4-1,1c0,0.6,0.4,1,1,1h33.6c0.6,0,1-0.4,1-1C186.4,331,186,330.6,185.4,330.6z"
		/>
	<path class="st0" d="M135.7,330.6H0.8c-0.6,0-1,0.4-1,1c0,0.6,0.4,1,1,1h134.8c0.6,0,1.1-0.4,1.1-1
		C136.7,331,136.3,330.6,135.7,330.6z"/>
	<path class="st0" d="M385.6,210.1c0.5,0.2,1.3,0.5,2.1,0.5c1.9,0,3.5-1.1,4.1-2.9c0.1-0.4,0.2-0.9,0.2-1.4c0-2.5-1.9-4.4-4.4-4.4
		c-0.3,0-0.7,0-1.1,0.2l-0.6,0.2l-0.8,5.9l0,0.3c0,0.1,0,0.2,0,0.3l-0.5,1L385.6,210.1z M387.1,208.5l0.6-4.6c1.3,0,2.3,1.1,2.3,2.4
		c0,0.3-0.1,0.6-0.1,0.9C389.5,208.2,388.3,208.8,387.1,208.5C387.1,208.5,387.1,208.5,387.1,208.5z"/>
	<path class="st0" d="M263.3,209.8c0.4,0.2,1.1,0.5,1.9,0.5c1.8,0,3.3-1.1,3.9-2.9l0-0.2c0.1-0.3,0.2-0.7,0.2-1.2
		c0-2.3-1.8-4.1-4.1-4.1c-0.4,0-0.8,0-1.2,0.2l-0.5,0.2l-0.7,5.4l0,0.3c0,0.1,0,0.2,0,0.3l-0.4,0.9L263.3,209.8z M264.8,208.2
		l0.5-4.2c1.1,0.1,2,1,2,2.1c0,0.2,0,0.4-0.1,0.7l0,0.2c-0.3,0.8-1,1.4-1.9,1.4C265.1,208.3,264.9,208.3,264.8,208.2
		C264.8,208.2,264.8,208.2,264.8,208.2z"/>
	<path class="st0" d="M330.4,206.3c0.1,0.5,0.5,0.9,1,0.9h11.9c0.3,0,0.6-0.2,0.8-0.4c0.2-0.2,0.2-0.5,0.2-0.8l-2.8-16.3
		c-0.1-0.4-0.5-0.8-1-0.8H329c-0.3,0-0.6,0.1-0.8,0.3c-0.2,0.2-0.2,0.5-0.2,0.8L330.4,206.3z M339.8,190.9l2.4,14.3h-9.9l-2-14.3
		H339.8z"/>
</g>
</svg>
