<?xml version="1.0" encoding="utf-8"?>
<!-- Generator: Adobe Illustrator 24.0.1, SVG Export Plug-In . SVG Version: 6.00 Build 0)  -->
<svg version="1.1" id="Layer_1" xmlns="http://www.w3.org/2000/svg" xmlns:xlink="http://www.w3.org/1999/xlink" x="0px" y="0px"
	 viewBox="0 0 588 337" style="enable-background:new 0 0 588 337;" xml:space="preserve">
<style type="text/css">
	.st0{opacity:0.2;fill:#C4C4C4;enable-background:new    ;}
</style>
<g>
	<path class="st0" d="M445.7,219.8c0-0.1-3.8-3.7-6.4-4.1c-3.3-0.6-8.2-6.5-11.3-11.3h7.3c7.1,0,12.8-5.7,12.8-12.8
		c0-7.1-5.7-12.8-12.8-12.8c0,0-0.1,0-0.2,0l-21.6,3.5L394,152.4l-0.1-0.1l-0.2-0.2c-3.3-4-6.2-7.4-21.3-7.4H217.5
		c-15.2,0-17.8,3.2-20.8,6.8c-0.2,0.3-0.4,0.5-0.6,0.8c0,0.1-0.1,0.1-0.1,0.2l-18.9,29.9l-22.2-3.5c0,0-0.1,0-0.2,0
		c-7.1,0-12.8,5.7-12.8,12.8c0,7.1,5.7,12.8,12.8,12.8h7.4c-2.5,4-7.2,10.2-11.5,11.3c-2.5,0.6-6.4,4-6.4,4.1
		c-3.5,4.3-5.5,9.7-5.5,15.2v92.5c0,0.1,0,0.2,0,0.3c0,0.2,0,0.3,0,0.5c0,4.6,3.7,8.3,8.3,8.3h47.3c4.6,0,8.3-3.7,8.3-8.3
		c0-0.3-0.1-0.5-0.1-0.8v-13.2h17.7c0.5,0,1-0.3,1.3-0.8l4.2-7.2h135.9l4.2,7.2c0.3,0.5,0.8,0.8,1.3,0.8h20.5v13.2
		c-0.1,0.3-0.1,0.5-0.1,0.8c0,4.6,3.7,8.3,8.3,8.3h47.4c4.5,0,8.2-3.7,8.1-8.3c0-0.2,0-0.3,0-0.5c0-0.1,0-0.2,0-0.3v-92.5
		c0-5.6-1.9-11-5.5-15.2L445.7,219.8z M448.7,327.1c-0.1,0.3-0.1,0.5-0.1,0.7v0.2c0,0.1,0,0.3,0,0.4c0,2.9-2.4,5.3-5.3,5.3h-47.4
		c-2.9,0-5.3-2.4-5.3-5.3c0-0.2,0-0.3,0-0.4v-0.2c0-0.2,0-0.3,0-0.4h0.2v-14.6c0-0.8-0.7-1.5-1.5-1.5h-21.2l-4.2-7.2
		c-0.3-0.5-0.8-0.8-1.3-0.8H225c-0.5,0-1,0.3-1.3,0.8l-4.2,7.2h-18.3c-0.8,0-1.5,0.7-1.5,1.5v14.5c0,0.1,0,0.3,0,0.4v0.2
		c0,0.1,0,0.3,0,0.4c0,2.9-2.4,5.3-5.3,5.3H147c-2.9,0-5.3-2.4-5.3-5.3c0-0.2,0-0.3,0-0.4v-0.2c0-0.2,0-0.4-0.1-0.6v-92
		c0-4.8,1.7-9.5,4.8-13.2c1.1-1,3.7-3,4.9-3.3c7.6-2,14.4-14.5,14.7-15s0.3-1,0-1.5c-0.3-0.4-0.8-0.7-1.3-0.7h-10
		c-5.4,0-9.8-4.4-9.8-9.8c0-5.4,4.4-9.7,9.7-9.8l23.1,3.6c0.6,0.1,1.2-0.2,1.5-0.7l19.3-30.6c0.2-0.2,0.4-0.5,0.6-0.7
		c2.7-3.3,4.7-5.7,18.5-5.7h155.1c13.7,0,16,2.8,19,6.3l20.1,30.8c0.3,0.5,0.9,0.8,1.5,0.7l22.4-3.6c5.4,0.1,9.7,4.4,9.7,9.8
		c0,5.4-4.4,9.8-9.8,9.8h-10c-0.5,0-1,0.3-1.3,0.8s-0.3,1,0,1.5c0.9,1.4,8.4,13.8,14.8,14.9c1.1,0.2,3.5,2,4.8,3.2
		c3.1,3.7,4.8,8.4,4.8,13.2V327.1z"/>
	<path class="st0" d="M176.1,206.7c16.4-3.5,50.4-7.7,118.9-7.7c68.6,0,102.5,4.2,118.9,7.7c0.1,0,0.2,0,0.3,0
		c0.5,0,0.9-0.2,0.9-0.5c0.4-0.4,0.5-1,0.3-1.5c-8.6-23-22.3-53.6-41.4-53.6H215.7c-19.1,0-32.8,30.6-41.4,53.6
		c-0.2,0.5-0.1,1.1,0.3,1.5C175,206.6,175.6,206.8,176.1,206.7z M215.9,154h158.4c4.6,0,18.7,0.1,37.6,49.2
		c-17.4-3.4-51.5-7.2-116.8-7.2s-99.4,3.8-116.8,7.1C183.9,188.4,197.9,154,215.9,154z"/>
	<path class="st0" d="M427.1,246.5c-0.4-0.3-0.9-0.4-1.3-0.3c-41.6,9-86.1,13.6-132.2,13.7c-46.1-0.1-90.6-4.7-132.2-13.7
		c-0.5-0.1-0.9,0-1.3,0.3c-0.4,0.3-0.6,0.7-0.6,1.2l-0.1,11.2c0,0.1,0,0.1,0,0.2c0,0.1,0,0.2,0,0.3v8.9c0,4.9,4,8.9,8.9,8.9
		c0.1,0,0.2,0,0.3,0l32.6-5.5c5.2-1,8-3.4,8.5-7.4c13.3,1.5,26.3,5.2,39,8.9c15.7,4.5,30.5,8.8,44.9,8.8c14.5,0,29.3-4.3,44.9-8.8
		c12.6-3.6,25.7-7.4,39-8.9c0.5,3.9,3.4,6.4,8.5,7.4l32.6,5.5c0.1,0,0.2,0,0.3,0c4.9,0,8.9-4,8.9-8.9v-8.9c0-0.1,0-0.2,0-0.3
		c0,0,0-0.1,0-0.2l-0.1-11.2C427.7,247.2,427.5,246.8,427.1,246.5z M424.9,258.6c0,0.2,0,0.3,0,0.5c0,0.1,0,0.2,0,0.4v8.8
		c0,3.2-2.6,5.8-5.8,5.9l-32.4-5.5c-5.5-1.1-6.2-3.6-6.2-5.9v-0.2c0-0.4-0.2-0.8-0.5-1.1c-0.4-0.3-0.8-0.4-1.2-0.4
		c-14.1,1.4-27.8,5.4-41.1,9.2c-15.4,4.5-30,8.7-44,8.7s-28.6-4.2-44-8.7c-13.3-3.8-27-7.8-41.1-9.2c-0.1,0-0.2,0-0.2,0
		c-0.4,0-0.8,0.2-0.9,0.4c-0.3,0.3-0.5,0.7-0.5,1.1v0.2c0,2.9-1,4.9-6.1,5.9l-32.4,5.5c-3.2-0.1-5.8-2.7-5.8-5.9v-8.9
		c0-0.1,0-0.2,0-0.3c0.1-0.2,0-0.3,0-0.5v-9c41.4,8.8,85.5,13.3,131.1,13.4c45.7-0.1,89.8-4.6,131.1-13.4V258.6z"/>
	<path class="st0" d="M287.5,265.9v4c0,1.3,0.3,2.5,0.8,3.4c0.9,1.5,3.3,4.5,5.8,4.5s4.9-3,5.9-4.5c0.5-1,0.8-2.2,0.8-3.4v-4
		c0-0.8-0.7-1.5-1.5-1.5H289C288.2,264.4,287.5,265.1,287.5,265.9z M290.4,267.4h7.2v2.5c0,0.8-0.1,1.4-0.4,1.9
		c-0.8,1.4-2.5,3-3.2,3s-2.4-1.5-3.2-3c-0.2-0.5-0.4-1.2-0.4-1.9V267.4z"/>
	<path class="st0" d="M506.7,0.3H83.5C82.7,0.3,82,1,82,1.8v307c0,0.8,0.7,1.5,1.5,1.5H122c0.8,0,1.5-0.7,1.5-1.5s-0.7-1.5-1.5-1.5
		H85V3.3h420.2v304H466c-0.8,0-1.5,0.7-1.5,1.5s0.7,1.5,1.5,1.5h40.6c0.9,0,1.5-0.6,1.6-1.5V1.8C508.2,1,507.5,0.3,506.7,0.3z"/>
	<path class="st0" d="M586.6,307.3h-62c-0.8,0-1.5,0.7-1.5,1.5s0.7,1.5,1.5,1.5h62c0.9,0,1.5-0.7,1.5-1.5S587.4,307.3,586.6,307.3z"
		/>
	<path class="st0" d="M63.6,307.3h-62c-0.8,0-1.5,0.7-1.5,1.5s0.7,1.5,1.5,1.5h62c0.9,0,1.5-0.7,1.5-1.5S64.4,307.3,63.6,307.3z"/>
</g>
</svg>
