<?xml version="1.0" encoding="utf-8"?>
<!-- Generator: Adobe Illustrator 24.0.1, SVG Export Plug-In . SVG Version: 6.00 Build 0)  -->
<svg version="1.1" id="Layer_1" xmlns="http://www.w3.org/2000/svg" xmlns:xlink="http://www.w3.org/1999/xlink" x="0px" y="0px"
	 viewBox="0 0 596 340" style="enable-background:new 0 0 596 340;" xml:space="preserve">
<style type="text/css">
	.st0{fill:#FFFFFF;}
	.st1{fill:#FFFFFF;stroke:#8A6B74;stroke-width:2;stroke-linecap:round;stroke-linejoin:round;stroke-miterlimit:10;}
	.st2{opacity:0.2;fill:#FFFFFF;}
	.st3{fill:none;stroke:#FFFFFF;stroke-width:2;stroke-miterlimit:10;}
</style>
<g id="background-dining-room">
	<g>
		<g>
			<g>
				<path class="st0" d="M242.9,140.8H5.8c-0.6,0-1-0.4-1-1V22.5c0-0.6,0.4-1,1-1h237.1c0.6,0,1,0.4,1,1v117.3
					C243.9,140.3,243.4,140.8,242.9,140.8z M6.8,138.8h235.1V23.5H6.8V138.8z"/>
				<g>
					<path class="st0" d="M201.8,136.5h-10.4c-0.6,0-1-0.4-1-1s0.4-1,1-1h10.4c0.6,0,1,0.4,1,1S202.3,136.5,201.8,136.5z"/>
					<path class="st0" d="M238.3,136.5h-13.2c-0.6,0-1-0.4-1-1s0.4-1,1-1h12.2V27.8H11.4v107.8c0,0.6-0.4,1-1,1s-1-0.4-1-1V26.8
						c0-0.6,0.4-1,1-1h227.9c0.6,0,1,0.4,1,1v108.8C239.3,136.1,238.9,136.5,238.3,136.5z"/>
					<path class="st0" d="M223,70.4c-0.3,0-0.5-0.1-0.7-0.3c-0.4-0.4-0.4-1,0-1.4l6.2-6.2c0.2-0.2,0.4-0.3,0.7-0.3l0,0
						c0.3,0,0.5,0.1,0.7,0.3l4.1,4.1h1.2c0.6,0,1,0.4,1,1s-0.4,1-1,1h-1.6c-0.3,0-0.5-0.1-0.7-0.3l-3.7-3.7l-5.5,5.5
						C223.5,70.3,223.2,70.4,223,70.4z"/>
					<path class="st0" d="M170.1,136.5H10.5c-0.6,0-1-0.4-1-1s0.4-1,1-1H170c0.6,0,1,0.4,1,1S170.6,136.5,170.1,136.5z"/>
					<path class="st1" d="M10.4,135.5"/>
					<path class="st0" d="M65.6,118.1H48.4c-0.6,0-1-0.4-1-1v-10h-2c-0.6,0-1-0.4-1-1V103l-3.8,0.6c-0.3,0-0.6,0-0.8-0.2
						c-0.2-0.2-0.4-0.5-0.4-0.8V71.2h-5.3c-0.6,0-1-0.4-1-1v-0.5H31c-0.5,0-0.9-0.4-1-0.9h-4.9v1.9c0,0.6-0.4,1-1,1H21
						c-0.1,0-0.2,0-0.3,0c-0.1,0.5-0.5,0.8-1,0.8h-1.5l-3.4,3.4c-0.4,0.4-1,0.4-1.4,0c-0.4-0.4-0.4-1,0-1.4l3.7-3.7
						c0.2-0.2,0.4-0.3,0.7-0.3h0.9v-9.9c0-0.6,0.4-1,1-1H21c0.6,0,1,0.4,1,1v9.1h1.1v-1.9c0-0.6,0.4-1,1-1H31c0.5,0,0.9,0.4,1,0.9
						h2.2c0.6,0,1,0.4,1,1v0.5h5.3c0.6,0,1,0.4,1,1v31.2l3.8-0.6c0.3,0,0.6,0,0.8,0.2c0.2,0.2,0.4,0.5,0.4,0.8v3.2h2
						c0.6,0,1,0.4,1,1v10h15.2v-2.2c0-0.6,0.4-1,1-1h1.8V105c0-0.6,0.4-1,1-1h3v-0.7c0-0.6,0.4-1,1-1h7.3c0.4,0,0.7,0.2,0.9,0.5
						l5.7,9.4h1.4V90c0-0.2,0.1-0.4,0.2-0.5l2.4-3.9c0.2-0.3,0.5-0.5,0.8-0.5h36.7c0.6,0,1,0.4,1,1v2.3h3.8c0.6,0,1,0.4,1,1v17.3
						h1.6V70.2c0-0.6,0.4-1,1-1h5.3v-0.5c0-0.6,0.4-1,1-1h2.2c0.1-0.5,0.5-0.9,1-0.9h6.9c0.6,0,1,0.4,1,1v1.9h1.1v-9.1
						c0-0.6,0.4-1,1-1h1.2c0.6,0,1,0.4,1,1v9.9h0.9c0.3,0,0.5,0.1,0.7,0.3l3.7,3.7c0.2,0.2,0.3,0.4,0.3,0.7v27.7h1.9V70.5
						c0-0.3,0.1-0.5,0.3-0.7l3.6-3.6c0.2-0.4,0.5-0.6,0.9-0.6h0.2v-7.8c0-0.5,0.3-0.8,0.7-1l14.1-3.9v-1.8c0-0.6,0.4-1,1-1h0.8V39.4
						c0-0.6,0.4-1,1-1h1.2c0.6,0,1,0.4,1,1v10.8h1.1c0.6,0,1,0.4,1,1V54l9,3.8h1.7c0.6,0,1,0.4,1,1v11c0,0.6-0.4,1-1,1s-1-0.4-1-1
						v-10h-0.9c-0.1,0-0.3,0-0.4-0.1l-9.8-4.1c-0.4-0.2-0.6-0.5-0.6-0.9v-2.5h-1.1c-0.2,0-0.4-0.1-0.6-0.2c-0.2,0.1-0.4,0.2-0.6,0.2
						h-0.8v1.6c0,0.5-0.3,0.8-0.7,1l-14.1,3.9v8c0,0.6-0.4,1-1,1h-0.7l-3.3,3.4v33c0,0.6-0.4,1-1,1h-3.9c-0.6,0-1-0.4-1-1V75.6
						l-3.1-3.1H157c-0.5,0-0.9-0.4-1-0.8c-0.1,0-0.2,0-0.3,0h-3.1c-0.6,0-1-0.4-1-1v-1.9h-4.9c-0.1,0.5-0.5,0.9-1,0.9h-2.1v0.5
						c0,0.6-0.4,1-1,1h-5.3v36.5c0,0.6-0.4,1-1,1h-3.6c-0.6,0-1-0.4-1-1V90.4h-3.8c-0.6,0-1-0.4-1-1v-2.3H91.8l-2,3.2v23
						c0,0.6-0.4,1-1,1h-3c-0.4,0-0.7-0.2-0.9-0.5l-5.7-9.4h-5.7v0.7c0,0.6-0.4,1-1,1h-3v7.9c0,0.6-0.4,1-1,1h-1.8v2.2
						C66.6,117.6,66.2,118.1,65.6,118.1z"/>
				</g>
				<g>
					<path class="st0" d="M247.6,152.4H1.1c-0.6,0-1-0.4-1-1v-11.6c0-0.6,0.4-1,1-1h246.4c0.6,0,1,0.4,1,1v11.6
						C248.6,152,248.1,152.4,247.6,152.4z M2.1,150.4h244.4v-9.6H2.1V150.4z"/>
					<path class="st0" d="M247.6,145.4H1.1c-0.6,0-1-0.4-1-1v-4.6c0-0.6,0.4-1,1-1h246.4c0.6,0,1,0.4,1,1v4.6
						C248.6,144.9,248.1,145.4,247.6,145.4z M2.1,143.4h244.4v-2.6H2.1V143.4z"/>
				</g>
			</g>
		</g>
		<g>
			<g>
				<g>
					<path class="st0" d="M186.3,123h-2.2c-0.3,0-0.6-0.2-0.8-0.4c-0.2-0.3-0.2-0.6-0.1-0.9l5.4-16.6c0.2-0.5,0.7-0.8,1.3-0.6
						c1.2,0.4,1.5,1.9,1.1,5c-0.3,2.4-1,5.4-2,8.5c-0.5,1.6-1.1,3.1-1.7,4.5C187.1,122.8,186.7,123,186.3,123z M185.4,121h0.2
						c0.5-1.2,0.9-2.4,1.3-3.7c0.7-2.2,1.2-4.2,1.6-5.8L185.4,121z"/>
					<path class="st0" d="M179.2,123h-2.4c-0.4,0-0.8-0.3-1-0.7l-3.8-12.6c-0.1-0.3,0-0.5,0.1-0.8c0.1-0.2,0.3-0.4,0.6-0.5
						c2.9-0.9,6.1,8.6,6.9,11.6c0.2,0.6,0.3,1.1,0.5,1.7c0.1,0.3,0,0.6-0.2,0.9C179.8,122.9,179.5,123,179.2,123z M177.5,121h0.3
						c0-0.1-0.1-0.2-0.1-0.4c-0.7-2.3-1.4-4.1-2-5.7L177.5,121z"/>
					<path class="st0" d="M182.8,123h-2.7c-0.5,0-1-0.4-1-1l-0.7-26.8c0-0.6,0.4-1,1-1c1.5,0,2.7,1.7,3.6,5.6
						c0.8,3.2,1.2,7.4,1.4,11.9c0.1,3.8-0.1,7.4-0.5,10.5C183.8,122.7,183.3,123,182.8,123z M181.1,121h0.9c0.3-2.7,0.4-5.9,0.4-9.3
						c-0.2-6.4-1-11-1.9-13.4L181.1,121z"/>
				</g>
				<path class="st0" d="M214.1,118.3h-1.4c-0.6,0-1-0.4-1-1v-7c-2.1,0-6.7-0.3-9.7-3.3c-3.8-3.8-3.2-10.5-3.2-10.8
					c0-0.5,0.4-0.9,0.9-0.9c0.3,0,6.9-0.6,10.7,3.2c0.5,0.5,0.9,1,1.2,1.5v-4c-1.9,0-5.4-0.4-7.8-2.7c-3.2-3.2-2.7-8.8-2.7-9
					c0-0.5,0.4-0.9,0.9-0.9c0.2,0,5.8-0.5,9,2.7c0.2,0.2,0.4,0.4,0.6,0.6V84c-1.5-0.1-3.8-0.5-5.4-2.1c-2.4-2.4-2.1-6.6-2-6.8
					c0-0.5,0.4-0.9,0.9-0.9c0.2,0,4.1-0.4,6.5,1.8v-0.9c-1-0.1-2.3-0.5-3.3-1.5c-1.9-1.9-1.6-5-1.6-5.1c0-0.5,0.4-0.9,0.9-0.9
					c0.1,0,3.3-0.3,5.1,1.6c0.2,0.2,0.4,0.5,0.6,0.7c0.2-0.2,0.4-0.5,0.6-0.7c1.9-1.9,5-1.6,5.1-1.6c0.5,0,0.9,0.4,0.9,0.9
					c0,0.1,0.3,3.3-1.6,5.1c-1,1-2.3,1.3-3.3,1.5v0.9c2.5-2.2,6.4-1.8,6.5-1.8c0.5,0,0.9,0.4,0.9,0.9c0,0.2,0.4,4.3-2,6.8
					c-1.6,1.6-3.9,2-5.4,2.1v2.8c0.2-0.2,0.4-0.4,0.6-0.6c3.2-3.2,8.8-2.7,9-2.7c0.5,0,0.9,0.4,0.9,0.9c0,0.2,0.5,5.8-2.7,9
					c-2.3,2.3-5.9,2.7-7.8,2.7v4c0.3-0.5,0.7-1,1.2-1.5c3.8-3.8,10.5-3.2,10.7-3.2c0.5,0,0.9,0.4,0.9,0.9c0,0.3,0.6,6.9-3.2,10.8
					c-3,3-7.6,3.3-9.7,3.3v7C215.1,117.9,214.7,118.3,214.1,118.3z M212.7,108.3c0.2,0,0.5,0.1,0.7,0.3c0,0,0,0,0,0c0,0,0,0,0,0
					c0.2-0.2,0.5-0.3,0.8-0.3c0.1,0,6,0.5,9.1-2.6c2.4-2.4,2.7-6.5,2.7-8.3c-1.8,0-5.8,0.2-8.3,2.7c-1.9,1.9-2.5,4.8-2.6,6.9
					c0,0.5-0.5,1-1,0.9c-0.3,0-0.5-0.1-0.7-0.3c-0.2,0.2-0.4,0.3-0.7,0.3c-0.5,0-1-0.4-1-0.9c-0.1-2.1-0.7-5-2.6-6.9
					c-2.4-2.4-6.5-2.7-8.3-2.7c0,1.8,0.2,5.8,2.7,8.3C206.6,108.8,212.6,108.3,212.7,108.3C212.6,108.3,212.7,108.3,212.7,108.3z
					 M212.7,94.1c0.3,0,0.5,0.1,0.7,0.3c0,0,0,0,0,0c0,0,0,0,0,0c0.2-0.2,0.5-0.3,0.8-0.3c0.5,0,4.9,0.3,7.3-2.1
					c1.9-1.9,2.1-5,2.1-6.5c-1.5,0-4.6,0.3-6.5,2.1c-1,1-1.7,2.6-2,4.5c-0.1,0.5-0.5,0.9-1.1,0.8c-0.3,0-0.5-0.1-0.6-0.3
					c-0.2,0.2-0.4,0.3-0.6,0.3c-0.5,0-1-0.3-1.1-0.8c-0.3-2-1-3.5-2-4.5c-1.9-1.9-5-2.1-6.5-2.1c0,1.5,0.3,4.6,2.1,6.5
					C207.8,94.4,212.2,94.1,212.7,94.1C212.7,94.1,212.7,94.1,212.7,94.1z M212.7,82c0.3,0,0.5,0.1,0.7,0.3c0,0,0,0,0,0c0,0,0,0,0,0
					c0.2-0.2,0.5-0.3,0.7-0.3c0.8,0,3.4,0,4.9-1.5c1.2-1.2,1.4-3.1,1.5-4.3c-1.1,0-3.1,0.3-4.3,1.5c-0.5,0.5-1,1.3-1.2,2.3
					c-0.1,0.5-0.6,0.8-1.1,0.7c-0.2,0-0.4-0.1-0.6-0.3c-0.2,0.2-0.4,0.3-0.6,0.3c-0.5,0.1-1-0.3-1.1-0.7c-0.3-1-0.7-1.7-1.2-2.3
					c-1.2-1.2-3.1-1.4-4.3-1.5c0,1.1,0.3,3.1,1.5,4.3C209.2,82,211.9,82.1,212.7,82C212.7,82,212.7,82,212.7,82z M218,69.7
					c-0.8,0.1-1.9,0.3-2.6,1c-0.7,0.7-0.9,1.9-1,2.6c0.8-0.1,1.9-0.3,2.6-1C217.7,71.6,218,70.5,218,69.7z M208.8,69.7
					c0.1,0.8,0.3,1.9,1,2.6c0.7,0.7,1.8,0.9,2.6,1c-0.1-0.7-0.3-1.9-1-2.6C210.7,70,209.6,69.7,208.8,69.7z"/>
				<path class="st0" d="M192.8,127.2h-22.5c-0.6,0-1-0.4-1-1V122c0-0.6,0.4-1,1-1h22.5c0.6,0,1,0.4,1,1v4.1
					C193.8,126.7,193.3,127.2,192.8,127.2z M171.3,125.2h20.5V123h-20.5V125.2z"/>
				<path class="st0" d="M221.4,140.8h-15.8c-0.5,0-0.9-0.3-1-0.8l-3.1-17.2c-0.1-0.3,0-0.6,0.2-0.8c0.2-0.2,0.5-0.4,0.8-0.4h22.1
					c0.3,0,0.6,0.1,0.8,0.4c0.2,0.2,0.3,0.5,0.2,0.8l-3.1,17.2C222.2,140.4,221.8,140.8,221.4,140.8z M206.3,138.8h14.2l2.8-15.2
					h-19.7L206.3,138.8z"/>
				<path class="st0" d="M227.6,123.6h-28.4c-0.6,0-1-0.4-1-1v-5.2c0-0.6,0.4-1,1-1h28.4c0.6,0,1,0.4,1,1v5.2
					C228.6,123.1,228.2,123.6,227.6,123.6z M200.2,121.6h26.4v-3.2h-26.4V121.6z"/>
				<path class="st0" d="M187.8,140.8h-12.5c-0.5,0-0.9-0.3-1-0.8l-2.5-13.6c-0.1-0.3,0-0.6,0.2-0.8c0.2-0.2,0.5-0.4,0.8-0.4h17.5
					c0.3,0,0.6,0.1,0.8,0.4c0.2,0.2,0.3,0.5,0.2,0.8l-2.5,13.6C188.7,140.4,188.3,140.8,187.8,140.8z M176.1,138.8H187l2.1-11.6H174
					L176.1,138.8z"/>
			</g>
		</g>
	</g>
	<g>
		<g>
			<path class="st0" d="M472.8,68.8H471c-0.6,0-1-0.4-1-1v-3.1c0-0.6,0.4-1,1-1h1.8c0.6,0,1,0.4,1,1v3.1
				C473.8,68.4,473.4,68.8,472.8,68.8z"/>
			<path class="st0" d="M459,55.4h-1.8c-0.6,0-1-0.4-1-1v-4.3c0-0.6,0.4-1,1-1h1.8c0.6,0,1,0.4,1,1v4.3C460,55,459.5,55.4,459,55.4z
				"/>
			<path class="st0" d="M465.8,81.6h-15.4c-0.6,0-1-0.4-1-1V59.1c0-3.1,2.5-5.7,5.7-5.7h6c3.1,0,5.7,2.5,5.7,5.7v21.5
				C466.8,81.2,466.3,81.6,465.8,81.6z M451.4,79.6h13.4V59.1c0-2-1.7-3.7-3.7-3.7h-6c-2,0-3.7,1.7-3.7,3.7V79.6z"/>
			<path class="st0" d="M473.6,81.6h-3.3c-0.9,0-1.8-0.2-2.7-0.6c-0.5-0.2-0.7-0.8-0.5-1.3c0.2-0.5,0.8-0.7,1.3-0.5
				c0.6,0.3,1.2,0.4,1.9,0.4h3.3c2.5,0,4.5-2,4.5-4.5v-1.8c0-2.5-2-4.5-4.5-4.5h-3.3c-0.6,0-1.3,0.1-1.9,0.4c-0.5,0.2-1.1,0-1.3-0.5
				c-0.2-0.5,0-1.1,0.5-1.3c0.9-0.4,1.8-0.6,2.7-0.6h3.3c3.6,0,6.5,2.9,6.5,6.5v1.8C480.1,78.7,477.2,81.6,473.6,81.6z"/>
			<path class="st0" d="M594.7,87.8h-156c-0.6,0-1-0.4-1-1V22.5c0-0.6,0.4-1,1-1h156c0.6,0,1,0.4,1,1v64.4
				C595.7,87.4,595.3,87.8,594.7,87.8z M439.7,85.8h154V23.5h-154V85.8z M588.2,81.6H506c-0.6,0-1-0.4-1-1v-52c0-0.6,0.4-1,1-1h82.2
				c0.6,0,1,0.4,1,1v52C589.2,81.2,588.7,81.6,588.2,81.6z M507,79.6h80.2v-50H507V79.6z M497.7,81.6h-52.5c-0.6,0-1-0.4-1-1v-52
				c0-0.6,0.4-1,1-1h52.5c0.6,0,1,0.4,1,1v52C498.7,81.2,498.3,81.6,497.7,81.6z M446.3,79.6h50.5v-50h-50.5V79.6z"/>
		</g>
		<g>
			<g>
				<path class="st0" d="M551.5,68.9H518c-0.4,0-0.7-0.2-0.9-0.6c-0.2-0.4-0.1-0.8,0.1-1.1l1.1-1.3v-9.4l-1.1-1.3
					c-0.3-0.3-0.3-0.7-0.1-1.1c0.2-0.4,0.5-0.6,0.9-0.6h33.5c4.2,0,7.6,3.4,7.6,7.6S555.7,68.9,551.5,68.9z M520.2,66.9h31.3
					c3.1,0,5.6-2.5,5.6-5.6s-2.5-5.6-5.6-5.6h-31.3c0.1,0.2,0.2,0.3,0.2,0.5v10.2C520.3,66.5,520.3,66.7,520.2,66.9z"/>
			</g>
			<path class="st0" d="M556.7,58.7h-36.6c-0.6,0-1-0.4-1-1s0.4-1,1-1h36.6c0.6,0,1,0.4,1,1S557.3,58.7,556.7,58.7z"/>
			<path class="st0" d="M557.4,61.9h-37.3c-0.6,0-1-0.4-1-1s0.4-1,1-1h37.3c0.6,0,1,0.4,1,1S558,61.9,557.4,61.9z"/>
			<path class="st0" d="M557.4,61.9h-37.3c-0.6,0-1-0.4-1-1s0.4-1,1-1h37.3c0.6,0,1,0.4,1,1S558,61.9,557.4,61.9z"/>
			<path class="st0" d="M556.7,65.6h-36.6c-0.6,0-1-0.4-1-1s0.4-1,1-1h36.6c0.6,0,1,0.4,1,1S557.3,65.6,556.7,65.6z"/>
		</g>
		<g>
			<g>
				<path class="st0" d="M556.6,81.3h-33.5c-4.2,0-7.6-3.2-7.6-7.2s3.4-7.2,7.6-7.2h33.5c0.4,0,0.8,0.2,0.9,0.6
					c0.2,0.4,0.1,0.8-0.2,1.1l-1,1.2v8.7l1,1.2c0.3,0.3,0.3,0.7,0.2,1.1C557.4,81.1,557,81.3,556.6,81.3z M523.2,68.9
					c-3.1,0-5.6,2.3-5.6,5.2s2.5,5.2,5.6,5.2h31.3c-0.1-0.1-0.1-0.3-0.1-0.4v-9.5c0-0.2,0-0.3,0.1-0.4H523.2z"/>
			</g>
			<path class="st0" d="M554.5,71.7h-36.6c-0.6,0-1-0.4-1-1s0.4-1,1-1h36.6c0.6,0,1,0.4,1,1S555.1,71.7,554.5,71.7z"/>
			<path class="st0" d="M554.5,74.8h-37.3c-0.6,0-1-0.4-1-1s0.4-1,1-1h37.3c0.6,0,1,0.4,1,1S555.1,74.8,554.5,74.8z"/>
			<path class="st0" d="M554.5,74.8h-37.3c-0.6,0-1-0.4-1-1s0.4-1,1-1h37.3c0.6,0,1,0.4,1,1S555.1,74.8,554.5,74.8z"/>
			<path class="st0" d="M554.5,78.2h-36.6c-0.6,0-1-0.4-1-1s0.4-1,1-1h36.6c0.6,0,1,0.4,1,1S555.1,78.2,554.5,78.2z"/>
		</g>
	</g>
	<path class="st0" d="M576.3,81.6h-7.5c-0.4,0-0.8-0.2-0.9-0.6c-1.6-4-2.6-10.2-2.6-16.9c0-6.8,1-13.1,2.7-17.1V36.2
		c0-0.6,0.4-1,1-1h7.1c0.6,0,1,0.4,1,1V47c1.7,4,2.7,10.4,2.7,17.1c0,6.7-0.9,12.8-2.6,16.9C577.1,81.3,576.7,81.6,576.3,81.6z
		 M569.5,79.6h6.1c1.4-3.8,2.2-9.5,2.2-15.5c0-6.6-1-12.8-2.6-16.5c-0.1-0.1-0.1-0.3-0.1-0.4v-10H570v10c0,0.1,0,0.3-0.1,0.4
		c-1.6,3.7-2.6,9.9-2.6,16.5C567.3,70.1,568.1,75.8,569.5,79.6z"/>
	<g>
		<g>
			<g>
				<path class="st0" d="M317.9,39h-4c-0.6,0-1-0.4-1-1V1.4c0-0.6,0.4-1,1-1h4c0.6,0,1,0.4,1,1V38C318.9,38.6,318.5,39,317.9,39z
					 M314.9,37h2V2.4h-2V37z"/>
			</g>
			<path class="st0" d="M323.6,45.3h-15.5c-0.6,0-1-0.4-1-1V38c0-0.6,0.4-1,1-1h15.5c0.6,0,1,0.4,1,1v6.3
				C324.6,44.9,324.1,45.3,323.6,45.3z M309.1,43.3h13.5V39h-13.5V43.3z"/>
			<path class="st0" d="M315.9,73.8c-4.5,0-8.4-3-9.5-7.4c-0.1-0.3,0-0.6,0.2-0.9s0.5-0.4,0.8-0.4h17c0.3,0,0.6,0.1,0.8,0.4
				s0.3,0.6,0.2,0.9C324.3,70.7,320.4,73.8,315.9,73.8z M308.8,67.1c1.2,2.8,4,4.6,7.1,4.6c3.1,0,5.9-1.9,7.1-4.6H308.8z"/>
			<path class="st0" d="M342.8,67.1H289c-0.4,0-0.8-0.2-0.9-0.6c-0.2-0.4-0.1-0.8,0.2-1.1l19.2-21.8c0.2-0.2,0.5-0.3,0.8-0.3h15.4
				c0.3,0,0.6,0.1,0.8,0.3l19.2,21.8c0.3,0.3,0.3,0.7,0.2,1.1C343.5,66.9,343.2,67.1,342.8,67.1z M291.2,65.1h49.4l-17.5-19.8h-14.4
				L291.2,65.1z"/>
		</g>
	</g>
	<g>
		<path class="st0" d="M515.9,150.4h-28.2c-0.6,0-1-0.4-1-1v-34.1c0-0.6,0.4-1,1-1h28.2c0.6,0,1,0.4,1,1v34.1
			C516.9,149.9,516.5,150.4,515.9,150.4z M488.8,148.4h26.2v-32.1h-26.2V148.4z"/>
		<path class="st0" d="M513,146.8h-22.3c-0.6,0-1-0.4-1-1v-27c0-0.6,0.4-1,1-1H513c0.6,0,1,0.4,1,1v27
			C514,146.4,513.6,146.8,513,146.8z M491.7,144.8H512v-25h-20.3V144.8z"/>
		<path class="st0" d="M509.2,142.2h-14.7c-0.6,0-1-0.4-1-1v-17.7c0-0.6,0.4-1,1-1h14.7c0.6,0,1,0.4,1,1v17.7
			C510.2,141.8,509.7,142.2,509.2,142.2z M495.5,140.2h12.7v-15.7h-12.7V140.2z"/>
		<path class="st2" d="M509.2,142.2h-14.7c-0.6,0-1-0.4-1-1v-17.7c0-0.6,0.4-1,1-1s1,0.4,1,1v16.7h13.7c0.6,0,1,0.4,1,1
			S509.7,142.2,509.2,142.2z"/>
	</g>
	<g>
		<path class="st0" d="M551,133.3h-28.2c-0.6,0-1-0.4-1-1V98.3c0-0.6,0.4-1,1-1H551c0.6,0,1,0.4,1,1v34.1
			C552,132.9,551.5,133.3,551,133.3z M523.8,131.3H550V99.3h-26.2V131.3z"/>
		<path class="st0" d="M548,129.8h-22.3c-0.6,0-1-0.4-1-1v-27c0-0.6,0.4-1,1-1H548c0.6,0,1,0.4,1,1v27
			C549,129.3,548.6,129.8,548,129.8z M526.7,127.8H547v-25h-20.3V127.8z"/>
		<path class="st0" d="M544.2,125.2h-14.7c-0.6,0-1-0.4-1-1v-17.7c0-0.6,0.4-1,1-1h14.7c0.6,0,1,0.4,1,1v17.7
			C545.2,124.7,544.8,125.2,544.2,125.2z M530.6,123.2h12.7v-15.7h-12.7V123.2z"/>
		<path class="st2" d="M544.2,125.2h-14.7c-0.6,0-1-0.4-1-1v-17.7c0-0.6,0.4-1,1-1s1,0.4,1,1v16.7h13.7c0.6,0,1,0.4,1,1
			S544.8,125.2,544.2,125.2z"/>
	</g>
	<g>
		<g>
			<g>
				<g>
					<g>
						<g>
							<path class="st0" d="M213.9,272.1h-70c-7.4,0-13.5-6.1-13.5-13.6v-70c0-0.6,0.4-1,1-1c7.7,0,13.9,7,17.9,20.3
								c3.2,10.5,5,25,5,39.9c0,4,1.5,7.4,4.4,10.1c10.8,9.7,38,8.1,49.3,7c3.7-0.4,6.8,2.6,6.8,6.2
								C214.9,271.7,214.5,272.1,213.9,272.1z M132.5,189.6v68.9c0,6.4,5.1,11.6,11.5,11.6h68.8c-0.5-2-2.4-3.4-4.5-3.2
								c-11.5,1.2-39.4,2.8-50.8-7.5c-3.4-3.1-5.1-6.9-5.1-11.6C152.4,220.4,146.2,191,132.5,189.6z"/>
							<path class="st0" d="M208.4,272.1H144c-7.4,0-13.5-6.1-13.5-13.6v-66c0-0.3,0.2-0.7,0.5-0.8c0.3-0.2,0.6-0.2,1-0.1
								c13.2,6,17.8,35.6,17.8,59.2c0,4,1.5,7.4,4.4,10.1c10.8,9.7,38.1,8.1,49.3,7c2.3-0.2,4.5,0.8,5.8,2.7c0.2,0.3,0.2,0.7,0.1,1
								C209.1,271.9,208.8,272.1,208.4,272.1z M200.7,270.1h4.9c-0.6-0.2-1.3-0.3-2-0.3C202.8,269.9,201.8,270,200.7,270.1z
								 M132.5,194.2v64.3c0,6.4,5.1,11.6,11.5,11.6h31.2c-8.8-0.9-17.2-3.2-22.3-7.8c-3.4-3.1-5.1-6.9-5.1-11.6
								C147.8,227.1,143,201,132.5,194.2z"/>
						</g>
						<path class="st0" d="M190.3,278.1H148c-3.8,0-7-3.1-7-7c0-0.6,0.4-1,1-1h54.2c0.6,0,1,0.4,1,1
							C197.3,275,194.2,278.1,190.3,278.1z M143.1,272.1c0.5,2.3,2.5,4,4.9,4h42.3c2.4,0,4.4-1.7,4.9-4H143.1z"/>
						<path class="st0" d="M196.8,339.6h-4.2c-0.5,0-0.9-0.4-1-0.8l-2.4-14.1h-39.9l-2.4,14.1c-0.1,0.5-0.5,0.8-1,0.8h-4.2
							c-0.3,0-0.6-0.1-0.8-0.3c-0.2-0.2-0.3-0.5-0.2-0.8L149,277c0.1-0.5,0.5-0.9,1-0.9h6.4c0.3,0,0.6,0.1,0.8,0.4
							c0.2,0.2,0.3,0.5,0.2,0.8l-7.1,40.9H188l-7.1-40.9c0-0.3,0-0.6,0.2-0.8c0.2-0.2,0.5-0.4,0.8-0.4h6.4c0.5,0,0.9,0.4,1,0.9
							l8.5,61.5c0,0.3,0,0.6-0.2,0.8C197.4,339.5,197.1,339.6,196.8,339.6z M193.4,337.6h2.3l-8.2-59.5h-4.3l7.1,40.9
							c0,0.3,0,0.6-0.2,0.8c-0.2,0.2-0.5,0.4-0.8,0.4h-40.1c-0.3,0-0.6-0.1-0.8-0.4c-0.2-0.2-0.3-0.5-0.2-0.8l7.1-40.9h-4.3
							l-8.2,59.5h2.3l2.4-14.1c0.1-0.5,0.5-0.8,1-0.8H190c0.5,0,0.9,0.4,1,0.8L193.4,337.6z"/>
					</g>
					<g>
						<g>
							<path class="st0" d="M484.3,272.1h-70c-0.6,0-1-0.4-1-1c0-3.4,2.8-6.3,6.2-6.3c0.2,0,0.4,0,0.6,0c11.2,1.1,38.5,2.8,49.3-7
								c3-2.7,4.4-6.1,4.4-10.1c0-14.9,1.8-29.4,5-39.9c4-13.3,10.2-20.3,17.9-20.3c0.6,0,1,0.4,1,1v70
								C497.8,266,491.7,272.1,484.3,272.1z M415.4,270.1h68.8c6.3,0,11.5-5.2,11.5-11.6v-68.9c-13.6,1.4-19.9,30.8-19.9,58.2
								c0,4.6-1.7,8.5-5.1,11.6c-11.4,10.3-39.3,8.7-50.8,7.5c-0.1,0-0.3,0-0.4,0C417.6,266.9,415.9,268.2,415.4,270.1z"/>
							<path class="st0" d="M484.3,272.1h-64.4c-0.4,0-0.7-0.2-0.9-0.5c-0.2-0.3-0.2-0.7,0.1-1c1.3-1.9,3.5-2.9,5.8-2.7
								c11.2,1.1,38.5,2.8,49.3-7c3-2.7,4.4-6.1,4.4-10.1c0-23.6,4.7-53.2,17.8-59.2c0.3-0.1,0.7-0.1,1,0.1c0.3,0.2,0.5,0.5,0.5,0.8
								v66C497.8,266,491.7,272.1,484.3,272.1z M453.1,270.1h31.2c6.3,0,11.5-5.2,11.5-11.6v-64.3c-10.5,6.7-15.2,32.8-15.2,56.6
								c0,4.6-1.7,8.5-5.1,11.6C470.3,267,461.9,269.2,453.1,270.1z M422.6,270.1h4.9c-1.1-0.1-2-0.2-2.9-0.3
								C423.9,269.8,423.2,269.9,422.6,270.1z"/>
						</g>
						<path class="st0" d="M480.3,278.1H438c-3.8,0-7-3.1-7-7c0-0.6,0.4-1,1-1h54.2c0.6,0,1,0.4,1,1
							C487.2,275,484.1,278.1,480.3,278.1z M433.1,272.1c0.5,2.3,2.5,4,4.9,4h42.3c2.4,0,4.4-1.7,4.9-4H433.1z"/>
						<path class="st0" d="M486.8,339.6h-4.2c-0.5,0-0.9-0.4-1-0.8l-2.4-14.1h-39.9l-2.4,14.1c-0.1,0.5-0.5,0.8-1,0.8h-4.2
							c-0.3,0-0.6-0.1-0.8-0.3c-0.2-0.2-0.3-0.5-0.2-0.8L439,277c0.1-0.5,0.5-0.9,1-0.9h6.4c0.3,0,0.6,0.1,0.8,0.4
							c0.2,0.2,0.3,0.5,0.2,0.8l-7.1,40.9H478l-7.1-40.9c0-0.3,0-0.6,0.2-0.8c0.2-0.2,0.5-0.4,0.8-0.4h6.4c0.5,0,0.9,0.4,1,0.9
							l8.5,61.5c0,0.3,0,0.6-0.2,0.8C487.3,339.5,487.1,339.6,486.8,339.6z M483.4,337.6h2.3l-8.2-59.5h-4.3l7.1,40.9
							c0,0.3,0,0.6-0.2,0.8c-0.2,0.2-0.5,0.4-0.8,0.4h-40.1c-0.3,0-0.6-0.1-0.8-0.4c-0.2-0.2-0.3-0.5-0.2-0.8l7.1-40.9h-4.3
							l-8.2,59.5h2.3l2.4-14.1c0.1-0.5,0.5-0.8,1-0.8h41.6c0.5,0,0.9,0.4,1,0.8L483.4,337.6z"/>
					</g>
				</g>
			</g>
			<g>
				<g>
					<g>
						<path class="st0" d="M430.8,234.3H201c-0.6,0-1-0.4-1-1v-15.5c0-0.6,0.4-1,1-1h229.8c0.6,0,1,0.4,1,1v15.5
							C431.8,233.9,431.3,234.3,430.8,234.3z M202,232.3h227.8v-13.5H202V232.3z"/>
						<path class="st0" d="M430.8,226.6H201c-0.6,0-1-0.4-1-1v-7.7c0-0.6,0.4-1,1-1h229.8c0.6,0,1,0.4,1,1v7.7
							C431.8,226.1,431.3,226.6,430.8,226.6z M202,224.6h227.8v-5.7H202V224.6z"/>
					</g>
					<g>
						<g>
							<path class="st0" d="M219.5,339.6h-5.6c-0.3,0-0.6-0.1-0.8-0.3c-0.2-0.2-0.3-0.5-0.2-0.8l14.6-105.3c0.1-0.5,0.5-0.9,1-0.9
								h9.3c0.3,0,0.6,0.1,0.8,0.4c0.2,0.2,0.3,0.5,0.2,0.8l-18.3,105.3C220.4,339.3,220,339.6,219.5,339.6z M215.1,337.6h3.6
								l18-103.3h-7.2L215.1,337.6z"/>
							<path class="st0" d="M417.8,339.6h-5.6c-0.5,0-0.9-0.3-1-0.8L393,233.5c-0.1-0.3,0-0.6,0.2-0.8c0.2-0.2,0.5-0.4,0.8-0.4h9.3
								c0.5,0,0.9,0.4,1,0.9l14.6,105.3c0,0.3,0,0.6-0.2,0.8C418.4,339.5,418.1,339.6,417.8,339.6z M413.1,337.6h3.6l-14.4-103.3
								h-7.2L413.1,337.6z"/>
						</g>
					</g>
				</g>
			</g>
		</g>
		<path class="st0" d="M594.8,332.6H492.7c-0.6,0-1-0.4-1-1s0.4-1,1-1h102.1c0.6,0,1,0.4,1,1S595.3,332.6,594.8,332.6z"/>
		<path class="st0" d="M474.9,332.6h-32.1c-0.6,0-1-0.4-1-1s0.4-1,1-1h32.1c0.6,0,1,0.4,1,1S475.5,332.6,474.9,332.6z"/>
		<path class="st0" d="M427.7,332.6h-6.9c-0.6,0-1-0.4-1-1s0.4-1,1-1h6.9c0.6,0,1,0.4,1,1S428.3,332.6,427.7,332.6z"/>
		<path class="st0" d="M404.9,332.6H227.3c-0.6,0-1-0.4-1-1s0.4-1,1-1h177.6c0.6,0,1,0.4,1,1S405.4,332.6,404.9,332.6z"/>
		<path class="st0" d="M210.8,332.6H201c-0.6,0-1-0.4-1-1s0.4-1,1-1h9.8c0.6,0,1,0.4,1,1S211.3,332.6,210.8,332.6z"/>
		<path class="st0" d="M185.4,332.6h-33.6c-0.6,0-1-0.4-1-1s0.4-1,1-1h33.6c0.6,0,1,0.4,1,1S186,332.6,185.4,332.6z"/>
		<path class="st0" d="M135.6,332.6H0.8c-0.6,0-1-0.4-1-1s0.4-1,1-1h134.9c0.6,0,1,0.4,1,1S136.2,332.6,135.6,332.6z"/>
		<g>
			<path class="st0" d="M386.9,218.7h-16.8c-2.4,0-4.3-1.9-4.3-4.3c0-0.6,0.4-1,1-1h23.5c0.6,0,1,0.4,1,1
				C391.2,216.8,389.3,218.7,386.9,218.7z M368,215.4c0.4,0.8,1.2,1.3,2.1,1.3h16.8c0.9,0,1.7-0.5,2.1-1.3H368z"/>
			<path class="st3" d="M387.5,199.8c-0.3,0-0.5,0-0.7,0l0.3-2.1h-17.4l1.3,10.3l0.1,0.9c0.3,2.4,1.7,4.4,3.7,5.4h7.1
				c1.1-0.6,2-1.4,2.7-2.5c0.9,0.5,1.9,0.7,3,0.7c2.3,0,4.3-1.2,5.4-3c0.6-1,1-2.2,1-3.4C393.9,202.7,391,199.8,387.5,199.8z
				 M387.7,209.6c-0.6,0-1.2-0.2-1.7-0.4c0.1-0.2,0.1-0.5,0.1-0.7l0-0.2l0.7-5.3c0.3-0.1,0.5-0.1,0.8-0.1c1.9,0,3.4,1.5,3.4,3.4
				c0,0.4-0.1,0.8-0.2,1.2C390.4,208.7,389.2,209.6,387.7,209.6z"/>
			<path class="st0" d="M381.9,215.4h-7.1c-0.2,0-0.3,0-0.5-0.1c-2.3-1.3-3.9-3.6-4.3-6.2l-0.1-0.9c-0.1-0.5,0.3-1,0.9-1.1
				c0.6-0.1,1,0.3,1.1,0.9l0.1,0.9c0.2,1.9,1.4,3.6,3,4.5h6.6c0.8-0.5,1.6-1.2,2.1-2c0.3-0.4,0.8-0.6,1.3-0.3
				c0.8,0.4,1.6,0.6,2.5,0.6c0.6,0,1,0.4,1,1s-0.4,1-1,1c-0.9,0-1.8-0.2-2.6-0.5c-0.7,0.9-1.6,1.6-2.5,2.1
				C382.2,215.3,382,215.4,381.9,215.4z"/>
		</g>
		<g>
			<path class="st0" d="M264.3,218.7h-16.8c-2.4,0-4.3-1.9-4.3-4.3c0-0.6,0.4-1,1-1h23.5c0.6,0,1,0.4,1,1
				C268.6,216.8,266.7,218.7,264.3,218.7z M245.4,215.4c0.4,0.8,1.2,1.3,2.1,1.3h16.8c0.9,0,1.7-0.5,2.1-1.3H245.4z"/>
			<path class="st3" d="M264.9,199.8c-0.3,0-0.5,0-0.7,0l0.3-2.1H247l1.3,10.3l0.1,0.9c0.3,2.4,1.7,4.4,3.7,5.4h7.1
				c1.1-0.6,2-1.4,2.7-2.5c0.9,0.5,1.9,0.7,3,0.7c2.3,0,4.3-1.2,5.4-3c0.6-1,1-2.2,1-3.4C271.3,202.7,268.4,199.8,264.9,199.8z
				 M265.2,209.3c-0.6,0-1.1-0.2-1.5-0.4c0.1-0.2,0.1-0.5,0.1-0.7l0-0.2l0.6-4.9c0.2-0.1,0.5-0.1,0.8-0.1c1.7,0,3.1,1.4,3.1,3.1
				c0,0.4-0.1,0.7-0.2,1.1C267.7,208.5,266.5,209.3,265.2,209.3z"/>
			<path class="st0" d="M259.3,215.4h-7.1c-0.2,0-0.3,0-0.5-0.1c-2.3-1.3-3.9-3.6-4.3-6.2l-0.1-0.9c-0.1-0.5,0.3-1,0.9-1.1
				c0.6-0.1,1,0.3,1.1,0.9l0.1,0.9c0.2,1.9,1.4,3.6,3,4.5h6.6c0.8-0.5,1.6-1.2,2.1-2c0.3-0.4,0.8-0.6,1.3-0.3
				c0.8,0.4,1.6,0.6,2.5,0.6c0.6,0,1,0.4,1,1s-0.4,1-1,1c-0.9,0-1.8-0.2-2.6-0.5c-0.7,0.9-1.6,1.6-2.5,2.1
				C259.6,215.3,259.5,215.4,259.3,215.4z"/>
		</g>
		<g>
			<g>
				<path class="st0" d="M348,218.9h-28.1c-0.3,0-0.6-0.1-0.8-0.4c-0.2-0.2-0.3-0.5-0.2-0.8l6.2-31.5c0.1-0.5,0.5-0.8,1-0.8h16.2
					c0.5,0,0.9,0.3,1,0.8l5.7,31.5c0.1,0.3,0,0.6-0.2,0.8C348.5,218.7,348.3,218.9,348,218.9z M321.1,216.9h25.7l-5.4-29.5h-14.5
					L321.1,216.9z"/>
				<path class="st0" d="M330.5,218.9h-10.6c-0.3,0-0.6-0.1-0.8-0.4c-0.2-0.2-0.3-0.5-0.2-0.8l6.2-31.5c0.1-0.5,0.5-0.8,1-0.8
					c0.5,0,0.9,0.4,1,0.9l4.5,31.5c0,0.3,0,0.6-0.2,0.8C331.1,218.7,330.8,218.9,330.5,218.9z M321.1,216.9h8.3l-3.5-24.5
					L321.1,216.9z"/>
			</g>
			<path class="st0" d="M343.3,207.2h-11.9c-0.5,0-0.9-0.4-1-0.9l-2.4-16.3c0-0.3,0-0.6,0.2-0.8c0.2-0.2,0.5-0.3,0.8-0.3h11.5
				c0.5,0,0.9,0.4,1,0.8l2.8,16.3c0,0.3,0,0.6-0.2,0.8C343.9,207,343.6,207.2,343.3,207.2z M332.3,205.2h9.9l-2.4-14.3h-9.5
				L332.3,205.2z"/>
		</g>
		<g>
			<path class="st0" d="M305.4,218.9h-12.3c-0.6,0-1-0.4-1-1v-4.5c0-0.6,0.4-1,1-1h12.3c0.6,0,1,0.4,1,1v4.5
				C306.4,218.4,305.9,218.9,305.4,218.9z M294.1,216.9h10.3v-2.5h-10.3V216.9z"/>
			<path class="st0" d="M302.7,175.4h-3.8c-0.5,0-1-0.4-1-0.9c-2.1-26.5,12.7-35.3,13.3-35.7c0.4-0.2,1-0.1,1.3,0.2
				c0.3,0.4,0.3,0.9,0,1.3c-3.5,3.9-6.2,10-8.1,18c2.3-3.3,4.6-4.6,4.7-4.7c0.4-0.2,1-0.1,1.3,0.2c0.3,0.4,0.3,0.9,0,1.3
				c-3.3,3.7-5.6,10.4-6.6,19.4C303.6,175.1,303.2,175.4,302.7,175.4z M299.8,173.4h2c0.5-3.9,1.2-7.3,2.1-10.2
				c-0.4,0.8-0.7,1.7-1,2.7c-0.2,0.5-0.7,0.8-1.2,0.7c-0.5-0.1-0.8-0.6-0.8-1.1c1.1-7.5,2.8-13.8,5.1-18.8c-0.3,0.4-0.5,0.8-0.8,1.2
				C302.3,152.6,298.9,160.8,299.8,173.4z"/>
			<path class="st0" d="M298.5,175.4h-3.8c-0.5,0-0.9-0.4-1-0.9c-1-7.3-3-12.8-5.8-15.8c-0.3-0.4-0.3-0.9,0-1.3
				c0.3-0.4,0.8-0.5,1.3-0.2c0.1,0.1,2,1.2,4,3.9c-1.6-7-4-12.3-7.1-15.7c-0.3-0.4-0.3-0.9,0-1.3c0.3-0.4,0.8-0.5,1.3-0.2
				c0.5,0.3,13.3,7.9,12.2,30.7C299.5,175,299.1,175.4,298.5,175.4z M295.6,173.4h2c0.3-10-2.3-16.9-5-21.3c1.8,4.3,3.1,9.5,4,15.8
				c0.1,0.5-0.3,1-0.8,1.1c-0.5,0.1-1-0.2-1.2-0.7c0-0.1-0.1-0.2-0.1-0.2C295,169.8,295.3,171.5,295.6,173.4z"/>
			<path class="st0" d="M305.4,214.3h-12.2c-0.2,0-0.4-0.1-0.6-0.2c-3.8-3-6.1-8.3-6.1-14.1c0-4,1.1-7.9,3.2-11
				c1.9-2.8,2.6-6.2,2.1-9.7l-0.7-4.7c0-0.3,0-0.6,0.2-0.8c0.2-0.2,0.5-0.3,0.8-0.3h14.4c0.3,0,0.6,0.1,0.8,0.3
				c0.2,0.2,0.3,0.5,0.2,0.8l-0.7,4.7c-0.5,3.5,0.2,7,2.1,9.7c2.1,3,3.2,6.9,3.2,11c0,5.8-2.3,11.1-6.1,14.1
				C305.8,214.3,305.6,214.3,305.4,214.3z M293.5,212.3H305c3.1-2.7,5.1-7.4,5.1-12.3c0-3.6-1-7.1-2.8-9.8l0,0
				c-2.2-3.2-3-7.1-2.5-11.1l0.5-3.6h-12.1l0.5,3.6c0.6,4-0.3,8-2.5,11.1c-1.8,2.7-2.8,6.2-2.8,9.8
				C288.4,205,290.4,209.7,293.5,212.3z"/>
		</g>
	</g>
</g>
</svg>
