<?xml version="1.0" encoding="utf-8"?>
<!-- Generator: Adobe Illustrator 24.0.1, SVG Export Plug-In . SVG Version: 6.00 Build 0)  -->
<svg version="1.1" id="Layer_1" xmlns="http://www.w3.org/2000/svg" xmlns:xlink="http://www.w3.org/1999/xlink" x="0px" y="0px"
	 viewBox="0 0 688 335" style="enable-background:new 0 0 688 335;" xml:space="preserve">
<style type="text/css">
	.st0{fill:#FFFFFF;}
</style>
<g id="background-basement">
	<g>
		<path class="st0" d="M540.5,329h-124c-0.7,0-1.2-0.6-1.2-1.2v-140c0-0.7,0.6-1.2,1.2-1.2h124c0.7,0,1.2,0.6,1.2,1.2v140
			C541.8,328.4,541.2,329,540.5,329z M417.8,326.5h121.5V189H417.8V326.5z"/>
		<path class="st0" d="M540.5,329h-124c-0.7,0-1.2-0.6-1.2-1.2v-19c0-0.7,0.6-1.2,1.2-1.2h124c0.7,0,1.2,0.6,1.2,1.2v19
			C541.8,328.4,541.2,329,540.5,329z M417.8,326.5h121.5V310H417.8V326.5z"/>
		<path class="st0" d="M540.5,195h-124c-0.7,0-1.2-0.6-1.2-1.2v-6c0-0.7,0.6-1.2,1.2-1.2h124c0.7,0,1.2,0.6,1.2,1.2v6
			C541.8,194.4,541.2,195,540.5,195z M417.8,192.5h121.5V189H417.8V192.5z"/>
		<path class="st0" d="M478.5,302c-22.7,0-41.2-18.5-41.2-41.2s18.5-41.2,41.2-41.2s41.2,18.5,41.2,41.2S501.3,302,478.5,302z
			 M478.5,222c-21.4,0-38.8,17.4-38.8,38.7s17.4,38.8,38.8,38.8s38.8-17.4,38.8-38.8S499.9,222,478.5,222z"/>
		<path class="st0" d="M478.5,292c-17.2,0-31.2-14-31.2-31.2s14-31.2,31.2-31.2s31.2,14,31.2,31.2S495.8,292,478.5,292z M478.5,232
			c-15.9,0-28.8,12.9-28.8,28.7s12.9,28.8,28.8,28.8s28.8-12.9,28.8-28.8S494.4,232,478.5,232z"/>
		<path class="st0" d="M496.5,215h-36c-0.7,0-1.2-0.6-1.2-1.2v-13c0-0.7,0.6-1.2,1.2-1.2h36c0.7,0,1.2,0.6,1.2,1.2v13
			C497.8,214.4,497.2,215,496.5,215z M461.8,212.5h33.5V202h-33.5V212.5z"/>
		<path class="st0" d="M507.7,214c-2.9,0-5.2-2.4-5.2-5.2s2.4-5.2,5.2-5.2s5.2,2.4,5.2,5.2S510.6,214,507.7,214z M507.7,206
			c-1.5,0-2.8,1.2-2.8,2.8s1.2,2.8,2.8,2.8s2.8-1.2,2.8-2.8S509.2,206,507.7,206z"/>
		<path class="st0" d="M524.7,217c-4.5,0-8.2-3.7-8.2-8.2s3.7-8.2,8.2-8.2s8.2,3.7,8.2,8.2S529.3,217,524.7,217z M524.7,203
			c-3.2,0-5.8,2.6-5.8,5.8s2.6,5.8,5.8,5.8s5.8-2.6,5.8-5.8S527.9,203,524.7,203z"/>
	</g>
	<g>
		<path class="st0" d="M383.7,328.5h-45c-0.7,0-1.2-0.5-1.2-1.2l-5-70.5c0-0.3,0.1-0.7,0.3-0.9c0.2-0.3,0.6-0.4,0.9-0.4h54
			c0.3,0,0.7,0.1,0.9,0.4c0.2,0.2,0.4,0.6,0.3,0.9l-4,70.5C384.9,328,384.4,328.5,383.7,328.5z M339.9,326h42.7l3.9-68h-51.3
			L339.9,326z"/>
		<path class="st0" d="M391,257h-59.2c-0.6,0-1.1-0.4-1.2-1l-1.6-9c-0.1-0.4,0-0.7,0.3-1c0.2-0.3,0.6-0.4,1-0.4h61
			c0.3,0,0.7,0.1,0.9,0.4s0.4,0.6,0.4,0.9l-0.3,9C392.2,256.4,391.6,257,391,257z M332.8,254.5h56.9l0.2-6.5h-58.2L332.8,254.5z"/>
		<path class="st0" d="M363.7,322.5c-0.7,0-1.2-0.6-1.2-1.2v-44c0-0.7,0.6-1.2,1.2-1.2s1.2,0.6,1.2,1.2v44
			C365,321.9,364.4,322.5,363.7,322.5z"/>
		<path class="st0" d="M370.7,322.5C370.7,322.5,370.7,322.5,370.7,322.5c-0.7,0-1.3-0.6-1.3-1.3l1-44c0-0.7,0.6-1.2,1.3-1.2
			c0.7,0,1.2,0.6,1.2,1.3l-1,44C371.9,321.9,371.4,322.5,370.7,322.5z"/>
		<path class="st0" d="M351.7,322.5c-0.7,0-1.2-0.5-1.2-1.2l-1-44c0-0.7,0.5-1.3,1.2-1.3c0,0,0,0,0,0c0.7,0,1.2,0.5,1.2,1.2l1,44
			C353,321.9,352.4,322.5,351.7,322.5C351.7,322.5,351.7,322.5,351.7,322.5z"/>
		<path class="st0" d="M345.7,322.5c-0.7,0-1.2-0.5-1.2-1.2l-2-44c0-0.7,0.5-1.3,1.2-1.3c0.7,0,1.3,0.5,1.3,1.2l2,44
			C346.9,321.9,346.4,322.4,345.7,322.5C345.7,322.5,345.7,322.5,345.7,322.5z"/>
		<path class="st0" d="M357.7,322.5c-0.7,0-1.2-0.6-1.2-1.2v-44c0-0.7,0.6-1.2,1.2-1.2s1.2,0.6,1.2,1.2v44
			C359,321.9,358.4,322.5,357.7,322.5z"/>
		<path class="st0" d="M376.7,322.5C376.6,322.5,376.6,322.5,376.7,322.5c-0.7,0-1.3-0.6-1.2-1.3l2-44c0-0.7,0.6-1.2,1.3-1.2
			c0.7,0,1.2,0.6,1.2,1.3l-2,44C377.9,322,377.3,322.5,376.7,322.5z"/>
		<path class="st0" d="M390.7,292.5c-0.1,0-0.2,0-0.3,0c-0.7-0.2-1.1-0.8-0.9-1.5c0.3-1.4,0.6-3.2,0.9-4.9c0.7-4.4,1.2-7.2,2.3-8.5
			c0.8-1,1.5-1.8,2-2.5c2.1-2.6,2.4-2.9,2.7-6.8c0.9-10.6,1.9-21.7,0.1-26.5c-0.8-2.1-3.5-2.5-5.4-2.8c-1.2-0.2-2-0.3-2.4-0.9
			c-3.6-4.6-9.1-6.1-14.3-7.6c-3.7-1-5.8-1.5-8.4-1c-1.4,0.3-2,0.7-3,1.2c-0.9,0.5-2,1.1-3.9,1.8c-2.9,1-4.8,1.1-6.4,1.2
			c-1.4,0.1-2.3,0.1-3.4,0.7c-0.2,0.1-0.4,0.2-0.6,0.3c-1.7,0.9-3.1,1.7-3.8,6.7c-0.1,0.7-0.7,1.2-1.4,1.1c-0.7-0.1-1.2-0.7-1.1-1.4
			c0.8-6.3,3.2-7.6,5-8.6c0.2-0.1,0.4-0.2,0.6-0.3c1.6-0.9,3-1,4.5-1.1c1.5-0.1,3.2-0.2,5.7-1c1.7-0.6,2.6-1.1,3.4-1.6
			c1-0.6,1.9-1.1,3.7-1.5c3.3-0.7,6,0,9.6,1c5.6,1.5,11.4,3.1,15.5,8.2c0.2,0.1,0.7,0.1,1,0.2c2.1,0.3,6,0.9,7.3,4.4
			c2,5.3,1.1,16.1,0.1,27.5c-0.4,4.5-0.9,5.3-3.3,8.2c-0.5,0.7-1.2,1.4-2,2.5c-0.7,1-1.3,4.5-1.8,7.4c-0.3,1.8-0.6,3.7-1,5.1
			C391.8,292.1,391.3,292.5,390.7,292.5z"/>
	</g>
	<path class="st0" d="M359.7,133.5c-0.7,0-1.2-0.6-1.2-1.2V42.5H189.7c-0.7,0-1.2-0.6-1.2-1.2v-30c0-0.7,0.6-1.2,1.2-1.2
		s1.2,0.6,1.2,1.2V40h168.7c0.7,0,1.2,0.6,1.2,1.2v91C361,132.9,360.4,133.5,359.7,133.5z"/>
	<path class="st0" d="M386.7,207.5h-55c-0.7,0-1.2-0.6-1.2-1.2v-73c0-0.7,0.6-1.2,1.2-1.2h55c0.7,0,1.2,0.6,1.2,1.2v73
		C388,206.9,387.4,207.5,386.7,207.5z M333,205h52.5v-70.5H333V205z"/>
	<path class="st0" d="M381.4,200.5H337c-0.7,0-1.2-0.6-1.2-1.2v-59c0-0.7,0.6-1.2,1.2-1.2h44.5c0.7,0,1.2,0.6,1.2,1.2v59
		C382.7,199.9,382.1,200.5,381.4,200.5z M338.2,198h42v-56.5h-42V198z"/>
	<path class="st0" d="M347.2,186.5c-2.6,0-4.8-2.1-4.8-4.8s2.1-4.8,4.8-4.8s4.8,2.1,4.8,4.8S349.8,186.5,347.2,186.5z M347.2,179.5
		c-1.2,0-2.2,1-2.2,2.2s1,2.2,2.2,2.2s2.2-1,2.2-2.2S348.5,179.5,347.2,179.5z"/>
	<path class="st0" d="M369.3,174.5h-24.2c-0.4,0-0.9-0.2-1.1-0.6c-0.2-0.4-0.2-0.9,0-1.2l12.1-21c0.4-0.8,1.7-0.8,2.2,0l12.1,21
		c0.2,0.4,0.2,0.9,0,1.2C370.2,174.2,369.8,174.5,369.3,174.5z M347.3,172h19.9l-10-17.2L347.3,172z"/>
	<path class="st0" d="M472.7,13c-0.3,0-0.7-0.1-0.9-0.4L461.7,2.1c-0.3-0.4-0.4-0.9-0.2-1.4s0.6-0.8,1.2-0.8h20.2
		c0.5,0,1,0.3,1.2,0.8s0.1,1-0.2,1.4l-10.1,10.5C473.4,12.8,473,13,472.7,13z M465.5,2.5l7.2,7.4l7.2-7.4H465.5z"/>
	<path class="st0" d="M442.2,94c-0.5,0-0.9-0.3-1.1-0.7c-0.3-0.5-0.1-1.2,0.4-1.6l30.5-22c0.4-0.3,1-0.3,1.5,0l30.5,22
		c0.5,0.4,0.7,1,0.4,1.6c-0.3,0.5-0.9,0.8-1.5,0.6c-0.2,0-16.5-4.9-30.2-4.9s-30,4.9-30.2,4.9C442.4,94,442.3,94,442.2,94z
		 M472.7,72.3l-24.3,17.5c6.1-1.5,15.6-3.3,24.3-3.3s18.2,1.9,24.3,3.3L472.7,72.3z"/>
	<path class="st0" d="M472.7,99c-14,0-30.2-4.8-30.9-5.1c-0.7-0.2-1-0.9-0.8-1.6c0.2-0.7,0.9-1,1.6-0.8c0.2,0,16.5,4.9,30.2,4.9
		s30-4.9,30.2-4.9c0.7-0.2,1.4,0.2,1.6,0.8c0.2,0.7-0.2,1.4-0.8,1.6C502.9,94.1,486.7,99,472.7,99z"/>
	<path class="st0" d="M356.5,170.6c-0.2,0-0.3,0-0.5-0.1c-0.6-0.3-1-1-0.7-1.6l1-2.5h-0.7c-0.4,0-0.8-0.2-1-0.5
		c-0.2-0.3-0.3-0.7-0.2-1.1l1.7-5c0.2-0.7,0.9-1,1.6-0.8c0.7,0.2,1,0.9,0.8,1.6l-1.1,3.4h0.8c0.4,0,0.8,0.2,1,0.5
		c0.2,0.3,0.3,0.8,0.1,1.2l-1.7,4.2C357.5,170.4,357,170.6,356.5,170.6z"/>
	<path class="st0" d="M472.7,71.5c-0.7,0-1.2-0.6-1.2-1.2v-59c0-0.7,0.6-1.2,1.2-1.2s1.2,0.6,1.2,1.2v59
		C474,70.9,473.4,71.5,472.7,71.5z"/>
	<g>
		<g>
			<path class="st0" d="M646.3,329h-85c-0.7,0-1.2-0.6-1.2-1.2v-229c0-0.7,0.6-1.2,1.2-1.2h85c0.7,0,1.2,0.6,1.2,1.2v229
				C647.6,328.4,647,329,646.3,329z M562.6,326.5h82.5V100h-82.5V326.5z"/>
		</g>
		<path class="st0" d="M619.8,97.5h-32c-0.7,0-1.2-0.6-1.2-1.2v-8c0-0.7,0.6-1.2,1.2-1.2h32c0.7,0,1.2,0.6,1.2,1.2v8
			C621.1,96.9,620.5,97.5,619.8,97.5z M589.1,95h29.5v-5.5h-29.5V95z"/>
		<path class="st0" d="M619.8,52.5h-32c-0.7,0-1.2-0.6-1.2-1.2v-8c0-0.7,0.6-1.2,1.2-1.2h32c0.7,0,1.2,0.6,1.2,1.2v8
			C621.1,51.9,620.5,52.5,619.8,52.5z M589.1,50h29.5v-5.5h-29.5V50z"/>
		<g>
			<path class="st0" d="M615.8,44.5h-24c-0.7,0-1.2-0.6-1.2-1.2v-41c0-0.7,0.6-1.2,1.2-1.2s1.2,0.6,1.2,1.2V42h21.5V2.2
				c0-0.7,0.6-1.2,1.2-1.2s1.2,0.6,1.2,1.2v41C617.1,43.9,616.5,44.5,615.8,44.5z"/>
			<path class="st0" d="M615.8,89.5h-24c-0.7,0-1.2-0.6-1.2-1.2v-37c0-0.7,0.6-1.2,1.2-1.2h24c0.7,0,1.2,0.6,1.2,1.2v37
				C617.1,88.9,616.5,89.5,615.8,89.5z M593.1,87h21.5V52.5h-21.5V87z"/>
		</g>
		<path class="st0" d="M616.8,226.5h-26c-0.7,0-1.2-0.6-1.2-1.2v-9c0-0.7,0.6-1.2,1.2-1.2h26c0.7,0,1.2,0.6,1.2,1.2v9
			C618.1,225.9,617.5,226.5,616.8,226.5z M592.1,224h23.5v-6.5h-23.5V224z"/>
		<path class="st0" d="M616.3,291.5h-25c-0.7,0-1.2-0.6-1.2-1.2v-53c0-0.7,0.6-1.2,1.2-1.2h25c0.7,0,1.2,0.6,1.2,1.2v53
			C617.6,290.9,617,291.5,616.3,291.5z M592.6,289h22.5v-50.5h-22.5V289z"/>
		<path class="st0" d="M603.8,257.5c-4.5,0-8.2-3.7-8.2-8.2s3.7-8.2,8.2-8.2s8.2,3.7,8.2,8.2S608.4,257.5,603.8,257.5z M603.8,243.5
			c-3.2,0-5.8,2.6-5.8,5.8s2.6,5.8,5.8,5.8s5.8-2.6,5.8-5.8S607,243.5,603.8,243.5z"/>
		<path class="st0" d="M603.8,274.5c-3.7,0-6.8-3-6.8-6.8s3-6.8,6.8-6.8s6.8,3,6.8,6.8S607.5,274.5,603.8,274.5z M603.8,263.5
			c-2.3,0-4.2,1.9-4.2,4.2s1.9,4.2,4.2,4.2s4.2-1.9,4.2-4.2S606.2,263.5,603.8,263.5z"/>
		<path class="st0" d="M603.8,286.5c-2.6,0-4.8-2.1-4.8-4.8s2.1-4.8,4.8-4.8s4.8,2.1,4.8,4.8S606.4,286.5,603.8,286.5z M603.8,279.5
			c-1.2,0-2.2,1-2.2,2.2s1,2.2,2.2,2.2s2.2-1,2.2-2.2S605.1,279.5,603.8,279.5z"/>
	</g>
	<path class="st0" d="M159.7,334.5h-10c-0.7,0-1.2-0.6-1.2-1.2v-29.8H80v29.8c0,0.7-0.6,1.2-1.2,1.2h-10c-0.7,0-1.2-0.6-1.2-1.2V5.2
		C67.5,4.5,68,4,68.7,4h10C79.4,4,80,4.5,80,5.2V29h68.5V5.2c0-0.7,0.6-1.2,1.2-1.2h10c0.7,0,1.2,0.6,1.2,1.2v328
		C161,333.9,160.4,334.5,159.7,334.5z M151,332h7.5V6.5H151v23.8c0,0.7-0.6,1.2-1.2,1.2h-71c-0.7,0-1.2-0.6-1.2-1.2V6.5H70V332h7.5
		v-29.8c0-0.7,0.6-1.2,1.2-1.2h71c0.7,0,1.2,0.6,1.2,1.2V332z M149.7,293.5h-71c-0.7,0-1.2-0.6-1.2-1.2v-11.8c0-0.7,0.6-1.2,1.2-1.2
		h71c0.7,0,1.2,0.6,1.2,1.2v11.8C151,292.9,150.4,293.5,149.7,293.5z M80,291h68.5v-9.3H80V291z M149.7,271.6h-71
		c-0.7,0-1.2-0.6-1.2-1.2v-11.8c0-0.7,0.6-1.2,1.2-1.2h71c0.7,0,1.2,0.6,1.2,1.2v11.8C151,271.1,150.4,271.6,149.7,271.6z M80,269.1
		h68.5v-9.3H80V269.1z M149.7,249.8h-71c-0.7,0-1.2-0.6-1.2-1.2v-11.8c0-0.7,0.6-1.2,1.2-1.2h71c0.7,0,1.2,0.6,1.2,1.2v11.8
		C151,249.3,150.4,249.8,149.7,249.8z M80,247.3h68.5V238H80V247.3z M149.7,228h-71c-0.7,0-1.2-0.6-1.2-1.2v-11.8
		c0-0.7,0.6-1.2,1.2-1.2h71c0.7,0,1.2,0.6,1.2,1.2v11.8C151,227.4,150.4,228,149.7,228z M80,225.5h68.5v-9.3H80V225.5z M149.7,206.1
		h-71c-0.7,0-1.2-0.6-1.2-1.2v-11.8c0-0.7,0.6-1.2,1.2-1.2h71c0.7,0,1.2,0.6,1.2,1.2v11.8C151,205.6,150.4,206.1,149.7,206.1z
		 M80,203.6h68.5v-9.3H80V203.6z M149.7,184.3h-71c-0.7,0-1.2-0.6-1.2-1.2v-11.8c0-0.7,0.6-1.2,1.2-1.2h71c0.7,0,1.2,0.6,1.2,1.2
		v11.8C151,183.8,150.4,184.3,149.7,184.3z M80,181.8h68.5v-9.3H80V181.8z M149.7,162.5h-71c-0.7,0-1.2-0.6-1.2-1.2v-11.8
		c0-0.7,0.6-1.2,1.2-1.2h71c0.7,0,1.2,0.6,1.2,1.2v11.8C151,161.9,150.4,162.5,149.7,162.5z M80,160h68.5v-9.3H80V160z M149.7,140.6
		h-71c-0.7,0-1.2-0.6-1.2-1.2v-11.8c0-0.7,0.6-1.2,1.2-1.2h71c0.7,0,1.2,0.6,1.2,1.2v11.8C151,140.1,150.4,140.6,149.7,140.6z
		 M80,138.1h68.5v-9.3H80V138.1z M149.7,118.8h-71c-0.7,0-1.2-0.6-1.2-1.2v-11.8c0-0.7,0.6-1.2,1.2-1.2h71c0.7,0,1.2,0.6,1.2,1.2
		v11.8C151,118.3,150.4,118.8,149.7,118.8z M80,116.3h68.5V107H80V116.3z M149.7,97h-71c-0.7,0-1.2-0.6-1.2-1.2V83.9
		c0-0.7,0.6-1.2,1.2-1.2h71c0.7,0,1.2,0.6,1.2,1.2v11.8C151,96.4,150.4,97,149.7,97z M80,94.5h68.5v-9.3H80V94.5z M149.7,75.1h-71
		c-0.7,0-1.2-0.6-1.2-1.2V62.1c0-0.7,0.6-1.2,1.2-1.2h71c0.7,0,1.2,0.6,1.2,1.2v11.8C151,74.6,150.4,75.1,149.7,75.1z M80,72.6h68.5
		v-9.3H80V72.6z M149.7,53.3h-71c-0.7,0-1.2-0.6-1.2-1.2V40.2c0-0.7,0.6-1.2,1.2-1.2h71c0.7,0,1.2,0.6,1.2,1.2v11.8
		C151,52.8,150.4,53.3,149.7,53.3z M80,50.8h68.5v-9.3H80V50.8z"/>
	<g>
		<g>
			<path class="st0" d="M242.7,165.5h-20c-0.7,0-1.2-0.5-1.2-1.2l-2-27c0-0.3,0.1-0.7,0.3-0.9s0.6-0.4,0.9-0.4h24
				c0.3,0,0.7,0.1,0.9,0.4s0.4,0.6,0.3,0.9l-2,27C243.9,165,243.4,165.5,242.7,165.5z M223.9,163h17.7l1.8-24.5h-21.3L223.9,163z"/>
			<path class="st0" d="M272.3,165.5H248c-0.7,0-1.2-0.6-1.2-1.2s0.6-1.2,1.2-1.2h23.1l2.8-34h-32.8l0.3,3.7
				c0.1,0.7-0.5,1.3-1.1,1.3c-0.7,0.1-1.3-0.5-1.3-1.1l-0.4-5.1c0-0.3,0.1-0.7,0.3-0.9s0.6-0.4,0.9-0.4h35.5c0.3,0,0.7,0.1,0.9,0.4
				s0.4,0.6,0.3,0.9l-3,36.5C273.4,165,272.9,165.5,272.3,165.5z"/>
		</g>
		<g>
			<g>
				<path class="st0" d="M267.7,237.5c-0.5,0-0.9-0.3-1.1-0.7l-4.1-9.3c-0.1-0.3-0.1-0.6,0-0.9l7.1-19.7c0.2-0.5,0.6-0.8,1.2-0.8h9
					c0.5,0,1,0.3,1.2,0.8l7,19.7c0.1,0.4,0.1,0.8-0.1,1.1l-6,9.3c-0.4,0.6-1.1,0.7-1.7,0.4c-0.6-0.4-0.7-1.1-0.4-1.7l5.7-8.8
					l-6.5-18.3h-7.2l-6.6,18.4l3.9,8.9c0.3,0.6,0,1.4-0.6,1.6C268.1,237.4,267.9,237.5,267.7,237.5z"/>
				<path class="st0" d="M263.7,208.5c-0.1,0-0.2,0-0.3,0c-0.3-0.1-0.6-0.3-0.8-0.6l-1-2c-0.2-0.5-0.2-1,0.2-1.4l7-8
					c0.2-0.3,0.6-0.4,0.9-0.4h17c0.7,0,1.2,0.6,1.2,1.2v3c0,0.7-0.6,1.2-1.2,1.2h-1.1l2.3,5.3c0.2,0.4,0.1,0.8-0.1,1.2
					c-0.2,0.4-0.6,0.6-1,0.6h-2c-0.4,0-0.8-0.2-1-0.6l-2.2-3.4l-0.5,2.9c-0.1,0.6-0.6,1-1.2,1h-10c-0.7,0-1.2-0.6-1.2-1.2v-1.7
					l-4.1,2.7C264.2,208.4,264,208.5,263.7,208.5z M271,206h7.7l0.8-5c0.1-0.5,0.5-0.9,1-1c0.5-0.1,1,0.1,1.3,0.5l2,3.1l-1.2-2.9
					c-0.2-0.4-0.1-0.8,0.1-1.2c0.2-0.4,0.6-0.6,1-0.6h1.8v-0.5h-15.2l-6,6.9l4.8-3.2c0.4-0.3,0.9-0.3,1.3-0.1
					c0.4,0.2,0.7,0.6,0.7,1.1V206z"/>
			</g>
			<path class="st0" d="M266.1,213.6c-0.6,0-1.1-0.4-1.2-1l-0.5-2.5c-0.1-0.7,0.3-1.3,1-1.5c0.7-0.1,1.3,0.3,1.5,1l0.5,2.5
				c0.1,0.7-0.3,1.3-1,1.5C266.2,213.6,266.1,213.6,266.1,213.6z"/>
			<path class="st0" d="M238.2,237.5c-0.4,0-0.7-0.2-1-0.5l-6-7.8c-0.2-0.3-0.3-0.7-0.2-1l7-30.7c0.1-0.6,0.6-1,1.2-1h25
				c0.7,0,1.2,0.6,1.2,1.2s-0.6,1.2-1.2,1.2h-24l-6.6,29.2l5.6,7.3c0.4,0.5,0.3,1.3-0.2,1.8C238.7,237.4,238.5,237.5,238.2,237.5z"
				/>
			<path class="st0" d="M263.2,237.5c-0.2,0-0.5-0.1-0.7-0.2c-0.6-0.4-0.7-1.2-0.3-1.7l0.8-1.3c0.4-0.6,1.2-0.7,1.7-0.3
				c0.6,0.4,0.7,1.2,0.3,1.7l-0.8,1.3C264,237.3,263.6,237.5,263.2,237.5z"/>
			<path class="st0" d="M248.4,198.5c-0.1,0-0.2,0-0.3,0c-0.7-0.2-1.1-0.8-0.9-1.5l0.9-3.5c0.1-0.6,0.6-1,1.2-1h11
				c0.6,0,1.1,0.4,1.2,1l0.8,3.4c0.2,0.7-0.2,1.3-0.9,1.5c-0.7,0.2-1.3-0.2-1.5-0.9l-0.6-2.4h-9l-0.6,2.5
				C249.4,198.1,248.9,198.5,248.4,198.5z"/>
			<path class="st0" d="M239.2,198.5c-0.5,0-1-0.3-1.2-0.9l-2-6.5c-0.1-0.4,0-0.8,0.2-1.1c0.2-0.3,0.6-0.5,1-0.5h33
				c0.4,0,0.8,0.2,1,0.5c0.2,0.3,0.3,0.7,0.2,1.1l-1,3c-0.2,0.7-0.9,1-1.6,0.8c-0.7-0.2-1-0.9-0.8-1.6l0.4-1.4h-29.6l1.5,4.9
				c0.2,0.7-0.2,1.4-0.8,1.6C239.5,198.5,239.3,198.5,239.2,198.5z"/>
		</g>
		<g>
			<path class="st0" d="M295.5,165.5h-84.1c-0.7,0-1.2-0.6-1.2-1.2v-66c0-0.7,0.6-1.2,1.2-1.2h84.1c0.7,0,1.2,0.6,1.2,1.2v66
				C296.7,164.9,296.2,165.5,295.5,165.5z M212.7,163h81.6V99.5h-81.6V163z"/>
			<path class="st0" d="M295.5,238h-84.1c-0.7,0-1.2-0.6-1.2-1.2v-66c0-0.7,0.6-1.2,1.2-1.2h84.1c0.7,0,1.2,0.6,1.2,1.2v66
				C296.7,237.4,296.2,238,295.5,238z M212.7,235.5h81.6V172h-81.6V235.5z"/>
			<path class="st0" d="M295.5,310h-84.1c-0.7,0-1.2-0.6-1.2-1.2v-66c0-0.7,0.6-1.2,1.2-1.2h84.1c0.7,0,1.2,0.6,1.2,1.2v66
				C296.7,309.4,296.2,310,295.5,310z M212.7,307.5h81.6V244h-81.6V307.5z"/>
			<path class="st0" d="M304,329h-7.8c-0.7,0-1.2-0.6-1.2-1.2V315h-82v12.8c0,0.7-0.6,1.2-1.2,1.2H203c-0.7,0-1.2-0.6-1.2-1.2v-237
				c0-0.7,0.6-1.2,1.2-1.2h101c0.7,0,1.2,0.6,1.2,1.2v237C305.2,328.4,304.6,329,304,329z M297.4,326.5h5.3V92h-98.5v234.5h6.2
				v-12.8c0-0.7,0.6-1.2,1.2-1.2h84.5c0.7,0,1.2,0.6,1.2,1.2V326.5z"/>
		</g>
		<g>
			<path class="st0" d="M272.2,310h-40.7c-0.4,0-0.7-0.2-0.9-0.4l-3.4-3.8c-0.2-0.2-0.3-0.5-0.3-0.8v-29.9c0-0.3,0.1-0.6,0.4-0.9
				l3.4-3.4c0.2-0.2,0.6-0.4,0.9-0.4h39.9c0.3,0,0.5,0.1,0.8,0.3l4.6,3.5c0.3,0.2,0.5,0.6,0.5,1V305c0,0.3-0.1,0.7-0.4,0.9l-3.9,3.8
				C272.9,309.9,272.6,310,272.2,310z M232.1,307.5h39.6l3.2-3v-28.6l-3.8-2.9h-39l-2.6,2.6v28.9L232.1,307.5z"/>
			<path class="st0" d="M260.2,280.5h-16c-0.7,0-1.2-0.6-1.2-1.2v-3.4c0-0.6,0.4-1.1,0.9-1.2c0.1,0,3.6-0.9,7.9-0.9
				c4.3,0,8.5,0.8,8.7,0.9c0.6,0.1,1,0.6,1,1.2v3.4C261.4,280,260.9,280.5,260.2,280.5z M245.4,278h13.5V277
				c-1.5-0.2-4.3-0.6-7.2-0.6c-2.7,0-5.1,0.4-6.3,0.6V278z"/>
		</g>
	</g>
	<g>
		<path class="st0" d="M58.2,322h-57c-0.7,0-1.2-0.6-1.2-1.2s0.6-1.2,1.2-1.2h57c0.7,0,1.2,0.6,1.2,1.2S58.9,322,58.2,322z"/>
		<path class="st0" d="M194.2,322h-25c-0.7,0-1.2-0.6-1.2-1.2s0.6-1.2,1.2-1.2h25c0.7,0,1.2,0.6,1.2,1.2S194.9,322,194.2,322z"/>
		<path class="st0" d="M139.2,322h-51c-0.7,0-1.2-0.6-1.2-1.2s0.6-1.2,1.2-1.2h51c0.7,0,1.2,0.6,1.2,1.2S139.9,322,139.2,322z"/>
		<path class="st0" d="M283.2,322h-62c-0.7,0-1.2-0.6-1.2-1.2s0.6-1.2,1.2-1.2h62c0.7,0,1.2,0.6,1.2,1.2S283.9,322,283.2,322z"/>
		<path class="st0" d="M330.2,322h-17c-0.7,0-1.2-0.6-1.2-1.2s0.6-1.2,1.2-1.2h17c0.7,0,1.2,0.6,1.2,1.2S330.9,322,330.2,322z"/>
		<path class="st0" d="M409.2,322h-18c-0.7,0-1.2-0.6-1.2-1.2s0.6-1.2,1.2-1.2h18c0.7,0,1.2,0.6,1.2,1.2S409.9,322,409.2,322z"/>
		<path class="st0" d="M555.2,322h-9c-0.7,0-1.2-0.6-1.2-1.2s0.6-1.2,1.2-1.2h9c0.7,0,1.2,0.6,1.2,1.2S555.9,322,555.2,322z"/>
		<path class="st0" d="M686.2,322h-34c-0.7,0-1.2-0.6-1.2-1.2s0.6-1.2,1.2-1.2h34c0.7,0,1.2,0.6,1.2,1.2S686.9,322,686.2,322z"/>
	</g>
</g>
</svg>
