<?xml version="1.0" encoding="utf-8"?>
<!-- Generator: Adobe Illustrator 24.0.1, SVG Export Plug-In . SVG Version: 6.00 Build 0)  -->
<svg version="1.1" id="Layer_1" xmlns="http://www.w3.org/2000/svg" xmlns:xlink="http://www.w3.org/1999/xlink" x="0px" y="0px"
	 viewBox="0 0 613 347" style="enable-background:new 0 0 613 347;" xml:space="preserve">
<style type="text/css">
	.st0{fill:#FFFFFF;}
</style>
<g id="background-generic-room-2">
	<g>
		<g>
			<path class="st0" d="M611.2,3.1H1.2C0.6,3.1,0,2.6,0,1.9s0.6-1.2,1.2-1.2h610c0.7,0,1.2,0.6,1.2,1.2S611.9,3.1,611.2,3.1z"/>
		</g>
		<path class="st0" d="M611.2,347.1H465.7c-0.7,0-1.2-0.6-1.2-1.2V109.1H358v236.8c0,0.7-0.6,1.2-1.2,1.2H1.2
			c-0.7,0-1.2-0.6-1.2-1.2s0.6-1.2,1.2-1.2h354.2V107.9c0-0.7,0.6-1.2,1.2-1.2h109c0.7,0,1.2,0.6,1.2,1.2v236.8h144.2
			c0.7,0,1.2,0.6,1.2,1.2S611.9,347.1,611.2,347.1z"/>
	</g>
</g>
<g id="background-generic-room-2_1_">
	<g>
		<g>
			<path class="st0" d="M1.2,3.1h610c0.7,0,1.2-0.6,1.2-1.2s-0.6-1.2-1.2-1.2H1.2C0.6,0.6,0,1.2,0,1.9S0.6,3.1,1.2,3.1z"/>
		</g>
		<path class="st0" d="M1.2,347.1h145.5c0.7,0,1.2-0.6,1.2-1.2V109.1h106.5v236.8c0,0.7,0.6,1.2,1.2,1.2h355.5
			c0.7,0,1.2-0.6,1.2-1.2s-0.6-1.2-1.2-1.2H257V107.9c0-0.7-0.6-1.2-1.2-1.2h-109c-0.7,0-1.2,0.6-1.2,1.2v236.8H1.2
			c-0.7,0-1.2,0.6-1.2,1.2S0.6,347.1,1.2,347.1z"/>
	</g>
</g>
</svg>
