<?xml version="1.0" encoding="utf-8"?>
<!-- Generator: Adobe Illustrator 24.0.1, SVG Export Plug-In . SVG Version: 6.00 Build 0)  -->
<svg version="1.1" id="Layer_1" xmlns="http://www.w3.org/2000/svg" xmlns:xlink="http://www.w3.org/1999/xlink" x="0px" y="0px"
	 viewBox="0 0 588 337" style="enable-background:new 0 0 588 337;" xml:space="preserve">
<style type="text/css">
	.st0{fill:#FFFFFF;}
</style>
<g id="background-garage_1_">
	<g>
		<path class="st0" d="M443.2,336.7h-47.4c-4.6,0-8.3-3.7-8.3-8.3c0-0.3,0-0.5,0.1-0.8c0,0,0,0,0,0v-13.2h-20.5
			c-0.5,0-1-0.3-1.3-0.8l-4.2-7.2H225.7l-4.2,7.2c-0.3,0.5-0.8,0.8-1.3,0.8h-17.7v13.2c0,0,0,0,0,0c0,0.3,0.1,0.5,0.1,0.8
			c0,4.6-3.7,8.3-8.3,8.3H147c-4.6,0-8.3-3.7-8.3-8.3c0-0.2,0-0.3,0-0.5c0-0.1,0-0.2,0-0.3v-92.5c0-5.5,2-10.9,5.5-15.2
			c0-0.1,3.9-3.5,6.4-4.1c4.3-1.1,9-7.3,11.5-11.3h-7.4c-7.1,0-12.8-5.7-12.8-12.8s5.7-12.8,12.8-12.8c0.1,0,0.2,0,0.2,0l22.2,3.5
			l18.9-29.9c0-0.1,0.1-0.1,0.1-0.2c0.2-0.3,0.4-0.5,0.6-0.8c3-3.6,5.6-6.8,20.8-6.8h154.9c15.1,0,18,3.4,21.3,7.4l0.2,0.2
			c0,0,0.1,0.1,0.1,0.1l19.5,29.9l21.6-3.5c0.1,0,0.2,0,0.2,0c7.1,0,12.8,5.7,12.8,12.8s-5.7,12.8-12.8,12.8h-7.3
			c3.1,4.8,8,10.7,11.3,11.3c2.6,0.4,6.4,4,6.4,4.1c0,0,0.1,0.1,0.1,0.1c3.6,4.2,5.5,9.6,5.5,15.2v92.5c0,0.1,0,0.2,0,0.3
			c0,0.2,0,0.3,0,0.5C451.4,333,447.7,336.7,443.2,336.7z M390.6,327.4c0,0.1,0,0.2,0,0.4l0,0.2c0,0.1,0,0.2,0,0.4
			c0,2.9,2.4,5.3,5.3,5.3h47.4c2.9,0,5.3-2.4,5.3-5.3c0-0.1,0-0.3,0-0.4l0-0.2c0-0.2,0-0.4,0.1-0.7v-92c0-4.8-1.7-9.5-4.8-13.2
			c-1.3-1.2-3.7-3-4.8-3.2c-6.4-1.1-13.9-13.5-14.8-14.9c-0.3-0.5-0.3-1,0-1.5c0.3-0.5,0.8-0.8,1.3-0.8h10c5.4,0,9.8-4.4,9.8-9.8
			c0-5.4-4.3-9.7-9.7-9.8l-22.4,3.6c-0.6,0.1-1.2-0.2-1.5-0.7l-20.1-30.8c-3-3.5-5.3-6.3-19-6.3H217.6c-13.8,0-15.8,2.4-18.5,5.7
			c-0.2,0.2-0.4,0.5-0.6,0.7l-19.3,30.6c-0.3,0.5-0.9,0.8-1.5,0.7l-23.1-3.6c-5.3,0.1-9.7,4.4-9.7,9.8c0,5.4,4.4,9.8,9.8,9.8h10
			c0.5,0,1,0.3,1.3,0.7c0.3,0.5,0.3,1,0,1.5c-0.3,0.5-7.1,13-14.7,15c-1.2,0.3-3.8,2.3-4.9,3.3c-3.1,3.7-4.8,8.4-4.8,13.2v92
			c0.1,0.2,0.1,0.4,0.1,0.6l0,0.2c0,0.1,0,0.2,0,0.4c0,2.9,2.4,5.3,5.3,5.3h47.4c2.9,0,5.3-2.4,5.3-5.3c0-0.1,0-0.3,0-0.4l0-0.2
			c0-0.1,0-0.3,0-0.4v-14.5c0-0.8,0.7-1.5,1.5-1.5h18.3l4.2-7.2c0.3-0.5,0.8-0.8,1.3-0.8h137.6c0.5,0,1,0.3,1.3,0.8l4.2,7.2h21.2
			c0.8,0,1.5,0.7,1.5,1.5V327.4z M293.6,282c-14.4,0-29.2-4.3-44.9-8.8c-12.7-3.7-25.7-7.4-39-8.9c-0.5,4-3.3,6.4-8.5,7.4l-32.6,5.5
			c-0.1,0-0.2,0-0.3,0c-4.9,0-8.9-4-8.9-8.9v-8.9c0-0.1,0-0.2,0-0.3c0-0.1,0-0.1,0-0.2l0.1-11.2c0-0.5,0.2-0.9,0.6-1.2
			c0.4-0.3,0.8-0.4,1.3-0.3c41.6,9,86.1,13.6,132.2,13.7c46.1-0.1,90.6-4.7,132.2-13.7c0.4-0.1,0.9,0,1.3,0.3
			c0.4,0.3,0.6,0.7,0.6,1.2l0.1,11.2c0,0.1,0,0.2,0,0.2c0,0.1,0,0.2,0,0.3v8.9c0,4.9-4,8.9-8.9,8.9c-0.1,0-0.2,0-0.3,0l-32.6-5.5
			c-5.1-1-8-3.5-8.5-7.4c-13.3,1.5-26.4,5.3-39,8.9C322.9,277.7,308.1,282,293.6,282z M208.4,261.1c0,0,0.1,0,0.2,0
			c14.1,1.4,27.8,5.4,41.1,9.2c15.4,4.5,30,8.7,44,8.7c14,0,28.6-4.2,44-8.7c13.3-3.8,27-7.8,41.1-9.2c0.4,0,0.8,0.1,1.2,0.4
			c0.3,0.3,0.5,0.7,0.5,1.1v0.2c0,2.3,0.7,4.8,6.2,5.9l32.4,5.5c3.2-0.1,5.8-2.7,5.8-5.9v-8.8c0-0.2,0-0.3,0-0.4c0-0.2,0-0.3,0-0.5
			l0-9c-41.3,8.8-85.4,13.3-131.1,13.4c-45.6-0.1-89.7-4.6-131.1-13.4l0,9c0,0.2,0.1,0.3,0,0.5c0,0.1,0,0.2,0,0.3l0,8.9
			c0,3.2,2.6,5.8,5.8,5.9l32.4-5.5c5.1-1,6.1-3,6.1-5.9v-0.2c0-0.4,0.2-0.8,0.5-1.1C207.6,261.3,208,261.1,208.4,261.1z
			 M414.2,206.7c-0.1,0-0.2,0-0.3,0c-16.4-3.5-50.3-7.7-118.9-7.7c-68.5,0-102.5,4.2-118.9,7.7c-0.5,0.1-1.1-0.1-1.5-0.5
			s-0.5-1-0.3-1.5c8.6-23,22.3-53.6,41.4-53.6h158.3c19.1,0,32.8,30.6,41.4,53.6c0.2,0.5,0.1,1.1-0.3,1.5
			C415.1,206.5,414.7,206.7,414.2,206.7z M295.1,196c65.3,0,99.4,3.8,116.8,7.2c-18.9-49.1-33-49.2-37.6-49.2H215.9
			c-18,0-32,34.4-37.6,49.1C195.7,199.8,229.8,196,295.1,196z"/>
		<path class="st0" d="M294.1,277.8c-2.5,0-4.9-3-5.8-4.5c-0.5-0.9-0.8-2.1-0.8-3.4v-4c0-0.8,0.7-1.5,1.5-1.5h10.3
			c0.8,0,1.5,0.7,1.5,1.5v4c0,1.2-0.3,2.4-0.8,3.4C299,274.8,296.6,277.8,294.1,277.8z M290.4,267.4v2.5c0,0.7,0.2,1.4,0.4,1.9
			c0.8,1.5,2.5,3,3.2,3c0.7,0,2.4-1.6,3.2-3c0.3-0.5,0.4-1.1,0.4-1.9v-2.5H290.4z"/>
	</g>
	<path class="st0" d="M506.6,310.3H466c-0.8,0-1.5-0.7-1.5-1.5s0.7-1.5,1.5-1.5h39.2V3.3H85v304h37c0.8,0,1.5,0.7,1.5,1.5
		s-0.7,1.5-1.5,1.5H83.5c-0.8,0-1.5-0.7-1.5-1.5V1.8c0-0.8,0.7-1.5,1.5-1.5h423.2c0.8,0,1.5,0.7,1.5,1.5v307
		C508.1,309.7,507.5,310.3,506.6,310.3z"/>
	<path class="st0" d="M506.6,310.3H466c-0.8,0-1.5-0.7-1.5-1.5s0.7-1.5,1.5-1.5h39.2V3.3H85v304h37c0.8,0,1.5,0.7,1.5,1.5
		s-0.7,1.5-1.5,1.5H83.5c-0.8,0-1.5-0.7-1.5-1.5V1.8c0-0.8,0.7-1.5,1.5-1.5h423.2c0.8,0,1.5,0.7,1.5,1.5v307
		C508.1,309.7,507.5,310.3,506.6,310.3z"/>
	<path class="st0" d="M586.6,310.3h-62c-0.8,0-1.5-0.7-1.5-1.5s0.7-1.5,1.5-1.5h62c0.8,0,1.5,0.7,1.5,1.5S587.5,310.3,586.6,310.3z"
		/>
	<path class="st0" d="M63.6,310.3h-62c-0.8,0-1.5-0.7-1.5-1.5s0.7-1.5,1.5-1.5h62c0.8,0,1.5,0.7,1.5,1.5S64.5,310.3,63.6,310.3z"/>
</g>
</svg>
