<?xml version="1.0" encoding="utf-8"?>
<!-- Generator: Adobe Illustrator 24.0.1, SVG Export Plug-In . SVG Version: 6.00 Build 0)  -->
<svg version="1.1" id="Layer_1" xmlns="http://www.w3.org/2000/svg" xmlns:xlink="http://www.w3.org/1999/xlink" x="0px" y="0px"
	 viewBox="0 0 688 335" style="enable-background:new 0 0 688 335;" xml:space="preserve">
<style type="text/css">
	.st0{opacity:0.2;fill:#C4C4C4;enable-background:new    ;}
</style>
<g>
	<path class="st0" d="M541.7,194c0-0.1,0-0.2,0-0.2v-6c0-0.6-0.5-1.2-1.2-1.2h-124c-0.6,0-1.2,0.5-1.2,1.2v6v115v19
		c0,0.6,0.5,1.2,1.2,1.2h124c0.7,0,1.3-0.6,1.2-1.2v-19V194z M417.8,189h121.5v3.5H417.8V189z M539.3,195v112.6H417.8V195H539.3z
		 M539.3,326.5H417.8V310h121.5V326.5z"/>
	<path class="st0" d="M478.5,302c22.8,0,41.2-18.5,41.2-41.2s-18.5-41.2-41.2-41.2s-41.2,18.5-41.2,41.2S455.8,302,478.5,302z
		 M478.5,222c21.4,0,38.8,17.3,38.8,38.7c0,21.4-17.4,38.8-38.8,38.8c-21.4,0-38.8-17.5-38.8-38.8C439.7,239.4,457.1,222,478.5,222z
		"/>
	<path class="st0" d="M478.5,292c17.3,0,31.2-14,31.2-31.2s-14-31.2-31.2-31.2s-31.2,14-31.2,31.2S461.3,292,478.5,292z M478.5,232
		c15.9,0,28.8,12.8,28.8,28.7c0,15.9-12.9,28.8-28.8,28.8c-15.9,0-28.8-13-28.8-28.8C449.7,244.9,462.6,232,478.5,232z"/>
	<path class="st0" d="M460.5,215h36c0.7,0,1.3-0.6,1.2-1.2v-13c0-0.6-0.5-1.2-1.2-1.2h-36c-0.6,0-1.2,0.5-1.2,1.2v13
		C459.3,214.4,459.8,215,460.5,215z M461.8,202h33.5v10.5h-33.5V202z"/>
	<path class="st0" d="M507.7,214c2.9,0,5.2-2.4,5.2-5.2s-2.4-5.2-5.2-5.2c-2.8,0-5.2,2.4-5.2,5.2S504.8,214,507.7,214z M507.7,206
		c1.5,0,2.8,1.2,2.8,2.8c0,1.6-1.2,2.8-2.8,2.8s-2.8-1.2-2.8-2.8C504.9,207.2,506.2,206,507.7,206z"/>
	<path class="st0" d="M524.7,217c4.6,0,8.2-3.7,8.2-8.2s-3.7-8.2-8.2-8.2s-8.2,3.7-8.2,8.2S520.2,217,524.7,217z M524.7,203
		c3.2,0,5.8,2.6,5.8,5.8s-2.6,5.8-5.8,5.8s-5.8-2.6-5.8-5.8S521.5,203,524.7,203z"/>
	<path class="st0" d="M391,257c0.6,0,1.2-0.6,1.3-1.1l0.3-9c0-0.3-0.2-0.6-0.4-0.9c-0.2-0.3-0.6-0.4-0.9-0.4h-61
		c-0.4,0-0.8,0.1-1,0.4c-0.3,0.3-0.4,0.6-0.3,1l1.6,9c0.1,0.6,0.6,1,1.2,1h0.7l5,70.3c0,0.7,0.5,1.2,1.2,1.2h45
		c0.7,0,1.2-0.5,1.2-1.2l4-70.3H391z M382.6,326h-42.7l-4.7-68h51.3L382.6,326z M331.7,248h58.2l-0.2,6.5h-56.9L331.7,248z"/>
	<path class="st0" d="M363.7,322.5c0.7,0,1.3-0.6,1.2-1.2v-44c0-0.6-0.6-1.2-1.2-1.2c-0.6,0-1.2,0.5-1.2,1.2v44
		C362.5,321.9,363,322.5,363.7,322.5z"/>
	<path class="st0" d="M370.7,322.5c0.7,0,1.2-0.6,1.2-1.2l1-44c0-0.7-0.5-1.3-1.2-1.3c-0.7,0-1.3,0.5-1.3,1.2l-1,44
		C369.4,321.9,370,322.5,370.7,322.5z"/>
	<path class="st0" d="M351.7,322.5c0.7,0,1.3-0.6,1.2-1.3l-1-44c0-0.7-0.5-1.2-1.2-1.2s-1.2,0.6-1.2,1.3l1,44
		C350.5,322,351,322.5,351.7,322.5z"/>
	<path class="st0" d="M345.7,322.5c0.7-0.1,1.2-0.6,1.3-1.3l-2-44c0-0.7-0.6-1.2-1.3-1.2s-1.2,0.6-1.2,1.3l2,44
		C344.5,322,345,322.5,345.7,322.5z"/>
	<path class="st0" d="M357.7,322.5c0.7,0,1.3-0.6,1.2-1.2v-44c0-0.6-0.6-1.2-1.2-1.2c-0.6,0-1.2,0.5-1.2,1.2v44
		C356.5,321.9,357,322.5,357.7,322.5z"/>
	<path class="st0" d="M376.7,322.5c0.6,0,1.2-0.5,1.3-1.2l2-44c0-0.7-0.5-1.3-1.2-1.3c-0.7,0-1.3,0.5-1.3,1.2l-2,44
		C375.4,321.9,376,322.5,376.7,322.5z"/>
	<path class="st0" d="M390.7,292.5c0.6,0,1.1-0.4,1-1c0.4-1.4,0.7-3.3,1-5.1c0.5-2.9,1.1-6.4,1.8-7.4c0.8-1.1,1.5-1.8,2-2.5
		c2.4-2.9,2.9-3.7,3.3-8.2c1-11.4,1.9-22.2-0.1-27.5c-1.3-3.5-5.2-4.1-7.3-4.4c-0.3-0.1-0.8-0.1-1-0.2c-4.1-5.1-9.9-6.7-15.5-8.2
		c-3.6-1-6.3-1.7-9.6-1c-1.8,0.4-2.7,0.9-3.7,1.5c-0.8,0.5-1.7,1-3.4,1.6c-2.5,0.8-4.2,0.9-5.7,1c-1.5,0.1-2.9,0.2-4.5,1.1
		c-0.2,0.1-0.4,0.2-0.6,0.3c-1.8,1-4.2,2.3-5,8.6c-0.1,0.7,0.4,1.3,1.1,1.4c0.7,0.1,1.3-0.4,1.4-1.1c0.7-5,2.1-5.8,3.8-6.7
		c0.2-0.1,0.4-0.2,0.6-0.3c1.1-0.6,2-0.6,3.4-0.7c1.6-0.1,3.5-0.2,6.4-1.2c1.9-0.7,3-1.3,3.9-1.8c1-0.5,1.6-0.9,3-1.2
		c2.6-0.5,4.7,0,8.4,1c5.2,1.5,10.7,3,14.3,7.6c0.4,0.6,1.2,0.7,2.4,0.9c1.9,0.3,4.6,0.7,5.4,2.8c1.8,4.8,0.8,15.9-0.1,26.5
		c-0.3,3.9-0.6,4.2-2.7,6.8c-0.5,0.7-1.2,1.5-2,2.5c-1.1,1.3-1.6,4.1-2.3,8.5c-0.3,1.7-0.6,3.5-0.9,4.9c-0.2,0.7,0.2,1.3,0.9,1.5
		C390.5,292.5,390.6,292.5,390.7,292.5z"/>
	<path class="st0" d="M189.7,42.5h168.8v89.6h-26.8c-0.6,0-1.2,0.5-1.2,1.2v73c0,0.6,0.5,1.2,1.2,1.2h55c0.7,0,1.3-0.6,1.2-1.2v-73
		c0-0.6-0.5-1.2-1.2-1.2h-25.9V41.2c0-0.6-0.5-1.2-1.2-1.2H190.9V11.3c0-0.6-0.6-1.2-1.2-1.2s-1.2,0.5-1.2,1.2v30
		C188.5,41.9,189,42.5,189.7,42.5z M385.5,205H333v-70.5h52.5V205z"/>
	<path class="st0" d="M337,200.5h44.4c0.7,0,1.3-0.6,1.3-1.2v-59c0-0.6-0.5-1.2-1.2-1.2H337c-0.6,0-1.2,0.5-1.2,1.2v59
		C335.8,199.9,336.3,200.5,337,200.5z M338.2,141.5h42V198h-42V141.5z"/>
	<path class="st0" d="M347.2,176.9c-2.7,0-4.8,2.1-4.8,4.8c0,2.7,2.2,4.8,4.8,4.8s4.8-2.1,4.8-4.8C352,179,349.9,176.9,347.2,176.9z
		 M347.2,183.9c-1.2,0-2.2-1-2.2-2.2c0-1.2,1-2.2,2.2-2.2c1.3,0,2.2,1,2.2,2.2C349.4,182.9,348.4,183.9,347.2,183.9z"/>
	<path class="st0" d="M358.3,151.7c-0.5-0.8-1.8-0.8-2.2,0l-12.1,21c-0.2,0.3-0.2,0.8,0,1.2c0.2,0.4,0.7,0.6,1.1,0.6h24.2
		c0.5,0,0.9-0.3,1.1-0.6c0.2-0.3,0.2-0.8,0-1.2L358.3,151.7z M347.3,172l9.9-17.2l10,17.2H347.3z"/>
	<path class="st0" d="M441.4,93.7c0.2,0.1,0.3,0.2,0.6,0.3c2,0.7,17.3,5,30.7,5c14,0,30.2-4.9,31.1-5.1c0.6-0.2,1-0.9,0.8-1.6
		c-0.1-0.4-0.4-0.6-0.8-0.8L473.9,70V12.5l10-10.4c0.3-0.4,0.4-0.9,0.2-1.4s-0.7-0.8-1.2-0.8h-20.2c-0.6,0-1,0.3-1.2,0.8
		c-0.2,0.5-0.1,1,0.2,1.4l9.8,10.2v57.8l-29.8,21.5c-0.3,0.1-0.6,0.4-0.7,0.8C440.8,92.9,441,93.4,441.4,93.7z M447.1,92.7
		c5.9-1.5,16.3-3.7,25.6-3.7c9.3,0,19.8,2.3,25.7,3.7c-5.9,1.5-16.3,3.7-25.6,3.7C463.5,96.4,453,94.1,447.1,92.7z M479.9,2.5
		l-7.2,7.4l-7.2-7.4H479.9z M472.7,72.3L497,89.8c-6.1-1.4-15.6-3.3-24.3-3.3c-8.7,0-18.2,1.8-24.3,3.3L472.7,72.3z"/>
	<path class="st0" d="M356.1,159.8l-1.7,5c-0.1,0.4,0,0.8,0.2,1.1c0.2,0.3,0.6,0.5,1,0.5h0.7l-1,2.5c-0.3,0.6,0.1,1.3,0.7,1.6
		c0.2,0.1,0.3,0.1,0.5,0.1c0.5,0,1-0.2,1.1-0.7l1.7-4.2c0.2-0.4,0.1-0.9-0.1-1.2c-0.2-0.3-0.6-0.5-1-0.5h-0.8l1.1-3.4
		c0.2-0.7-0.1-1.4-0.8-1.6C357,158.8,356.3,159.1,356.1,159.8z"/>
	<path class="st0" d="M647.5,98.8c0-0.6-0.5-1.2-1.2-1.2h-85c-0.6,0-1.2,0.5-1.2,1.2v229c0,0.6,0.5,1.2,1.2,1.2h85
		c0.7,0,1.3-0.6,1.2-1.2V98.8z M645.1,326.5h-82.5V100h82.5V326.5z"/>
	<path class="st0" d="M587.8,97.5h32c0.7,0,1.3-0.6,1.2-1.2v-8c0-0.6-0.5-1.2-1.2-1.2H617V52.5h2.8c0.7,0,1.3-0.6,1.2-1.2v-8
		c0-0.6-0.5-1.2-1.2-1.2h-2.9V2.2c0-0.6-0.6-1.2-1.2-1.2s-1.2,0.5-1.2,1.2V42H593V2.3c0-0.6-0.6-1.2-1.2-1.2s-1.2,0.5-1.2,1.2v39.8
		h-2.8c-0.6,0-1.2,0.5-1.2,1.2v8c0,0.6,0.5,1.2,1.2,1.2h2.8v34.6h-2.8c-0.6,0-1.2,0.5-1.2,1.2v8C586.6,96.9,587.1,97.5,587.8,97.5z
		 M589.1,44.5h2.7h24h2.8V50h-29.5V44.5z M614.6,52.5V87h-21.5V52.5H614.6z M589.1,89.5h2.7h24h2.8V95h-29.5V89.5z"/>
	<path class="st0" d="M590.8,226.5h26c0.7,0,1.3-0.6,1.2-1.2v-9c0-0.6-0.5-1.2-1.2-1.2h-26c-0.6,0-1.2,0.5-1.2,1.2v9
		C589.6,225.9,590.1,226.5,590.8,226.5z M592.1,217.5h23.5v6.5h-23.5V217.5z"/>
	<path class="st0" d="M617.5,237.3c0-0.6-0.5-1.2-1.2-1.2h-25c-0.6,0-1.2,0.5-1.2,1.2v53c0,0.6,0.5,1.2,1.2,1.2h25
		c0.7,0,1.3-0.6,1.2-1.2V237.3z M615.1,289h-22.5v-50.5h22.5V289z"/>
	<path class="st0" d="M603.8,257.5c4.6,0,8.2-3.7,8.2-8.2s-3.7-8.2-8.2-8.2s-8.2,3.7-8.2,8.2S599.3,257.5,603.8,257.5z M603.8,243.5
		c3.2,0,5.8,2.6,5.8,5.8s-2.6,5.8-5.8,5.8s-5.8-2.6-5.8-5.8S600.6,243.5,603.8,243.5z"/>
	<path class="st0" d="M603.8,260.9c-3.8,0-6.8,3-6.8,6.8s3.1,6.8,6.8,6.8s6.8-3,6.8-6.8S607.6,260.9,603.8,260.9z M603.8,271.9
		c-2.3,0-4.2-1.9-4.2-4.2c0-2.3,1.9-4.2,4.2-4.2c2.4,0,4.2,1.9,4.2,4.2C608,270,606.1,271.9,603.8,271.9z"/>
	<path class="st0" d="M603.8,276.9c-2.7,0-4.8,2.1-4.8,4.8c0,2.7,2.2,4.8,4.8,4.8c2.6,0,4.8-2.1,4.8-4.8
		C608.6,279,606.5,276.9,603.8,276.9z M603.8,283.9c-1.2,0-2.2-1-2.2-2.2s1-2.2,2.2-2.2c1.3,0,2.2,1,2.2,2.2S605,283.9,603.8,283.9z
		"/>
	<path class="st0" d="M150.9,236.8c0-0.6-0.5-1.2-1.2-1.2h-71c-0.6,0-1.2,0.5-1.2,1.2v11.8c0,0.6,0.5,1.2,1.2,1.2h71
		c0.7,0,1.3-0.5,1.2-1.2V236.8z M148.5,247.3H80V238h68.5V247.3z"/>
	<path class="st0" d="M150.9,280.5c0-0.6-0.5-1.2-1.2-1.2h-71c-0.6,0-1.2,0.5-1.2,1.2v11.8c0,0.6,0.5,1.2,1.2,1.2h71
		c0.7,0,1.3-0.6,1.2-1.2V280.5z M148.5,291H80v-9.3h68.5V291z"/>
	<path class="st0" d="M150.9,258.6c0-0.6-0.5-1.2-1.2-1.2h-71c-0.6,0-1.2,0.5-1.2,1.2v11.8c0,0.6,0.5,1.2,1.2,1.2h71
		c0.7,0,1.3-0.5,1.2-1.2V258.6z M148.5,269.1H80v-9.3h68.5V269.1z"/>
	<path class="st0" d="M150.9,83.9c0-0.6-0.5-1.2-1.2-1.2h-71c-0.6,0-1.2,0.5-1.2,1.2v11.9c0,0.6,0.5,1.2,1.2,1.2h71
		c0.7,0,1.3-0.6,1.2-1.3V83.9z M148.5,94.5H80v-9.3h68.5V94.5z"/>
	<path class="st0" d="M150.9,105.8c0-0.6-0.5-1.2-1.2-1.2h-71c-0.6,0-1.2,0.5-1.2,1.2v11.8c0,0.6,0.5,1.2,1.2,1.2h71
		c0.7,0,1.3-0.5,1.2-1.2V105.8z M148.5,116.3H80V107h68.5V116.3z"/>
	<path class="st0" d="M150.9,62.1c0-0.6-0.5-1.2-1.2-1.2h-71c-0.6,0-1.2,0.5-1.2,1.2v11.8c0,0.6,0.5,1.2,1.2,1.2h71
		c0.7,0,1.3-0.5,1.2-1.2V62.1z M148.5,72.6H80v-9.3h68.5V72.6z"/>
	<path class="st0" d="M150.9,40.2c0-0.6-0.5-1.2-1.2-1.2h-71c-0.6,0-1.2,0.5-1.2,1.2v11.9c0,0.6,0.5,1.2,1.2,1.2h71
		c0.7,0,1.3-0.5,1.2-1.3V40.2z M148.5,50.8H80v-9.3h68.5V50.8z"/>
	<path class="st0" d="M160.9,5.2c0-0.6-0.5-1.2-1.2-1.2h-10c-0.6,0-1.2,0.5-1.2,1.2V29H80V5.2C80,4.5,79.4,4,78.7,4h-10
		c-0.7,0-1.2,0.5-1.1,1.2v328.1c0,0.6,0.5,1.2,1.2,1.2h10c0.6,0,1.2-0.5,1.2-1.2v-29.8h68.5v29.8c0,0.6,0.5,1.2,1.2,1.2h10
		c0.7,0,1.3-0.6,1.2-1.3V5.2z M158.5,332H151h-0.1v-29.8c0-0.6-0.5-1.2-1.2-1.2h-71c-0.6,0-1.2,0.5-1.2,1.2V332H70V6.5h7.6v23.8
		c0,0.6,0.5,1.2,1.2,1.2h71c0.6,0,1.2-0.5,1.2-1.2V6.5h7.5V332z"/>
	<path class="st0" d="M150.9,127.6c0-0.6-0.5-1.2-1.2-1.2h-71c-0.6,0-1.2,0.5-1.2,1.2v11.8c0,0.6,0.5,1.2,1.2,1.2h71
		c0.7,0,1.3-0.5,1.2-1.2V127.6z M148.5,138.1H80v-9.3h68.5V138.1z"/>
	<path class="st0" d="M150.9,193.1c0-0.6-0.5-1.2-1.2-1.2h-71c-0.6,0-1.2,0.5-1.2,1.2v11.8c0,0.6,0.5,1.2,1.2,1.2h71
		c0.7,0,1.3-0.5,1.2-1.2V193.1z M148.5,203.6H80v-9.3h68.5V203.6z"/>
	<path class="st0" d="M150.9,149.5c0-0.6-0.5-1.2-1.2-1.2h-71c-0.6,0-1.2,0.5-1.2,1.2v11.8c0,0.6,0.5,1.2,1.2,1.2h71
		c0.7,0,1.3-0.6,1.2-1.2V149.5z M148.5,160H80v-9.3h68.5V160z"/>
	<path class="st0" d="M150.9,171.3c0-0.6-0.5-1.2-1.2-1.2h-71c-0.6,0-1.2,0.5-1.2,1.2v11.8c0,0.6,0.5,1.2,1.2,1.2h71
		c0.7,0,1.3-0.5,1.2-1.2V171.3z M148.5,181.8H80v-9.3h68.5V181.8z"/>
	<path class="st0" d="M150.9,215c0-0.6-0.5-1.2-1.2-1.2h-71c-0.6,0-1.2,0.5-1.2,1.2v11.8c0,0.6,0.5,1.2,1.2,1.2h71
		c0.7,0,1.3-0.6,1.2-1.2V215z M148.5,225.5H80v-9.3h68.5V225.5z"/>
	<path class="st0" d="M266.1,213.6c0,0,0.1,0,0.3,0c0.7-0.2,1.1-0.8,1-1.5l-0.5-2.5c-0.2-0.7-0.8-1.1-1.5-1c-0.7,0.2-1.1,0.8-1,1.5
		l0.5,2.5C265,213.2,265.5,213.6,266.1,213.6z"/>
	<path class="st0" d="M211.4,165.5h11.3h20h5.3h24.3h23.2c0.7,0,1.2-0.6,1.2-1.2v-66c0-0.6-0.5-1.2-1.2-1.2h-84.1
		c-0.6,0-1.2,0.5-1.2,1.2v66C210.2,164.9,210.7,165.5,211.4,165.5z M223.9,163l-1.8-24.5h21.3l-1.8,24.5H223.9z M212.7,99.5h81.6
		V163h-20.7l2.9-35.1c0.1-0.3-0.1-0.6-0.3-0.9c-0.2-0.3-0.6-0.4-0.9-0.4h-35.5c-0.3,0-0.7,0.2-0.9,0.4c-0.2,0.2-0.3,0.6-0.3,0.9
		l0.4,5.1c0,0.6,0.6,1.2,1.3,1.1c0.6,0,1.2-0.6,1.1-1.3l-0.3-3.7h32.8l-2.8,33.9H244l1.9-25.7c0.1-0.3-0.1-0.6-0.3-0.9
		c-0.2-0.3-0.6-0.4-0.9-0.4h-24c-0.3,0-0.7,0.2-0.9,0.4c-0.2,0.2-0.3,0.6-0.3,0.9l1.9,25.7h-8.7V99.5z"/>
	<path class="st0" d="M211.4,238h84.1c0.7,0,1.2-0.6,1.2-1.2v-66c0-0.6-0.5-1.2-1.2-1.2h-84.1c-0.6,0-1.2,0.5-1.2,1.2v66
		C210.2,237.4,210.7,238,211.4,238z M282.6,200.7l1.2,2.9l-2-3.1c-0.3-0.4-0.8-0.6-1.3-0.5c-0.5,0.1-0.9,0.5-1,1l-0.8,5h-7.6v-2.9
		c0-0.5-0.3-0.9-0.7-1.1c-0.4-0.2-0.9-0.2-1.3,0.1l-4.8,3.2l6-6.9h15.2v0.5h-1.8c-0.4,0-0.8,0.2-1,0.6
		C282.5,199.9,282.4,200.3,282.6,200.7z M271.8,208.6h7.2l6.5,18.3l-5.6,8.6h-11l-3.7-8.5L271.8,208.6z M212.7,172h81.6v63.5h-11.4
		l5-7.8c0.2-0.3,0.2-0.7,0.1-1.1l-6.9-19.3l0.5-2.7l2.2,3.4c0.2,0.4,0.6,0.6,1,0.6h2c0.4,0,0.8-0.2,1-0.6c0.2-0.4,0.3-0.8,0.1-1.2
		l-2.3-5.3h1.1c0.6,0,1.2-0.5,1.2-1.2v-3c0-0.6-0.5-1.2-1.2-1.2h-17c-0.3,0-0.7,0.1-0.9,0.4l-7,8c-0.4,0.4-0.4,0.9-0.2,1.4l1,2
		c0.2,0.3,0.5,0.5,0.8,0.6c0.1,0,0.2,0,0.3,0c0.3,0,0.5-0.1,0.9-0.2l4.1-2.7v1.7c0,0.3,0.2,0.7,0.4,0.9l-6.6,18.4
		c-0.1,0.3-0.1,0.6,0,0.9l3.5,8h-0.9c0.2-0.5,0.1-1.1-0.4-1.5c-0.5-0.4-1.3-0.3-1.7,0.3l-0.7,1.2h-23c0,0,0-0.1,0-0.1l-5.6-7.3
		l6.6-29.2h24c0.6,0,1.2-0.6,1.2-1.2c0-0.6-0.5-1.2-1.2-1.2h-2l-0.7-3c-0.1-0.6-0.6-1-1.2-1h-11c-0.6,0-1.1,0.4-1.2,1l-0.8,3h-7.1
		l-1.4-4.6h29.6l-0.4,1.4c-0.2,0.7,0.1,1.4,0.8,1.6c0.7,0.2,1.4-0.1,1.6-0.8l1-3c0.1-0.4,0-0.8-0.2-1.1s-0.6-0.5-1-0.5h-33
		c-0.4,0-0.8,0.2-1,0.5s-0.3,0.7-0.2,1.1l2,6.5l-7,30.6c-0.1,0.3,0,0.7,0.2,1l4.8,6.3h-23.3V172z M250,196.5l0.3-1.4h9l0.4,1.4H250z
		"/>
	<path class="st0" d="M211.4,310h20.1h40.7h23.3c0.7,0,1.2-0.6,1.2-1.2v-66c0-0.6-0.5-1.2-1.2-1.2h-84.1c-0.6,0-1.2,0.5-1.2,1.2v66
		C210.2,309.4,210.7,310,211.4,310z M232.1,307.5l-2.6-3v-28.9l2.6-2.6h39l3.8,2.9v28.6l-3.2,3H232.1z M212.7,244h81.6v63.5h-18.9
		l1.6-1.6c0.3-0.2,0.4-0.6,0.4-0.9v-29.8c0-0.4-0.2-0.8-0.5-1l-4.6-3.5c-0.3-0.2-0.5-0.3-0.8-0.3h-39.9c-0.3,0-0.7,0.2-0.9,0.4
		l-3.4,3.4c-0.3,0.3-0.4,0.6-0.4,0.9V305c0,0.3,0.1,0.6,0.3,0.8l1.5,1.7h-16V244z"/>
	<path class="st0" d="M304,89.6H203c-0.6,0-1.2,0.5-1.2,1.2v237c0,0.6,0.5,1.2,1.2,1.2h8.8c0.6,0,1.2-0.5,1.2-1.2V315h82v12.8
		c0,0.6,0.5,1.2,1.2,1.2h7.8c0.6,0,1.2-0.6,1.2-1.2v-237C305.2,90.2,304.7,89.6,304,89.6z M302.7,326.5h-5.3h-0.1v-12.8
		c0-0.6-0.5-1.2-1.2-1.2h-84.5c-0.6,0-1.2,0.5-1.2,1.2v12.8h-6.2V92h98.5V326.5z"/>
	<path class="st0" d="M260.5,274.7c-0.2-0.1-4.4-0.9-8.7-0.9c-4.3,0-7.8,0.9-7.9,0.9c-0.5,0.1-0.9,0.6-0.9,1.2v3.4
		c0,0.6,0.5,1.2,1.2,1.2h16c0.7,0,1.2-0.5,1.3-1.2v-3.4C261.5,275.3,261.1,274.8,260.5,274.7z M258.9,278h-13.5v-1
		c1.2-0.2,3.6-0.6,6.3-0.6c2.9,0,5.7,0.4,7.2,0.6V278z"/>
	<path class="st0" d="M58.2,319.6h-57c-0.6,0-1.2,0.6-1.2,1.2c0,0.6,0.5,1.2,1.2,1.2h57c0.7,0,1.2-0.6,1.2-1.2
		C59.4,320.2,58.9,319.6,58.2,319.6z"/>
	<path class="st0" d="M194.2,319.6h-25c-0.6,0-1.2,0.6-1.2,1.2c0,0.6,0.5,1.2,1.2,1.2h25c0.7,0,1.2-0.6,1.2-1.2
		C195.4,320.2,194.9,319.6,194.2,319.6z"/>
	<path class="st0" d="M139.2,319.6h-51c-0.6,0-1.2,0.6-1.2,1.2c0,0.6,0.5,1.2,1.2,1.2h51c0.7,0,1.2-0.6,1.2-1.2
		C140.4,320.2,139.9,319.6,139.2,319.6z"/>
	<path class="st0" d="M283.2,319.6h-62c-0.6,0-1.2,0.6-1.2,1.2c0,0.6,0.5,1.2,1.2,1.2h62c0.7,0,1.2-0.6,1.2-1.2
		C284.4,320.2,283.9,319.6,283.2,319.6z"/>
	<path class="st0" d="M330.2,319.6h-17c-0.6,0-1.2,0.6-1.2,1.2c0,0.6,0.5,1.2,1.2,1.2h17c0.7,0,1.2-0.6,1.2-1.2
		C331.4,320.2,330.9,319.6,330.2,319.6z"/>
	<path class="st0" d="M409.2,319.6h-18c-0.6,0-1.2,0.6-1.2,1.2c0,0.6,0.5,1.2,1.2,1.2h18c0.7,0,1.2-0.6,1.2-1.2
		C410.4,320.2,409.9,319.6,409.2,319.6z"/>
	<path class="st0" d="M555.2,319.6h-9c-0.6,0-1.2,0.6-1.2,1.2c0,0.6,0.5,1.2,1.2,1.2h9c0.7,0,1.2-0.6,1.2-1.2
		C556.4,320.2,555.9,319.6,555.2,319.6z"/>
	<path class="st0" d="M686.2,319.6h-34c-0.6,0-1.2,0.6-1.2,1.2c0,0.6,0.5,1.2,1.2,1.2h34c0.7,0,1.2-0.6,1.2-1.2
		C687.4,320.2,686.9,319.6,686.2,319.6z"/>
</g>
</svg>
