<?xml version="1.0" encoding="utf-8"?>
<!-- Generator: Adobe Illustrator 24.0.1, SVG Export Plug-In . SVG Version: 6.00 Build 0)  -->
<svg version="1.1" id="Layer_1" xmlns="http://www.w3.org/2000/svg" xmlns:xlink="http://www.w3.org/1999/xlink" x="0px" y="0px"
	 viewBox="0 0 613 347" style="enable-background:new 0 0 613 347;" xml:space="preserve">
<style type="text/css">
	.st0{opacity:0.2;fill:#C4C4C4;enable-background:new    ;}
</style>
<g>
	<path class="st0" d="M1.2,3.1h610c0.7,0,1.2-0.6,1.2-1.2c0-0.6-0.5-1.2-1.2-1.2H1.2C0.6,0.6,0,1.2,0,1.9C0,2.6,0.6,3.1,1.2,3.1z"/>
	<path class="st0" d="M611.1,344.7H466.8V107.9c0-0.6-0.5-1.2-1.2-1.2h-109c-0.6,0-1.2,0.5-1.2,1.2v236.8H257V107.9
		c0-0.7-0.6-1.2-1.2-1.2h-109c-0.7,0-1.2,0.6-1.2,1.2v236.8H1.2c0,0,0,0,0,0c-0.7,0-1.2,0.6-1.2,1.2c0,0,0,0,0,0l0,0v0c0,0,0,0,0,0
		c0,0.6,0.5,1.2,1.2,1.2h145.5h108.9h101.2h108.9h145.4h0.1c0.4,0,0.6-0.2,0.8-0.4c0.2-0.2,0.3-0.5,0.3-0.8
		C612.3,345.3,611.7,344.7,611.1,344.7z M147.9,109.1h106.5v235.6H147.9V109.1z M358,109.1h106.5v235.6H358V109.1z"/>
</g>
</svg>
