<?xml version="1.0" encoding="utf-8"?>
<!-- Generator: Adobe Illustrator 24.0.1, SVG Export Plug-In . SVG Version: 6.00 Build 0)  -->
<svg version="1.1" id="Layer_1" xmlns="http://www.w3.org/2000/svg" xmlns:xlink="http://www.w3.org/1999/xlink" x="0px" y="0px"
	 viewBox="0 0 613 347" style="enable-background:new 0 0 613 347;" xml:space="preserve">
<style type="text/css">
	.st0{opacity:0.2;fill:#C4C4C4;enable-background:new    ;}
</style>
<g>
	<path class="st0" d="M1.2,3.1h610c0.7,0,1.2-0.6,1.2-1.2c0-0.6-0.5-1.2-1.2-1.2H1.2C0.6,0.7,0,1.2,0,1.9C0,2.6,0.6,3.1,1.2,3.1z"/>
	<path class="st0" d="M611,344.7H466.8V107.9c0-0.6-0.5-1.2-1.2-1.2h-109c-0.6,0-1.2,0.5-1.2,1.2v236.8h-56.3c1-7,2.9-12.3,5.5-15.3
		c0.3-0.3,0.3-0.8,0-1.1c-0.3-0.3-0.7-0.4-1.1-0.2c-0.1,0.1-2.1,1.3-4.1,4.1c1.6-6.9,4-12.1,7-15.5c0.3-0.3,0.3-0.8,0-1.1
		c-0.3-0.3-0.7-0.4-1.1-0.2c-0.5,0.2-8.8,5.2-11.1,19.1c-2.6-10.6-9.1-14.5-9.5-14.7c-0.4-0.2-0.8-0.1-1.1,0.2s-0.3,0.8,0,1.1
		c2.7,3,4.8,7.6,6.2,13.6c-1.7-2.4-3.4-3.3-3.5-3.4c-0.4-0.2-0.8-0.1-1.1,0.2c-0.3,0.3-0.3,0.8,0,1.1c2.2,2.5,3.8,6.6,4.7,12.1
		h-22.4c1.1-8.3,3.3-14.5,6.4-18c0.3-0.4,0.3-0.9,0-1.3c-0.3-0.3-0.9-0.4-1.3-0.2c-0.1,0.1-2.4,1.4-4.7,4.7c1.9-8,4.6-14.1,8.1-18
		c0.3-0.4,0.3-0.9,0-1.3c-0.3-0.3-0.9-0.4-1.3-0.2c-0.5,0.3-10,6-12.8,21.8c-3.1-12.1-10.6-16.5-10.9-16.7c-0.5-0.3-1-0.2-1.3,0.2
		c-0.3,0.4-0.3,0.9,0,1.3c3.1,3.4,5.5,8.7,7.1,15.7c-2-2.7-3.9-3.8-4-3.9c-0.5-0.3-1-0.2-1.3,0.2c-0.3,0.4-0.3,0.9,0,1.3
		c2.6,2.8,4.5,7.8,5.6,14.4h-27.1c1-7,2.9-12.3,5.5-15.3c0.3-0.3,0.3-0.8,0-1.1c-0.3-0.3-0.7-0.4-1.1-0.2c-0.1,0.1-2.1,1.3-4.1,4.1
		c1.6-6.9,4-12.1,7-15.5c0.3-0.3,0.3-0.8,0-1.1c-0.3-0.3-0.7-0.4-1.1-0.2c-0.5,0.2-8.8,5.2-11.1,19.1c-2.6-10.6-9.1-14.5-9.5-14.7
		c-0.4-0.2-0.8-0.1-1.1,0.2c-0.3,0.3-0.3,0.8,0,1.1c2.7,3,4.8,7.6,6.2,13.6c-1.7-2.4-3.4-3.3-3.5-3.4c-0.4-0.2-0.8-0.1-1.1,0.2
		c-0.3,0.3-0.3,0.8,0,1.1c2.2,2.5,3.8,6.6,4.7,12.1h-22.4c1.1-8.3,3.3-14.5,6.4-18c0.3-0.4,0.3-0.9,0-1.3c-0.3-0.3-0.9-0.4-1.3-0.2
		c-0.1,0.1-2.4,1.4-4.7,4.7c1.9-8,4.6-14.1,8.1-18c0.3-0.4,0.3-0.9,0-1.3c-0.3-0.3-0.9-0.4-1.3-0.2c-0.5,0.3-10,6-12.8,21.8
		c-3.1-12.1-10.6-16.5-10.9-16.7c-0.5-0.3-1-0.2-1.3,0.2c-0.3,0.4-0.3,0.9,0,1.3c3.1,3.4,5.5,8.7,7.1,15.7c-2-2.7-3.9-3.8-4-3.9
		c-0.5-0.3-1-0.2-1.3,0.2c-0.3,0.4-0.3,0.9,0,1.3c2.6,2.8,4.5,7.8,5.6,14.4h-28.1c1-7,2.9-12.3,5.5-15.3c0.3-0.3,0.3-0.8,0-1.1
		c-0.3-0.3-0.7-0.4-1.1-0.2c-0.1,0.1-2.1,1.3-4.1,4.1c1.6-6.9,4-12.1,7-15.5c0.3-0.3,0.3-0.8,0-1.1c-0.3-0.3-0.7-0.4-1.1-0.2
		c-0.5,0.2-8.8,5.2-11.1,19.1c-2.6-10.6-9.1-14.5-9.5-14.7c-0.4-0.2-0.8-0.1-1.1,0.2c-0.3,0.3-0.3,0.8,0,1.1c2.7,3,4.8,7.6,6.2,13.6
		c-1.7-2.4-3.4-3.3-3.5-3.4c-0.4-0.2-0.8-0.1-1.1,0.2c-0.3,0.3-0.3,0.8,0,1.1c2.2,2.5,3.8,6.6,4.7,12.1h-22.4
		c1.1-8.3,3.3-14.5,6.4-18c0.3-0.4,0.3-0.9,0-1.3c-0.3-0.3-0.9-0.4-1.3-0.2c-0.1,0.1-2.4,1.4-4.7,4.7c1.9-8,4.6-14.1,8.1-18
		c0.3-0.4,0.3-0.9,0-1.3c-0.3-0.3-0.9-0.4-1.3-0.2c-0.5,0.3-10,6-12.8,21.8c-3.1-12.1-10.6-16.5-10.9-16.7c-0.5-0.3-1-0.2-1.3,0.2
		c-0.3,0.4-0.3,0.9,0,1.3c3.1,3.4,5.5,8.7,7.1,15.7c-2-2.7-3.9-3.8-4-3.9c-0.5-0.3-1-0.2-1.3,0.2c-0.3,0.4-0.3,0.9,0,1.3
		c2.6,2.8,4.5,7.8,5.6,14.4H91.1c1-7,2.9-12.3,5.5-15.3c0.3-0.3,0.3-0.8,0-1.1c-0.3-0.3-0.7-0.4-1.1-0.2c-0.1,0.1-2.1,1.3-4.1,4.1
		c1.6-6.9,4-12.1,7-15.5c0.3-0.3,0.3-0.8,0-1.1c-0.3-0.3-0.7-0.4-1.1-0.2c-0.5,0.2-8.8,5.2-11.1,19.1c-2.6-10.6-9.1-14.5-9.5-14.7
		c-0.4-0.2-0.8-0.1-1.1,0.2c-0.3,0.3-0.3,0.8,0,1.1c2.7,3,4.8,7.6,6.2,13.6c-1.7-2.4-3.4-3.3-3.5-3.4c-0.4-0.2-0.8-0.1-1.1,0.2
		c-0.3,0.3-0.3,0.8,0,1.1c2.2,2.5,3.8,6.6,4.7,12.1H59.6c1.1-8.3,3.3-14.5,6.4-18c0.3-0.4,0.3-0.9,0-1.3c-0.3-0.3-0.9-0.4-1.3-0.2
		c-0.1,0.1-2.4,1.4-4.7,4.7c1.9-8,4.6-14.1,8.1-18c0.3-0.4,0.3-0.9,0-1.3c-0.3-0.3-0.9-0.4-1.3-0.2c-0.5,0.3-10,6-12.8,21.8
		c-3.1-12.1-10.6-16.5-10.9-16.7c-0.5-0.3-1-0.2-1.3,0.2c-0.3,0.4-0.3,0.9,0,1.3c3.1,3.4,5.5,8.7,7.1,15.7c-2-2.7-3.9-3.8-4-3.9
		c-0.5-0.3-1-0.2-1.3,0.2c-0.3,0.4-0.3,0.9,0,1.3c2.6,2.8,4.5,7.8,5.6,14.4h-48c-0.6,0-1.2,0.6-1.2,1.2c0,0.6,0.5,1.2,1.2,1.2h355.6
		c0.6,0,1.2-0.5,1.2-1.2V109.1h106.5v236.8c0,0.6,0.5,1.2,1.2,1.2h145.5c0.7,0,1-0.6,1-1.2C612.2,345.3,611.7,344.7,611,344.7z
		 M300.2,323.2c0.2-0.3,0.5-0.7,0.7-1c-2,4.3-3.5,9.7-4.4,16.2c0,0.5,0.3,0.9,0.7,1c0.4,0.1,0.9-0.2,1-0.6c0.3-0.8,0.6-1.6,0.9-2.3
		c-0.8,2.3-1.3,5.1-1.7,8.2h-1.9C294.9,334,297.7,327.1,300.2,323.2z M291,340.7c0.1,0.1,0.1,0.1,0.1,0.2c0.1,0.4,0.6,0.7,1,0.6
		c0.5-0.1,0.8-0.6,0.7-1c-0.8-5.4-2-9.9-3.5-13.6c2.2,3.7,4.5,9.4,4.3,17.8h-1.8C291.6,343.2,291.4,341.9,291,340.7z M268.8,319.5
		c0.3-0.4,0.5-0.8,0.8-1.2c-2.3,5-4,11.3-5.1,18.8c0,0.5,0.3,1,0.8,1.1c0.5,0.1,1-0.2,1.2-0.7c0.3-1,0.6-1.9,1-2.7
		c-0.9,2.8-1.6,6.1-2.1,9.9h-2.1c0-0.2,0-0.4,0-0.6c0-1.2,0-2.4-0.1-3.5C263.4,330.4,266.2,323.5,268.8,319.5z M258.2,339.7
		c0,0,0.1,0.1,0.1,0.2c0.2,0.5,0.7,0.8,1.2,0.7c0.5-0.1,0.9-0.6,0.8-1.1c-0.9-6.3-2.2-11.5-4-15.8c2.7,4.4,5.2,11.2,5,21h-2.1
		C259,342.9,258.6,341.2,258.2,339.7z M231.2,323.2c0.2-0.3,0.5-0.7,0.7-1c-2,4.3-3.5,9.7-4.4,16.2c0,0.5,0.3,0.9,0.7,1
		c0.4,0.1,0.9-0.2,1-0.6c0.3-0.8,0.6-1.6,0.9-2.3c-0.8,2.3-1.3,5.1-1.7,8.2h-1.9C225.9,334,228.7,327.1,231.2,323.2z M222,340.7
		c0.1,0.1,0.1,0.1,0.1,0.2c0.1,0.4,0.6,0.7,1,0.6c0.5-0.1,0.8-0.6,0.7-1c-0.8-5.4-2-9.9-3.5-13.6c2.2,3.7,4.5,9.4,4.3,17.8h-1.8
		C222.6,343.2,222.4,341.9,222,340.7z M199.8,319.5c0.3-0.4,0.5-0.8,0.8-1.2c-2.3,5-4,11.3-5.1,18.8c0,0.5,0.3,1,0.8,1.1
		c0.5,0.1,1-0.2,1.2-0.7c0.3-1,0.6-1.9,1-2.7c-0.9,2.8-1.6,6.1-2.1,9.9h-2.1c0-0.2,0-0.4,0-0.6c0-1.2,0-2.4-0.1-3.5
		C194.4,330.4,197.2,323.5,199.8,319.5z M189.2,339.7c0,0,0.1,0.1,0.1,0.2c0.2,0.5,0.7,0.8,1.2,0.7c0.5-0.1,0.9-0.6,0.8-1.1
		c-0.9-6.3-2.2-11.5-4-15.8c2.7,4.4,5.2,11.2,5,21h-2.1C190,342.9,189.6,341.2,189.2,339.7z M161.2,323.2c0.2-0.3,0.5-0.7,0.7-1
		c-2,4.3-3.5,9.7-4.4,16.2c0,0.5,0.3,0.9,0.7,1c0.4,0.1,0.9-0.2,1-0.6c0.3-0.8,0.6-1.6,0.9-2.3c-0.8,2.3-1.3,5.1-1.7,8.2h-1.9
		C155.9,334,158.7,327.1,161.2,323.2z M152,340.7c0.1,0.1,0.1,0.1,0.1,0.2c0.1,0.4,0.6,0.7,1,0.6c0.5-0.1,0.8-0.6,0.7-1
		c-0.8-5.4-2-9.9-3.5-13.6c2.2,3.7,4.5,9.4,4.3,17.8h-1.8C152.6,343.2,152.4,341.9,152,340.7z M129.8,319.5c0.3-0.4,0.5-0.8,0.8-1.2
		c-2.3,5-4,11.3-5.1,18.8c0,0.5,0.3,1,0.8,1.1c0.5,0.1,1-0.2,1.2-0.7c0.3-1,0.6-1.9,1-2.7c-0.9,2.8-1.6,6.1-2.1,9.9h-2.1
		c0-0.2,0-0.4,0-0.6c0-1.2,0-2.4-0.1-3.5C124.4,330.4,127.2,323.5,129.8,319.5z M119.2,339.7c0,0,0.1,0.1,0.1,0.2
		c0.2,0.5,0.7,0.8,1.2,0.7c0.5-0.1,0.9-0.6,0.8-1.1c-0.9-6.3-2.2-11.5-4-15.8c2.7,4.4,5.2,11.2,5,21h-2.1
		C120,342.9,119.6,341.2,119.2,339.7z M92.3,323.2c0.2-0.3,0.5-0.7,0.7-1c-2,4.3-3.5,9.7-4.4,16.2c0,0.5,0.3,0.9,0.7,1
		c0.4,0.1,0.9-0.2,1-0.6c0.2-0.8,0.5-1.6,0.8-2.3c-0.8,2.3-1.3,5.1-1.7,8.2h-1.9C86.9,334,89.7,327.1,92.3,323.2z M83,340.7
		c0.1,0.1,0.1,0.1,0.1,0.2c0.1,0.4,0.6,0.7,1,0.6c0.5-0.1,0.8-0.6,0.7-1c-0.8-5.4-2-9.9-3.5-13.6c2.2,3.7,4.5,9.4,4.3,17.8h-1.8
		C83.6,343.2,83.4,341.9,83,340.7z M60.8,319.5c0.3-0.4,0.5-0.8,0.8-1.2c-2.3,5-4,11.3-5.1,18.8c0,0.5,0.3,1,0.8,1.1
		c0.5,0.1,1-0.2,1.2-0.7c0.3-1,0.6-1.9,1-2.7c-0.9,2.8-1.6,6.1-2.1,9.9h-2.1c0-0.2,0-0.4,0-0.6c0-1.2,0-2.4-0.1-3.5
		C55.4,330.4,58.2,323.5,60.8,319.5z M50.2,339.7c0,0,0.1,0.1,0.1,0.2c0.2,0.5,0.7,0.8,1.2,0.7c0.5-0.1,0.9-0.6,0.8-1.1
		c-0.9-6.3-2.2-11.5-4-15.8c2.7,4.4,5.2,11.2,5,21h-2.1C51,342.9,50.6,341.2,50.2,339.7z"/>
</g>
</svg>
