<?xml version="1.0" encoding="utf-8"?>
<!-- Generator: Adobe Illustrator 24.0.1, SVG Export Plug-In . SVG Version: 6.00 Build 0)  -->
<svg version="1.1" id="Layer_1" xmlns="http://www.w3.org/2000/svg" xmlns:xlink="http://www.w3.org/1999/xlink" x="0px" y="0px"
	 viewBox="0 0 613 338" style="enable-background:new 0 0 613 338;" xml:space="preserve">
<style type="text/css">
	.st0{fill:#FFFFFF;}
</style>
<g id="background-garage">
	<path class="st0" d="M57.3,185.5v2.2h43.7c0,0,0.1,0,0.1,0H121c0,0,0.1,0,0.1,0h19.4c0.6,0,1.1-0.5,1.1-1.1V101c0,0,0,0,0,0V9.4
		c0-0.6-0.5-1.1-1.1-1.1H10.4c0,0,0,0,0,0h0c0,0-0.1,0-0.1,0c-0.1,0-0.2,0-0.3,0.1c-0.1,0-0.2,0.1-0.2,0.2c0,0-0.1,0-0.1,0.1
		C9.4,8.8,9.3,9.1,9.3,9.4v176.1h2.2v-83.4h127.8v83.4h-17.1l2.2-18h0.5c0.6,0,1.1-0.5,1.1-1.1v-6.9c0-0.6-0.5-1.1-1.1-1.1h-4.7
		v-7.1c2,0,3.9-0.8,5.3-2.2c1.7-1.7,2.5-4.1,2.1-6.5c-0.1-0.5-0.5-0.9-0.9-0.9c-2.4-0.4-4.8,0.4-6.5,2.1v-6c0.1,0,0.2,0,0.3,0
		c2.7,0,5.2-1,7-2.9c2.2-2.2,3.3-5.4,2.8-8.6c-0.1-0.5-0.5-0.9-0.9-0.9c-3.1-0.5-6.3,0.6-8.6,2.8c-2.1,2.1-3.1,5.1-2.9,8
		c0,0.1,0,0.2,0,0.2v1.8c-1.2-0.9-2.6-1.2-4.1-1c-0.5,0.1-0.9,0.5-0.9,0.9c-0.3,1.7,0.3,3.5,1.5,4.7c0.9,0.9,2.2,1.5,3.5,1.6v14
		h-5.9v-23.5c0,0,0,0,0-0.1c0.1-0.8,0.1-1.6,0-2.3v-9.7c0,0,0.1,0,0.1,0c2.3,0,4.4-0.9,6-2.5c1.9-1.9,2.8-4.6,2.4-7.3
		c-0.1-0.5-0.5-0.9-0.9-0.9c-2.7-0.4-5.4,0.5-7.3,2.4c-0.4,0.4-0.8,0.9-1.2,1.5c-0.5-1-1.1-2-2-2.8c-1.9-1.9-4.4-3-7.1-3
		c-0.5,0-1,0-1.6,0.1c-0.5,0.1-0.9,0.5-0.9,0.9c-0.5,3.2,0.6,6.4,2.8,8.7c1.9,1.9,4.4,2.9,7.1,2.9c0.1,0,0.2,0,0.3,0v5.4
		c-1.7-1.6-4-2.3-6.3-2c-0.5,0.1-0.9,0.5-0.9,0.9c-0.4,2.4,0.4,4.8,2.1,6.5c1.4,1.4,3.2,2.2,5.1,2.2v22.5h-6.1v-6c0-0.3,0-0.6,0-0.9
		v-12.7c0-0.1,0-0.1,0-0.2c0.2-2.4-0.7-4.7-2.4-6.4c-1.9-1.9-4.5-2.7-7.2-2.3c-0.5,0.1-0.9,0.5-0.9,0.9c-0.4,2.6,0.5,5.3,2.3,7.2
		c1.6,1.6,3.7,2.4,5.9,2.4c0,0,0,0,0.1,0v4.9c-0.3-0.3-0.5-0.6-0.8-0.9c-2-2-4.6-3.1-7.5-3.1c-0.5,0-1.1,0-1.6,0.1
		c-0.5,0.1-0.9,0.5-0.9,0.9c-0.5,3.3,0.6,6.7,3,9.1c2,2,4.6,3.1,7.5,3.1c0.1,0,0.3,0,0.4,0v3.9H97c-0.6,0-1.1,0.5-1.1,1.1v6.9
		c0,0.6,0.5,1.1,1.1,1.1h0.7l2.2,18H57.3z M11.5,99.8V10.5h127.8v89.4H11.5z M121.8,145.4c1-1,2.3-1.5,3.7-1.6
		c0,1.4-0.6,2.7-1.6,3.7c-1,1-2.3,1.5-3.7,1.6C120.3,147.7,120.9,146.4,121.8,145.4z M116.1,141.3c-0.5-0.5-0.8-1.2-0.9-1.8
		c0.7,0.1,1.3,0.4,1.8,0.9c0.5,0.5,0.8,1.2,0.9,1.8C117.3,142.1,116.6,141.8,116.1,141.3z M122.5,129.7c1.5-1.5,3.6-2.4,5.8-2.3
		c0.1,2.2-0.7,4.3-2.3,5.8c-1.5,1.5-3.6,2.4-5.8,2.3C120.2,133.4,121,131.3,122.5,129.7z M114,116.1c1.2-1.2,2.8-1.8,4.5-1.8
		c0,1.7-0.6,3.3-1.8,4.5c-1.2,1.2-2.8,1.8-4.5,1.8c0-0.3,0-0.6,0-0.9C112.3,118.4,113,117.1,114,116.1z M104.1,118.3
		c-1.6-1.6-2.4-3.7-2.3-5.9c2.2-0.1,4.3,0.7,5.9,2.3c1.3,1.3,2.1,3.1,2.3,4.9c0,0.3,0,0.6,0,1C107.7,120.7,105.6,119.9,104.1,118.3z
		 M106.3,132.1c-1-1-1.5-2.3-1.5-3.7c1.4,0,2.7,0.6,3.7,1.5c0.7,0.7,1.2,1.7,1.4,2.7v1C108.5,133.6,107.3,133.1,106.3,132.1z
		 M101.5,138.2c-1.6,0-3.1-0.6-4.3-1.8c-1.2-1.2-1.8-2.7-1.8-4.4c1.7,0,3.2,0.6,4.4,1.8C100.9,134.9,101.6,136.5,101.5,138.2
		C101.5,138.2,101.5,138.2,101.5,138.2z M95.2,149.8c-1.7-1.7-2.5-4-2.4-6.3c2.4-0.1,4.6,0.8,6.3,2.4c1.4,1.4,2.3,3.3,2.4,5.3v1
		C99.2,152.4,96.9,151.5,95.2,149.8z M98.1,160.6h25.8v4.6H98.1V160.6z M99.9,167.5h22.3l-2.2,18h-17.9L99.9,167.5z"/>
	<path class="st0" d="M2.8,195.4h6.5v-2.2H3.9V2.9H147v190.3H57.3v2.2h90.8c0.6,0,1.1-0.5,1.1-1.1V1.7c0-0.6-0.5-1.1-1.1-1.1H2.8
		c-0.6,0-1.1,0.5-1.1,1.1v192.5C1.6,194.9,2.1,195.4,2.8,195.4z"/>
	<path class="st0" d="M135.4,13.3H15.5c-0.6,0-1.1,0.5-1.1,1.1v81.4c0,0.6,0.5,1.1,1.1,1.1h119.9c0.6,0,1.1-0.5,1.1-1.1V14.5
		C136.5,13.8,136,13.3,135.4,13.3z M134.3,94.8H16.6V15.6h117.7V94.8z"/>
	<path class="st0" d="M512.4,152.1v49.5c0,0.6,0.5,1.1,1.1,1.1h78.8c0.6,0,1.1-0.5,1.1-1.1v-49.5c0-0.6-0.5-1.1-1.1-1.1h-78.8
		C512.9,151,512.4,151.5,512.4,152.1z M514.7,153.2h76.5v47.3h-76.5V153.2z"/>
	<path class="st0" d="M570.4,157.1h-50.8c-0.6,0-1.1,0.5-1.1,1.1v37.1c0,0.6,0.5,1.1,1.1,1.1h50.8c0.6,0,1.1-0.5,1.1-1.1v-37.1
		C571.6,157.6,571.1,157.1,570.4,157.1z M569.3,194.2h-48.5v-34.8h48.5V194.2z"/>
	<path class="st0" d="M586.8,157.1H574c-0.6,0-1.1,0.5-1.1,1.1v37.1c0,0.6,0.5,1.1,1.1,1.1h12.9c0.6,0,1.1-0.5,1.1-1.1v-37.1
		C587.9,157.6,587.4,157.1,586.8,157.1z M585.7,194.2h-10.6v-34.8h10.6V194.2z"/>
	<path class="st0" d="M524,190.5h42.1c0.6,0,1.1-0.5,1.1-1.1c0-0.6-0.5-1.1-1.1-1.1h-5.5l0.7-0.3c0.4-0.2,0.7-0.6,0.7-1v-0.6
		c0-0.6-0.5-1.1-1.1-1.1h-6.7c-0.4-0.6-1.1-1.1-2-1.1c0,0-0.1,0-0.1,0c-0.2-0.4-0.6-0.8-1.4-0.9c-0.2,0-0.4-0.1-0.5-0.1
		c-0.5-0.1-1-0.1-1.5,0.1l-0.2,0.1c-0.2-0.4-0.5-0.9-1.2-1.2c-0.2-0.1-0.5-0.2-0.7-0.2c-0.7,0-1.2,0.4-1.5,0.7
		c-0.1,0-0.1,0.1-0.2,0.1c-0.1,0-0.1,0-0.3-0.1c-0.4-0.2-1.1-0.4-1.9,0c-0.5,0.2-0.8,0.6-1,0.9c-0.1-0.1-0.2-0.1-0.3-0.2
		c-0.4-0.3-0.9-0.8-2.2-0.5c-1,0.2-1.4,0.7-1.6,1.1c-0.6-0.1-1.2,0.1-1.6,0.5c-0.3,0.3-0.4,0.6-0.5,0.9h-6.4c-0.6,0-1.1,0.5-1.1,1.1
		v0.6c0,0.5,0.3,0.9,0.7,1l0.7,0.3H524c-0.6,0-1.1,0.5-1.1,1.1C522.9,190,523.4,190.5,524,190.5z M536.5,187.5
		c0.3,0,0.6-0.1,0.8-0.3c0.2-0.2,0.3-0.5,0.3-0.8c0-0.1,0-0.2,0-0.3c1,0.1,1.6-0.6,1.8-0.9c0.1-0.2,0.1-0.2,0.3-0.2
		c0.1,0,0.1,0,0.2,0c0.1,0,0.1,0.1,0.2,0.1c0.2,0.2,0.6,0.5,1.2,0.7c0.3,0.1,0.5,0.1,0.8,0.1c1,0,1.4-0.8,1.6-1.1
		c0-0.1,0.1-0.1,0-0.2c0,0,0.1,0,0.1,0.1c0.2,0.1,0.6,0.2,1.1,0.2c0.1,0,0.2,0,0.3,0c0.7,0,1.1-0.4,1.4-0.7c0,0,0,0,0,0
		c0.2,0.4,0.7,1.3,1.7,1.3c0.2,0,0.5,0,0.7-0.1l0.5-0.2c0,0,0.1,0,0.1,0c0,0,0,0,0.1,0c0.1,0,0.3,0.1,0.5,0.1c0.3,0.8,0.9,1.2,2,1
		c0.1,0,0.2,0.2,0.3,0.4c0.2,0.4,0.6,0.7,1.1,0.7h2.6l-2,0.7h-18.3l-2-0.7H536.5z"/>
	<path class="st0" d="M580.4,178c2.6,0,4.7-2.1,4.7-4.7c0-2.6-2.1-4.7-4.7-4.7c-2.6,0-4.7,2.1-4.7,4.7
		C575.7,175.9,577.8,178,580.4,178z M580.4,170.8c1.4,0,2.5,1.1,2.5,2.5c0,1.4-1.1,2.5-2.5,2.5c-1.4,0-2.5-1.1-2.5-2.5
		C577.9,171.9,579,170.8,580.4,170.8z"/>
	<path class="st0" d="M581.6,173.6c0.5,0,0.9-0.4,0.9-0.9c0-0.5-0.4-0.9-0.9-0.9c-0.5,0-0.9,0.4-0.9,0.9
		C580.7,173.2,581.1,173.6,581.6,173.6z"/>
	<path class="st0" d="M578,166.5h4.8c1,0,1.9-0.8,1.9-1.9v-1.6c0-1-0.8-1.9-1.9-1.9H578c-1,0-1.9,0.8-1.9,1.9v1.6
		C576.1,165.7,577,166.5,578,166.5z M578.4,163.5h4v0.8h-4V163.5z"/>
	<path class="st0" d="M451.9,104.8h78.8c0.6,0,1.1-0.5,1.1-1.1V53.6c0-0.6-0.5-1.1-1.1-1.1h-78.8c-0.6,0-1.1,0.5-1.1,1.1v50.1
		C450.8,104.3,451.3,104.8,451.9,104.8z M453,54.7h76.5v47.8H453V54.7z"/>
	<path class="st0" d="M400.6,244.6c0.6,0,1.1-0.5,1.1-1.1v-2.9c0-0.6-0.5-1.1-1.1-1.1h-30.2c-0.6,0-1.1,0.5-1.1,1.1v2.9
		c0,0.6,0.5,1.1,1.1,1.1H400.6z M371.5,241.7h27.9v0.7h-27.9V241.7z"/>
	<path class="st0" d="M432.1,249.6h-93.2c-0.6,0-1.1,0.5-1.1,1.1v58.1c0,0.6,0.5,1.1,1.1,1.1h93.2c0.6,0,1.1-0.5,1.1-1.1v-58.1
		C433.2,250.1,432.7,249.6,432.1,249.6z M430.9,307.7H340v-55.9h90.9V307.7z"/>
	<polygon class="st0" points="157.2,199.9 158.1,199.9 159.8,191.5 159.8,178.1 158.1,169.7 157.2,169.7 	"/>
	<polygon class="st0" points="164.6,199.9 165.5,199.9 167.2,191.5 167.2,178.1 165.5,169.7 164.6,169.7 	"/>
	<polygon class="st0" points="172.2,199.9 173.1,199.9 174.8,191.5 174.8,178.1 173.1,169.7 172.2,169.7 	"/>
	<polygon class="st0" points="179.6,199.9 180.5,199.9 182.3,191.5 182.3,178.1 180.5,169.7 179.6,169.7 	"/>
	<polygon class="st0" points="187,199.9 187.9,199.9 189.7,190.7 189.7,175.8 187.9,166.6 187,166.6 	"/>
	<polygon class="st0" points="194.5,199.9 195.4,199.9 197.1,190.7 197.1,175.8 195.4,166.6 194.5,166.6 	"/>
	<polygon class="st0" points="202.2,199.9 203.1,199.9 204.9,190 204.9,174.1 203.1,164.2 202.2,164.2 	"/>
	<polygon class="st0" points="210,199.9 210.9,199.9 212.6,190 212.6,174.1 210.9,164.2 210,164.2 	"/>
	<path class="st0" d="M469.7,219.4h38.2c0.6,0,1.1-0.5,1.1-1.1v-3.4c0-0.6-0.5-1.1-1.1-1.1h-38.2c-0.6,0-1.1,0.5-1.1,1.1v3.4
		C468.6,218.9,469.1,219.4,469.7,219.4z M470.8,216h36v1.2h-36V216z"/>
	<path class="st0" d="M528.2,204h-76c-0.6,0-1.1,0.5-1.1,1.1v131.2c0,0.6,0.5,1.1,1.1,1.1h76c0.6,0,1.1-0.5,1.1-1.1V205.1
		C529.3,204.5,528.8,204,528.2,204z M527.1,335.3h-73.8v-129h73.8V335.3z"/>
	<path class="st0" d="M548.5,219.4h38.2c0.6,0,1.1-0.5,1.1-1.1v-3.4c0-0.6-0.5-1.1-1.1-1.1h-38.2c-0.6,0-1.1,0.5-1.1,1.1v3.4
		C547.4,218.9,547.9,219.4,548.5,219.4z M549.6,216h36v1.2h-36V216z"/>
	<path class="st0" d="M607,204h-76c-0.6,0-1.1,0.5-1.1,1.1v131.2c0,0.6,0.5,1.1,1.1,1.1h76c0.6,0,1.1-0.5,1.1-1.1V205.2
		C608.1,204.5,607.6,204,607,204z M605.9,335.3h-73.8v-129h73.8V335.3z"/>
	<path class="st0" d="M586.7,280.4h-38.2c-0.6,0-1.1,0.5-1.1,1.1v3.4c0,0.6,0.5,1.1,1.1,1.1h38.2c0.6,0,1.1-0.5,1.1-1.1v-3.4
		C587.8,280.9,587.3,280.4,586.7,280.4z M585.6,283.8h-36v-1.2h36V283.8z"/>
	<path class="st0" d="M300.9,213.7h-38.2c-0.6,0-1.1,0.5-1.1,1.1v3.4c0,0.6,0.5,1.1,1.1,1.1h38.2c0.6,0,1.1-0.5,1.1-1.1v-3.4
		C302,214.2,301.5,213.7,300.9,213.7z M299.8,217.1h-36V216h36V217.1z"/>
	<path class="st0" d="M318.4,204h-14.3c0-0.1,0-0.3,0-0.4l-2.3-16.1c-0.1-0.8-0.6-1.4-1.2-1.8v-2.2c0.1,0.1,0.2,0.2,0.3,0.3
		c0.5,0.5,1.1,0.8,1.8,0.8h1.6c0,0,0.1,0,0.2,0c0.2,0,0.3,0,0.4-0.1c0.1,0,0.2,0,0.3-0.1c0.1,0,0.1-0.1,0.2-0.1l0.1-0.1
		c0.1,0,0.1-0.1,0.2-0.1c0,0,0,0,0,0c0.1-0.1,0.3-0.2,0.4-0.4c0,0,0.2-0.2,0.2-0.2c0,0,0,0,0,0c0,0,0.1-0.1,0.1-0.2
		c0.1-0.2,0.2-0.4,0.3-0.8l2.6-11.5c0-0.1,0-0.1,0-0.2c0-0.1,0-0.1,0-0.2v-0.3c0-0.1,0-0.2,0-0.2l0,0c0-0.1,0-0.2-0.1-0.3h0
		c0,0,0-0.1,0-0.1c-0.1-0.2-0.2-0.4-0.3-0.7c0-0.1-0.1-0.1-0.1-0.2l-2.9-3.4c-0.1-0.1-0.2-0.2-0.4-0.4c-0.4-0.3-1-0.5-1.5-0.5h-1.4
		c-1.4-1.4-5.3-1.9-9.1-2.1V161c0-1.1-0.9-2-2-2h-1.2c-1.1,0-2,0.9-2,2v1.5c-3.2,0.2-5.8,0.7-7,1l-5.7,1.1h-0.4
		c-0.6,0-1.1,0.5-1.1,1.1v0.1c-0.8,0.4-1.6,1.2-1.6,2.6c0,0.6,0.4,1,1,1.1c0,0,0.7,0.1,1.1,0.6c0.1,0.1,0.3,0.4,0.5,0.8
		c1.1,1.7,3,4.7,5.3,6.1l0.9,5.7v2.9c-0.6,0.4-1.1,1.1-1.2,1.8l-2.4,16.2c0,0.1,0,0.3,0,0.4h-11.3c0-0.1,0-0.2,0-0.3v-2.1
		c2-0.5,3.5-2.3,3.5-4.5c0-2.1-1.5-4-3.5-4.5v-0.3c0-0.6-0.5-1.1-1.1-1.1h-13.8c-0.6,0-1.1,0.5-1.1,1.1v11.3c0,0.1,0,0.2,0,0.3h-0.5
		c0-0.1,0-0.2,0-0.3v-11.3c0-0.6-0.5-1.1-1.1-1.1h-13.9c-0.6,0-1.1,0.5-1.1,1.1v0.3c-2,0.5-3.5,2.3-3.5,4.5c0,2.1,1.5,3.9,3.5,4.5
		v2.1c0,0.1,0,0.2,0,0.3h-18.2V171c0-0.4-0.4-0.8-0.8-0.8c-0.4,0-0.8,0.3-0.8,0.8v30h-6v-30c0-0.4-0.3-0.8-0.8-0.8
		c-0.4,0-0.8,0.3-0.8,0.8v30h-6v-30c0-0.4-0.3-0.8-0.8-0.8c-0.4,0-0.8,0.3-0.8,0.8v30H193v-30c0-0.4-0.3-0.8-0.8-0.8
		c-0.4,0-0.8,0.3-0.8,0.8v30h-6v-30c0-0.4-0.3-0.8-0.8-0.8c-0.4,0-0.8,0.3-0.8,0.8v30h-6v-30c0-0.4-0.3-0.8-0.8-0.8
		c-0.4,0-0.8,0.3-0.8,0.8v30h-6v-30c0-0.4-0.3-0.8-0.8-0.8c-0.4,0-0.8,0.3-0.8,0.8v30h-6v-30c0-0.4-0.3-0.8-0.8-0.8
		c-0.4,0-0.8,0.3-0.8,0.8v30h-5.9v-30c0-0.4-0.3-0.8-0.8-0.8c-0.4,0-0.8,0.3-0.8,0.8v33.3H82.7c-0.6,0-1,0.5-1,1v131.1
		c0,0.6,0.5,1,1,1h77.4c0.6,0,1-0.5,1-1V205.3c0-0.6-0.5-1-1-1h-4.5v-1.6h5.9v1.8c0,0.4,0.3,0.8,0.8,0.8c0.1,0,0.2,0,0.3-0.1v131.2
		c0,0.6,0.5,1.1,1.1,1.1h76c0.6,0,1.1-0.5,1.1-1.1V206.3h0.5v130.1c0,0.6,0.5,1.1,1.1,1.1h76c0.6,0,1.1-0.5,1.1-1.1V205.1
		C319.5,204.5,319,204,318.4,204z M252.5,193.6h11.6v0.2c0,0.6,0.5,1.1,1.1,1.1c1.3,0,2.4,1.1,2.4,2.3c0,1.3-1.1,2.4-2.4,2.4
		c-0.6,0-1.1,0.5-1.1,1.1v3.1c0,0.2-0.1,0.3-0.3,0.3h-11c-0.2,0-0.3-0.1-0.3-0.3V193.6z M159,335.3H83.8v-129H159V335.3z
		 M283.4,183.8h15v1.3h-15V183.8z M301,180.2l1.3-9.1h1.8l0.1,0.1l-1.9,8.4C301.8,179.7,301.4,179.9,301,180.2z M304.2,166.9
		l2.9,3.3c0,0,0.1,0.1,0.1,0.1c0,0,0,0.1,0,0.1l-2.6,11.6c0,0,0,0.1-0.1,0.1c0,0,0,0,0,0l0,0c0,0,0,0,0,0c0,0,0,0-0.1,0c0,0,0,0,0,0
		c0,0,0,0-0.1,0c0,0-0.1,0-0.2,0h-1.5c-0.1,0-0.1,0-0.2-0.1c0,0-0.1-0.1-0.1-0.2c0-0.1,0.1-0.3,0.3-0.3h0.5c0.5,0,1-0.4,1.1-0.9
		l2.2-9.8c0.1-0.3,0-0.7-0.2-1l-0.8-0.9c-0.2-0.2-0.5-0.4-0.9-0.4h-2l0.3-2h1.1C304,166.9,304.1,166.9,304.2,166.9z M276.9,169.8
		c-0.3-0.5-0.5-0.8-0.7-1c-0.4-0.4-0.8-0.8-1.2-1c0.1,0,0.1,0,0.2,0c0.2,0,0.3,0,0.4-0.1c0,0,0.1-0.1,0.1-0.1c0.1,0,0.2-0.1,0.2-0.2
		c0,0,0.1-0.1,0.1-0.1c0.1-0.1,0.1-0.1,0.1-0.2c0-0.1,0-0.1,0-0.2c0-0.1,0-0.1,0.1-0.2l5.3-1c1.3-0.3,4.1-0.9,7.7-1
		c0.4,0,0.7-0.1,0.9-0.4c0.2-0.3,0.3-0.6,0.1-1v-2.1h0.8l0,2c-0.1,0.3-0.1,0.7,0.1,1c0.2,0.3,0.5,0.5,0.9,0.5c5,0.1,7.7,0.8,8.5,1.2
		l-2.2,15.6h-15.3l-0.8-5.4c-0.1-0.4-0.5-0.8-0.8-0.9C279.9,174.4,277.9,171.3,276.9,169.8z M279.8,203.9l2.4-16.2
		c0-0.2,0.3-0.4,0.5-0.4h16.4c0.2,0,0.4,0.2,0.5,0.4l2.3,16.2c0,0,0,0-0.1,0L279.8,203.9L279.8,203.9z M232.5,197.2
		c0-1.3,1.1-2.3,2.4-2.3c0.6,0,1.1-0.5,1.1-1.1v-0.2h11.6v10.2c0,0.2-0.1,0.3-0.3,0.3h-11c-0.2,0-0.3-0.1-0.3-0.3v-3.1
		c0-0.6-0.5-1.1-1.1-1.1C233.5,199.5,232.5,198.5,232.5,197.2z M214,202.6v1.4h-6v-1.4H214z M206.5,202.6v1.4h-6v-1.4H206.5z
		 M198.9,202.6v1.4H193v-1.4H198.9z M191.4,202.6v1.4h-6v-1.4H191.4z M183.9,202.6v1.4h-6v-1.4H183.9z M176.4,202.6v1.4h-6v-1.4
		H176.4z M163,204.2v-1.6h6v1.4h-5.3C163.4,204,163.2,204.1,163,204.2z M238.5,335.3h-73.8v-129h73.8V335.3z M317.3,335.3h-73.8
		v-129h36.4h21.9h15.5V335.3z"/>
	<path class="st0" d="M222.1,280.4h-38.2c-0.6,0-1.1,0.5-1.1,1.1v3.4c0,0.6,0.5,1.1,1.1,1.1h38.2c0.6,0,1.1-0.5,1.1-1.1v-3.4
		C223.2,280.9,222.7,280.4,222.1,280.4z M221,283.8h-36v-1.2h36V283.8z"/>
	<path class="st0" d="M183.9,219.4h38.2c0.6,0,1.1-0.5,1.1-1.1v-3.4c0-0.6-0.5-1.1-1.1-1.1h-38.2c-0.6,0-1.1,0.5-1.1,1.1v3.4
		C182.8,218.9,183.3,219.4,183.9,219.4z M185,216h36v1.2h-36V216z"/>
	<path class="st0" d="M70,249.4h-3.4c-0.6,0-1.1,0.5-1.1,1.1l0,38.2c0,0.6,0.5,1.1,1.1,1.1H70c0.6,0,1.1-0.5,1.1-1.1l0-38.2
		C71.1,249.9,70.6,249.4,70,249.4z M68.9,287.6h-1.2l0-36h1.2L68.9,287.6z"/>
	<path class="st0" d="M89.4,289.9h3.4c0.6,0,1.1-0.5,1.1-1.1l0-38.2c0-0.6-0.5-1.1-1.1-1.1h-3.4c-0.6,0-1.1,0.5-1.1,1.1l0,38.2
		C88.3,289.4,88.8,289.9,89.4,289.9z M90.5,251.6h1.2l0,36h-1.2L90.5,251.6z"/>
	<path class="st0" d="M483.6,150.6v-15h5.7c0.6,0,1.1-0.5,1.1-1.1v-6.6c0-0.6-0.5-1.1-1.1-1.1h-52.6c-0.6,0-1.1,0.5-1.1,1.1v6.6
		c0,0.6,0.5,1.1,1.1,1.1h5.1v15c0,0.6,0.3,1.1,0.7,1.4v17.3c-2.8,0.6-4.8,3-4.8,5.9v9.6c0,3.3,2.7,6,6,6h4.2c3.3,0,6-2.7,6-6v-9.6
		c0-2.9-2-5.3-4.8-5.9v-17.3c0.4-0.3,0.7-0.9,0.7-1.4v-15h9.1v15c0,0.6,0.3,1.1,0.7,1.4v18.1c-2.8,1.7-4.6,5.4-4.6,9.5
		c0,2.5,0.7,4.9,1.9,6.8c0,0.1,0.1,0.1,0.1,0.2c1.5,2.2,3.7,3.5,6,3.5c2.3,0,4.5-1.3,6-3.5c0,0,0,0,0-0.1c1.3-1.9,2-4.3,2-6.8
		c0-4.1-1.8-7.8-4.6-9.5v-18.1c0.4-0.3,0.7-0.9,0.7-1.4v-15h8.5v15c0,0.6,0.3,1.1,0.7,1.4v18.1c-2.3,1.4-3.9,4-4.4,7.2
		c0,0.2,0,0.4,0,0.5l4.7,14.7c0.2,0.5,0.7,0.8,1.2,0.8c0.5-0.1,0.9-0.6,0.9-1.1v-13.6h1.7v13.6c0,0.6,0.4,1,0.9,1.1
		c0.1,0,0.1,0,0.2,0c0.5,0,0.9-0.3,1.1-0.8l4.7-14.7c0.1-0.2,0.1-0.3,0-0.5c-0.5-3.2-2.2-5.9-4.4-7.2v-18.2
		C483.4,151.7,483.6,151.2,483.6,150.6z M481.3,171.9c1.8,0.9,3.3,3,3.8,5.7l-2.5,7.6v-7.6c0-0.6-0.5-1.1-1.1-1.1h-3.9
		c-0.6,0-1.1,0.5-1.1,1.1v7.6l-2.5-7.7c0.5-2.6,1.9-4.8,3.8-5.7c0.4-0.2,0.6-0.6,0.6-1v-19.6c0-0.5-0.3-0.9-0.7-1v-15.8
		c0-0.6-0.5-1.1-1.1-1.1h-10.8c-0.6,0-1.1,0.5-1.1,1.1v15.8c-0.4,0.2-0.7,0.6-0.7,1v19.6c0,0.4,0.3,0.8,0.6,1c2.4,1.1,4,4.2,4,7.8
		c0,2.1-0.6,4.1-1.6,5.6c0,0,0,0,0,0.1c-1.1,1.6-2.6,2.5-4.1,2.5c-1.5,0-3-0.9-4.1-2.4c0,0,0-0.1-0.1-0.1c-1-1.5-1.6-3.5-1.6-5.6
		c0-3.6,1.6-6.7,4-7.8c0.4-0.2,0.6-0.6,0.6-1v-19.6c0-0.5-0.3-0.9-0.7-1v-15.8c0-0.6-0.5-1.1-1.1-1.1h-11.3c-0.6,0-1.1,0.5-1.1,1.1
		v15.8c-0.4,0.2-0.7,0.6-0.7,1v19c0,0.6,0.5,1.1,1.1,1.1c2.1,0.1,3.7,1.7,3.7,3.8v9.6c0,2.1-1.7,3.8-3.8,3.8h-4.2
		c-2.1,0-3.8-1.7-3.8-3.8v-9.6c0-2.1,1.6-3.7,3.7-3.8c0.6,0,1.1-0.5,1.1-1.1v-19c0-0.5-0.3-0.9-0.7-1v-15.8c0-0.6-0.5-1.1-1.1-1.1
		h-5.1v-4.3h50.4v4.3h-5.7c-0.6,0-1.1,0.5-1.1,1.1v15.8c-0.4,0.2-0.7,0.6-0.7,1v19.6C480.7,171.3,481,171.7,481.3,171.9z"/>
	<path class="st0" d="M349.9,96.3h69.2c0.6,0,1.1-0.5,1.1-1.1V78.5c0-0.6-0.5-1.1-1.1-1.1h-69.2c-0.6,0-1.1,0.5-1.1,1.1v16.6
		C348.7,95.8,349.2,96.3,349.9,96.3z M351,79.6h67V94h-67V79.6z"/>
	<path class="st0" d="M451.9,52h78.8c0.6,0,1.1-0.5,1.1-1.1V1.4c0-0.6-0.5-1.1-1.1-1.1h-78.8c-0.6,0-1.1,0.5-1.1,1.1v49.5
		C450.8,51.5,451.3,52,451.9,52z M453,2.5h76.5v47.3H453V2.5z"/>
	<path class="st0" d="M238.6,52h78.8c0.6,0,1.1-0.5,1.1-1.1V1.4c0-0.6-0.5-1.1-1.1-1.1h-78.8c-0.6,0-1.1,0.5-1.1,1.1v49.5
		C237.4,51.5,237.9,52,238.6,52z M239.7,2.5h76.5v47.3h-76.5V2.5z"/>
	<path class="st0" d="M611.1,0.3h-76.3c-0.6,0-1.1,0.5-1.1,1.1v102.3c0,0.6,0.5,1.1,1.1,1.1h76.3c0.6,0,1.1-0.5,1.1-1.1V1.4
		C612.2,0.8,611.8,0.3,611.1,0.3z M610,102.5h-74.1V2.5H610V102.5z"/>
	<path class="st0" d="M524,58.1h-65.4c-0.6,0-1.1,0.5-1.1,1.1v38.6c0,0.6,0.5,1.1,1.1,1.1H524c0.6,0,1.1-0.5,1.1-1.1V59.2
		C525.1,58.6,524.6,58.1,524,58.1z M522.9,96.6h-63.2V60.3h63.2V96.6z"/>
	<path class="st0" d="M238.6,105.1h78.8c0.6,0,1.1-0.5,1.1-1.1V53.9c0-0.6-0.5-1.1-1.1-1.1h-78.8c-0.6,0-1.1,0.5-1.1,1.1V104
		C237.4,104.6,237.9,105.1,238.6,105.1z M239.7,55h76.5v47.8h-76.5V55z"/>
	<path class="st0" d="M158.1,105.1h76.3c0.6,0,1.1-0.5,1.1-1.1V1.7c0-0.6-0.5-1.1-1.1-1.1h-76.3c-0.6,0-1.1,0.5-1.1,1.1V104
		C157,104.6,157.5,105.1,158.1,105.1z M159.2,2.9h74.1v100h-74.1V2.9z"/>
	<path class="st0" d="M310.7,58.4h-65.4c-0.6,0-1.1,0.5-1.1,1.1v38.6c0,0.6,0.5,1.1,1.1,1.1h65.4c0.6,0,1.1-0.5,1.1-1.1V59.5
		C311.8,58.9,311.3,58.4,310.7,58.4z M309.5,97h-63.2V60.7h63.2V97z"/>
	<path class="st0" d="M238.4,189.1c0.6,0,1.1-0.5,1.1-1.1v-16.5c0-0.6-0.5-1.1-1.1-1.1c-0.6,0-1.1,0.5-1.1,1.1V188
		C237.2,188.6,237.7,189.1,238.4,189.1z"/>
	<path class="st0" d="M242.2,162.5v25.7c0,0.6,0.5,1.1,1.1,1.1c0.6,0,1.1-0.5,1.1-1.1v-25.7c0-0.6-0.5-1.1-1.1-1.1
		C242.7,161.3,242.2,161.8,242.2,162.5z"/>
	<path class="st0" d="M256,188.6c0.6,0,1.1-0.5,1.1-1.1v-7.7c0-0.6-0.5-1.1-1.1-1.1c-0.6,0-1.1,0.5-1.1,1.1v7.7
		C254.8,188.1,255.3,188.6,256,188.6z"/>
	<path class="st0" d="M259.7,169.5v17.9c0,0.6,0.5,1.1,1.1,1.1c0.6,0,1.1-0.5,1.1-1.1v-17.9c0-0.6-0.5-1.1-1.1-1.1
		C260.2,168.4,259.7,168.9,259.7,169.5z"/>
	<path class="st0" d="M255.8,170.9v-6.6c0-0.6-0.5-1.1-1.1-1.1c-0.6,0-1.1,0.5-1.1,1.1v6.6c0,0.6,0.5,1.1,1.1,1.1
		C255.3,172.1,255.8,171.6,255.8,170.9z"/>
	<path class="st0" d="M234.6,162.8v4.7c0,0.6,0.5,1.1,1.1,1.1c0.6,0,1.1-0.5,1.1-1.1v-4.7c0-0.6-0.5-1.1-1.1-1.1
		C235.1,161.7,234.6,162.2,234.6,162.8z"/>
	<path class="st0" d="M442.2,176.3c-0.6,0-1.1,0.5-1.1,1.1v7.3c0,0.6,0.5,1.1,1.1,1.1c0.6,0,1.1-0.5,1.1-1.1v-7.3
		C443.4,176.9,442.9,176.3,442.2,176.3z"/>
	<path class="st0" d="M445.8,176.3c-0.6,0-1.1,0.5-1.1,1.1v8.4c0,0.6,0.5,1.1,1.1,1.1c0.6,0,1.1-0.5,1.1-1.1v-8.4
		C447,176.9,446.5,176.3,445.8,176.3z"/>
	<path class="st0" d="M449.4,185.9c0.6,0,1.1-0.5,1.1-1.1v-7.3c0-0.6-0.5-1.1-1.1-1.1c-0.6,0-1.1,0.5-1.1,1.1v7.3
		C448.3,185.4,448.8,185.9,449.4,185.9z"/>
	<path class="st0" d="M228.9,69c-0.6,0-1.1,0.5-1.1,1.1v28.7c0,0.6,0.5,1.1,1.1,1.1c0.6,0,1.1-0.5,1.1-1.1V70.1
		C230,69.5,229.5,69,228.9,69z"/>
	<path class="st0" d="M540.1,99.9c0.6,0,1.1-0.5,1.1-1.1V70.1c0-0.6-0.5-1.1-1.1-1.1c-0.6,0-1.1,0.5-1.1,1.1v28.7
		C538.9,99.4,539.4,99.9,540.1,99.9z"/>
	<path class="st0" d="M505.6,44.8H477c-0.6,0-1.1,0.5-1.1,1.1c0,0.6,0.5,1.1,1.1,1.1h28.7c0.6,0,1.1-0.5,1.1-1.1
		C506.7,45.3,506.2,44.8,505.6,44.8z"/>
	<path class="st0" d="M292.3,44.8h-28.7c-0.6,0-1.1,0.5-1.1,1.1c0,0.6,0.5,1.1,1.1,1.1h28.7c0.6,0,1.1-0.5,1.1-1.1
		C293.4,45.3,292.9,44.8,292.3,44.8z"/>
	<path class="st0" d="M346.4,105.9c-0.6,0-1.1,0.5-1.1,1.1c0,0.6,0.5,1.1,1.1,1.1h7.9c0.6,0,1.1-0.5,1.1-1.1c0-0.6-0.5-1.1-1.1-1.1
		H346.4z"/>
	<path class="st0" d="M414.1,105.9c-0.6,0-1.1,0.5-1.1,1.1c0,0.6,0.5,1.1,1.1,1.1h7.9c0.6,0,1.1-0.5,1.1-1.1c0-0.6-0.5-1.1-1.1-1.1
		H414.1z"/>
	<path class="st0" d="M172.2,269.6h58.4c0.6,0,1.1-0.5,1.1-1.1s-0.5-1.1-1.1-1.1h-58.4c-0.6,0-1.1,0.5-1.1,1.1
		S171.6,269.6,172.2,269.6z"/>
	<path class="st0" d="M539.8,269.6h58.4c0.6,0,1.1-0.5,1.1-1.1s-0.5-1.1-1.1-1.1h-58.4c-0.6,0-1.1,0.5-1.1,1.1
		S539.2,269.6,539.8,269.6z"/>
	<path class="st0" d="M43.8,144.2c0.2,0.2,0.4,0.2,0.7,0.2c0.2,0,0.4,0,0.5-0.1l30.1-15.7l3.5,2.1c0.3,0.2,0.8,0.2,1.1,0l18.7-10.4
		c0.5-0.3,0.7-1,0.4-1.5c-0.3-0.5-1-0.7-1.5-0.4l-18.2,10l-3.5-2.1c-0.3-0.2-0.7-0.2-1.1,0L44.6,142l-27.7-21.2
		c-0.5-0.4-1.2-0.3-1.6,0.2c-0.4,0.5-0.3,1.2,0.2,1.6L43.8,144.2z"/>
	<path class="st0" d="M135.1,125.9c0.2,0.1,0.4,0.2,0.6,0.2c0.4,0,0.7-0.2,0.9-0.5c0.3-0.5,0.2-1.2-0.3-1.5l-12.8-8.4
		c-0.5-0.3-1.2-0.2-1.5,0.3c-0.3,0.5-0.2,1.2,0.3,1.6L135.1,125.9z"/>
	<path class="st0" d="M20.5,54.4c0.2,0,0.3,0,0.5-0.1C38.8,51.9,53,37.7,55.4,19.8c0-0.1,0-0.1,0-0.2c0,0,0-0.1,0-0.1v0
		c0-0.6-0.5-1.1-1.1-1.1c-0.5,0-0.9,0.3-1.1,0.7c0,0.2,0,0.4-0.1,0.6c-2.3,16.8-15.6,30.1-32.4,32.5c-0.2,0-0.5,0.1-0.7,0.1
		c-0.4,0.2-0.7,0.6-0.7,1C19.4,53.9,19.9,54.4,20.5,54.4z"/>
	<path class="st0" d="M49.5,46.9c-0.4-0.4-1.1-0.4-1.6,0c-0.4,0.4-0.4,1.1,0,1.6l29.3,29.3c0.2,0.2,0.5,0.3,0.8,0.3
		c0.3,0,0.6-0.1,0.8-0.3c0.4-0.4,0.4-1.1,0-1.6L49.5,46.9z"/>
	<path class="st0" d="M103.9,77.5c0.2,0.2,0.5,0.3,0.8,0.3c0.3,0,0.6-0.1,0.8-0.3c0.4-0.4,0.4-1.1,0-1.6L59.9,30.4
		c-0.4-0.4-1.1-0.4-1.6,0c-0.4,0.4-0.4,1.1,0,1.6L103.9,77.5z"/>
	<path class="st0" d="M32.7,56.9c-0.4-0.4-1.1-0.4-1.6,0c-0.4,0.4-0.4,1.1,0,1.6l19.3,19.3c0.2,0.2,0.5,0.3,0.8,0.3
		c0.3,0,0.6-0.1,0.8-0.3c0.4-0.4,0.4-1.1,0-1.6L32.7,56.9z"/>
	<path class="st0" d="M449.4,204.1h-19.6l-1.5-5.6c-0.1-0.5-0.6-0.8-1.1-0.8h-13.9c-0.3,0-0.7,0.2-0.9,0.4c-0.2,0.3-0.3,0.6-0.2,1
		l0.5,2.2c0.1,0.5,0.5,0.8,1,0.8l8.8,0.9l0,1.1h-23.8l0-1.1l8.8-0.9c0.5,0,0.9-0.4,1-0.8l0.5-2.2c0.1-0.3,0-0.7-0.2-1
		c-0.2-0.3-0.5-0.4-0.9-0.4h-13.9c-0.5,0-1,0.3-1.1,0.8l-1.5,5.6h-18l-0.9-4.2h1.2c2.5,0,4.5-2,4.5-4.5v-16.9h3.6
		c1.5,0,2.8-1.2,2.8-2.8c0-1.5-1.2-2.8-2.8-2.8h-2.4v-1.1c0-0.6-0.5-1.1-1.1-1.1h-0.1v0c0-2.5-2-4.5-4.5-4.5h-12.5v-2.5
		c0-0.6-0.5-1.1-1.1-1.1h-4.9c-0.6,0-1.1,0.5-1.1,1.1v2.5h-12.5c-2.5,0-4.5,2-4.5,4.5l-0.2,0c-0.6,0-1.1,0.5-1.1,1.1v1.1h-2.8
		c-1.5,0-2.8,1.2-2.8,2.8c0,1.5,1.2,2.8,2.8,2.8h4.2v16.9c0,2.5,2,4.5,4.5,4.5h1.3l-0.9,4.2h-20.8c-0.6,0-1,0.5-1,1v131.2
		c0,0.6,0.5,1,1,1h128.1c0.6,0,1-0.5,1-1V205.2C450.5,204.6,450,204.1,449.4,204.1z M414.9,199.9L414.9,199.9l11.6,0l1.1,4.2h-2.6
		l-0.1-2.1c0-0.6-0.4-1-1-1.1L414.9,199.9z M395.1,199.9h11.6l-9,1c-0.6,0.1-1,0.5-1,1.1l-0.1,2.1H394L395.1,199.9z M368.7,200.8
		l-7.2-0.9l0,0h9l0.9,4.2h-1.7l0-2.1C369.6,201.4,369.2,200.9,368.7,200.8z M339.5,195.4v-18c0-0.6-0.5-1.1-1.1-1.1h-5.3
		c-0.3,0-0.5-0.2-0.5-0.5c0-0.3,0.2-0.5,0.5-0.5h3.9c0.6,0,1.1-0.5,1.1-1.1v-1.1h0.2c0.6,0,1.1-0.5,1.1-1.1v-1.1
		c0-1.2,1-2.2,2.2-2.2h13.7c0.6,0,1.1-0.5,1.1-1.1v-2.5h2.7v2.5c0,0.6,0.5,1.1,1.1,1.1H374c1.2,0,2.2,1,2.2,2.2v1.1
		c0,0.6,0.5,1.1,1.1,1.1h0.1v1.1c0,0.6,0.5,1.1,1.1,1.1h3.5c0.3,0,0.5,0.2,0.5,0.5c0,0.3-0.2,0.5-0.5,0.5h-4.7
		c-0.6,0-1.1,0.5-1.1,1.1v18c0,1.2-1,2.2-2.2,2.2h-32.3C340.5,197.6,339.5,196.6,339.5,195.4z M354.4,199.9l-7.2,1
		c-0.5,0.1-1,0.5-1,1.1l0,2.1h-1.7l0.9-4.2H354.4z M348.4,202.9l7-0.9c0.5-0.1,0.9-0.4,1-0.9l0.3-1.3h2.5l0.3,1.3
		c0.1,0.5,0.5,0.8,1,0.9l7,0.9l0,1.2h-19L348.4,202.9z M448.4,335.3h-126V206.2h20.4c0.1,0,0.2,0.1,0.3,0.1h4.2c0.1,0,0.2,0,0.3-0.1
		h20.6c0.1,0,0.2,0.1,0.3,0.1h4.2c0.1,0,0.2,0,0.3-0.1h19.1c0.1,0,0.2,0.1,0.4,0.1h5.2c0.1,0,0.2,0,0.3-0.1h25.4
		c0.1,0,0.2,0.1,0.3,0.1h5.2c0.1,0,0.2,0,0.4-0.1h19V335.3z"/>
	<path class="st0" d="M78.6,204.2h-3.9v-1.8c0-0.6-0.5-1.1-1.1-1.1h-1.7c0.7-0.6,1.2-1.5,1.2-2.4c0-1.7-1.4-3.1-3.1-3.1
		c-0.8,0-1.5,0.3-2,0.8h-0.3c-1.1-1-2.9-1-4.1,0h-0.3c-0.5-0.5-1.3-0.8-2-0.8c-1.7,0-3.1,1.4-3.1,3.1c0,1,0.5,1.9,1.2,2.4h-3.8
		c-0.1-0.3-0.3-0.5-0.5-0.6v-24.1c0-5.7-4.6-10.4-10.4-10.4c-5.7,0-10.4,4.6-10.4,10.4v2.6c0,0.6,0.5,1.1,1.1,1.1H39
		c0.6,0,1.1-0.5,1.1-1.1v-2.6c0-2.6,2.1-4.8,4.8-4.8c2.6,0,4.8,2.1,4.8,4.8v24.2c-0.2,0.1-0.3,0.3-0.3,0.5h-3.9
		c0.7-0.6,1.2-1.5,1.2-2.4c0-1.7-1.4-3.1-3.1-3.1c-0.8,0-1.5,0.3-2,0.8h-0.3c-1.1-1-2.9-1-4.1,0h-0.3c-0.5-0.5-1.3-0.8-2-0.8
		c-1.7,0-3.1,1.4-3.1,3.1c0,1,0.5,1.9,1.2,2.4h-1.7c-0.6,0-1.1,0.5-1.1,1.1v1.8h-0.4c0-0.1,0.1-0.2,0.1-0.3v-15.6
		c0-5.4-3.7-8.4-5.3-9.5v-2.7c0-0.6-0.5-1.1-1.1-1.1h-0.1c0.3-0.4,0.4-0.8,0.3-1.2c-0.3-1.1-2-1.7-2.8-1.7c-0.8,0-2.5,0.6-2.8,1.7
		c-0.1,0.5,0,0.9,0.3,1.2h-0.1c-0.6,0-1.1,0.5-1.1,1.1v2.7c-1.6,1.1-5.3,4-5.3,9.5v15.6c0,0.1,0,0.2,0.1,0.3H1.3c-0.6,0-1,0.5-1,1
		v131.1c0,0.6,0.5,1,1,1h77.4c0.6,0,1-0.5,1-1V205.3C79.7,204.7,79.2,204.2,78.6,204.2z M32.3,203.6h5.4c0.6,0,1.1-0.5,1.1-1.1v-2.2
		c0-0.3-0.1-0.6-0.3-0.8c-0.2-0.3-0.5-0.5-0.9-0.5h-1.3c-0.4,0-0.7,0.2-0.9,0.5c-0.1,0.2-0.3,0.3-0.6,0.3c-0.5,0-0.8-0.4-0.8-0.9
		c0-0.5,0.4-0.8,0.8-0.8c0.3,0,0.5,0.1,0.6,0.3c0.2,0.3,0.5,0.5,0.9,0.5h1.2c0.3,0,0.7-0.2,0.9-0.4c0.3-0.4,1-0.4,1.3,0
		c0.2,0.3,0.5,0.4,0.9,0.4h1.2c0.4,0,0.7-0.2,0.9-0.5c0.1-0.2,0.4-0.3,0.6-0.3c0.5,0,0.8,0.4,0.8,0.8c0,0.5-0.4,0.9-0.8,0.9
		c-0.3,0-0.5-0.1-0.6-0.3c-0.2-0.3-0.5-0.5-0.9-0.5h-1.2c-0.4,0-0.7,0.2-0.9,0.5c-0.2,0.2-0.3,0.5-0.3,0.7v2.2
		c0,0.6,0.5,1.1,1.1,1.1h9.7c0.6,0,1.1-0.5,1.1-1.1c0.2-0.2,0.4-0.5,0.4-0.8v-25.1c0-3.9-3.1-7-7-7c-3.9,0-7,3.1-7,7v1.5h-1.1v-1.5
		c0-4.5,3.6-8.1,8.1-8.1s8.1,3.6,8.1,8.1v25.1c0,0.4,0.2,0.8,0.5,1c0.1,0.5,0.5,1,1.1,1h9.6c0.6,0,1.1-0.5,1.1-1.1v-2.2
		c0-0.3-0.1-0.6-0.3-0.8c-0.2-0.3-0.5-0.4-0.9-0.4h-1.2c-0.4,0-0.7,0.2-0.9,0.5c-0.2,0.2-0.4,0.3-0.6,0.3c-0.5,0-0.8-0.4-0.8-0.9
		c0-0.4,0.4-0.8,0.8-0.8c0.3,0,0.5,0.1,0.6,0.3c0.2,0.3,0.5,0.5,0.9,0.5h1.2c0.3,0,0.7-0.2,0.9-0.4c0.3-0.4,1-0.4,1.3,0
		c0.2,0.3,0.5,0.4,0.9,0.4h1.2c0.4,0,0.7-0.2,0.9-0.5c0.2-0.2,0.4-0.3,0.6-0.3c0.5,0,0.9,0.4,0.9,0.8c0,0.5-0.4,0.9-0.9,0.9
		c-0.3,0-0.5-0.1-0.6-0.3c-0.2-0.3-0.5-0.4-0.9-0.4h-1.2c-0.3,0-0.7,0.3-0.9,0.5c-0.2,0.2-0.3,0.5-0.3,0.7v2.2
		c0,0.6,0.5,1.1,1.1,1.1h5.3v0.6H32.3V203.6z M14,188.4c0-5,3.9-7.4,4.7-7.9c0.4-0.2,0.6-0.6,0.6-1v-2.2H20c0.3,0,0.5-0.1,0.7-0.3
		c0.2,0.2,0.5,0.3,0.7,0.3h0.7v2.2c0,0.4,0.2,0.8,0.6,1c0.8,0.4,4.7,2.9,4.7,7.9v15.3c-0.1,0.2-0.2,0.4-0.3,0.5l-12.8,0
		c-0.1,0-0.3-0.3-0.4-0.5V188.4z M77.6,335.3H2.3v-129h11.4c0.2,0,0.3,0.1,0.5,0.1h12.9c0.2,0,0.4,0,0.5-0.1h3.2
		c0.1,0,0.2,0.1,0.4,0.1h42.4c0.1,0,0.2,0,0.4-0.1h3.6V335.3z"/>
	<path class="st0" d="M321.2,104c0,0.6,0.5,1,1,1h125.1c0.6,0,1-0.5,1-1V57.6c0-0.1,0.1-0.2,0.1-0.3v-9c0-0.6-0.5-1.1-1.1-1.1h-39.8
		V1.4c0-0.6-0.5-1.1-1.1-1.1h-43.2c-0.6,0-1.1,0.5-1.1,1.1v45.8h-39.8c-0.6,0-1.1,0.5-1.1,1.1v9c0,0.1,0,0.2,0.1,0.3V104z
		 M323.3,102.9V58.4h123v44.5H323.3z M364.3,2.5h41v44.7h-41V2.5z M323.3,49.4h39.8h43.2h39.8v6.7H323.3V49.4z"/>
	<path class="st0" d="M422,60.3h-75.7c-0.6,0-1,0.5-1,1v37c0,0.6,0.5,1,1,1H422c0.6,0,1-0.5,1-1v-37C423.1,60.7,422.6,60.3,422,60.3
		z M421,97.3h-73.6V62.4H421V97.3z"/>
	<path class="st0" d="M331.5,215.5c-0.6,0-1,0.5-1,1v18.2c0,0.6,0.5,1,1,1h108c0.6,0,1-0.5,1-1v-18.2c0-0.6-0.5-1-1-1H331.5z
		 M438.4,233.7H332.5v-16.1h105.9V233.7z"/>
	<path class="st0" d="M344.8,232.3c3.7,0,6.6-3,6.6-6.6c0-3.7-3-6.6-6.6-6.6c-3.7,0-6.6,3-6.6,6.6
		C338.2,229.3,341.1,232.3,344.8,232.3z M344.8,221.1c2.5,0,4.5,2,4.5,4.5c0,2.5-2,4.5-4.5,4.5s-4.5-2-4.5-4.5
		C340.3,223.2,342.3,221.1,344.8,221.1z"/>
	<path class="st0" d="M363.7,232.3c3.7,0,6.6-3,6.6-6.6c0-3.7-3-6.6-6.6-6.6c-3.7,0-6.6,3-6.6,6.6
		C357.1,229.3,360,232.3,363.7,232.3z M363.7,221.1c2.5,0,4.5,2,4.5,4.5c0,2.5-2,4.5-4.5,4.5c-2.5,0-4.5-2-4.5-4.5
		C359.2,223.2,361.2,221.1,363.7,221.1z"/>
	<path class="st0" d="M382.6,232.3c3.7,0,6.6-3,6.6-6.6c0-3.7-3-6.6-6.6-6.6c-3.7,0-6.6,3-6.6,6.6
		C376,229.3,378.9,232.3,382.6,232.3z M382.6,221.1c2.5,0,4.5,2,4.5,4.5c0,2.5-2,4.5-4.5,4.5c-2.5,0-4.5-2-4.5-4.5
		C378,223.2,380.1,221.1,382.6,221.1z"/>
	<path class="st0" d="M401.5,232.3c3.7,0,6.6-3,6.6-6.6c0-3.7-3-6.6-6.6-6.6c-3.7,0-6.6,3-6.6,6.6
		C394.9,229.3,397.8,232.3,401.5,232.3z M401.5,221.1c2.5,0,4.5,2,4.5,4.5c0,2.5-2,4.5-4.5,4.5c-2.5,0-4.5-2-4.5-4.5
		C396.9,223.2,399,221.1,401.5,221.1z"/>
	<path class="st0" d="M427.5,232.3c3.7,0,6.6-3,6.6-6.6c0-3.7-3-6.6-6.6-6.6c-3.7,0-6.6,3-6.6,6.6
		C420.8,229.3,423.8,232.3,427.5,232.3z M427.5,221.1c2.5,0,4.5,2,4.5,4.5c0,2.5-2,4.5-4.5,4.5c-2.5,0-4.5-2-4.5-4.5
		C422.9,223.2,424.9,221.1,427.5,221.1z"/>
</g>
</svg>
