<?xml version="1.0" encoding="utf-8"?>
<!-- Generator: Adobe Illustrator 24.0.1, SVG Export Plug-In . SVG Version: 6.00 Build 0)  -->
<svg version="1.1" id="Layer_1" xmlns="http://www.w3.org/2000/svg" xmlns:xlink="http://www.w3.org/1999/xlink" x="0px" y="0px"
	 viewBox="0 0 613 337" style="enable-background:new 0 0 613 337;" xml:space="preserve">
<style type="text/css">
	.st0{fill:#FFFFFF;}
</style>
<g id="background-generic-room-1">
	<g>
		<path class="st0" d="M611.2,3.1H1.2C0.6,3.1,0,2.6,0,1.9s0.6-1.2,1.2-1.2h610c0.7,0,1.2,0.6,1.2,1.2S611.9,3.1,611.2,3.1z"/>
		<path class="st0" d="M570,62.1H356.5c-0.7,0-1.2-0.6-1.2-1.2s0.6-1.2,1.2-1.2H570c0.7,0,1.2,0.6,1.2,1.2S570.7,62.1,570,62.1z"/>
		<path class="st0" d="M253.7,62.1H43c-0.7,0-1.2-0.6-1.2-1.2s0.6-1.2,1.2-1.2h210.7c0.7,0,1.2,0.6,1.2,1.2S254.4,62.1,253.7,62.1z"
			/>
		<g>
			<path class="st0" d="M306.6,38.1c-5.3,0-10.2-0.4-14-1.2c-4.6-0.9-6.7-2.2-6.7-4.1s2.1-3.1,6.7-4.1c3.7-0.8,8.7-1.2,14-1.2
				c5.3,0,10.2,0.4,14,1.2c4.6,0.9,6.7,2.2,6.7,4.1s-2.1,3.1-6.7,4.1C316.9,37.7,311.9,38.1,306.6,38.1z M288.6,32.9
				c1.1,1.1,7.6,2.8,18.1,2.8s17-1.7,18.1-2.8c-1.1-1.1-7.6-2.8-18.1-2.8S289.7,31.8,288.6,32.9z M324.8,33L324.8,33L324.8,33z"/>
			<g>
				<path class="st0" d="M454,230.1c-0.4,0-0.8-0.2-1-0.6l-1.8-2.7c-0.4-0.6-0.2-1.4,0.4-1.7c0.6-0.4,1.4-0.2,1.7,0.4l1.8,2.7
					c0.4,0.6,0.2,1.4-0.4,1.7C454.5,230.1,454.3,230.1,454,230.1z"/>
				<path class="st0" d="M449.3,222.8c-0.4,0-0.8-0.2-1-0.6l-4.2-6.4c-0.4-0.6-0.2-1.4,0.4-1.7c0.6-0.4,1.4-0.2,1.7,0.4l4.2,6.4
					c0.4,0.6,0.2,1.4-0.4,1.7C449.7,222.7,449.5,222.8,449.3,222.8z"/>
				<path class="st0" d="M442,212.1c-0.4,0-0.8-0.2-1-0.6l-6.9-10.6c-0.4-0.6-0.2-1.4,0.4-1.7c0.6-0.4,1.4-0.2,1.7,0.4l6.9,10.6
					c0.4,0.6,0.2,1.4-0.4,1.7C442.5,212.1,442.3,212.1,442,212.1z"/>
				<path class="st0" d="M431.3,195.7c-0.4,0-0.8-0.2-1-0.6l-9.1-14c-0.4-0.6-0.2-1.4,0.4-1.7c0.6-0.4,1.4-0.2,1.7,0.4l9.1,14
					c0.4,0.6,0.2,1.4-0.4,1.7C431.8,195.6,431.5,195.7,431.3,195.7z"/>
				<path class="st0" d="M418.4,175.8c-0.4,0-0.8-0.2-1-0.6l-13.7-21.1c-0.4-0.6-0.2-1.4,0.4-1.7c0.6-0.4,1.4-0.2,1.7,0.4l13.7,21.1
					c0.4,0.6,0.2,1.4-0.4,1.7C418.9,175.8,418.6,175.8,418.4,175.8z"/>
				<path class="st0" d="M400.6,148.6c-0.4,0-0.8-0.2-1-0.6l-20.1-30.8c-0.4-0.6-0.2-1.4,0.4-1.7s1.4-0.2,1.7,0.4l20.1,30.8
					c0.4,0.6,0.2,1.4-0.4,1.7C401.1,148.5,400.9,148.6,400.6,148.6z"/>
				<path class="st0" d="M376.4,111.4c-0.4,0-0.8-0.2-1-0.6l-22.1-33.9c-0.4-0.6-0.2-1.4,0.4-1.7c0.6-0.4,1.4-0.2,1.7,0.4l22.1,33.9
					c0.4,0.6,0.2,1.4-0.4,1.7C376.8,111.3,376.6,111.4,376.4,111.4z"/>
				<path class="st0" d="M349.1,69.6c-0.4,0-0.8-0.2-1-0.6L325,33.6c-0.4-0.6-0.2-1.4,0.4-1.7c0.6-0.4,1.4-0.2,1.7,0.4l23.1,35.4
					c0.4,0.6,0.2,1.4-0.4,1.7C349.6,69.5,349.4,69.6,349.1,69.6z"/>
			</g>
			<g>
				<path class="st0" d="M159,230.1c-0.2,0-0.5-0.1-0.7-0.2c-0.6-0.4-0.7-1.2-0.4-1.7l1.8-2.7c0.4-0.6,1.2-0.7,1.7-0.4
					c0.6,0.4,0.7,1.2,0.4,1.7l-1.8,2.7C159.8,229.9,159.4,230.1,159,230.1z"/>
				<path class="st0" d="M163.8,222.8c-0.2,0-0.5-0.1-0.7-0.2c-0.6-0.4-0.7-1.2-0.4-1.7l4.2-6.4c0.4-0.6,1.2-0.7,1.7-0.4
					c0.6,0.4,0.7,1.2,0.4,1.7l-4.2,6.4C164.6,222.6,164.2,222.8,163.8,222.8z"/>
				<path class="st0" d="M171,212.1c-0.2,0-0.5-0.1-0.7-0.2c-0.6-0.4-0.7-1.2-0.4-1.7l6.9-10.6c0.4-0.6,1.2-0.7,1.7-0.4
					c0.6,0.4,0.7,1.2,0.4,1.7l-6.9,10.6C171.8,211.9,171.4,212.1,171,212.1z"/>
				<path class="st0" d="M181.8,195.7c-0.2,0-0.5-0.1-0.7-0.2c-0.6-0.4-0.7-1.2-0.4-1.7l9.1-14c0.4-0.6,1.2-0.7,1.7-0.4
					c0.6,0.4,0.7,1.2,0.4,1.7l-9.1,14C182.6,195.5,182.2,195.7,181.8,195.7z"/>
				<path class="st0" d="M194.7,175.8c-0.2,0-0.5-0.1-0.7-0.2c-0.6-0.4-0.7-1.2-0.4-1.7l13.7-21.1c0.4-0.6,1.2-0.7,1.7-0.4
					c0.6,0.4,0.7,1.2,0.4,1.7l-13.7,21.1C195.5,175.6,195.1,175.8,194.7,175.8z"/>
				<path class="st0" d="M212.5,148.6c-0.2,0-0.5-0.1-0.7-0.2c-0.6-0.4-0.7-1.2-0.4-1.7l20.1-30.8c0.4-0.6,1.2-0.7,1.7-0.4
					c0.6,0.4,0.7,1.2,0.4,1.7L213.5,148C213.3,148.4,212.9,148.6,212.5,148.6z"/>
				<path class="st0" d="M236.7,111.4c-0.2,0-0.5-0.1-0.7-0.2c-0.6-0.4-0.7-1.2-0.4-1.7l22.1-33.9c0.4-0.6,1.2-0.7,1.7-0.4
					c0.6,0.4,0.7,1.2,0.4,1.7l-22.1,33.9C237.5,111.2,237.1,111.4,236.7,111.4z"/>
				<path class="st0" d="M264,69.6c-0.2,0-0.5-0.1-0.7-0.2c-0.6-0.4-0.7-1.2-0.4-1.7L286,32.2c0.4-0.6,1.2-0.7,1.7-0.4
					c0.6,0.4,0.7,1.2,0.4,1.7L265,69C264.8,69.4,264.4,69.6,264,69.6z"/>
			</g>
		</g>
	</g>
	<path class="st0" d="M611.2,337.1H360.7c-0.7,0-1.2-0.6-1.2-1.2V124.1H253v211.8c0,0.7-0.6,1.2-1.2,1.2H1.2c-0.7,0-1.2-0.6-1.2-1.2
		s0.6-1.2,1.2-1.2h249.2V122.9c0-0.7,0.6-1.2,1.2-1.2h109c0.7,0,1.2,0.6,1.2,1.2v211.8h249.2c0.7,0,1.2,0.6,1.2,1.2
		S611.9,337.1,611.2,337.1z"/>
</g>
</svg>
