<?xml version="1.0" encoding="utf-8"?>
<!-- Generator: Adobe Illustrator 24.0.1, SVG Export Plug-In . SVG Version: 6.00 Build 0)  -->
<svg version="1.1" id="Layer_1" xmlns="http://www.w3.org/2000/svg" xmlns:xlink="http://www.w3.org/1999/xlink" x="0px" y="0px"
	 viewBox="0 0 613 347" style="enable-background:new 0 0 613 347;" xml:space="preserve">
<style type="text/css">
	.st0{fill:#FFFFFF;}
</style>
<g id="background-generic-room-2">
	<g>
		<g>
			<path class="st0" d="M611.2,3.1H1.2C0.6,3.1,0,2.6,0,1.9s0.6-1.2,1.2-1.2h610c0.7,0,1.2,0.6,1.2,1.2S611.9,3.1,611.2,3.1z"/>
		</g>
		<path class="st0" d="M611.2,347.1H465.7c-0.7,0-1.2-0.6-1.2-1.2V109.1H358v236.8c0,0.7-0.6,1.2-1.2,1.2H1.2
			c-0.7,0-1.2-0.6-1.2-1.2s0.6-1.2,1.2-1.2h354.2V107.9c0-0.7,0.6-1.2,1.2-1.2h109c0.7,0,1.2,0.6,1.2,1.2v236.8h144.2
			c0.7,0,1.2,0.6,1.2,1.2S611.9,347.1,611.2,347.1z"/>
	</g>
	<path class="st0" d="M61.4,235c-0.3,0-0.6-0.1-0.9-0.4s-0.4-0.6-0.4-0.9L60,107.6c0-0.7,0.6-1.2,1.2-1.3l214.4-0.2h0
		c0.3,0,0.6,0.1,0.9,0.4s0.4,0.6,0.4,0.9l0.1,126.1c0,0.7-0.6,1.2-1.2,1.3L61.4,235L61.4,235z M62.5,108.9l0.1,123.6l211.9-0.2
		l-0.1-123.6L62.5,108.9z M71.8,224.5c-0.3,0-0.6-0.1-0.9-0.4s-0.4-0.6-0.4-0.9l-0.1-48.1c0-0.3,0.1-0.6,0.4-0.9
		c0.2-0.2,0.6-0.4,0.9-0.4l91.5-0.1h0c0.7,0,1.2,0.6,1.2,1.2l0,48c0,0.7-0.6,1.2-1.2,1.3L71.8,224.5
		C71.8,224.5,71.8,224.5,71.8,224.5z M73,176.4l0.1,45.6l89-0.1l0-45.5L73,176.4z M172.3,224.4c-0.3,0-0.6-0.1-0.9-0.4
		c-0.2-0.2-0.4-0.6-0.4-0.9l0-48c0-0.3,0.1-0.6,0.4-0.9c0.2-0.2,0.6-0.4,0.9-0.4l92.1-0.1h0c0.7,0,1.2,0.6,1.2,1.2l0.1,48
		c0,0.3-0.1,0.6-0.4,0.9s-0.6,0.4-0.9,0.4L172.3,224.4L172.3,224.4z M173.5,176.3l0,45.5l89.7-0.1l-0.1-45.5L173.5,176.3z
		 M71.8,167.3c-0.7,0-1.2-0.6-1.2-1.2l-0.1-48c0-0.7,0.6-1.2,1.2-1.3l91.5-0.1h0c0.3,0,0.6,0.1,0.9,0.4c0.2,0.2,0.4,0.6,0.4,0.9
		l0,48c0,0.3-0.1,0.6-0.4,0.9c-0.2,0.2-0.6,0.4-0.9,0.4L71.8,167.3L71.8,167.3z M72.9,119.3l0.1,45.5l89-0.1l0-45.5L72.9,119.3z
		 M172.3,167.2c-0.7,0-1.2-0.6-1.2-1.2l0-48c0-0.7,0.6-1.2,1.2-1.3l92.1-0.1h0c0.7,0,1.2,0.6,1.2,1.2l0.1,48.1
		c0,0.3-0.1,0.6-0.4,0.9c-0.2,0.2-0.6,0.4-0.9,0.4L172.3,167.2L172.3,167.2z M173.5,119.2l0,45.5l89.6-0.1l-0.1-45.6L173.5,119.2z"
		/>
</g>
</svg>
