<?xml version="1.0" encoding="utf-8"?>
<!-- Generator: Adobe Illustrator 24.0.1, SVG Export Plug-In . SVG Version: 6.00 Build 0)  -->
<svg version="1.1" id="Layer_1" xmlns="http://www.w3.org/2000/svg" xmlns:xlink="http://www.w3.org/1999/xlink" x="0px" y="0px"
	 viewBox="0 0 40 31" style="enable-background:new 0 0 40 31;" xml:space="preserve">
<style type="text/css">
	.st0{fill:#A3875E;}
	.st1{fill:#DBB67E;}
	.st2{fill:#FB7B76;}
	.st3{fill:#F0DF9E;}
</style>
<g>
	<rect x="1" y="19.9" class="st0" width="37.9" height="5.6"/>
	<path class="st1" d="M20,8.9c0-1-0.8-1.8-1.8-1.8H9.9c-1,0-1.8,0.8-1.8,1.8v3.3H6.4c-3,0-5.3,2.4-5.3,5.3V5.1c0-2,1.6-3.7,3.7-3.7
		h30.6c2,0,3.7,1.6,3.7,3.7v12.4c0-3-2.4-5.3-5.3-5.3h-1.7V8.9c0-1-0.8-1.8-1.8-1.8h-8.4C20.8,7.2,20,8,20,8.9z"/>
	<path class="st2" d="M33.6,12.2c3,0,5.3,2.4,5.3,5.3v2.3H1v-2.3c0-3,2.4-5.3,5.3-5.3h1.7H20h11.9H33.6z"/>
	<g>
		<path class="st3" d="M30.1,7.2c1,0,1.8,0.8,1.8,1.8v3.3H20V8.9c0-1,0.8-1.8,1.8-1.8H30.1L30.1,7.2z"/>
		<path class="st3" d="M18.2,7.2c1,0,1.8,0.8,1.8,1.8v3.3H8.1V8.9c0-1,0.8-1.8,1.8-1.8H18.2L18.2,7.2z"/>
	</g>
	<path d="M35.3,0.5H4.7C2.1,0.5,0,2.6,0,5.1v14.7v5.6v4c0,0.6,0.5,1,1,1s1-0.5,1-1v-3h35.8v3c0,0.6,0.5,1,1,1s1-0.5,1-1v-4v-5.6V5.1
		C40,2.6,37.9,0.5,35.3,0.5z M4.7,2.5h30.6c1.4,0,2.6,1.2,2.6,2.6v7.7c-1.1-1-2.6-1.7-4.3-1.7H33V8.9c0-1.6-1.3-2.8-2.8-2.8h-8.4
		c-0.7,0-1.3,0.2-1.8,0.6c-0.5-0.4-1.1-0.6-1.8-0.6H9.9C8.3,6.1,7,7.4,7,8.9v2.2H6.4c-1.7,0-3.2,0.6-4.3,1.7V5.1
		C2.1,3.7,3.3,2.5,4.7,2.5z M9.1,11.2V8.9c0-0.4,0.3-0.7,0.7-0.7h8.4c0.4,0,0.7,0.3,0.7,0.7v2.2H9.1L9.1,11.2z M21,8.9
		c0-0.4,0.3-0.7,0.7-0.7h8.4c0.4,0,0.7,0.3,0.7,0.7v2.2H21V8.9L21,8.9z M2.1,20.9h2c0.6,0,1-0.5,1-1c0-0.6-0.5-1-1-1h-2v-1.3
		c0-2.4,1.9-4.3,4.3-4.3h1.7H20h11.9h1.7c2.4,0,4.3,1.9,4.3,4.3v1.3H11.4c-0.6,0-1,0.5-1,1c0,0.6,0.5,1,1,1h26.6v3.5H2.1V20.9z"/>
	<path d="M7.9,18.8H7.3c-0.6,0-1,0.5-1,1c0,0.6,0.5,1,1,1h0.6c0.6,0,1-0.5,1-1C9,19.3,8.5,18.8,7.9,18.8z"/>
</g>
</svg>
