<svg width="26" height="40" viewBox="0 0 26 40" fill="none" xmlns="http://www.w3.org/2000/svg">
<path d="M24.9171 29.5601H0.87915V39.1209H24.9171V29.5601Z" fill="#6F97C7"/>
<path d="M24.9171 20H0.87915V29.56H24.9171V20Z" fill="#97C2F7"/>
<path d="M24.9171 10.4399H0.87915V19.9999H24.9171V10.4399Z" fill="#D2E3F7"/>
<path d="M24.9171 0.87915H0.87915V10.44H24.9171V0.87915Z" fill="#E6F6FF"/>
<path d="M24.9171 0H0.87914C0.393594 0 0 0.393594 0 0.879141V10.44V20V29.56V39.1209C0 39.6064 0.393594 40 0.87914 40H24.9171C25.4027 40 25.7963 39.6064 25.7963 39.1209V29.56V20V10.44V0.879141C25.7963 0.393594 25.4027 0 24.9171 0ZM1.75828 20.8791H24.038V28.6808H1.75828V20.8791ZM24.038 1.75828V9.56086H22.3052C21.8196 9.56086 21.426 9.95445 21.426 10.44C21.426 10.9255 21.8196 11.3191 22.3052 11.3191H24.038V19.1208H1.75828V11.3191H16.2095C16.6951 11.3191 17.0887 10.9255 17.0887 10.44C17.0887 9.95445 16.6951 9.56086 16.2095 9.56086H1.75828V1.75828H24.038ZM24.038 38.2416H1.75828V30.4391H24.038V38.2416Z" fill="black"/>
<path d="M19.316 11.3191H19.6677C20.1532 11.3191 20.5468 10.9255 20.5468 10.4399C20.5468 9.95439 20.1532 9.56079 19.6677 9.56079H19.316C18.8305 9.56079 18.4369 9.95439 18.4369 10.4399C18.4368 10.9255 18.8304 11.3191 19.316 11.3191Z" fill="black"/>
</svg>
