<svg width="40" height="40" viewBox="0 0 40 28" fill="none" xmlns="http://www.w3.org/2000/svg">
<path d="M35.6571 0H4.34293C1.94305 0 0 1.94305 0 4.34293V22.7075C0 25.1074 1.94305 27.0504 4.34293 27.0504H35.6571C38.057 27.0504 40 25.1074 40 22.7075V4.34293C40 1.94914 38.0509 0 35.6571 0ZM38.8305 22.7075C38.8305 24.4556 37.4052 25.8809 35.6571 25.8809H4.34293C2.59479 25.8809 1.16948 24.4556 1.16948 22.7075V4.34293C1.16948 2.5887 2.5887 1.16948 4.34293 1.16948H35.6571C37.4052 1.16948 38.8305 2.59479 38.8305 4.34293V22.7075Z" fill="black"/>
</svg>
