<svg width="40" height="40" viewBox="0 0 40 28" fill="none" xmlns="http://www.w3.org/2000/svg">
<g clip-path="url(#clip0)">
<path d="M36.2863 26.484H3.7749C2.07019 26.484 0.669881 25.0837 0.669881 23.379V3.77473C0.608999 2.00913 2.0093 0.608826 3.7749 0.608826H36.3472C38.0519 0.608826 39.4522 2.00913 39.4522 3.71385V23.3181C39.4522 25.0837 38.0519 26.484 36.2863 26.484Z" fill="#E4E8ED"/>
<path d="M28.1884 13.5769C28.1884 18.1431 24.5354 21.7961 19.9692 21.7961C15.403 21.7961 11.75 18.1431 11.75 13.5769C11.75 9.01066 15.403 5.3577 19.9692 5.3577C24.5354 5.3577 28.1884 9.01066 28.1884 13.5769Z" fill="#AAE79A"/>
<path d="M36.2864 24.1096H3.77494C2.07023 24.1096 0.669922 22.7093 0.669922 21.0046V23.3181C0.669922 25.0228 2.07023 26.4231 3.77494 26.4231H36.3472C38.052 26.4231 39.4523 25.0228 39.4523 23.3181V21.0046C39.4523 22.7093 38.052 24.1096 36.2864 24.1096Z" fill="#C8D1DA"/>
<path d="M19.9692 19.4216C15.8291 19.4216 12.4197 16.3775 11.8109 12.3592C11.75 12.7245 11.75 13.1507 11.75 13.516C11.75 18.0822 15.403 21.7352 19.9692 21.7352C24.5354 21.7352 28.1884 18.0822 28.1884 13.516C28.1884 13.0898 28.1884 12.7245 28.1275 12.3592C27.5795 16.3775 24.1092 19.4216 19.9692 19.4216Z" fill="#8EDF78"/>
<path d="M1.15677 23.3181V7.18417H0V23.3181C0 25.3881 1.64384 27.032 3.71385 27.032H6.14916V25.8752H3.71385C2.31355 25.8752 1.15677 24.7184 1.15677 23.3181Z" fill="black"/>
<path d="M38.7827 23.3181C38.7827 24.7184 37.6259 25.8752 36.2256 25.8752H7.36719V27.032H36.2865C38.3565 27.032 40.0004 25.3881 40.0004 23.3181V11.933H38.8436V23.3181H38.7827Z" fill="black"/>
<path d="M19.3607 0H3.71385C1.64384 0 0 1.64384 0 3.71385V6.0274H1.15677V3.77473C1.15677 2.37443 2.31355 1.21766 3.71385 1.21766H36.2861C37.6865 1.21766 38.8432 2.37443 38.8432 3.77473V10.7763H40V3.77473C40 1.70472 38.3562 0.0608828 36.2861 0.0608828H20.6393" fill="black"/>
<path d="M26.7884 7.97565C26.5448 7.67124 26.2404 7.36682 25.936 7.06241L25.1445 7.91477C25.3881 8.1583 25.6925 8.40183 25.8751 8.70624L26.7884 7.97565Z" fill="black"/>
<path d="M19.9696 5.90564C21.4917 5.90564 23.0138 6.39271 24.2923 7.24507L24.962 6.27094C23.5008 5.23593 21.7961 4.74887 19.9696 4.74887C15.099 4.74887 11.1416 8.70625 11.1416 13.5769C11.1416 18.4475 15.099 22.4049 19.9696 22.4049C24.8402 22.4049 28.7976 18.4475 28.7976 13.5769C28.7976 11.9939 28.3714 10.411 27.5191 9.01067L26.545 9.6195C27.2755 10.7763 27.6408 12.1766 27.6408 13.5769C27.6408 17.7778 24.2314 21.1872 20.0305 21.1872C15.8296 21.1872 12.4201 17.7778 12.4201 13.5769C12.4201 9.37596 15.7687 5.90564 19.9696 5.90564Z" fill="black"/>
<path d="M30.3802 19.239V21.0654H28.5537V22.2222H30.3802V24.0487H31.537V22.2222H33.3635V21.0654H31.537V19.239H30.3802Z" fill="black"/>
<path d="M6.69727 21.0046H11.3852V22.1614H6.69727V21.0046Z" fill="black"/>
<path d="M36.2251 3.59208H32.3286V2.4353H36.2251V3.59208ZM31.1718 3.59208H30.0151V2.4353H31.1718V3.59208ZM28.7974 3.59208H27.6406V2.4353H28.7974V3.59208Z" fill="white"/>
<path d="M17.3513 17.656C16.986 17.4125 16.6207 17.1081 16.3772 16.8036L17.2295 16.0122C17.4731 16.2557 17.7166 16.4992 18.021 16.6819L17.3513 17.656ZM15.5857 15.6469C15.2813 14.9772 15.0986 14.2466 15.0986 13.516C15.0986 11.8721 15.951 10.3501 17.3513 9.43683L18.021 10.411C16.986 11.0807 16.3163 12.2374 16.3163 13.516C16.3163 14.0639 16.4381 14.6119 16.6816 15.0989L15.5857 15.6469Z" fill="white"/>
<path d="M22.6482 17.656L21.9785 16.6819C22.2829 16.4992 22.5265 16.2557 22.77 16.0122L23.6224 16.8036C23.3788 17.1081 23.0135 17.4125 22.6482 17.656ZM24.4138 15.6469L23.3788 15.1598C23.6224 14.6727 23.7441 14.1248 23.7441 13.5769C23.7441 12.2983 23.1353 11.1415 22.0394 10.4718L22.7091 9.49771C24.1094 10.411 24.9618 11.933 24.9618 13.5769C24.9009 14.3075 24.7182 15.038 24.4138 15.6469Z" fill="white"/>
<path d="M19.4219 7.24506H20.5786V11.1416H19.4219V7.24506Z" fill="white"/>
</g>
<defs>
<clipPath id="clip0">
<rect width="40" height="27.032" fill="white"/>
</clipPath>
</defs>
</svg>
