<svg width="31" height="40" viewBox="0 0 31 40" fill="none" xmlns="http://www.w3.org/2000/svg">
<path d="M0.723508 36.6688C-0.773201 38.1776 0.289802 40 1.761 40H26.9414C27.1115 40 27.2646 39.9322 27.3836 39.8135C28.8803 38.3047 27.8173 36.4823 26.3461 36.4823H22.0431C21.9581 35.8212 21.7285 35.1854 21.3543 34.626C21.0821 34.2106 20.3848 34.253 20.2317 34.9481C20.2147 35.0074 20.2317 35.0668 20.2658 35.1176C20.5634 35.5245 20.759 35.9907 20.8525 36.4823H7.2546C7.53523 34.9311 8.89588 33.7444 10.5287 33.7444H17.5785C17.9782 33.7444 18.3609 33.8123 18.7265 33.9479C19.0667 34.075 19.4494 33.8631 19.5089 33.4817C19.5514 33.202 19.3728 32.9392 19.1007 32.8375C18.6075 32.6595 18.0972 32.5747 17.57 32.5747H15.6311C14.9252 30.837 13.8282 27.7008 13.318 24.1238C12.8588 20.8858 12.9608 17.9021 13.6326 15.2829C14.2619 12.8163 15.41 10.6294 17.0427 8.78152L20.0021 13.5622C20.0021 13.5622 20.0021 13.5622 20.0021 13.5707L21.4988 15.9864C21.5924 16.139 21.754 16.2407 21.9326 16.2577C21.9581 16.2577 21.9751 16.2577 22.0006 16.2577C22.1537 16.2577 22.3067 16.1983 22.4173 16.0882L30.7342 7.78979C30.8618 7.66264 30.9213 7.48464 30.9043 7.30663C30.8873 7.12863 30.7852 6.96758 30.6322 6.87434L25.972 4.00085C25.6998 3.83132 25.3342 3.91608 25.1641 4.18733C24.994 4.45857 25.079 4.82306 25.3512 4.99258L26.9584 5.98432L20.6144 12.3077L17.9697 8.0356C17.604 7.44225 17.1703 6.89129 16.6941 6.38271L16.6856 6.37423C16.4815 6.1708 16.3114 5.94194 16.1753 5.69612C16.1753 5.68765 16.1668 5.68765 16.1668 5.67917C15.9202 5.2384 15.7926 4.72982 15.7926 4.21276C15.7926 3.27188 16.2178 2.39034 16.9832 1.79699C17.4084 1.46641 17.9272 1.24603 18.4629 1.18669C19.4239 1.06802 20.3423 1.39012 21.0141 2.05976L21.0226 2.06823C21.5244 2.55139 22.0856 2.97521 22.6724 3.33969L23.2167 3.67875C23.5313 3.8737 23.948 3.73808 24.0841 3.3736C24.1776 3.11083 24.0586 2.82263 23.8204 2.67853L23.2932 2.35643C22.7915 2.03433 22.2982 1.65289 21.856 1.22907C21.0566 0.440771 19.9936 0 18.8626 0C17.7316 0 16.6686 0.440771 15.8692 1.23755C15.0698 2.03433 14.6276 3.09388 14.6276 4.22971C14.6276 4.79763 14.7381 5.35707 14.9592 5.86565C13.5986 7.2812 12.4761 8.88324 11.6172 10.6294C11.4726 10.9176 11.5917 11.2736 11.8893 11.4092C11.9743 11.4516 12.0594 11.4685 12.1444 11.4685C12.3655 11.4685 12.5696 11.3499 12.6717 11.138C13.4285 9.59525 14.4065 8.1797 15.5885 6.90824C15.6736 7.00996 15.7671 7.12015 15.8692 7.21339C16.0478 7.39987 16.2178 7.59483 16.3709 7.78979C14.5085 9.82412 13.2074 12.2484 12.5101 14.9947C11.8043 17.7665 11.6852 20.8943 12.1699 24.2933C12.6547 27.7093 13.6581 30.7269 14.381 32.5832H13.1139C12.3825 30.6506 11.4811 27.7855 11.0134 24.5221C10.5031 20.9621 10.6222 17.6732 11.362 14.7404C11.4811 14.2827 11.6087 13.8334 11.7532 13.4011C11.8638 13.0706 11.6597 12.7146 11.311 12.6383C11.0134 12.5789 10.7242 12.7654 10.6307 13.0536C10.4776 13.5113 10.3416 13.9775 10.2225 14.4522C9.44014 17.5291 9.32108 20.979 9.84833 24.6832C10.299 27.8279 11.1409 30.6082 11.8638 32.5832H10.5372C8.24957 32.5832 6.36168 34.2869 6.07254 36.4908H1.16572C0.995637 36.4823 0.842564 36.5501 0.723508 36.6688ZM22.1281 14.7574L21.2692 13.3672L28.0044 6.65395L29.3991 7.51854L22.1281 14.7574ZM1.761 37.6605H26.3461C26.6693 37.6605 26.9329 37.9233 26.9329 38.2454C26.9329 38.5675 26.6693 38.8303 26.3461 38.8303H1.78651C1.48887 38.8303 1.21674 38.6184 1.18273 38.3217C1.14021 37.9572 1.41233 37.6605 1.761 37.6605Z" fill="black"/>
</svg>
