<svg width="40" height="36" viewBox="0 0 40 36" fill="none" xmlns="http://www.w3.org/2000/svg">
<path d="M19.2178 31.5486V35.1678C19.2178 35.569 19.4975 35.9265 19.8789 35.9876C20.3621 36.0573 20.7774 35.6736 20.7774 35.194V31.5225C20.7774 31.0428 20.3621 30.6591 19.8789 30.7289C19.4975 30.7812 19.2178 31.1475 19.2178 31.5486Z" fill="black"/>
<path d="M12.5317 28.1391L9.01402 31.7583C8.70887 32.0723 8.70887 32.5781 9.01402 32.892C9.16659 33.049 9.37003 33.1275 9.56498 33.1275C9.76842 33.1275 9.96337 33.049 10.1159 32.892L13.6336 29.2728C13.9388 28.9589 13.9388 28.4531 13.6336 28.1391C13.3285 27.8252 12.8369 27.8252 12.5317 28.1391Z" fill="black"/>
<path d="M29.0495 29.7436C28.7444 29.4297 28.2528 29.4297 27.9476 29.7436C27.6425 30.0576 27.6425 30.5634 27.9476 30.8773L29.9057 32.8831C30.0582 33.0401 30.2617 33.1186 30.4566 33.1186C30.6601 33.1186 30.855 33.0401 31.0076 32.8831C31.3127 32.5692 31.3127 32.0634 31.0076 31.7494L29.0495 29.7436Z" fill="black"/>
<path d="M27.5079 28.1566L27.4909 28.1391C27.1858 27.8252 26.6942 27.8252 26.389 28.1391C26.0839 28.4531 26.0839 28.9589 26.389 29.2728L26.406 29.2903C26.5585 29.4473 26.762 29.5257 26.9569 29.5257C27.1604 29.5257 27.3553 29.4473 27.5079 29.2903C27.8131 28.9763 27.8131 28.4705 27.5079 28.1566Z" fill="black"/>
<path d="M22.422 12.3384H22.3457V12.4169H22.422V12.3384Z" fill="black"/>
<path d="M39.8051 21.3635C36.0928 17.0994 31.3296 14.1957 25.9985 12.9487C25.9477 9.87055 23.6932 7.33302 20.7861 6.94062V0.8279C20.7861 0.42678 20.5064 0.0692599 20.1165 0.00821985C19.6334 -0.0615402 19.2181 0.32214 19.2181 0.80174V6.94062C16.3195 7.33302 14.065 9.86183 14.0057 12.94C12.2852 13.3498 10.5986 13.9341 8.97129 14.7014C5.615 16.2798 2.66554 18.5121 0.199174 21.3548C-0.063566 21.6513 -0.0720415 22.1134 0.207649 22.4361C0.360208 22.6105 0.572095 22.6977 0.800932 22.6977H14.5482C14.5312 22.8634 14.5227 23.029 14.5227 23.2034C14.5227 26.3078 16.9806 28.8366 19.9979 28.8366C23.0152 28.8366 25.473 26.3078 25.473 23.2034C25.473 23.0378 25.4646 22.8721 25.4476 22.6977H39.1948C39.4152 22.6977 39.6356 22.6105 39.7881 22.4361C40.0763 22.1309 40.0593 21.6687 39.8051 21.3635ZM20.0064 27.2408C17.8451 27.2408 16.0907 25.4358 16.0907 23.2122C16.0907 23.0465 16.0992 22.8721 16.1246 22.7064H23.8966C23.9135 22.8721 23.9305 23.0378 23.9305 23.2122C23.9305 25.427 22.1676 27.2408 20.0064 27.2408ZM2.66554 21.1019C7.30162 16.489 13.5396 13.873 20.0318 13.8643C20.4217 13.8643 20.7691 13.5765 20.82 13.1841C20.8878 12.6871 20.5149 12.2598 20.0487 12.2598C18.557 12.2598 17.0823 12.3819 15.6415 12.6348C15.8534 10.324 17.7519 8.51023 20.0487 8.51023C22.4897 8.51023 24.4814 10.5507 24.4814 13.0708C24.4814 13.219 24.4729 13.376 24.456 13.5242C24.4475 13.6027 24.456 13.6899 24.4645 13.7684C24.4645 13.7858 24.4729 13.812 24.4814 13.8294C24.4814 13.8382 24.4814 13.8382 24.4814 13.8469C24.4899 13.873 24.4984 13.8905 24.5068 13.9166C24.5068 13.9166 24.5068 13.9166 24.5068 13.9254C24.5153 13.9428 24.5238 13.9602 24.5323 13.9864C24.5323 13.9864 24.5323 13.9951 24.5407 13.9951C24.5492 14.0125 24.5577 14.0213 24.5662 14.0387C24.5746 14.0474 24.5746 14.0562 24.5746 14.0562C24.5831 14.0649 24.5916 14.0736 24.6001 14.091C24.6085 14.0997 24.617 14.1085 24.6255 14.1172C24.634 14.1259 24.634 14.1346 24.6424 14.1346C24.6509 14.1433 24.6679 14.1608 24.6763 14.1695L24.6848 14.1782C24.7018 14.1957 24.7102 14.2044 24.7272 14.2218C24.7272 14.2218 24.7357 14.2218 24.7357 14.2305C24.7526 14.248 24.7696 14.2567 24.7865 14.2742C24.7865 14.2742 24.795 14.2741 24.795 14.2829C24.812 14.2916 24.8289 14.309 24.8459 14.3177C24.9137 14.3526 24.9899 14.3875 25.0662 14.3962C29.7447 15.3642 33.9824 17.675 37.4235 21.1106L2.66554 21.1019Z" fill="black"/>
<path d="M22.3464 12.3383L22.2616 13.1407L22.3464 12.3383C22.3379 12.3383 22.3379 12.3383 22.3379 12.3383C21.9141 12.2947 21.5326 12.6174 21.4903 13.0534C21.4479 13.4982 21.753 13.8907 22.1853 13.943C22.2023 13.943 22.2192 13.943 22.2447 13.9517C22.2531 13.9517 22.2701 13.9517 22.2786 13.9517C22.6939 13.9517 23.0414 13.6203 23.0584 13.1843C23.0753 12.7482 22.7617 12.3819 22.3464 12.3383Z" fill="black"/>
<path d="M22.422 12.3383H22.3457V12.4168H22.422V12.3383Z" fill="black"/>
<path d="M2.66602 21.1028C7.3021 16.4899 13.54 13.8739 20.0323 13.8652C20.4221 13.8652 20.7696 13.5775 20.8205 13.1851C20.8883 12.688 20.5154 12.2607 20.0492 12.2607C18.5575 12.2607 17.0828 12.3828 15.642 12.6357C15.8539 10.3249 17.7524 8.51114 20.0492 8.51114C22.4901 8.51114 24.4819 10.5516 24.4819 13.0717C24.4819 13.2199 24.4734 13.3769 24.4565 13.5251C24.448 13.6036 24.4565 13.6908 24.4649 13.7693C24.4649 13.7867 24.4734 13.8129 24.4819 13.8303C24.4819 13.8391 24.4819 13.8391 24.4819 13.8478C24.4904 13.8739 24.4988 13.8914 24.5073 13.9175C24.5073 13.9175 24.5073 13.9175 24.5073 13.9263C24.5158 13.9437 24.5243 13.9611 24.5327 13.9873C24.5327 13.9873 24.5327 13.996 24.5412 13.996C24.5497 14.0135 24.5582 14.0222 24.5666 14.0396C24.5751 14.0483 24.5751 14.0571 24.5751 14.0571C24.5836 14.0658 24.5921 14.0745 24.6005 14.0919C24.609 14.1007 24.6175 14.1094 24.626 14.1181C24.6344 14.1268 24.6344 14.1355 24.6429 14.1355C24.6514 14.1443 24.6683 14.1617 24.6768 14.1704L24.6853 14.1791C24.7022 14.1966 24.7107 14.2053 24.7277 14.2227C24.7277 14.2227 24.7361 14.2227 24.7361 14.2315C24.7531 14.2489 24.7701 14.2576 24.787 14.2751C24.787 14.2751 24.7955 14.2751 24.7955 14.2838C24.8124 14.2925 24.8294 14.3099 24.8463 14.3187C24.9141 14.3535 24.9904 14.3884 25.0667 14.3971C29.7452 15.3651 33.9829 17.6759 37.4239 21.1115L2.66602 21.1028Z" fill="#67E5DD"/>
<path d="M20.0059 27.2412C17.8445 27.2412 16.0898 25.436 16.0898 23.2122C16.0898 23.0465 16.0983 22.872 16.1238 22.7063H23.8966C23.9135 22.872 23.9305 23.0377 23.9305 23.2122C23.9305 25.4273 22.1674 27.2412 20.0059 27.2412Z" fill="#FFD517"/>
</svg>
