<svg width="28" height="40" viewBox="0 0 28 40" fill="none" xmlns="http://www.w3.org/2000/svg">
<path d="M14.712 1.99925V1.30411C14.712 0.600487 14.2798 0.0748928 13.698 0.00707415C13.0081 -0.0692218 12.418 0.481805 12.418 1.16847V2.03316C12.418 2.7283 13.0081 3.27932 13.698 3.19455C14.2798 3.12673 14.712 2.60114 14.712 1.99925Z" fill="black"/>
<path d="M19.7404 4.88152C19.9232 4.99172 20.1227 5.04259 20.3139 5.04259C20.7129 5.04259 21.0952 4.83066 21.3113 4.45765L21.7352 3.71165C22.051 3.15214 21.8682 2.43157 21.3113 2.10943C20.7627 1.78729 20.0562 1.9738 19.7404 2.54178L19.3165 3.28778C19.0006 3.83881 19.1918 4.55938 19.7404 4.88152Z" fill="black"/>
<path d="M26.9885 7.88252C26.6727 7.32302 25.9662 7.12804 25.4176 7.45018L24.6945 7.88252C24.1459 8.20466 23.9548 8.92523 24.2706 9.48474C24.4867 9.85774 24.869 10.0697 25.268 10.0697C25.4592 10.0697 25.6586 10.0188 25.8415 9.9086L26.5729 9.47626C27.1215 9.1626 27.3044 8.44203 26.9885 7.88252Z" fill="black"/>
<path d="M2.45226 7.91643L1.72083 7.48408C1.17226 7.16194 0.474079 7.35692 0.158235 7.91643C-0.16592 8.47593 0.0252483 9.1965 0.573819 9.51864L1.30525 9.95098C1.4881 10.0612 1.68758 10.1121 1.87875 10.1121C2.27771 10.1121 2.66005 9.90012 2.87615 9.52712C3.192 8.95914 3.00083 8.23856 2.45226 7.91643Z" fill="black"/>
<path d="M5.81851 4.47462C6.03462 4.84762 6.41695 5.05956 6.81591 5.05956C7.00708 5.05956 7.20656 5.00869 7.38942 4.89849C7.93799 4.57635 8.12916 3.85578 7.81331 3.29627L7.38942 2.55027C7.07358 1.99076 6.36708 1.80426 5.81851 2.1264C5.26994 2.44854 5.07877 3.16911 5.39462 3.72862L5.81851 4.47462Z" fill="black"/>
<path d="M15.8592 35.3236C15.8592 36.68 14.7288 37.7651 13.3823 37.6634C12.1771 37.5701 11.2629 36.5105 11.2629 35.2812V33.9927H15.8592V35.3236ZM17.0062 31.6529H10.1075V29.3047H17.0062V31.6529ZM17.347 26.965H9.78337C9.5174 26.1851 6.30078 16.8854 6.30078 16.8854H20.8296C20.2893 18.4368 17.347 26.965 17.347 26.965Z" fill="white"/>
<path d="M20.6135 8.54376C18.7267 6.63636 16.2166 5.58517 13.5569 5.58517C10.8971 5.58517 8.39531 6.63636 6.50025 8.54376C5.59427 9.45084 4.86285 10.5359 4.35584 11.7228C3.84882 12.9181 3.56623 14.2066 3.52467 15.5037C3.51636 15.7664 3.5496 16.0123 3.64103 16.2581C3.66597 16.3175 7.78856 28.262 7.80518 28.3298V32.8144C7.80518 33.4332 8.23739 33.9418 8.95219 33.9842V35.2474C8.95219 37.7566 10.8639 39.876 13.3241 39.9947C15.9589 40.1218 18.1449 37.9686 18.1449 35.3152V33.9842C18.7766 33.9842 19.2919 33.4586 19.2919 32.8144V28.3298C19.8155 26.8039 23.2067 17.038 23.3314 16.699C23.4311 16.4192 23.589 15.8682 23.5807 15.6562C23.4394 12.9605 22.4919 10.4342 20.6135 8.54376ZM15.8592 35.3236C15.8592 36.68 14.7288 37.7651 13.3823 37.6634C12.1771 37.5701 11.2628 36.5105 11.2628 35.2813V33.9927H15.8592V35.3236ZM17.0062 31.653H10.1075V29.3047H17.0062V31.653ZM17.347 26.965H9.78336C9.51739 26.1851 6.30077 16.8855 6.30077 16.8855H20.8296C20.2893 18.4368 17.347 26.965 17.347 26.965ZM5.92674 14.5372C6.53349 10.8072 9.7418 7.93339 13.5569 7.93339C17.3719 7.93339 20.5802 10.7987 21.187 14.5372H5.92674Z" fill="black"/>
<path d="M5.92578 14.5372C6.53253 10.8072 9.74084 7.93338 13.5559 7.93338C17.371 7.93338 20.5793 10.7987 21.186 14.5372H5.92578Z" fill="#FFD517"/>
</svg>
