<svg width="212" height="159" viewBox="0 0 212 159" fill="none" xmlns="http://www.w3.org/2000/svg">
<g clip-path="url(#clip0)">
<path d="M105.541 6.23733L5.64258 27.6258V133.289L105.135 152.941L205.439 133.289V27.6258L105.541 6.23733Z" fill="white"/>
<path d="M105.135 158.676C104.774 158.676 104.412 158.63 104.051 158.562L4.5593 138.91C1.91852 138.384 0 136.031 0 133.288V27.6256C0 24.9292 1.87338 22.5984 4.46902 22.0271L104.367 0.638606C105.135 0.478649 105.925 0.478649 106.692 0.638606L206.59 22.0271C209.209 22.5755 211.059 24.9063 211.059 27.6256V133.288C211.059 136.031 209.141 138.384 206.478 138.887L106.173 158.539C105.857 158.63 105.496 158.676 105.135 158.676ZM11.2854 128.581L105.135 147.113L199.797 128.558V32.2415L105.541 12.0869L11.2854 32.2415V128.581Z" fill="black"/>
<path d="M74.6868 85.5759L36.9033 93.6651V53.8587L74.6868 45.7923V85.5759Z" fill="white"/>
<path d="M36.9032 97.0928C36.1358 97.0928 35.391 96.8186 34.7815 96.3387C33.9916 95.6989 33.5176 94.7163 33.5176 93.6651V53.8587C33.5176 52.2363 34.6461 50.8424 36.2035 50.4996L73.987 42.4104C74.9801 42.2047 76.0184 42.4561 76.8083 43.0959C77.5983 43.7358 78.0723 44.7183 78.0723 45.7695V85.5759C78.0723 87.1983 76.9438 88.5922 75.3864 88.935L37.6029 97.0242C37.3772 97.0699 37.1515 97.0928 36.9032 97.0928ZM40.2888 56.6466V89.4377L71.3011 82.8109V50.0198L40.2888 56.6466Z" fill="black"/>
<path d="M163.683 125.039V49.0829L134.341 42.479V118.436" fill="white"/>
<path d="M163.683 128.467C161.81 128.467 160.298 126.936 160.298 125.039V51.825L137.727 46.7521V118.436C137.727 120.332 136.215 121.863 134.341 121.863C132.468 121.863 130.956 120.332 130.956 118.436V42.479C130.956 41.4278 131.43 40.4452 132.22 39.8054C133.01 39.1427 134.07 38.9142 135.063 39.1427L164.405 45.7466C165.963 46.0894 167.046 47.4833 167.046 49.0829V125.039C167.069 126.936 165.557 128.467 163.683 128.467Z" fill="black"/>
<path d="M105.135 10.1448C103.261 10.1448 101.749 8.61382 101.749 6.71719V6.14591C101.749 4.24928 103.261 2.71827 105.135 2.71827C107.008 2.71827 108.52 4.24928 108.52 6.14591V6.71719C108.52 8.61382 107.008 10.1448 105.135 10.1448Z" fill="black"/>
<path d="M104.999 100.749C103.126 100.749 101.614 99.2179 101.614 97.3213V96.1559C101.614 94.2592 103.126 92.7282 104.999 92.7282C106.873 92.7282 108.385 94.2592 108.385 96.1559V97.3213C108.385 99.2179 106.873 100.749 104.999 100.749ZM105.135 85.6444C103.261 85.6444 101.749 84.1134 101.749 82.2168V81.0514C101.749 79.1548 103.261 77.6237 105.135 77.6237C107.008 77.6237 108.52 79.1548 108.52 81.0514V82.2168C108.52 84.1134 107.008 85.6444 105.135 85.6444ZM105.135 70.5399C103.261 70.5399 101.749 69.0089 101.749 67.1123V65.9469C101.749 64.0503 103.261 62.5192 105.135 62.5192C107.008 62.5192 108.52 64.0503 108.52 65.9469V67.1123C108.52 69.0089 107.008 70.5399 105.135 70.5399ZM105.135 55.4583C103.261 55.4583 101.749 53.9273 101.749 52.0307V50.8653C101.749 48.9686 103.261 47.4376 105.135 47.4376C107.008 47.4376 108.52 48.9686 108.52 50.8653V52.0307C108.52 53.9273 107.008 55.4583 105.135 55.4583ZM105.135 40.3538C103.261 40.3538 101.749 38.8228 101.749 36.9262V35.7608C101.749 33.8641 103.261 32.3331 105.135 32.3331C107.008 32.3331 108.52 33.8641 108.52 35.7608V36.9262C108.52 38.8228 107.008 40.3538 105.135 40.3538ZM105.135 25.2493C103.261 25.2493 101.749 23.7183 101.749 21.8217V20.6563C101.749 18.7597 103.261 17.2286 105.135 17.2286C107.008 17.2286 108.52 18.7597 108.52 20.6563V21.8217C108.52 23.7183 107.008 25.2493 105.135 25.2493ZM108.385 111.626C108.385 113.523 106.873 115.054 104.999 115.054C103.126 115.054 101.614 113.523 101.614 111.626C101.614 109.729 103.126 108.198 104.999 108.198C106.873 108.198 108.385 109.729 108.385 111.626Z" fill="black"/>
<path d="M191.671 133.769C191.446 133.769 191.197 133.746 190.972 133.7L189.866 133.471C188.037 133.083 186.864 131.255 187.247 129.404C187.631 127.553 189.437 126.365 191.265 126.753L192.371 126.982C194.199 127.37 195.373 129.198 194.989 131.049C194.651 132.672 193.229 133.769 191.671 133.769ZM177.339 130.707C177.113 130.707 176.865 130.684 176.639 130.638L175.533 130.409C173.705 130.021 172.531 128.193 172.915 126.342C173.299 124.491 175.104 123.303 176.933 123.691L178.039 123.92C179.867 124.308 181.041 126.136 180.657 127.987C180.318 129.61 178.896 130.707 177.339 130.707ZM148.674 124.582C148.448 124.582 148.2 124.56 147.974 124.514L146.868 124.285C145.04 123.897 143.866 122.069 144.25 120.218C144.634 118.367 146.44 117.179 148.268 117.567L149.374 117.796C151.202 118.184 152.376 120.012 151.992 121.863C151.653 123.463 150.254 124.582 148.674 124.582ZM120.032 118.436C119.806 118.436 119.558 118.413 119.332 118.367L118.226 118.138C116.398 117.75 115.224 115.922 115.608 114.071C115.992 112.22 117.797 111.032 119.625 111.42L120.731 111.649C122.56 112.037 123.733 113.865 123.35 115.716C122.988 117.339 121.589 118.436 120.032 118.436Z" fill="black"/>
<path d="M205.439 136.716C205.213 136.716 204.965 136.693 204.739 136.648L204.198 136.534C202.37 136.145 201.196 134.317 201.58 132.466C201.963 130.615 203.769 129.427 205.597 129.815L206.139 129.93C207.967 130.318 209.141 132.146 208.757 133.997C208.418 135.619 207.019 136.716 205.439 136.716Z" fill="black"/>
<path d="M105.134 158.836C102.494 158.836 100.124 156.939 99.6046 154.22C98.9952 151.135 101.004 148.119 104.051 147.525L104.457 147.433C107.504 146.839 110.484 148.85 111.071 151.935C111.68 155.02 109.671 158.036 106.624 158.63L106.218 158.722C105.857 158.79 105.496 158.836 105.134 158.836Z" fill="black"/>
<path d="M19.2978 133.791C17.7404 133.791 16.3185 132.695 15.9799 131.072C15.5962 129.221 16.7699 127.393 18.5981 127.005L19.6815 126.776C21.4872 126.388 23.3154 127.576 23.6991 129.427C24.0828 131.278 22.9091 133.106 21.0809 133.494L19.9975 133.723C19.7718 133.769 19.5461 133.791 19.2978 133.791ZM33.5174 130.752C31.96 130.752 30.5381 129.655 30.1995 128.033C29.8158 126.182 30.9895 124.354 32.8177 123.965L33.9011 123.737C35.7294 123.349 37.535 124.537 37.9187 126.388C38.3024 128.239 37.1287 130.067 35.3005 130.455L34.2171 130.684C33.9914 130.729 33.7431 130.752 33.5174 130.752ZM47.737 127.713C46.1796 127.713 44.7577 126.616 44.4191 124.994C44.0354 123.143 45.2091 121.315 47.0373 120.926L48.1207 120.698C49.9264 120.309 51.7546 121.475 52.1383 123.349C52.522 125.199 51.3483 127.028 49.5201 127.416L48.4367 127.644C48.211 127.69 47.9627 127.713 47.737 127.713ZM61.934 124.674C60.3766 124.674 58.9547 123.577 58.6161 121.955C58.2324 120.104 59.4061 118.276 61.2343 117.887L62.3177 117.659C64.1234 117.27 65.9516 118.458 66.3353 120.309C66.719 122.16 65.5454 123.988 63.7171 124.377L62.6337 124.605C62.408 124.651 62.1823 124.674 61.934 124.674ZM76.1536 121.635C74.5962 121.635 73.1743 120.538 72.8357 118.915C72.452 117.065 73.6257 115.236 75.4539 114.848L76.5373 114.619C78.3656 114.231 80.1712 115.419 80.5549 117.27C80.9386 119.121 79.7649 120.949 77.9367 121.338L76.8533 121.566C76.6276 121.612 76.3793 121.635 76.1536 121.635ZM90.3732 118.596C88.8158 118.596 87.3939 117.499 87.0553 115.876C86.6716 114.025 87.8453 112.197 89.6735 111.809L90.7569 111.58C92.5626 111.169 94.3908 112.357 94.7745 114.231C95.1582 116.082 93.9846 117.91 92.1563 118.298L91.0729 118.527C90.8472 118.573 90.5989 118.596 90.3732 118.596Z" fill="black"/>
<path d="M5.64255 136.716C4.08516 136.716 2.6632 135.597 2.32464 133.997C1.94094 132.146 3.11462 130.318 4.94285 129.93L5.50712 129.815C7.31278 129.427 9.14102 130.615 9.50215 132.466C9.88585 134.317 8.71217 136.145 6.88394 136.534L6.31967 136.648C6.09396 136.693 5.86825 136.716 5.64255 136.716Z" fill="black"/>
</g>
<defs>
<clipPath id="clip0">
<rect y="0.52459" width="211.082" height="158.311" fill="white"/>
</clipPath>
</defs>
</svg>
