<svg width="226" height="199" viewBox="0 0 226 199" fill="none" xmlns="http://www.w3.org/2000/svg">
<g clip-path="url(#clip0)">
<path d="M198.481 190.073H118.988H106.356H26.8628V98.1386L111.747 12.0184L198.481 98.482V190.073Z" fill="white"/>
<path d="M223.471 108.783L116.224 1.85426C115.036 0.663872 113.414 0 111.747 0H111.724C110.034 0 108.412 0.686764 107.224 1.90005L1.82729 108.829C-0.639733 111.347 -0.61689 115.376 1.87298 117.849C4.38568 120.321 8.40602 120.298 10.873 117.803L18.5711 109.997V192.477C18.5711 195.682 21.1523 198.269 24.3503 198.269H106.584H118.737H200.971C204.169 198.269 206.75 195.682 206.75 192.477V110.111L214.494 117.826C215.727 119.062 217.349 119.68 218.994 119.68C220.639 119.68 222.26 119.062 223.517 117.803C225.984 115.308 225.961 111.279 223.471 108.783ZM195.214 186.685H118.737H106.584H30.1524V98.253L111.77 15.4293L195.192 98.5964V186.685H195.214Z" fill="black"/>
</g>
<defs>
<clipPath id="clip0">
<rect width="225.344" height="198.246" fill="white"/>
</clipPath>
</defs>
</svg>
