<?xml version="1.0" encoding="utf-8"?>
<!-- Generator: Adobe Illustrator 24.0.1, SVG Export Plug-In . SVG Version: 6.00 Build 0)  -->
<svg version="1.1" id="Layer_1" xmlns="http://www.w3.org/2000/svg" xmlns:xlink="http://www.w3.org/1999/xlink" x="0px" y="0px"
	 viewBox="0 0 613 344" style="enable-background:new 0 0 613 344;" xml:space="preserve">
<style type="text/css">
	.st0{opacity:0.2;fill:#C4C4C4;enable-background:new    ;}
</style>
<g>
	<path class="st0" d="M611.2-0.1H1.2C0.6-0.1,0,0.4,0,1.1c0,0.7,0.6,1.3,1.2,1.3h610c0.7,0,1.2-0.7,1.2-1.3
		C612.4,0.5,611.9-0.1,611.2-0.1z"/>
	<path class="st0" d="M571.2,60.2c0-0.6-0.5-1.2-1.2-1.2H356.5c-0.6,0-1.2,0.6-1.2,1.2c0,0.6,0.5,1.2,1.2,1.2H570
		C570.7,61.4,571.2,60.8,571.2,60.2z"/>
	<path class="st0" d="M253.7,59H43c-0.6,0-1.2,0.6-1.2,1.2c0,0.6,0.5,1.2,1.2,1.2h210.7c0.7,0,1.2-0.6,1.2-1.2
		C254.9,59.6,254.4,59,253.7,59z"/>
	<path class="st0" d="M451.6,224.4c-0.6,0.3-0.8,1.1-0.4,1.7l1.8,2.7c0.2,0.4,0.6,0.6,1,0.6c0.3,0,0.5-0.1,0.7-0.2
		c0.6-0.3,0.8-1.1,0.4-1.7l-1.8-2.7C453,224.2,452.2,224,451.6,224.4z"/>
	<path class="st0" d="M444.5,213.4c-0.6,0.3-0.8,1.1-0.4,1.7l4.2,6.4c0.2,0.4,0.6,0.6,1,0.6c0.2,0,0.4-0.1,0.7-0.2
		c0.6-0.3,0.8-1.1,0.4-1.7l-4.2-6.4C445.9,213.2,445.1,213,444.5,213.4z"/>
	<path class="st0" d="M434.5,198.5c-0.6,0.3-0.8,1.1-0.4,1.7l6.9,10.6c0.2,0.4,0.6,0.6,1,0.6c0.3,0,0.5-0.1,0.7-0.2
		c0.6-0.3,0.8-1.1,0.4-1.7l-6.9-10.6C435.9,198.3,435.1,198.1,434.5,198.5z"/>
	<path class="st0" d="M421.6,178.6c-0.6,0.3-0.8,1.1-0.4,1.7l9.1,14c0.2,0.4,0.6,0.6,1,0.6c0.2,0,0.5-0.1,0.7-0.2
		c0.6-0.3,0.8-1.1,0.4-1.7l-9.1-14C423,178.4,422.2,178.2,421.6,178.6z"/>
	<path class="st0" d="M404.1,151.7c-0.6,0.3-0.8,1.1-0.4,1.7l13.7,21.1c0.2,0.4,0.6,0.6,1,0.6c0.2,0,0.5-0.1,0.7-0.2
		c0.6-0.3,0.8-1.1,0.4-1.7l-13.7-21.1C405.5,151.5,404.7,151.3,404.1,151.7z"/>
	<path class="st0" d="M379.9,114.7c-0.6,0.3-0.8,1.1-0.4,1.7l20.1,30.8c0.2,0.4,0.6,0.6,1,0.6c0.3,0,0.5,0,0.7-0.2
		c0.6-0.3,0.8-1.1,0.4-1.7l-20.1-30.8C381.3,114.5,380.5,114.4,379.9,114.7z"/>
	<path class="st0" d="M353.7,74.4c-0.6,0.3-0.8,1.1-0.4,1.7l22.1,33.9c0.2,0.4,0.6,0.6,1,0.6c0.2,0,0.4,0,0.7-0.2
		c0.6-0.3,0.8-1.1,0.4-1.7l-22.1-33.9C355.1,74.2,354.3,74,353.7,74.4z"/>
	<path class="st0" d="M159.7,224.8l-1.8,2.7c-0.3,0.5-0.2,1.3,0.4,1.7c0.2,0.1,0.5,0.2,0.7,0.2c0.4,0,0.8-0.2,1-0.6l1.8-2.7
		c0.3-0.5,0.2-1.3-0.4-1.7C160.9,224.1,160.1,224.2,159.7,224.8z"/>
	<path class="st0" d="M166.9,213.8l-4.2,6.4c-0.3,0.5-0.2,1.3,0.4,1.7c0.2,0.1,0.5,0.2,0.7,0.2c0.4,0,0.8-0.2,1-0.6l4.2-6.4
		c0.3-0.5,0.2-1.3-0.4-1.7C168.1,213.1,167.3,213.2,166.9,213.8z"/>
	<path class="st0" d="M176.8,198.9l-6.9,10.6c-0.3,0.5-0.2,1.3,0.4,1.7c0.2,0.1,0.5,0.2,0.7,0.2c0.4,0,0.8-0.2,1-0.6l6.9-10.6
		c0.3-0.5,0.2-1.3-0.4-1.7C178,198.2,177.2,198.3,176.8,198.9z"/>
	<path class="st0" d="M189.8,179l-9.1,14c-0.3,0.5-0.2,1.3,0.4,1.7c0.2,0.1,0.5,0.2,0.7,0.2c0.4,0,0.8-0.2,1-0.6l9.1-14
		c0.3-0.5,0.2-1.3-0.4-1.7C191,178.3,190.2,178.4,189.8,179z"/>
	<path class="st0" d="M207.3,152.1l-13.7,21.1c-0.3,0.5-0.2,1.3,0.4,1.7c0.2,0.1,0.5,0.2,0.7,0.2c0.4,0,0.8-0.2,1-0.6l13.7-21.1
		c0.3-0.5,0.2-1.3-0.4-1.7C208.5,151.4,207.7,151.5,207.3,152.1z"/>
	<path class="st0" d="M231.5,115.1l-20.1,30.8c-0.3,0.5-0.2,1.3,0.4,1.7c0.2,0.1,0.5,0.2,0.7,0.2c0.4,0,0.8-0.2,1-0.6l20.1-30.8
		c0.3-0.5,0.2-1.3-0.4-1.7C232.7,114.4,231.9,114.5,231.5,115.1z"/>
	<path class="st0" d="M236,110.4c0.2,0.1,0.5,0.2,0.7,0.2c0.4,0,0.8-0.2,1-0.6l22.1-33.9c0.3-0.5,0.2-1.3-0.4-1.7
		c-0.5-0.3-1.3-0.2-1.7,0.4l-22.1,33.9C235.3,109.2,235.4,110,236,110.4z"/>
	<path class="st0" d="M265,68.2l22.1-33.9c1.1,0.8,2.9,1.4,5.5,1.9c3.8,0.8,8.7,1.2,14,1.2s10.3-0.4,14-1.2c2.5-0.5,4.3-1.2,5.4-1.9
		l22.1,33.9c0.2,0.4,0.6,0.6,1,0.6c0.3,0,0.5-0.1,0.7-0.2c0.6-0.3,0.8-1.1,0.4-1.7l-22.9-35.1c-0.2-1.7-2.3-2.9-6.7-3.8
		c-3.8-0.8-8.7-1.2-14-1.2s-10.3,0.4-14,1.2c-4.1,0.9-6.2,2-6.6,3.5l-23.1,35.4c-0.3,0.5-0.2,1.3,0.4,1.7c0.2,0.1,0.5,0.2,0.7,0.2
		C264.4,68.8,264.8,68.6,265,68.2z M306.7,29.4c10.5,0,17,1.6,18.1,2.7c-1.1,1.1-7.6,2.8-18.1,2.8s-17-1.7-18.1-2.8
		C289.7,31.1,296.2,29.4,306.7,29.4z"/>
	<path class="st0" d="M262.5,282.4c3.6,0,6.4-2.7,6.8-6h11.3h5.6c0.5,0,1-0.5,0.9-1.1c0-3.6-3.1-6.6-6.8-6.2
		c-11.3,1.1-38.5,2.7-49.3-7c-2.9-2.7-4.4-6.1-4.4-10.1c0-14.9-1.8-29.4-5-39.9c-4-13.3-10.2-20.3-17.9-20.3c-0.6,0-1,0.4-1,1v4v66
		c0,6.5,4.5,11.9,10.5,13.3c0.3,3.6,3.4,6.3,7,6.3h1l-8.3,60.4c-0.1,0.3,0,0.6,0.2,0.8c0.2,0.2,0.5,0.3,0.8,0.3h4.2
		c0.5,0,0.9-0.3,1-0.8l2.4-14.1h39.9l2.4,14.1c0.1,0.4,0.5,0.8,1,0.8h4.2c0.3,0,0.6-0.1,1-0.3c0.2-0.2,0.2-0.5,0.2-0.8l-8.3-60.4
		H262.5z M253.4,282.4l7,40.1h-37.7l7-40.1H253.4z M273,274.4c1-0.1,2-0.2,2.9-0.3c0.7,0,1.4,0.1,2,0.3H273z M224.6,252.1
		c0,4.7,1.7,8.5,5.1,11.6c11.4,10.3,39.3,8.7,50.8,7.5c2.1-0.2,4,1.2,4.5,3.2h-3.9c-1.3-1.6-3.3-2.4-5.4-2.2
		c-11.2,1.1-38.5,2.7-49.3-7c-2.9-2.7-4.4-6.1-4.4-10.1c0-23.3-4.5-52.4-17.3-58.9v-2.3C218.4,195.3,224.6,224.7,224.6,252.1z
		 M204.7,262.8v-64.3c10.5,6.7,15.3,32.8,15.3,56.5c0,4.7,1.7,8.5,5.1,11.6c5.1,4.6,13.5,6.9,22.3,7.8h-31.2
		C209.8,274.4,204.7,269.2,204.7,262.8z M215.3,276.4h0.9h51.2c-0.5,2.3-2.5,4-4.9,4h-42.3C217.8,280.4,215.8,278.7,215.3,276.4z
		 M267.9,341.9h-2.3l-2.3-14.1c-0.1-0.4-0.5-0.8-1-0.8h-41.6c-0.5,0-0.9,0.3-1,0.8l-2.4,14.1H215l8.2-59.5h4.3l-7.1,40.9
		c-0.1,0.3,0,0.6,0.2,0.8c0.2,0.3,0.5,0.4,0.8,0.4h40.1c0.3,0,0.6-0.2,0.8-0.4s0.2-0.5,0.2-0.8l-7.1-40.9h4.3L267.9,341.9z"/>
	<path class="st0" d="M416,238.6c0.6,0,1-0.5,1-1v-7.8v-7.7c0-0.6-0.4-1-1-1H273.2c-0.6,0-1,0.4-1,1v7.7v7.8c0,0.6,0.4,1,1,1h26.4
		l-14.4,104.2c-0.1,0.3,0,0.6,0.2,0.8c0.2,0.2,0.5,0.3,0.8,0.3h5.6c0.4,0,0.9-0.4,1-0.8L311,238.6h67.4l18.2,104.5
		c0.1,0.5,0.5,0.8,1,0.8h5.6c0.2,0,0.5-0.1,0.7-0.4c0.2-0.2,0.2-0.5,0.2-0.8l-14.3-104.1H416z M274.2,223.1H415v5.7H274.2V223.1z
		 M274.2,230.8H415v5.8h-26.5h-9.3h-105V230.8z M290.9,341.9h-3.6l14.4-103.3h7.2L290.9,341.9z M401.9,341.9h-3.6l-18-103.3h7.2
		L401.9,341.9z"/>
	<path class="st0" d="M603,334.9H408.9c-0.6,0-1,0.4-1,1c0,0.6,0.4,1,1,1H603c0.5,0,1-0.4,1-1C604,335.3,603.6,334.9,603,334.9z"/>
	<path class="st0" d="M391.1,334.9h-91.6c-0.6,0-1,0.4-1,1c0,0.6,0.4,1,1,1h91.6c0.6,0,1-0.4,1-1
		C392.1,335.3,391.7,334.9,391.1,334.9z"/>
	<path class="st0" d="M283,334.9h-9.8c-0.6,0-1,0.4-1,1c0,0.6,0.4,1,1,1h9.8c0.5,0,1-0.4,1-1C284,335.3,283.6,334.9,283,334.9z"/>
	<path class="st0" d="M257.6,334.9H224c-0.6,0-1,0.4-1,1c0,0.6,0.4,1,1,1h33.6c0.6,0,1-0.4,1-1C258.6,335.3,258.2,334.9,257.6,334.9
		z"/>
	<path class="st0" d="M207.9,334.9H9c-0.6,0-1,0.4-1,1c0,0.6,0.4,1,1,1h198.8c0.6,0,1.1-0.4,1.1-1
		C208.9,335.3,208.5,334.9,207.9,334.9z"/>
</g>
</svg>
