<?xml version="1.0" encoding="utf-8"?>
<!-- Generator: Adobe Illustrator 24.0.1, SVG Export Plug-In . SVG Version: 6.00 Build 0)  -->
<svg version="1.1" id="Layer_1" xmlns="http://www.w3.org/2000/svg" xmlns:xlink="http://www.w3.org/1999/xlink" x="0px" y="0px"
	 viewBox="0 0 625 370" style="enable-background:new 0 0 625 370;" xml:space="preserve">
<style type="text/css">
	.st0{opacity:0.2;fill:#C4C4C4;enable-background:new    ;}
</style>
<g>
	<path class="st0" d="M284.9,229.5h168.3c0.6,0,1-0.5,1-1V127.3c0-0.6-0.4-1-1-1H284.9c-0.6,0-1,0.4-1,1v101.2
		C283.9,229.1,284.3,229.5,284.9,229.5z M285.9,128.3h166.3v99.2H285.9V128.3z"/>
	<path class="st0" d="M446.5,133H291.6c-0.6,0-1,0.4-1,1v87.8c0,0.6,0.4,1,1,1h154.9c0.6,0,1-0.5,1-1V134
		C447.5,133.4,447.1,133,446.5,133z M445.5,220.8H292.6V135h152.9V220.8z"/>
	<path class="st0" d="M126.9,237.3H119c-0.1-0.5-0.1-1.1-0.2-1.5l-6.4-40.9c-0.4-2.8-3.1-5.1-5.9-5.1H38.3c-2.8,0-5.5,2.3-5.9,5.1
		L26,235.8c-0.1,0.4-0.1,0.9-0.2,1.5h-7.6c-1.8,0-3.2,1.4-3.2,3.2V297c0,0.6,0.4,1,1,1h9.2l-5.1,69.4c0,0.3,0.1,0.6,0.3,0.8
		c0.2,0.2,0.4,0.3,0.7,0.3h5.2c0.5,0,0.9-0.3,1-0.9l0.6-4.4c0.1,0.1,0.3,0.2,0.5,0.2h4.8c0.5,0,0.9-0.3,1-0.9l8.6-64.5h60.6
		l8.6,64.5c0.1,0.5,0.5,0.9,1,0.9h4.8c0.2,0,0.4-0.1,0.5-0.2l0.6,4.4c0.1,0.5,0.5,0.9,1,0.9h5.2c0,0,0,0,0,0c0.5,0,1-0.4,1-1
		c0-0.1,0-0.2,0-0.3l-5.1-69.2h8.2c0.5,0,1-0.5,1-1v-56.5C130.1,238.7,128.7,237.3,126.9,237.3z M28,236.1l6.4-40.9
		c0.3-1.9,2.1-3.4,3.9-3.4h68.1c1.8,0,3.6,1.6,3.9,3.4l6.4,40.9c0.1,0.3,0.2,0.7,0.2,1.1h-6.2c-1.8,0-3.2,1.4-3.2,3.2v0.1v27.9H37.6
		v-27.9v-0.1c0-1.8-1.4-3.2-3.2-3.2h-6.6C27.9,236.8,27.9,236.4,28,236.1z M25.4,366.5h-3.2l5-68.5h7.3l-5.4,40.4v0.1L25.4,366.5z
		 M32.4,361.4h-2.9l1.7-22.8l5.4-40.6h4.2L32.4,361.4z M113.7,361.4l-8.4-63.4h4.2l5.4,40.6l1.7,22.8H113.7z M123.8,366.5h-3.2
		l-3.6-27.1l-0.1-0.9l-5.3-40.5h7.1L123.8,366.5z M128.1,296h-7.9c-0.1-0.1-0.3-0.1-0.4-0.1h-9.3c0,0,0,0-0.1,0c0,0,0,0,0,0h-6.2
		c-0.2,0-0.3,0-0.5,0.1H42.4c-0.1-0.1-0.3-0.1-0.5-0.1h-6.2c0,0,0,0,0,0c0,0,0,0-0.1,0h-9.3c-0.1,0-0.3,0-0.4,0.1H17v-55.5
		c0-0.7,0.5-1.2,1.2-1.2h16.2c0.7,0,1.2,0.5,1.2,1.2v28.9v0.1c0,0.6,0.4,1,1,1h71.9c0.5,0,0.8-0.3,0.9-0.6c0.1-0.1,0.1-0.3,0.2-0.5
		v-29c0-0.3,0.1-0.6,0.3-0.8c0.2-0.2,0.5-0.3,0.8-0.3h16.2c0.7,0,1.2,0.5,1.2,1.2V296z"/>
	<path class="st0" d="M127,25.6H11.6c-0.6,0-1,0.4-1,1V142c0,0.6,0.4,1,1,1H127c0.6,0,1-0.4,1-1V26.6C128,26,127.6,25.6,127,25.6z
		 M126,141H12.6V27.6H126V141z"/>
	<path class="st0" d="M15.3,139.3h108c0.6,0,1-0.4,1-1v-108c0-0.6-0.4-1-1-1h-108c-0.6,0-1,0.4-1,1v108
		C14.3,138.9,14.7,139.3,15.3,139.3z M16.3,31.3h106v106h-106V31.3z"/>
	<path class="st0" d="M4.4,150.2h129.9c0.5,0,1-0.4,1-0.9v-0.1V19.4c0-0.6-0.4-1-1-1H4.4c-0.6,0-1,0.4-1,1v129.8
		C3.4,149.8,3.8,150.2,4.4,150.2z M5.4,20.4h127.9v127.8H5.4V20.4z"/>
	<path class="st0" d="M569.9,188c-0.2,0.1-0.5,0.3-0.6,0.5l-22.1,37.4c-0.1,0.3-0.2,0.5-0.1,0.8c0.1,0.2,0.3,0.5,0.5,0.6l22.5,13.3
		c0.1,0.1,0.3,0.1,0.5,0.1c0,0,0.1,0,0.2,0c0.2-0.1,0.5-0.3,0.6-0.5l22.1-37.4c0.2-0.5,0.1-1.1-0.4-1.4l-22.4-13.3
		C570.4,188,570.2,187.9,569.9,188z M570.2,238.3L549.5,226l21.1-35.6l20.7,12.3L570.2,238.3z"/>
	<path class="st0" d="M623.3,364.5l-28.8-4.3h-0.1h-0.3L583.9,284l27.4-38.1c0.2-0.2,0.3-0.5,0.2-0.8L598,184.9
		c-0.1-0.2-0.3-0.5-0.5-0.6c-0.2-0.1-0.5-0.2-0.8-0.1l-13.4,3.9c-0.4,0.1-0.7,0.4-0.7,0.8c0,0.4,0.2,0.8,0.5,1l5.2,3.1
		c0.2,0.1,0.5,0.2,0.8,0.1l3.9-1.1l11.6,52.2l-27.2,37.9c-0.2,0.2-0.2,0.4-0.2,0.7l10.5,77.4H587h-0.1l-29.2,4.1
		c-0.5,0.1-0.9,0.5-0.9,1v3.2c0,0.6,0.4,1,1,1h65.4c0.5,0,1-0.4,1-0.9v-3.1C624.2,365,623.8,364.6,623.3,364.5z M579.4,282.9
		l27.3-37.9c0.2-0.2,0.3-0.5,0.2-0.8l-12.1-53.6c-0.1-0.2-0.3-0.5-0.5-0.6c-0.2-0.1-0.5-0.2-0.8-0.1l-4.5,1.3l-2.9-1.7l10.2-3
		l13.2,58.7l-27.4,38.1c-0.2,0.2-0.2,0.4-0.2,0.7l10.2,76.2h-2.4L579.4,282.9z M622.2,367.5h-63.3v-1.3l28.3-4h1.6c0,0,0,0,0,0h4.5
		c0,0,0,0,0,0h1.1l27.8,4.1V367.5z"/>
	<path class="st0" d="M542,62C542,62,542,62,542,62l0-13.7c0-0.6-0.4-1-1-1h-18.2c-0.6,0-1,0.4-1,1v17.6c-0.1,0.1-0.1,0.3-0.1,0.4
		v3.8c0,0.1,0,0.3,0.1,0.4v4.4c0,0.6,0.4,1,1,1H541c0.5,0,1-0.5,1.2-0.9v-4.5c0-0.2-0.1-0.4-0.2-0.6V62z M526.4,68.6
		c-0.8,0.1-1.7,0.3-2.5,0.4v-1.9c1.4-0.6,2.8-1.2,4.2-2c0.5-0.3,1.2-0.8,2.1-1.4c1.4-1,3.8-2.6,4.6-2.6c0.2,0.1,0.6,0.6,0.8,0.9
		c0.5,0.6,1,1.3,1.9,1.6c0.2,0.1,0.5,0.1,0.8,0.1c0.6,0,1.1-0.1,1.7-0.3v6.1c-2.4,0.4-4.4,0.4-5.9,0.1c-0.7-0.2-1.3-0.3-1.9-0.5
		c-1.3-0.4-2.5-0.7-4.1-0.7c-0.6,0-1.1,0-1.6,0.2C526.5,68.6,526.4,68.6,526.4,68.6z M540,49.3v12c-0.7,0.3-1.2,0.4-1.7,0.4
		c-0.2,0-0.3,0-0.4,0c-0.2-0.1-0.6-0.6-0.8-0.9c-0.5-0.7-1.1-1.4-2-1.7c-1.4-0.3-3.5,1.1-6.2,2.9c-0.8,0.5-1.5,1-1.9,1.2
		c-1.1,0.6-2.2,1.1-3.2,1.6V55c0,0.1,0.1,0.3,0.1,0.4c0.5,1.4,1.9,2.4,3.5,2.6c0.2,0,0.3,0,0.5,0c1.7,0,3.3-0.8,4.1-2
		c0.8-1.5,0.4-3.3-1-4.4c-1-0.8-2.3-1-3.5-0.7c-0.7-0.1-1.4,0.1-2,0.5c-0.9,0.6-1.5,1.4-1.7,2.3v-4.4H540z M526.6,53
		c0.2-0.1,0.4-0.2,0.6-0.2c0.1,0,0.1,0,0.2-0.1c0.1,0.1,0.3,0.1,0.5,0c0.2-0.1,0.5-0.1,0.7-0.1c0.3,0,0.7,0.1,1.1,0.4
		c0.5,0.4,0.9,1.1,0.5,1.8c-0.4,0.8-1.5,1.3-2.6,1.2c-0.7,0-1.6-0.4-1.8-1.2C525.5,53.9,526.3,53.2,526.6,53z M523.8,73.9V71
		c0.5-0.1,0.9-0.2,1.4-0.3c0.1,0,0.1,0,0.2,0c0.4-0.1,0.8-0.1,1.3-0.2c0.5-0.1,0.9-0.1,1.4-0.1c1.3,0,2.4,0.2,3.5,0.6
		c0.6,0.2,1.3,0.3,2,0.5c0.8,0.2,1.7,0.3,2.8,0.3c0,0,0,0,0.1,0c0,0,0,0,0,0c0.1,0,0.2,0,0.4,0c1,0,2-0.1,3.1-0.2v2.3H523.8z"/>
	<path class="st0" d="M475.9,150.4h147.5c0.5,0,1-0.4,1-0.9V79.4c0-0.6-0.4-1-1-1h-12.8c2.6-2,4.2-5.1,4.2-8.5
		c0-5.9-4.8-10.7-10.7-10.7s-10.7,4.8-10.7,10.7c0,3.4,1.6,6.5,4.2,8.5h-9c1.9-1.7,3.1-4.1,3.1-6.8c0-5-4.1-9-9-9c-5,0-9,4-9,9
		c0,2.6,1.2,5.1,3.2,6.8h-7.1c1.4-1.3,2.2-3.2,2.2-5.2c0-4-3.3-7.3-7.3-7.3s-7.3,3.3-7.3,7.3c0,2,0.8,3.9,2.2,5.2h-8.8l2.8-4.8
		c0.2-0.2,0.2-0.5,0.1-0.8l-7.3-20.1v-8.8c0-0.6-0.4-1-1-1h-27.2c-0.6,0-1,0.4-1,1v34.5h-11c-0.6,0-1,0.4-1,1V91c0,0.6,0.4,1,1,1
		h104.5v44.8h-4v-34.2c0-0.6-0.4-1-1-1H599c-0.6,0-1,0.4-1,1v4.2h-6.5V95.9c0-0.6-0.4-1-1-1h-5.3c-0.6,0-1,0.4-1,1v5.7h-4.8v-2.2
		c0-0.6-0.4-1-1-1h-6.9c-0.6,0-1,0.4-1,1v8.4l-6.7-2.2c-0.3,0-0.6,0-0.8,0.1c-0.2,0.1-0.4,0.3-0.5,0.6l-9.1,28.6
		c-0.2,0.6,0.1,1.1,0.6,1.3l1.9,0.6h-35.6v-1.5h1.2c0.6,0,1-0.4,1-1V113c0-0.6-0.4-1-1-1h-2.2v-6.2c0-0.6-0.4-1-1-1s-1,0.4-1,1v6.2
		h-1.1v-9.9c0-0.6-0.4-1-1-1s-1,0.4-1,1v9.9h-1v-6.6c0-0.6-0.4-1-1-1s-1,0.4-1,1v6.6h-0.8v-10.4c0-0.6-0.4-1-1-1c-0.6,0-1,0.4-1,1
		V112h-1.1v-6.6c0-0.6-0.4-1-1-1c-0.6,0-1,0.4-1,1v6.6h-1.1v-8.5c0-0.6-0.4-1-1-1c-0.6,0-1,0.4-1,1v8.5h-0.9v-4.6c0-0.6-0.4-1-1-1
		c-0.6,0-1,0.4-1,1v4.6h-0.8v-6.2c0-0.6-0.4-1-1-1c-0.6,0-1,0.4-1,1v6.2h-2.4c-0.6,0-1,0.4-1,1v21.3c0,0.6,0.4,1,1,1h0.8v1.5h-19
		c-0.6,0-1,0.4-1,1v11.6C474.9,150,475.3,150.4,475.9,150.4z M595.5,69.9c0-4.8,3.9-8.7,8.7-8.7s8.7,3.9,8.7,8.7
		c0,3.8-2.5,7.2-6.1,8.3h-5.2C598,77.1,595.5,73.7,595.5,69.9z M575.7,71.5c0-3.9,3.2-7,7-7c3.9,0,7,3.2,7,7c0,3.1-2,5.8-4.9,6.7
		h-4.2C577.8,77.3,575.8,74.6,575.7,71.5z M564.6,67.9c2.9,0,5.3,2.4,5.3,5.3c0,2.2-1.5,4.3-3.7,5H563c-2.1-0.7-3.6-2.7-3.7-5
		C559.3,70.3,561.7,67.9,564.6,67.9z M551.5,73.1l-2.8,4.8l-2.3-1.8v-17L551.5,73.1z M519.3,44.9h25.2v8.2v23.5v1.8h-25.2V44.9z
		 M600,103.6h4.7v33.2H600v-29V103.6z M598,108.8v28h-6.5v-28H598z M586.1,96.9h3.3v39.9h-3.3v-34.2V96.9z M584.1,103.6v33.2h-4.7
		v-33.2H584.1z M572.5,100.3h4.9v2.3c0,0,0,0,0,0v34.2h-4.9v-27l0.1-0.3c0-0.3,0-0.6-0.1-0.8V100.3z M564.1,107.9l6.2,2l-8.5,26.7
		l-6.2-2L564.1,107.9z M570.5,116.1v20.7h-6.6L570.5,116.1z M495.8,133.3H495V114h25.4v19.3h-1.2c-0.6,0-1,0.4-1,1v2.5h-21.4v-2.5
		C496.8,133.7,496.4,133.3,495.8,133.3z M476.9,138.9h19h23.3h92.6c0.6,0,1-0.4,1-1V91c0-0.6-0.4-1-1-1H507.2v-9.6h11h27.2h76.9v68
		H476.9V138.9z"/>
	<path class="st0" d="M190.5,97.4l-17.9,3.2l0.3,1.9l17.9-3.2c0.2,0.9,0.4,1.8,0.7,2.7l-17.1,6.2l0.7,1.8l17.1-6.2
		c0.4,0.9,0.8,1.7,1.2,2.5l-24.9,14.4l1,1.7l9.2-5.3l15.8-9.1c0.5,0.8,1,1.6,1.6,2.3l-14,11.7l1.3,1.5l13.9-11.7
		c0.6,0.7,1.3,1.4,2,2l-11.7,13.9l1.5,1.3l11.7-13.9c0.7,0.6,1.5,1.1,2.3,1.6l-14.4,24.9l1.7,1l5.3-9.2l9.1-15.8
		c0.8,0.4,1.7,0.8,2.5,1.2l-6.2,17.1l1.8,0.7l6.2-17.1c0.9,0.3,1.8,0.5,2.7,0.7l-3.2,17.9l1.9,0.3l3.2-17.9c0.9,0.1,1.9,0.2,2.8,0.2
		v28.8h2v-28.8c1,0,1.9-0.1,2.8-0.2l3.2,17.9l1.9-0.3l-3.2-17.9c0.9-0.2,1.8-0.4,2.7-0.7l6.2,17.1l1.8-0.7l-6.2-17.1
		c0.9-0.4,1.7-0.8,2.6-1.2l9.1,15.8l5.3,9.2l1.7-1L232,116.7c0.8-0.5,1.6-1,2.3-1.6L246,129l1.5-1.3L236,113.8c0.7-0.6,1.4-1.3,2-2
		l13.9,11.7l1.3-1.5l-14-11.7c0.6-0.7,1.1-1.5,1.6-2.3l15.8,9.1l9.2,5.3l1-1.7l-25-14.4c0.4-0.8,0.8-1.7,1.2-2.5l17.1,6.2l0.7-1.8
		l-17.1-6.2c0.3-0.9,0.5-1.8,0.7-2.7l17.9,3.2l0.3-1.9l-17.9-3.2c0.1-0.9,0.2-1.9,0.2-2.8h28.9v-0.2v-2H245c0-1-0.1-1.9-0.2-2.8
		l17.9-3.2l-0.3-1.9l-17.9,3.1c-0.2-0.9-0.5-1.8-0.7-2.7l17.1-6.2l-0.7-1.9L243,83.1c-0.4-0.9-0.8-1.7-1.2-2.6l15.8-9.1l9.2-5.3
		l-1-1.7l-25,14.4c-0.5-0.8-1-1.6-1.6-2.3l14-11.7l-1.3-1.5L238,75c-0.6-0.7-1.3-1.4-2-2l11.7-13.9l-1.5-1.3l-11.7,14
		c-0.7-0.6-1.5-1.1-2.3-1.6l9.1-15.8l5.3-9.2l-1.7-1l-14.4,25c-0.8-0.4-1.7-0.8-2.6-1.2l6.2-17.1l-1.8-0.7l-6.2,17.1
		c-0.9-0.3-1.8-0.5-2.7-0.7l3.2-17.9l-1.9-0.3l-3.2,17.9c-0.9-0.1-1.9-0.2-2.8-0.2V37.2h-2V66c-1,0-1.9,0.1-2.8,0.2l-3.2-17.9
		l-1.9,0.3l3.2,17.9c-0.9,0.2-1.8,0.4-2.7,0.7l-6.2-17.1l-1.8,0.7l6.2,17.1c-0.9,0.4-1.7,0.8-2.6,1.2l-9.1-15.8l-5.3-9.2l-1.7,1
		l14.4,25c-0.8,0.5-1.6,1-2.3,1.6l-11.7-14l-1.5,1.3l11.7,13.9c-0.7,0.6-1.4,1.3-2,2l-13.9-11.7l-1.3,1.5L196,76.6
		c-0.6,0.7-1.1,1.5-1.6,2.3L184.2,73l-14.7-8.5l-1,1.7l9.2,5.3l5.5,3.2l10.2,5.9c-0.4,0.8-0.8,1.7-1.2,2.6L175.1,77l-0.7,1.9
		l17.1,6.2c-0.3,0.9-0.5,1.8-0.7,2.7l-17.9-3.1l-0.3,1.9l17.9,3.2c-0.1,0.9-0.2,1.9-0.2,2.8h-28.8v2h28.8
		C190.3,95.6,190.4,96.5,190.5,97.4z M217.6,68.3c13.9,0,25.1,11.2,25.1,25.1c0,13.9-11.2,25.1-25.1,25.1
		c-13.9,0-25.1-11.2-25.1-25.1C192.5,79.5,203.7,68.3,217.6,68.3z"/>
	<path class="st0" d="M217.6,116.6c12.8,0,23.2-10.4,23.2-23.2c0-12.8-10.4-23.2-23.2-23.2c-12.8,0-23.2,10.4-23.2,23.2
		C194.4,106.2,204.8,116.6,217.6,116.6z M217.6,72.2c11.7,0,21.2,9.5,21.2,21.2c0,11.7-9.5,21.2-21.2,21.2
		c-11.7,0-21.2-9.5-21.2-21.2C196.4,81.7,205.9,72.2,217.6,72.2z"/>
	<path class="st0" d="M206.2,91.3c0.3,0,0.5-0.1,0.7-0.3l10.5-10.5c0.4-0.4,0.4-1,0-1.4c-0.4-0.4-1-0.4-1.4,0l-10.5,10.5
		c-0.4,0.4-0.4,1,0,1.4C205.7,91.2,205.9,91.3,206.2,91.3z"/>
	<path class="st0" d="M205.7,101.5c0.2,0,0.5-0.1,0.7-0.3l19.7-19.7c0.4-0.4,0.4-1,0-1.4c-0.4-0.4-1-0.4-1.4,0L205,99.8
		c-0.4,0.4-0.4,1,0,1.4C205.2,101.4,205.4,101.5,205.7,101.5z"/>
	<path class="st0" d="M213.5,103.3c0.2,0.2,0.4,0.3,0.7,0.3c0.2,0,0.5-0.1,0.7-0.3l15.2-15.2c0.4-0.4,0.4-1,0-1.4
		c-0.4-0.4-1-0.4-1.4,0l-15.2,15.2C213.1,102.3,213.1,102.9,213.5,103.3z"/>
	<path class="st0" d="M219.9,106.1c0.2,0.2,0.4,0.3,0.7,0.3c0.2,0,0.5-0.1,0.7-0.3l10.9-10.9c0.4-0.4,0.4-1,0-1.4
		c-0.4-0.4-1-0.4-1.4,0l-10.9,10.9C219.5,105.1,219.5,105.7,219.9,106.1z"/>
	<path class="st0" d="M446.5,223.8h-4.7c-0.6,0-1,0.4-1,1c0,0.6,0.4,1,1,1h4.7c0.6,0,1-0.4,1-1S447.1,223.8,446.5,223.8z"/>
	<path class="st0" d="M437.1,223.8h-4.7c-0.6,0-1,0.4-1,1c0,0.6,0.4,1,1,1h4.7c0.5,0,1-0.4,1-1S437.7,223.8,437.1,223.8z"/>
	<path class="st0" d="M295.2,184.1l33,16c0.1,0.1,0.3,0.1,0.4,0.1c0.1,0,0.2-0.1,0.4-0.1l37.2-13.9l8.7,2.6c0.2,0.1,0.4,0.1,0.6,0
		l31.8-12.2l19.1,12.1c0.3,0.2,0.6,0.2,0.9,0.1l7.1-2.7l6.6,5.4c0.4,0.4,1.1,0.3,1.4-0.1c0.4-0.4,0.3-1.1-0.1-1.4l-7.1-5.8
		c-0.3-0.3-0.7-0.3-1-0.2l-7.1,2.7L408,174.6c-0.3-0.2-0.6-0.2-0.9-0.1l-31.9,12.3l-8.7-2.6c-0.2-0.1-0.4-0.1-0.6,0l-37.3,13.9
		L296,182.3c-0.5-0.2-1.1,0-1.3,0.5S294.7,183.9,295.2,184.1z"/>
	<path class="st0" d="M405.8,179.8l-17.5,6.6c-0.5,0.2-0.8,0.8-0.6,1.3c0.1,0.4,0.5,0.6,0.9,0.6c0.1,0,0.2,0,0.4,0l17.5-6.6
		c0.5-0.2,0.8-0.8,0.6-1.3S406.3,179.6,405.8,179.8z"/>
	<path class="st0" d="M322.5,199.4l-16.5-7.9c-0.3-0.2-0.6-0.1-0.9,0l-4.2,2.2c-0.5,0.3-0.7,0.9-0.4,1.4s0.9,0.7,1.4,0.4l3.8-2
		l16,7.7c0.1,0.1,0.3,0.1,0.4,0.1c0.4,0,0.7-0.2,0.9-0.6C323.2,200.2,323,199.6,322.5,199.4z"/>
	<path class="st0" d="M328.3,169.8c5.9,0,10.6-4.8,10.6-10.6c0-5.8-4.8-10.6-10.6-10.6c-5.8,0-10.6,4.8-10.6,10.6
		C317.7,165,322.4,169.8,328.3,169.8z M328.3,150.6c4.8,0,8.6,3.9,8.6,8.6s-3.8,8.6-8.6,8.6c-4.7,0-8.6-3.8-8.6-8.6
		C319.7,154.5,323.5,150.6,328.3,150.6z"/>
	<path class="st0" d="M88.7,68.2c0-0.6-0.4-1-1-1H74.1c-0.5,0-1,0.4-1,0.9l-1.4,19.3h-2.8c-0.6,0-1,0.4-1,1c0,0.6,0.4,1,1,1h3.6
		c0,0,0,0,0.1,0c0.3,0,0.5-0.1,0.7-0.3c0.2-0.2,0.3-0.4,0.3-0.7c0-0.1,0-0.3-0.1-0.4L75,69.2h12.7C88.3,69.2,88.7,68.8,88.7,68.2z"
		/>
	<path class="st0" d="M77.1,97.2H61.7c-0.6,0-1,0.4-1,1c0,0.6,0.4,1,1,1h15.4c0.6,0,1-0.4,1-1C78.1,97.6,77.7,97.2,77.1,97.2z"/>
	<path class="st0" d="M72,101.8h-6.3c-0.6,0-1,0.4-1,1c0,0.6,0.4,1,1,1H72c0.5,0,1-0.5,1-1C73,102.2,72.6,101.8,72,101.8z"/>
	<path class="st0" d="M118,126.7l-31-4.6l-2.8-14.4c8.2-7.3,13.4-20.2,13.4-34.2c0-20.7-11-34-28.1-34s-28.1,13.3-28.1,34
		c0,14.2,5.3,27.4,13.8,34.6l-2.7,14l-31,4.6c-0.5,0-0.9,0.6-0.8,1.1c0.1,0.5,0.5,0.9,1,0.9c0,0,0.1-0.1,0.2,0l31.7-4.7
		c0.4-0.1,0.7-0.4,0.8-0.8l2.6-13.7c0.2,0.1,0.3,0.3,0.5,0.4c3.8,2.5,7.8,3.8,12,3.8s8.3-1.3,12-3.8c0.3-0.2,0.6-0.5,0.9-0.7l2.7,14
		c0,0.4,0.4,0.7,0.8,0.8l31.7,4.7h0.1c0.5,0,0.9-0.4,1.1-0.9C118.9,127.3,118.5,126.8,118,126.7z M80.3,108.2
		c-3.4,2.3-7.1,3.5-10.9,3.5c-3.7,0-7.4-1.2-10.8-3.5c-0.5-0.3-1-0.7-1.5-1.1c-0.1-0.1-0.2-0.2-0.4-0.3
		c-8.1-6.7-13.3-19.4-13.3-33.3c0-19.4,10.3-32,26.1-32c15.9,0,26.1,12.5,26,32C95.5,88.3,89.5,102,80.3,108.2z"/>
	<path class="st0" d="M332.6,26H349v20h-7.9v2h8.9c0.5,0,1-0.5,1-1V25c0-0.6-0.4-1-1-1h-8.2V1.1c0-0.6-0.4-1-1-1c-0.6,0-1,0.4-1,1
		V24h-8.2c-0.5,0-1,0.5-1,1v15.9h2V26z"/>
	<path class="st0" d="M362.7,56.5h19.4c0.6,0,1-0.5,1-1V32.2c0-0.6-0.4-1-1-1h-8.7v-30c0-0.6-0.4-1-1-1c-0.6,0-1,0.4-1,1v30h-8.7
		c-0.6,0-1,0.4-1,1v23.3C361.7,56.1,362.1,56.5,362.7,56.5z M363.7,33.2h17.4v21.3h-17.4V33.2z"/>
	<path class="st0" d="M401,23.6h17.5V45h-7.9v2h8.9c0.5,0,1-0.5,1-1V22.6c0-0.5-0.5-1-1-1h-8.8V1.1c0-0.6-0.4-1-1-1
		c-0.6,0-1,0.4-1,1v20.5H400c-0.5,0-1,0.5-1,1v15.9h2V23.6z"/>
	<path class="st0" d="M433.5,43.6h18.4v22.5h-14.2v2h15.2c0.6,0,1-0.5,1-1V42.6c0-0.5-0.4-1-1-1h-8.8V1.1c0-0.6-0.4-1-1-1
		c-0.6,0-1,0.4-1,1v40.5h-9.6c-0.6,0-1,0.5-1,1v9.8h2V43.6z"/>
	<path class="st0" d="M316.6,70.7h21.6c0.5,0,1-0.4,1-1V43.8c0-0.6-0.4-1-1-1h-9.8V1.1c0-0.6-0.4-1-1-1c-0.6,0-1,0.4-1,1v41.7h-9.8
		c-0.6,0-1,0.4-1,1v25.9C315.6,70.3,316,70.7,316.6,70.7z M317.6,44.8h19.6v23.9h-19.6V44.8z"/>
	<path class="st0" d="M348.8,61.9c-0.6,0-1,0.4-1,1v25.3c0,0.6,0.4,1,1,1h21.1c0.5,0,1-0.4,1-0.9V62.9c0-0.6-0.4-1-1-1h-9.6V1.1
		c0-0.6-0.4-1-1-1c-0.6,0-1,0.4-1,1v60.8H348.8z M368.8,87.2h-19.1V63.9h19.1V87.2z"/>
	<path class="st0" d="M385.3,69.2h22.2c0.6,0,1-0.4,1-0.9V41.6c0-0.6-0.4-1-1-1h-10.1V1.1c0-0.6-0.4-1-1-1c-0.6,0-1,0.4-1,1v39.5
		h-10.1c-0.6,0-1,0.4-1,1v26.6C384.3,68.8,384.7,69.2,385.3,69.2z M386.3,42.6h20.2v24.6h-20.2V42.6z"/>
	<path class="st0" d="M413.4,54.4c-0.6,0-1,0.4-1,1V81c0,0.6,0.4,1,1,1h21.4c0.5,0,1-0.4,1-1V55.4c0-0.6-0.4-1-1-1h-9.7V1.1
		c0-0.6-0.4-1-1-1c-0.6,0-1,0.4-1,1v53.3H413.4z M433.8,80h-19.4V56.4h19.4V80z"/>
	<path class="st0" d="M523.8,326.9h10c0.5,0,1-0.5,1-1v-49.2c0-0.6-0.4-1-1-1h-87.2c0,0,0,0-0.1,0c0,0,0,0,0,0H263.9
		c2.1-1.2,3.9-2.9,5.1-5c1.2-2.2,2-4.4,2.4-6.6c0.1-0.1,0.2-0.3,0.2-0.4c0.5-1.4,0.5-2.7,0.1-3.8c-0.2-2.5-1-4.8-2.4-6.8
		c-3.5-5.1-10.2-7.7-17.5-6.7c-2.4,0.1-4.8,1-6.7,2.5c-5,4.3-7.1,9.3-6.9,16.2c0.2,4.6,3,8.4,7.4,10.6h-24.5c1.9-0.9,3.6-1.9,5-3.1
		c0.5-0.2,1-0.5,1.5-0.9c0.9-0.8,1.5-1.6,1.8-2.5c2.8-3.7,4-8.3,3.7-13.8c0-0.1,0-0.3,0-0.4c0.1-1,0-1.9-0.3-2.7
		c0-0.2-0.1-0.4-0.2-0.6c-0.9-3.7-3.1-7.1-6.1-9.6c-3.6-3.1-8.2-4.6-12.5-4.1c-3,0-6,0.6-8.9,1.9c-1.5,0.6-3,1.5-4.3,2.4
		c-0.2,0.1-0.4,0.2-0.6,0.3c-0.4,0.3-0.8,0.6-1.1,1.1c-2.8,2.5-4.9,5.7-5.9,9.2c-1.2,4.8-0.8,9.4,1.1,13.5c0.1,0.4,0.3,0.8,0.5,1.1
		c1.1,2,2.6,3.8,4.4,5.4c1.3,1.1,2.8,2.1,4.4,2.8h-32.5c-0.6,0-1,0.4-1,1v38.8c0,0.6,0.4,1,1,1h4.8v9.4c0,0.6,0.4,1,1,1h11.3
		l-7,41.1c-0.1,0.3,0,0.6,0.2,0.8c0.2,0.3,0.5,0.4,0.8,0.4h5.4c0.4,0,0.8-0.2,0.9-0.7l3.4-9.5l-0.8,4.5c-0.1,0.3,0,0.6,0.2,0.8
		c0.2,0.3,0.5,0.4,0.8,0.4h4.8c0.4,0,0.8-0.3,1-0.7l13-37.1h39.2h0h185h0.1h11.2c0,0,0,0,0,0c0,0,0,0,0.1,0H501l13.2,37.1
		c0.1,0.4,0.5,0.7,0.9,0.7h4.8c0.6,0,1-0.4,1-0.9c0-0.2-0.1-0.3-0.1-0.4l-0.8-4.9l3.5,10c0.1,0.4,0.5,0.7,0.9,0.7h5.4
		c0.6,0,1-0.4,1.1-1c0-0.2-0.1-0.3-0.1-0.4L523.8,326.9z M240.3,265.9c-0.1-0.2-0.1-0.5-0.1-0.7c0,0.1,0.1,0.2,0.2,0.4
		C240.3,265.7,240.3,265.8,240.3,265.9z M200.9,249.3c0-0.3-0.1-0.6-0.2-0.9c0.9,0.4,1.8,1.2,2.6,2.2
		C202.5,250.1,201.7,249.7,200.9,249.3z M203.9,253.3c-0.3,0-0.6,0-0.9,0c-0.2-0.3-0.4-0.6-0.6-1
		C202.9,252.6,203.4,252.9,203.9,253.3z M202,255.6c-0.2,0-0.5-0.1-0.7-0.2c0.2,0,0.3-0.1,0.5-0.1
		C201.9,255.4,201.9,255.5,202,255.6z M203.6,258c0.7,1.2,1.4,2.5,2,3.7c-0.2,0.9-0.4,1.8-0.8,2.6c-0.3-0.1-0.6-0.1-0.9-0.1
		c-0.2,0-0.4,0-0.6,0c-0.2-0.3-0.4-0.7-0.6-1.1c-1-1.6-1.9-3.2-3.1-4.9c-0.3-0.5-0.8-1.1-1.3-1.9C199.9,257,201.8,257.6,203.6,258z
		 M204.2,255.4c0.1,0,0.3,0,0.4,0c0.3,0,0.6,0,0.9,0c0.1,0.4,0.2,0.7,0.2,1.1c-0.3-0.1-0.6-0.1-0.9-0.2
		C204.6,256,204.4,255.7,204.2,255.4z M206.9,266.8c0.1,0.8,0,1.6-0.3,2.4c-0.4-0.5-0.8-1-1.2-1.6
		C205.9,267.3,206.5,267,206.9,266.8z M207,272.5L207,272.5c-0.2,1-0.1,1.8,0.1,2.4c-0.7-0.2-1.5-0.5-2.2-0.8
		C205.7,273.8,206.4,273.2,207,272.5z M207.8,258.8c1.5,0.2,2.6,0.3,3,0.3h0.1c0.7,0.7,1.2,1.3,1.5,1.7c0.4,0.5,1,1.2,1.6,2.1
		c-1.8,0.1-3.6,0.3-5.5,1c-0.2-0.8-0.5-1.6-0.9-2.4C207.8,260.6,207.8,259.7,207.8,258.8z M207.7,256.2c0.3,0.2,0.5,0.5,0.8,0.7
		c-0.2,0-0.4-0.1-0.7-0.1C207.8,256.6,207.7,256.4,207.7,256.2z M215.6,271.5c-0.2-1.2-0.5-2.2-1-3c0.9-0.5,1.7-0.9,2.6-1.3
		c0.5,0.6,1.1,1.2,1.6,1.8c0.2,2.8-0.2,4.5-1.1,5.3c-0.5,0.5-1.4,0.6-2.5,0.4C215.6,273.8,215.8,272.8,215.6,271.5z M208.1,270.8
		c0.7-1.2,0.9-2.5,0.8-3.9c1.1,0.3,1.9,0.6,2.6,1.1C210,269,208.9,270,208.1,270.8z M209.7,272.2c0.7-0.8,1.7-1.7,3.2-2.6
		c0.3,0.6,0.6,1.3,0.7,2.2c0.2,1,0,1.8-0.3,2.3C211.9,273.6,210.7,272.9,209.7,272.2z M211.1,275.4c-0.9,0-1.8-0.4-2.1-1
		c-0.1-0.1-0.1-0.2-0.1-0.3C209.6,274.5,210.4,274.9,211.1,275.4z M213.4,267c-0.8-0.7-1.8-1.2-2.8-1.6c1.6-0.4,3.2-0.5,4.9-0.5
		c0.1,0.2,0.3,0.5,0.5,0.7C215.2,266.1,214.3,266.5,213.4,267z M214.1,259.5c-0.1-0.2-0.2-0.3-0.4-0.5c0.9-0.1,1.8-0.2,2.7-0.4
		c0.5,1.3,1,2.7,1.4,4.2c-0.1,0-0.1,0-0.2,0c-0.4,0-0.7,0-1.1,0c-0.2-0.2-0.4-0.5-0.5-0.7C215.3,261,214.6,260.1,214.1,259.5z
		 M218.3,258.1c0.9-0.4,1.7-0.8,2.6-1.5c0.3-0.2,0.6-0.4,0.8-0.7c0.4,0.7,1,1.4,1.6,2.2c0.5,0.7,1,1.4,1.5,2c-0.9,1.1-2,2-3.2,2.7
		c-0.6,0.1-1.1,0.1-1.7,0.1C219.4,261.2,218.9,259.6,218.3,258.1z M219.7,255c-0.7,0.5-1.4,0.9-2.2,1.2c-0.6-1.4-1.3-2.7-2.1-4
		c1.2-0.2,2.6-0.5,3.9-1.1c0.4,1.1,0.8,2.1,1.3,3C220.3,254.4,220,254.8,219.7,255z M215.5,256.8c-1.2,0.2-2.6,0.3-3.8,0.3
		c-0.6-0.6-1.3-1.2-2.1-1.9c1.7-0.2,3.1-0.7,4.1-1.8C214.4,254.5,215,255.6,215.5,256.8z M220.4,273.7c0.3-0.8,0.5-1.8,0.5-2.8
		c0.7,0.6,1.5,1.1,2.2,1.3C222.3,272.8,221.4,273.2,220.4,273.7z M227.9,268.2c-0.7,0.8-1.5,1.6-2.4,2.4c-0.3,0-0.5,0-0.7,0
		c-1.3-0.1-2.7-1.1-4-2.5c-0.1-0.8-0.2-1.6-0.3-2.5c0.6-0.3,1.1-0.6,1.7-0.9c1.6-0.2,3.3-0.5,4.9-1.1
		C228,265.3,228.3,266.9,227.9,268.2z M229.7,265.1c-0.2-0.7-0.5-1.5-0.9-2.3c0.9-0.5,1.6-1.2,2.3-2
		C230.8,262.3,230.3,263.8,229.7,265.1z M229.9,251.3c0.4,0.3,0.8,0.7,1,1.2c0.2,0.8,0.3,1.7,0.4,2.6c-0.2,2.2-1.4,4.6-3.5,6
		c-0.2-0.4-0.4-0.7-0.6-1c0.5-0.8,1-1.6,1.4-2.4C229.5,255.5,229.9,253.3,229.9,251.3z M227.9,250.4c0.1,2-0.3,4.1-1.2,6.3
		c-0.2,0.6-0.4,1.1-0.7,1.6c-0.4-0.5-0.8-1-1.1-1.4c-0.8-1-1.5-1.9-2-2.7c0.1-0.3,0.3-0.5,0.5-0.9c0.7-1.5,1.3-2.5,2.5-2.8
		C226.6,250.4,227.3,250.4,227.9,250.4z M223.9,247.9c0.7-1,1.2-2.4,0.7-4.3c1.5,1.3,2.4,3,2.9,4.9c-0.6,0-1.3,0.1-2.1,0.2
		c-1.9,0.4-2.9,1.9-3.6,3.3c-0.3-0.5-0.5-1.1-0.7-1.7C222.3,249.6,223.3,248.8,223.9,247.9z M221.1,241.5c0,0,0.4,0.1,1.1,1.3
		c0.8,1.4,0.9,2.7,0.1,3.8c-0.4,0.6-1.1,1.1-1.8,1.6c-0.2-0.9-0.3-1.8-0.4-2.7C220,243.6,220.7,241.6,221.1,241.5z M219.4,240.7
		c-0.9,1.3-1.2,3.6-1.1,5.1c0.1,1.1,0.3,2.3,0.6,3.5c-1.1,0.4-2.2,0.7-3.2,0.9c0-0.3,0.1-0.7,0.2-1c0.6-2.1,1-7.1-1.1-9.2
		C216.3,240,217.8,240.2,219.4,240.7z M211.6,241.2c0.5-0.3,0.9-0.3,1.4-0.1c1.7,0.7,1.7,5.3,1,7.6c-0.1,0.4-0.2,0.7-0.3,1
		c-0.9-1.2-1.9-2.4-3-3.5c-0.5-0.5-1.1-0.9-1.7-1.4C209.5,243.2,210.5,241.7,211.6,241.2z M211.6,250.3c-1.6-0.2-2.5-0.5-2.9-1
		c-0.3-0.4-0.4-1.2-0.2-2.4c0.2,0.2,0.5,0.4,0.7,0.6C210,248.4,210.8,249.3,211.6,250.3z M206,241.7c1-0.4,2-0.7,3-1
		c-0.7,0.8-1.3,1.9-1.7,2.9c-0.9-0.5-1.9-0.9-2.8-1.2C205,242.2,205.5,242,206,241.7z M200.7,245c0.3-0.3,0.6-0.5,1-0.8
		c1.2-0.3,3.1,0.3,4.9,1.4c-0.1,0.2-0.1,0.3-0.1,0.4c-0.4,2.2-0.2,3.6,0.5,4.6c0.9,1.3,2.6,1.6,4.6,1.9c0.1,0,0.1,0,0.2,0
		c-1,0.7-2.2,0.9-3.9,1c-0.2,0-0.4,0-0.6,0c-0.1-0.1-0.2-0.2-0.3-0.3c-0.9-2.5-2.9-5.8-5.7-6.6c-0.2-0.1-0.5-0.2-0.8-0.2
		C200.5,245.8,200.5,245.4,200.7,245z M196.7,251.3c0-0.2,0-0.3,0.1-0.5c0-0.1,0.1-0.2,0.2-0.3c0-0.1,0.2-0.2,0.8-0.2
		c0.5,0,1,0.2,1.6,0.4c0.3,0.9,0.8,1.8,1.3,2.7c-0.9,0.1-1.8,0.3-2.6,0.6c-0.6-0.3-1.1-0.6-1.4-1
		C196.6,252.5,196.5,251.9,196.7,251.3z M194.5,256.7c0-0.9,0.2-1.8,0.4-2.7c0.2,0.6,0.4,1.1,0.7,1.6
		C195.2,256,194.8,256.3,194.5,256.7z M196.6,257.4c0.5,0.9,1,1.6,1.5,2.1c1,1.5,1.9,3,2.8,4.5c-1.6-0.2-3-0.5-4.1-1.2
		c-1.2-0.7-1.7-1.5-1.7-2.5S195.7,258.3,196.6,257.4z M196.5,266.5c-0.4-0.7-0.7-1.4-0.9-2c0.1,0,0.1,0.1,0.2,0.1
		c1.7,1,4,1.4,6.4,1.6c0.1,0.3,0.3,0.6,0.5,0.9c-1.3,0.8-2.9,1.1-4.2,0.8C197.9,267.7,197.1,267.3,196.5,266.5z M200.2,271.1
		c-0.4-0.4-0.8-0.8-1.2-1.2c0.4,0.1,0.9,0.1,1.4,0C200.3,270.3,200.2,270.7,200.2,271.1z M202.8,272.6c-0.2,0-0.6,0-0.7-1
		c0-1.2,0.6-2.1,1.6-2.9c0.6,0.8,1.2,1.6,1.9,2.4C204.7,272,203.5,272.7,202.8,272.6z M250.2,324.9l-72.3-3.6v-1.9l85.8,2.7v1
		c-0.1,0.1-0.1,0.3-0.1,0.4c0,0.1,0,0.3,0.1,0.4v0.9H250.2z M532.7,312.6l-7.9,0.2v-1.6l7.9,0.5V312.6z M524.8,309.2v-0.8l7.9-0.8
		v2.1L524.8,309.2z M524.8,306.4v-2.3l7.9-0.1v1.6L524.8,306.4z M524.8,302.1v-1.5l7.9,0.4v1.1L524.8,302.1z M532.7,299l-7.9-0.4v-3
		l7.9-0.7V299z M524.8,293.6v-1.7h7.9v1L524.8,293.6z M524.8,289.9v-0.7l7.9-0.8v1.5H524.8z M524.8,287.2v-0.9c0-0.6-0.4-1-1-1
		h-76.3v-1.1l85.2,0.5v1.7L524.8,287.2z M489.5,313.5l6-17.5l1.8,0.6l-6,17.5L489.5,313.5z M496.1,306.6l-1.2,7.9h-1.5L496.1,306.6z
		 M516.9,314.3H515v-18.5h1.9V314.3z M513,294.8v19.5h-1.1v-16.5v-5.9h1.1V294.8z M509.9,314.3h-3v-15.5h3V314.3z M504.9,297.8v16.5
		H503v-18.5h1.9V297.8z M498.1,314.2L497,314l3.3-22.2l1.1,0.2L498.1,314.2z M501,308v6.5h-1L501,308z M517.9,293.8H515v-2.9
		c0-0.6-0.4-1-1-1h-3.1c-0.6,0-1,0.4-1,1v5.9h-3v-2c0-0.6-0.4-1-1-1h-2.8l0.4-2.6c0.1-0.5-0.3-1-0.8-1.1l-3.1-0.5
		c-0.2,0-0.5,0-0.7,0.2s-0.4,0.4-0.4,0.7l-0.6,4.1l-2.6-0.9c-0.6-0.2-1.1,0.1-1.3,0.6l-6.6,19.4c-0.1,0.3-0.1,0.6,0,0.8h-39.9v-27.2
		h75.2v27.2h-3.8v-19.7C518.9,294.2,518.5,293.8,517.9,293.8z M447.5,316.5h76.3c0.5,0,1-0.5,1-1v-0.7l7.9-0.2v1.9l-85.2,1.3V316.5z
		 M532.7,282.7l-85.2-0.5v-0.8l85.2-1.5V282.7z M356.2,317.8l-90.5-0.2v-1.1h90.5V317.8z M263.7,316.5v1.2l-26.3-1.2H263.7z
		 M265.7,319.6l90.5,0.2v1.5l-90.5-0.8V319.6z M358.2,316.5h87.3v3.1l-87.3-1.8V316.5z M447.5,319.8l85.2-1.3v2l-85.2-0.2V319.8z
		 M532.7,277.9l-85.2,1.5v-1.7h85.2V277.9z M247.1,269.7c0.8-0.7,1.3-1.4,1.6-2.1c0.7-0.4,1.4-0.9,2-1.4c0.9-0.6,1.6-1.2,2.5-1.5
		c0,1.5-0.3,3.1-1.2,4.4c-0.9-0.1-2.2,0.1-3.4,1.7c-0.3,0.5-0.6,0.9-0.8,1.3h-0.1c-0.3-0.1-0.5-0.7-0.6-1.5
		C247.1,270.3,247.1,270,247.1,269.7z M246,266.5c-0.1,0-0.2,0-0.3,0c-1.6,0-2.7-0.4-3.3-1.3c0.6-2,1.6-4.1,2.6-5.2
		c0.7-0.7,1.5-1.3,2.2-1.6c0.1,0.1,0.1,0.1,0.2,0.2c0.1,0.2,0.1,0.3,0.1,0.5c0.2,1.5,0.3,2.9,0.3,4.2
		C247.2,264.3,246.5,265.4,246,266.5z M249.8,264c0-0.1,0.1-0.2,0.2-0.3c0.7-1,1.3-1.9,1.8-2.9c0.3,0,0.5,0.1,0.7,0.1
		c0.2,0.5,0.5,1.1,0.6,1.7c-1.3,0.4-2.3,1.1-3.3,1.9C249.8,264.3,249.8,264.2,249.8,264z M249.6,260.5c0-0.1,0-0.3,0-0.4
		c0.1,0,0.2,0,0.2,0.1C249.7,260.3,249.7,260.4,249.6,260.5z M251.4,256.8c-0.7-0.4-1.4-0.6-2.2-0.7c0-0.7,0-1.4,0-2
		c0.7-0.1,1.7,0,2.6,0.2C251.9,255,251.7,255.9,251.4,256.8z M252.7,271.5c0.4,0.5,0.8,1.2,1,1.9c-0.3,0.2-0.6,0.3-0.8,0.4
		c-1.5,0.5-3,0.3-3.3-0.1C250.7,273.2,251.8,272.3,252.7,271.5z M253,258.2c0.5-1.1,0.9-2.3,0.9-3.4c0.6,0.1,1.2,0.2,1.6,0.3
		c0.6,0.1,1.5,0.2,2.5,0.4c0.1,0,0.2,0,0.3,0c0,1-0.4,2.3-2.1,3.1c-0.6,0.3-1.5,0.5-2.5,0.4C253.5,258.7,253.3,258.4,253,258.2z
		 M258.5,262.5c-0.3,0.3-0.5,0.5-0.8,0.8c-0.6-0.3-1.2-0.5-1.7-0.6c-0.3-0.1-0.6-0.2-0.9-0.2c-0.1-0.5-0.3-1-0.4-1.4
		c0.9-0.1,1.7-0.3,2.4-0.6c0.5-0.2,0.9-0.5,1.3-0.8c-0.1,0.2-0.2,0.4-0.3,0.6C257.9,261,258.1,261.7,258.5,262.5z M261.7,265.8
		c-0.1,0-0.1,0.1-0.2,0.2c-0.7-0.7-1.4-1.2-2.1-1.7c0.1-0.1,0.2-0.1,0.2-0.1C260.3,264.9,261.1,265.4,261.7,265.8z M259.9,260.9
		c0,0,0.1-0.1,0.5-0.1c-0.2,0.1-0.3,0.2-0.4,0.4C259.9,261.1,259.9,261,259.9,260.9z M261.7,269.1c0.8,0.9,1.3,1.9,1.4,2.8
		c0,0.4,0.2,1.6-1.5,2.6c-0.6,0.2-1.3,0.4-1.9,0.6c-0.5,0-0.8-0.2-0.9-0.3c-0.5-0.4-0.9-1.1-1.2-1.9
		C258.9,271.8,260.4,270.4,261.7,269.1z M261.2,262.7c0.5-0.4,1.1-0.9,1.6-1.5c0.4,0.3,0.5,0.6,0.5,0.8c0.1,0.5-0.1,1.2-0.5,2
		C262.3,263.7,261.7,263.2,261.2,262.7z M262.2,258.9c-0.3,0-0.5-0.1-0.7-0.1c-1.3-0.2-2.2,0.1-2.7,0.4c0.9-0.9,1.4-2,1.5-3.3
		c0.8,0.1,1.6,0.3,2.5,0.5C262.9,257.4,262.7,258.2,262.2,258.9z M260.4,267.5c-1,1.1-2.1,2.2-3.2,3.2c-0.1-0.7-0.1-1.4,0-2.1
		c0.1-1.1,0.5-1.9,1-2.7C258.9,266.3,259.6,266.9,260.4,267.5z M255.8,274.3c0.4,0.4,0.6,0.9,0.9,1.3c-0.3,0.1-0.6,0.1-0.9,0.1
		C255.8,275.3,255.9,274.8,255.8,274.3z M255.3,264.6c0.1,0,0.1,0,0.2,0c0.3,0.1,0.6,0.2,0.9,0.3c-0.5,1-1,2.1-1.2,3.4
		c-0.2,1-0.2,2.4,0.1,3.8c-0.4-0.8-0.8-1.6-1.4-2.1C254.9,268.3,255.4,266.4,255.3,264.6z M267.3,269.5c-0.6,1.1-1.4,2-2.3,2.8
		c0-0.2,0-0.5,0-0.7c-0.2-1.4-1-2.9-2.1-4.2c0.3-0.3,0.5-0.5,0.6-0.8c1.7,0.6,3.5,0.7,4.9,0.2c0.1-0.1,0.1-0.1,0.2-0.1
		C268.3,267.6,267.8,268.6,267.3,269.5z M269.6,259.8c0.1,0.1,0.1,0.3,0.2,0.4c0,0.9,0,1.9-0.2,2.9c-0.4,0.9-1,1.4-1.8,1.7
		c-0.9,0.4-2.1,0.3-3.2,0c0.5-1.1,0.8-2.1,0.8-3c-0.1-0.8-0.4-1.6-1.3-2.2c0.4-0.8,0.7-1.7,0.7-2.7
		C266.9,257.5,268.8,258.5,269.6,259.8z M267.7,254.1c0.5,0.8,1,1.7,1.3,2.6c-1.2-0.8-2.8-1.4-4.5-1.9c-0.2-0.7-0.5-1.5-0.8-2.2
		c-0.7-1.3-1.6-2.5-2.8-3.5C263.7,250.1,266.1,251.8,267.7,254.1z M261.8,253.4c0.2,0.3,0.3,0.5,0.4,0.8c-0.7-0.2-1.4-0.3-2.1-0.4
		c-0.4-1.8-1.6-3.6-3.2-4.8C259.1,249.9,260.8,251.4,261.8,253.4z M255,250.1c1.3,0.7,2.4,2,3,3.4c-0.8-0.2-1.5-0.3-2.1-0.4
		c-0.4,0-1-0.2-1.6-0.3c-0.3-0.1-0.6-0.1-0.9-0.2c-0.5-0.9-1.4-1.6-2.4-2C252.5,249.3,254,249.6,255,250.1z M250.4,248.5
		c-0.3,0.2-0.5,0.3-0.8,0.5c-0.4,0.4-0.7,0.7-1,1.1c-0.7,0-1.4,0-2,0.1C247.7,249.4,249,248.8,250.4,248.5z M243,256.9
		c1.4-3,2.4-4.7,4.6-4.8c0,0.1-0.1,0.3-0.2,0.4c-0.1,0.1-0.3,0.2-0.4,0.3c-0.5,0.4-1.1,1.2-1,2.6c0,0.4,0.1,0.8,0.2,1.2
		c-0.9,0.5-1.8,1.1-2.6,2c-0.6,0.7-1.3,1.8-1.9,3C241.9,260,242.3,258.3,243,256.9z M242.3,269.7c-0.3-0.4-0.4-1.2-0.3-2.2
		c0.7,0.6,1.8,1,3.3,1v0.1l-0.1,0.1C243.6,269.8,242.6,270,242.3,269.7z M245.2,271.1c0.3,2,1.2,2.7,2,2.9c0.1,0,0.3,0.1,0.4,0.1
		c0,0.1,0,0.3,0.1,0.4c-1.7-0.7-3.1-1.6-4.3-2.7C243.9,271.7,244.5,271.4,245.2,271.1z M253.7,275.5L253.7,275.5l0.3,0.2h-0.5h0
		C253.6,275.6,253.7,275.6,253.7,275.5z M172.1,277.7h273.4v36.6H176.9c-0.2,0-0.4,0.1-0.6,0.2h-4.2V277.7z M191.9,316.5l71.8,3.2
		v0.5l-85.8-2.7v-0.9H191.9z M177.9,323.3l29.5,1.5h-4.9c-0.1,0-0.3,0-0.4,0.1h-24.2V323.3z M186.9,367.2h-3.5l6.8-40.3h10.9
		l-7.3,20.5c0,0.1,0,0.1,0,0.2l-0.1,0.3L186.9,367.2z M196.2,362.7h-2.9l2.5-14.6l7.5-21.2h5.6L196.2,362.7z M265.7,324.9v-0.3
		l5.9,0.3H265.7z M318,324.9l-52.3-2.3v-0.1l91.5,0.8c0.5,0,0.9-0.5,1-0.9l43.2,2.5H318z M435.5,324.9l-77.3-4.6v-0.5l87.3,1.8v3.3
		H435.5z M447.5,322.3l85.2,0.2v2.4h-85.2V322.3z M515.8,362.7l-12.7-35.8h5.6l7.5,21.2l2.5,14.6H515.8z M525.1,367.2l-7-19.6
		c0,0,0-0.1,0-0.1l-7.3-20.6h10.9l6.9,40.3H525.1z"/>
	<path class="st0" d="M264.7,313.2c0.5,0,1-0.4,1-1v-32.1c0-0.6-0.4-1-1-1c-0.6,0-1,0.4-1,1v32.1
		C263.7,312.8,264.1,313.2,264.7,313.2z"/>
	<path class="st0" d="M357.2,313.2c0.5,0,1-0.4,1-1v-32.1c0-0.6-0.4-1-1-1c-0.6,0-1,0.4-1,1v32.1
		C356.2,312.8,356.6,313.2,357.2,313.2z"/>
	<path class="st0" d="M592.6,197.1l-17.1-10.3c-0.5-0.3-1.1-0.2-1.4,0.3s-0.2,1.1,0.3,1.4l17.1,10.3c0.1,0.1,0.3,0.1,0.5,0.1
		c0.3,0,0.7-0.2,0.9-0.4C593.2,198,593.1,197.4,592.6,197.1z"/>
	<path class="st0" d="M15,350.3H1.7c-0.6,0-1,0.4-1,1c0,0.6,0.4,1,1,1H15c0.6,0,1-0.4,1-1C16,350.7,15.6,350.3,15,350.3z"/>
	<path class="st0" d="M103.2,350.3H42.9c-0.6,0-1,0.4-1,1c0,0.6,0.4,1,1,1h60.3c0.5,0,1-0.4,1-1
		C104.2,350.7,103.8,350.3,103.2,350.3z"/>
	<path class="st0" d="M175.9,350.3H133c-0.6,0-1,0.4-1,1c0,0.6,0.4,1,1,1h42.9c0.6,0,1-0.4,1-1C176.9,350.7,176.5,350.3,175.9,350.3
		z"/>
	<path class="st0" d="M503.5,350.3H207.7c-0.6,0-1,0.4-1,1c0,0.6,0.4,1,1,1h295.8c0.6,0,1-0.4,1-1
		C504.5,350.7,504.1,350.3,503.5,350.3z"/>
	<path class="st0" d="M578.3,351.3c0-0.6-0.4-1-1-1H534c-0.6,0-1,0.4-1,1c0,0.6,0.4,1,1,1h43.3C577.8,352.3,578.3,351.9,578.3,351.3
		z"/>
	<path class="st0" d="M624.1,350.3H599c-0.6,0-1,0.4-1,1c0,0.6,0.4,1,1,1h25.2c0.5,0,1-0.4,0.9-1
		C625.1,350.7,624.7,350.3,624.1,350.3z"/>
</g>
</svg>
