<?xml version="1.0" encoding="utf-8"?>
<!-- Generator: Adobe Illustrator 24.0.1, SVG Export Plug-In . SVG Version: 6.00 Build 0)  -->
<svg version="1.1" id="Layer_1" xmlns="http://www.w3.org/2000/svg" xmlns:xlink="http://www.w3.org/1999/xlink" x="0px" y="0px"
	 viewBox="0 0 684 357" style="enable-background:new 0 0 684 357;" xml:space="preserve">
<style type="text/css">
	.st0{opacity:0.2;fill:#C4C4C4;enable-background:new    ;}
</style>
<g>
	<path class="st0" d="M664.6,266.1h-78.7v-1.9c0-0.6-0.4-1.2-0.9-1.4c-11.2-5-9.4-32-8.8-38.4h22.7c0.8,0,1.5-0.7,1.5-1.5v-36.2
		c0-0.8-0.7-1.5-1.5-1.5h-57.3c-0.8,0-1.5,0.7-1.5,1.5v36.2c0,0.8,0.7,1.5,1.5,1.5h14.7v15.4c0,0.8,0.7,1.5,1.5,1.5s1.5-0.6,1.5-1.5
		v-15.4h5.2c0.6,6.4,2.4,33.4-8.9,38.4c-0.6,0.3-0.9,0.8-0.9,1.4v1.9h-26.1c-0.8,0-1.5,0.7-1.5,1.5v20.5c-1.4-5.4-2.3-9.2-2.7-10.6
		c-2.2-7.8-9.1-9.1-12.1-9.3v-53.4c0-0.8-0.7-1.5-1.5-1.5H175.3c-0.8,0-1.5,0.7-1.5,1.5v53.5c-11.6,0.8-13.3,10-13.5,11.1l-1.9,8.8
		v-20.6c0-0.8-0.7-1.5-1.5-1.5H129v-1.9c0-0.6-0.4-1.2-0.9-1.4c-11.2-5-9.4-32-8.8-38.4h5v15.4c0,0.8,0.7,1.5,1.5,1.5
		c0.9,0,1.5-0.6,1.5-1.5v-15.4h14.8c0.8,0,1.5-0.7,1.4-1.5v-36.2c0-0.8-0.7-1.5-1.5-1.5H84.7c-0.8,0-1.5,0.7-1.5,1.5v36.2
		c0,0.8,0.7,1.5,1.5,1.5h22.9c0.6,6.4,2.4,33.4-8.9,38.4c-0.6,0.3-0.9,0.8-0.9,1.4v1.9H70.4l-2.3-52.4c0-0.8-0.7-1.4-1.5-1.4h-4.4
		l8.9-42.6c3.4,1.3,6.4,1.7,8.7,1.7c2.1,0,3.4-0.3,3.4-0.3c0.5-0.1,1-0.6,1.1-1.1c0.1-0.5,2.6-11.1-7.6-21.6
		c-0.2-0.2-0.3-0.3-0.4-0.4c-2-2-4.7-3.1-7.5-3.1c-2.8,0-5.5,1.1-7.5,3.1c-1.9,1.8-2.9,4.2-3.1,6.8c-1.4-0.3-2.9-0.2-4.2,0.1
		c-0.2-2.5-1.3-4.9-3.1-6.7c-2-2-4.7-3.1-7.5-3.1c-2.8,0-5.5,1.1-7.5,3.1c-0.1,0.2-0.2,0.3-0.3,0.4c-10.2,10.5-7.7,21.2-7.6,21.6
		c0.1,0.5,0.6,1,1.1,1.1c0.2,0,1.4,0.3,3.5,0.3c2.4,0,5.6-0.4,9.1-1.9l8.9,42.6h-4.3c-0.8,0-1.5,0.6-1.5,1.4l-2.4,52.4H20.9
		c-0.8,0-1.5,0.7-1.5,1.5v80.3c0,0.8,0.7,1.5,1.5,1.5h7.5c0.8,0,1.5-0.7,1.5-1.5v-15h118v15c0,0.8,0.7,1.5,1.5,1.5h7.5
		c0.8,0,1.5-0.6,1.6-1.5v-11.6c1.4,0.2,2.6,0.2,3.8,0c2.4-0.5,3-1.6,3.4-2.7c0.2-0.5,0.3-0.8,1-1.2c0.1,0,0.1-0.1,0.2-0.1
		c0.1-0.1,0.6-0.3,1.9-0.3c1,0,1.9,0.2,2.1,0.2h0.1c0.9,0.1,1.8,0.2,2.8,0.3v6.9c0,0.8,0.7,1.5,1.5,1.5h7.4l2.2,14.7
		c0.1,0.8,0.8,1.3,1.5,1.3h15c0.8,0,1.4-0.5,1.3-1.3l2.4-14.7h275.6l2.2,14.7c0.1,0.8,0.8,1.3,1.5,1.3h15c0.7,0,1.4-0.5,1.3-1.3
		l2.4-14.7h7.7c0.9,0,1.5-0.7,1.5-1.5v-2.1c1.2,0.1,2.6,0.2,3.9,0.2c4.2,0,7-0.7,8.8-2.4c0.3-0.3,0.5-0.7,0.5-1.1
		c0-0.4-0.2-0.8-0.5-1.1c-0.3-0.3-0.4-0.5-0.5-0.6c0.2-0.2,0.9-0.5,2.5-0.9v16.5c0,0.8,0.7,1.5,1.5,1.5h7.5c0.8,0,1.5-0.7,1.5-1.5
		v-15h118v15c0,0.8,0.7,1.5,1.5,1.5h7.5c0.8,0,1.5-0.6,1.6-1.5v-80.3C666.1,266.8,665.4,266.1,664.6,266.1z M543.1,188.2h54.3v33.2
		h-22.1c-0.2-0.1-0.3-0.1-0.5-0.1h-9c-0.2,0-0.3,0-0.5,0.1h-7c-0.2-0.1-0.3-0.1-0.5-0.1s-0.3,0-0.5,0.1h-14.2V188.2z M86.2,188.2
		h54.3v33.2h-14.2c-0.2-0.1-0.3-0.1-0.5-0.1s-0.3,0-0.5,0.1h-6.9c-0.2-0.1-0.3-0.1-0.5-0.1h-9c-0.2,0-0.3,0-0.5,0.1H86.2V188.2z
		 M557.5,265.2c12.1-6.8,10.5-33.7,9.8-40.8h5.7c-0.7,7.2-2.3,34.1,9.8,40.8v0.9h-25.3V265.2z M655.5,301.4h-118v-24.2h118V301.4z
		 M509.3,216.3v51.9h-25.8v-18.7c0-6.1-5-11.1-11.1-11.1H376c-6.1,0-11.1,5-11.1,11.1v18.7h-44.2v-18.7c0-6.1-5-11.1-11.1-11.1
		h-96.4c-6.1,0-11.1,5-11.1,11.1v18.7h-25.3v-51.9H509.3z M317.7,268.2H205.1v-18.7c0-4.5,3.6-8.1,8.1-8.1h96.4
		c4.5,0,8.1,3.6,8.1,8.1V268.2z M480.5,268.2H367.9v-18.7c0-4.5,3.6-8.1,8.1-8.1h96.4c4.5,0,8.1,3.6,8.1,8.1V268.2z M100.7,265.2
		c12.1-6.8,10.5-33.7,9.8-40.8h5.7c-0.7,7.2-2.3,34.1,9.8,40.8v0.9h-25.3V265.2z M59.1,212.3h-1.2v-26.6c2.3-1.7,8.2-7.3,8.9-18.2
		c0.5,0.3,1,0.6,1.5,0.8L59.1,212.3z M68.9,148c2,0,4,0.8,5.4,2.2c0.1,0.1,0.2,0.2,0.3,0.3c7.4,7.6,7.3,15.2,7,17.8
		c-0.5,0.1-1.1,0.1-1.8,0.1c-2.3,0-5.4-0.4-8.9-2.1c-0.2-0.1-0.4-0.2-0.6-0.3c0,0,0,0,0,0c-1.1-0.6-2.2-1.3-3.4-2.1
		c-0.4-2.8-1.9-5.3-4-7c0,0-0.1-0.1-0.1-0.1c-0.2-0.2-0.5-0.4-0.7-0.5c-0.2-0.2-0.5-0.3-0.7-0.4c-0.1-2.1,0.7-4.2,2.2-5.7
		C64.9,148.8,66.9,148,68.9,148z M56.4,157.7c0.9,0,1.7,0.1,2.6,0.4c0.1,0,0.1,0.1,0.2,0.1c2.7,1.1,4.5,3.7,4.7,6.6
		c0,0.1,0,0.3,0.1,0.4c0,0,0,0.1,0,0.1c0,0.2,0,0.3,0,0.5c-0.1,10.7-5.5,16-7.6,17.6c-2-1.6-7.5-7-7.6-17.6c0-0.1,0-0.3,0-0.4
		c0-0.2,0-0.4,0-0.5c0.2-2.8,1.9-5.3,4.5-6.5C54.2,157.9,55.3,157.7,56.4,157.7z M30.8,168.5c-0.3-2.6-0.4-10.1,7.1-17.8
		c0.1-0.1,0.2-0.2,0.3-0.3c1.4-1.4,3.4-2.2,5.4-2.2s4,0.8,5.4,2.2c1.5,1.5,2.3,3.5,2.2,5.6c-2.6,1.4-4.4,3.7-5.1,6.6
		c0,0.1,0,0.1-0.1,0.2c-0.1,0.4-0.2,0.8-0.2,1.2c-5.1,3.9-10,4.7-13.2,4.7C31.9,168.6,31.3,168.6,30.8,168.5z M44.5,168.3
		c0.4-0.3,0.9-0.5,1.3-0.8c0.7,11.4,7,17,9.1,18.6v26.3h-1.2L44.5,168.3z M47.7,215.3h4.7h0.3H60h0.3h4.9l2.3,50.8H45.3L47.7,215.3z
		 M26.9,346.4h-4.5v-77.3h20.8c0.2,0.1,0.3,0.1,0.5,0.1H69c0.2,0,0.4,0,0.5-0.1h29.3c0.2,0.1,0.3,0.1,0.5,0.1h28.2
		c0.2,0,0.3,0,0.5-0.1h27.4v33l-3.2,14.8l-1.3,6.2v-20.2v-27.2c0-0.8-0.7-1.5-1.5-1.5h-121c-0.8,0-1.5,0.7-1.5,1.5v27.2v28.5V346.4z
		 M147.9,301.4h-118v-24.2h118V301.4z M29.9,329.9v-25.5h118v25.5H29.9z M155.4,346.4h-4.5v-12.3c1.6,0.7,3.1,1.2,4.5,1.6V346.4z
		 M171.5,281.3h342.3c0.1,0,0.2,0,0.2,0.1s0.1,0.1,0.1,0.2v36.8c0,0.2-0.1,0.3-0.3,0.3h-3H175.3h-3.8c-0.2,0-0.3-0.1-0.3-0.3v-36.8
		C171.2,281.4,171.3,281.3,171.5,281.3z M200.2,353.9h-12.4l-2-13h16.5L200.2,353.9z M498.1,353.9h-12.4l-2-13h16.5L498.1,353.9z
		 M501.9,337.9h-20h-278h-20h-7.1v-6.7v-9.5h332.5v16.2H501.9z M521.5,331.6c-0.2,0.7-0.1,1.4,0.3,2.1c-1.3,0.6-3.2,0.9-5.6,0.9
		c-1.3,0-2.7-0.1-3.9-0.2v-12.7h1.6c1.8,0,3.3-1.5,3.2-3.3v0v-36.8v0c0-1.8-1.5-3.3-3.3-3.3H171.5c-1.8,0-3.3,1.5-3.3,3.3v0v36.8v0
		c0,1.8,1.5,3.3,3.3,3.3h2.3v7.8c-0.9-0.2-1.7-0.2-2.5-0.3c-0.5-0.1-1.5-0.2-2.6-0.2c-1.7,0-2.9,0.3-3.7,0.9c-1.6,0.9-1.9,2-2.2,2.7
		c-0.2,0.4-0.2,0.5-1.1,0.7c-1.1,0.2-2.7,0.1-4.3-0.3c0,0-0.1,0-0.1,0c-1.6-0.3-3.3-0.9-5.1-1.7l6.2-28.8c0-0.1,0-0.2,0-0.3v0
		l4.8-22.2v-0.1c0-0.3,1.1-8.6,12.1-8.6h28.3h115.6h47.2H482h28.8h0.1c0.1,0,0.3,0,0.6,0c2.4,0,8.3,0.7,10,7.1
		c0.6,2.3,2.6,10.2,5.5,21.7c2.3,9.2,4.9,19.4,6.7,26.7c-0.8,0.2-1.5,0.4-2.3,0.5c-1.1,0.2-2.2,0.4-3.2,0.6c-0.1,0-0.2,0.1-0.3,0.2
		C524.3,328.8,522,329.7,521.5,331.6z M534.5,346.4H530v-15.7c0.6-0.1,1.2-0.2,1.9-0.4c0.9-0.2,1.8-0.4,2.6-0.5v1.6V346.4z
		 M537.5,329.9v-25.5h118v25.5H537.5z M663,346.4h-4.5v-15v-28.5v-27.3c0-0.8-0.7-1.5-1.5-1.5H536c-0.8,0-1.5,0.7-1.5,1.5v27.3v14.5
		c-0.6-2.5-1.3-5-1.9-7.6c-0.9-3.5-1.7-7-2.6-10.4v-30.3h25.7c0.2,0.1,0.3,0.1,0.5,0.1h28.2c0.2,0,0.3,0,0.5-0.1H663V346.4z"/>
	<path class="st0" d="M581.8,288.4h29.4c0.8,0,1.5-0.6,1.5-1.5v-4.4c0-0.8-0.7-1.5-1.5-1.5h-29.4c-0.8,0-1.5,0.7-1.5,1.5v4.4
		C580.3,287.7,581,288.4,581.8,288.4z M583.3,284h26.4v1.4h-26.4V284z"/>
	<path class="st0" d="M611.2,309.9h-29.4c-0.8,0-1.5,0.7-1.5,1.5v4.4c0,0.8,0.7,1.5,1.5,1.5h29.4c0.8,0,1.5-0.7,1.5-1.5v-4.4
		C612.7,310.6,612,309.9,611.2,309.9z M609.7,314.3h-26.4v-1.4h26.4V314.3z"/>
	<path class="st0" d="M619.2,259.7h17.1c2.1,0,3.7-1.6,3.7-3.7v-3.4c3.1-0.7,5.4-3.4,5.4-6.7c0-3.3-2.3-6-5.4-6.7v-0.7
		c0-0.8-0.7-1.5-1.5-1.5H617c-0.8,0-1.5,0.7-1.5,1.5V256C615.5,258,617.2,259.7,619.2,259.7z M618.6,240h18.5v0.5
		c0,0.8,0.7,1.5,1.5,1.5c2.2,0,3.9,1.8,3.9,3.9c0,2.2-1.8,3.9-3.9,3.9c-0.8,0-1.5,0.7-1.5,1.5v4.7c0,0.4-0.3,0.7-0.7,0.7h-17.1
		c-0.4,0-0.7-0.3-0.7-0.7V240z"/>
	<path class="st0" d="M607.5,264.2h42.1c0.9,0,1.5-0.7,1.5-1.5s-0.7-1.5-1.5-1.5h-42.1c-0.8,0-1.5,0.7-1.5,1.5
		S606.7,264.2,607.5,264.2z"/>
	<path class="st0" d="M629.2,232.6c0.3,0.5,0.8,0.8,1.3,0.8c0.2,0,0.5-0.1,0.7-0.3c0.8-0.4,1-1.3,0.6-2c-4.6-8-1.9-12.7,1-17.6
		c2.8-4.8,5.9-10.2,0.7-18c-0.5-0.7-1.4-0.9-2.1-0.4s-0.9,1.4-0.4,2.1c4.2,6.3,2,10-0.8,14.8C627.2,217.2,623.7,223,629.2,232.6z"/>
	<path class="st0" d="M623.7,231c0.3,0.6,0.8,0.9,1.4,0.9c0.2,0,0.4,0,0.5,0c0.8-0.4,1.1-1.2,0.8-2c-2.5-5.8-1.3-9.5,0-13.4
		c1.4-4.1,2.7-8.2-0.5-14.1c-0.4-0.7-1.3-1-2-0.6c-0.7,0.4-1,1.3-0.6,2c2.6,4.7,1.6,7.8,0.3,11.7C622.3,219.5,620.8,224.2,623.7,231
		z"/>
	<path class="st0" d="M74.2,288.4h29.4c0.8,0,1.5-0.6,1.5-1.5v-4.4c0-0.8-0.7-1.5-1.5-1.5H74.2c-0.8,0-1.5,0.7-1.5,1.5v4.4
		C72.7,287.7,73.4,288.4,74.2,288.4z M75.7,284h26.4v1.4H75.7V284z"/>
	<path class="st0" d="M103.6,309.9H74.2c-0.8,0-1.5,0.7-1.5,1.5v4.4c0,0.8,0.7,1.5,1.5,1.5h29.4c0.8,0,1.5-0.7,1.5-1.5v-4.4
		C105.1,310.6,104.4,309.9,103.6,309.9z M102.1,314.3H75.7v-1.4h26.4V314.3z"/>
	<path class="st0" d="M56.4,171.4c0.8,0,1.5-0.7,1.5-1.5v-7.4c0-0.8-0.7-1.5-1.5-1.5c-0.8,0-1.5,0.7-1.5,1.5v7.4
		C54.9,170.7,55.6,171.4,56.4,171.4z"/>
	<path class="st0" d="M71,159.8c0.3,0.3,0.7,0.4,1.1,0.4c0.4,0,0.8-0.1,1-0.4c0.6-0.6,0.6-1.5,0-2.1l-5.3-5.3
		c-0.6-0.6-1.5-0.6-2.1,0c-0.6,0.6-0.6,1.5,0,2.1L71,159.8z"/>
	<path class="st0" d="M46.6,154.8c0.6-0.6,0.6-1.5,0-2.1c-0.6-0.6-1.5-0.6-2.1,0l-5.3,5.3c-0.6,0.6-0.6,1.5,0,2.1
		c0.3,0.3,0.7,0.4,1.1,0.4c0.4,0,0.8-0.1,1-0.4L46.6,154.8z"/>
	<path class="st0" d="M51,217.7c-0.9-0.1-1.6,0.6-1.6,1.4l-1.7,42.7c0,0.9,0.6,1.6,1.5,1.6c0.8,0,1.5-0.6,1.5-1.4l1.7-42.7
		C52.5,218.4,51.8,217.7,51,217.7z"/>
	<path class="st0" d="M232.7,145H447c0.8,0,1.5-0.7,1.5-1.5V27.1c0-0.8-0.7-1.5-1.5-1.5H232.7c-0.8,0-1.5,0.7-1.5,1.5v116.4
		C231.2,144.3,231.9,145,232.7,145z M234.2,28.6h211.3V142H234.2V28.6z"/>
	<path class="st0" d="M436.1,84.9V39.4c0-0.8-0.7-1.5-1.5-1.5H245.1c-0.8,0-1.5,0.7-1.5,1.5v68.5c0,0.1-0.1,0.1-0.1,0.2
		c-0.2,0.4-0.1,0.8,0.1,1.2v21.8c0,0.8,0.7,1.5,1.5,1.5h189.5c0.9,0,1.5-0.7,1.5-1.5V85.8C436.2,85.5,436.2,85.2,436.1,84.9z
		 M433.1,108.5l-6.2,3.6l-3.2-3.7c-0.3-0.5-0.9-0.7-1.5-0.5l-12.3,3.4l-2.1-2.8c-0.4-0.6-1.3-0.7-2-0.3l-3.3,2.2l-4.6-2.3
		c-0.4-0.2-0.9-0.2-1.3,0l-4.5,2l-6.2-3.6c-0.6-0.3-1.2-0.3-1.7,0.1l-7.3,5.6l-4.1-3.8c-0.4-0.4-1-0.5-1.6-0.3l-9.4,4.3l-4.3-4
		c-0.4-0.4-1.1-0.5-1.6-0.3c-2.9,1.2-6.4,2.5-7.1,2.6c-0.9-0.2-4.3-1.7-7.1-3c-0.5-0.2-1.2-0.1-1.6,0.2l-6,4.7l-5.9-2.1
		c-0.3-0.1-0.7-0.1-1,0l-6,2l-4-4.9c-0.5-0.5-1.2-0.7-1.8-0.4l-7.7,3.4l-3.4-1.4c-0.3-0.1-0.6-0.2-0.9-0.1l-8.4,1.6l-7.5-4.8
		c-0.5-0.4-1.3-0.3-1.8,0.2l-4.6,4.4l-5.4-2.3c-0.2-0.1-0.4-0.1-0.6-0.1h-9.6l-1.7-0.8c-0.4-0.2-0.8-0.3-1.2-0.1l-4.3,1.7l-2.3-1.6
		c-0.4-0.2-0.9-0.3-1.4-0.1l-4.5,1.8l-3.5-1.3v-5l49.8-13.3L304,95c0.4,0.3,0.9,0.4,1.4,0.2L347,80.8l11.2,7.3
		c0.5,0.3,1.1,0.3,1.6,0l40.5-26l8.7,5c0.4,0.2,0.8,0.2,1.2,0.1l8.2-2.7l14.7,21.3V108.5z M305.2,92.1l-7.6-5.7
		c-0.4-0.2-0.9-0.3-1.3-0.2l-49.7,13.3V76.2l38.2-11.8l26.2,12c0.4,0.2,0.7,0.2,1.1,0.1l13.3-4.3l12.7,8.5L305.2,92.1z M246.6,110.8
		l3,1.2c0.4,0.1,0.7,0.1,1.1,0l4.3-1.7l2.3,1.6c0.4,0.2,0.9,0.3,1.4,0.1l4.4-1.7l1.4,0.7c0.2,0.1,0.5,0.2,0.7,0.2h9.7l6.1,2.5
		c0.5,0.2,1.2,0.1,1.6-0.3l4.5-4.3l7,4.5c0.3,0.2,0.7,0.3,1.1,0.2l8.6-1.6l3.6,1.5c0.4,0.2,0.8,0.2,1.2,0l7.3-3.2l3.9,4.8
		c0.3,0.3,0.8,0.5,1.2,0.5c0.2,0,0.3-0.1,0.6-0.2l6.5-2.2l6.2,2.2c0.5,0.2,1,0.1,1.4-0.2l5.9-4.6c4.2,1.9,6.7,2.9,7.5,2.9
		c0.9,0,4.3-1.2,7.3-2.4l4.3,4c0.4,0.4,1,0.5,1.6,0.3l9.4-4.3l4.3,4c0.5,0.5,1.3,0.5,1.9,0.1l7.5-5.7l6,3.5c0.4,0.3,1,0.3,1.4,0.1
		l4.5-2l4.7,2.3c0.5,0.2,1.1,0.2,1.5-0.1l2.8-1.9l1.9,2.5c0.4,0.4,1,0.7,1.6,0.5l12.3-3.4l3.4,3.9c0.5,0.5,1.3,0.7,1.9,0.3l5.7-3.3
		v10H246.6V110.8z M433.1,40.9v39.6l-12.9-18.6c-0.4-0.6-1.1-0.8-1.7-0.6l-8.7,2.8l-8.9-5.2c-0.5-0.3-1.1-0.3-1.6,0l-40.4,26
		l-10.9-7c-0.4-0.3-0.9-0.3-1.3-0.2l-5.1,1.8l-15.1-10.1c-0.4-0.3-0.9-0.3-1.3-0.2l-13.4,4.3l-26.2-12c-0.4-0.2-0.7-0.2-1.1-0.1
		L246.6,73V40.9H433.1z M246.6,129.6v-4.5h186.5v4.5H246.6z"/>
	<path class="st0" d="M410.7,74.9l-6.8,8.3l-10.8-8.5c-0.6-0.5-1.6-0.4-2.1,0.3c-0.5,0.6-0.4,1.6,0.3,2.1l12,9.4
		c0.3,0.2,0.6,0.3,0.9,0.3c0.4,0,0.8-0.2,1.1-0.6l7-8.5l13.7,7c0.7,0.3,1.6,0,2-0.7c0.3-0.7,0-1.6-0.7-2l-14.8-7.5
		C411.9,74.2,411.1,74.4,410.7,74.9z"/>
	<path class="st0" d="M325.2,56.4h25.3c-0.1,0.6-0.2,1.3-0.2,1.9c0,0.1,0,0.2,0,0.3h-7.4c-0.8,0-1.5,0.7-1.5,1.5
		c0,0.8,0.7,1.5,1.5,1.5h8c1.4,4,5.2,6.9,9.6,6.9c5.7,0,10.2-4.7,10.2-10.3c0-5.6-4.6-10.2-10.2-10.2c-3.8,0-7.2,2.2-8.9,5.4h-26.4
		c-0.8,0-1.5,0.7-1.5,1.5C323.7,55.7,324.4,56.4,325.2,56.4z M360.5,51c4,0,7.2,3.2,7.2,7.2s-3.2,7.2-7.2,7.2
		c-2.8,0-5.1-1.5-6.4-3.8h2.3c0.8,0,1.5-0.7,1.5-1.5c0-0.8-0.7-1.5-1.5-1.5h-3.1c0-0.1,0-0.3,0-0.4c0-0.6,0.1-1.2,0.2-1.8h4.2
		c0.8,0,1.5-0.7,1.5-1.5c0-0.8-0.7-1.5-1.5-1.5h-2.6C356.4,51.9,358.4,51,360.5,51z"/>
	<path class="st0" d="M383.4,51.6c0,0.8,0.7,1.5,1.5,1.5h28c0.8,0,1.5-0.7,1.5-1.5c0-0.8-0.7-1.5-1.5-1.5h-28
		C384.1,50.1,383.4,50.8,383.4,51.6z"/>
	<path class="st0" d="M376.9,47.9h18.5c0.8,0,1.5-0.7,1.5-1.5c0-0.8-0.7-1.5-1.5-1.5h-18.5c-0.8,0-1.5,0.7-1.5,1.5
		C375.4,47.2,376.1,47.9,376.9,47.9z"/>
	<path class="st0" d="M264.2,47.9h39.2c0.8,0,1.5-0.7,1.5-1.5c0-0.8-0.7-1.5-1.5-1.5h-39.2c-0.8,0-1.5,0.7-1.5,1.5
		C262.7,47.2,263.4,47.9,264.2,47.9z"/>
	<path class="st0" d="M184.1,204.5c0.8,0,1.5-0.6,1.5-1.4V2.1c0-0.8-0.7-1.5-1.5-1.5c-0.8,0-1.5,0.7-1.5,1.5V203
		C182.6,203.8,183.3,204.5,184.1,204.5z"/>
	<path class="st0" d="M500.9,204.5c0.8,0,1.5-0.6,1.5-1.4V2.1c0-0.8-0.7-1.5-1.5-1.5s-1.5,0.7-1.5,1.5V203
		C499.4,203.8,500.1,204.5,500.9,204.5z"/>
	<path class="st0" d="M10.4,337.9h-9c-0.8,0-1.5,0.7-1.5,1.5s0.7,1.5,1.5,1.5h9c0.8,0,1.5-0.7,1.5-1.5
		C11.9,338.6,11.2,337.9,10.4,337.9z"/>
	<path class="st0" d="M137.9,337.9h-100c-0.8,0-1.5,0.7-1.5,1.5s0.7,1.5,1.5,1.5h100c0.8,0,1.5-0.7,1.5-1.5
		C139.4,338.6,138.7,337.9,137.9,337.9z"/>
	<path class="st0" d="M644.2,337.9h-96.3c-0.8,0-1.5,0.7-1.5,1.5s0.7,1.5,1.5,1.5h96.3c0.8,0,1.5-0.7,1.5-1.5
		C645.7,338.6,645,337.9,644.2,337.9z"/>
	<path class="st0" d="M682,337.9h-7.8c-0.8,0-1.5,0.7-1.5,1.5s0.7,1.5,1.5,1.5h7.8c0.8,0,1.5-0.7,1.5-1.5S682.8,337.9,682,337.9z"/>
</g>
</svg>
