<?xml version="1.0" encoding="utf-8"?>
<!-- Generator: Adobe Illustrator 24.0.1, SVG Export Plug-In . SVG Version: 6.00 Build 0)  -->
<svg version="1.1" id="Layer_1" xmlns="http://www.w3.org/2000/svg" xmlns:xlink="http://www.w3.org/1999/xlink" x="0px" y="0px"
	 viewBox="0 0 625 370" style="enable-background:new 0 0 625 370;" xml:space="preserve">
<style type="text/css">
	.st0{fill:#FFFFFF;}
</style>
<g id="background-living-room">
	<g>
		<g>
			<path class="st0" d="M453.2,229.5H284.9c-0.6,0-1-0.4-1-1V127.3c0-0.6,0.4-1,1-1h168.3c0.6,0,1,0.4,1,1v101.2
				C454.2,229,453.8,229.5,453.2,229.5z M285.9,227.5h166.3v-99.2H285.9V227.5z"/>
		</g>
	</g>
	<g>
		<g>
			<path class="st0" d="M446.5,222.8H291.6c-0.6,0-1-0.4-1-1V134c0-0.6,0.4-1,1-1h154.9c0.6,0,1,0.4,1,1v87.8
				C447.5,222.3,447.1,222.8,446.5,222.8z M292.6,220.8h152.9V135H292.6V220.8z"/>
		</g>
	</g>
	<g>
		<g>
			<g>
				<path class="st0" d="M108.5,270.4H36.6c-0.6,0-1-0.4-1-1v-29c0-0.7-0.5-1.2-1.2-1.2h-7.7c-0.3,0-0.6-0.1-0.7-0.3
					c-0.2-0.2-0.3-0.5-0.3-0.8c0.1-0.9,0.2-1.7,0.3-2.3l6.4-40.9c0.4-2.8,3.1-5.1,5.9-5.1h68.2c2.8,0,5.5,2.3,5.9,5.1l6.4,40.9
					c0.1,0.6,0.2,1.4,0.3,2.1c0,0.1,0,0.2,0,0.3c0,0.6-0.5,1-1,1c0,0,0,0,0,0h-7.3c-0.7,0-1.2,0.5-1.2,1.2v29
					C109.5,270,109.1,270.4,108.5,270.4z M37.6,268.4h69.9v-28c0-1.8,1.4-3.2,3.2-3.2h6.2c0-0.4-0.1-0.8-0.2-1.1l-6.4-40.9
					c-0.3-1.8-2.1-3.4-3.9-3.4H38.3c-1.8,0-3.6,1.5-3.9,3.4L28,236.1c-0.1,0.3-0.1,0.7-0.2,1.1h6.6c1.8,0,3.2,1.4,3.2,3.2V268.4z"/>
			</g>
		</g>
		<g>
			<g>
				<path class="st0" d="M129.1,298H16c-0.6,0-1-0.4-1-1v-56.5c0-1.8,1.4-3.2,3.2-3.2h16.2c1.8,0,3.2,1.4,3.2,3.2v28h69.9v-28
					c0-1.8,1.4-3.2,3.2-3.2h16.2c1.8,0,3.2,1.4,3.2,3.2V297C130.1,297.5,129.6,298,129.1,298z M17,296h111.1v-55.5
					c0-0.7-0.5-1.2-1.2-1.2h-16.2c-0.7,0-1.2,0.5-1.2,1.2v29c0,0.6-0.4,1-1,1H36.6c-0.6,0-1-0.4-1-1v-29c0-0.7-0.5-1.2-1.2-1.2H18.2
					c-0.7,0-1.2,0.5-1.2,1.2V296z"/>
			</g>
		</g>
		<g>
			<g>
				<path class="st0" d="M33.2,363.4h-4.8c-0.3,0-0.5-0.1-0.7-0.3c-0.2-0.2-0.3-0.5-0.3-0.8l1.8-23.8l5.5-41.7
					c0.1-0.5,0.5-0.9,1-0.9h6.2c0.3,0,0.6,0.1,0.8,0.3c0.2,0.2,0.3,0.5,0.2,0.8l-8.7,65.5C34.1,363.1,33.7,363.4,33.2,363.4z
					 M29.5,361.4h2.9l8.4-63.5h-4.2l-5.4,40.7c0,0,0,0,0,0L29.5,361.4z"/>
			</g>
		</g>
		<g>
			<g>
				<path class="st0" d="M26.3,368.5h-5.2c-0.3,0-0.5-0.1-0.7-0.3c-0.2-0.2-0.3-0.5-0.3-0.8l5.2-70.6c0-0.5,0.5-0.9,1-0.9h9.3
					c0.3,0,0.6,0.1,0.8,0.3c0.2,0.2,0.3,0.5,0.2,0.8l-5.5,41.6c0,0,0,0.1,0,0.1l-3.8,28.9C27.2,368.2,26.8,368.5,26.3,368.5z
					 M22.2,366.5h3.2l3.7-28c0,0,0-0.1,0-0.1l5.4-40.5h-7.3L22.2,366.5z"/>
			</g>
		</g>
		<g>
			<g>
				<path class="st0" d="M117.7,363.4C117.7,363.4,117.7,363.4,117.7,363.4h-4.8c-0.5,0-0.9-0.4-1-0.9l-8.7-65.5
					c0-0.3,0-0.6,0.2-0.8c0.2-0.2,0.5-0.3,0.8-0.3h6.2c0.5,0,0.9,0.4,1,0.9l5.5,41.7l1.8,23.7c0,0.1,0,0.2,0,0.3
					C118.7,363,118.2,363.4,117.7,363.4z M113.7,361.4h2.9l-1.7-22.8l-5.4-40.7h-4.2L113.7,361.4z"/>
			</g>
		</g>
		<g>
			<g>
				<path class="st0" d="M125,368.5C125,368.5,124.9,368.5,125,368.5h-5.2c-0.5,0-0.9-0.4-1-0.9l-9.3-70.6c0-0.3,0-0.6,0.2-0.8
					c0.2-0.2,0.5-0.3,0.8-0.3h9.3c0.5,0,1,0.4,1,0.9l5.2,70.4c0,0.1,0,0.2,0,0.3C126,368.1,125.5,368.5,125,368.5z M120.6,366.5h3.2
					l-5.1-68.6h-7.3L120.6,366.5z"/>
			</g>
		</g>
	</g>
	<g>
		<g>
			<path class="st0" d="M134.3,150.2H4.4c-0.6,0-1-0.4-1-1V19.4c0-0.6,0.4-1,1-1h129.9c0.6,0,1,0.4,1,1v129.9
				C135.3,149.8,134.8,150.2,134.3,150.2z M5.4,148.2h127.9V20.4H5.4V148.2z"/>
		</g>
	</g>
	<g>
		<g>
			<path class="st0" d="M127,143H11.6c-0.6,0-1-0.4-1-1V26.6c0-0.6,0.4-1,1-1H127c0.6,0,1,0.4,1,1V142C128,142.6,127.6,143,127,143z
				 M12.6,141H126V27.6H12.6V141z"/>
		</g>
	</g>
	<g>
		<g>
			<path class="st0" d="M134.3,150.2H4.4c-0.6,0-1-0.4-1-1V19.4c0-0.6,0.4-1,1-1h129.9c0.6,0,1,0.4,1,1v129.8
				C135.3,149.8,134.8,150.2,134.3,150.2z M5.4,148.2h127.9V20.4H5.4V148.2z M123.3,139.3h-108c-0.6,0-1-0.4-1-1v-108
				c0-0.6,0.4-1,1-1h108c0.6,0,1,0.4,1,1v108C124.3,138.9,123.9,139.3,123.3,139.3z M16.3,137.3h106v-106h-106V137.3z"/>
		</g>
	</g>
	<g>
		<g>
			<g>
				<path class="st0" d="M593.3,362.2C593.3,362.2,593.3,362.2,593.3,362.2h-4.5c-0.5,0-0.9-0.4-1-0.9l-10.6-78.5
					c0-0.3,0-0.5,0.2-0.7l27.2-37.9L593,192l-3.9,1.1c-0.3,0.1-0.6,0-0.8-0.1l-5.2-3.1c-0.3-0.2-0.5-0.6-0.5-1
					c0-0.4,0.3-0.7,0.7-0.8l13.4-3.9c0.3-0.1,0.6,0,0.8,0.1c0.2,0.1,0.4,0.4,0.5,0.6l13.5,60.2c0.1,0.3,0,0.6-0.2,0.8l-27.4,38.1
					l10.3,76.8c0,0.1,0.1,0.2,0.1,0.3C594.3,361.7,593.9,362.2,593.3,362.2z M589.7,360.2h2.4L581.9,284c0-0.3,0-0.5,0.2-0.7
					l27.4-38.1l-13.2-58.7l-10.2,3l2.9,1.7l4.5-1.3c0.3-0.1,0.6,0,0.8,0.1c0.2,0.1,0.4,0.4,0.5,0.6l12.1,53.6c0.1,0.3,0,0.6-0.2,0.8
					l-27.3,37.9L589.7,360.2z"/>
			</g>
		</g>
	</g>
	<g>
		<g>
			<path class="st0" d="M570.6,240.7c-0.2,0-0.4,0-0.5-0.1l-22.5-13.3c-0.2-0.1-0.4-0.4-0.5-0.6c-0.1-0.3,0-0.5,0.1-0.8l22.1-37.4
				c0.1-0.2,0.4-0.4,0.6-0.5c0.3-0.1,0.5,0,0.8,0.1l22.4,13.3c0.5,0.3,0.6,0.9,0.4,1.4l-22.1,37.4c-0.1,0.2-0.4,0.4-0.6,0.5
				C570.7,240.7,570.6,240.7,570.6,240.7z M549.5,226l20.7,12.3l21.1-35.6l-20.7-12.3L549.5,226z"/>
		</g>
	</g>
	<g>
		<g>
			<path class="st0" d="M623.2,369.5h-65.4c-0.6,0-1-0.4-1-1v-3.2c0-0.5,0.4-0.9,0.9-1l29.2-4.1c0,0,0.1,0,0.1,0h7.4
				c0,0,0.1,0,0.1,0l28.8,4.3c0.5,0.1,0.9,0.5,0.9,1v3.1C624.2,369.1,623.7,369.5,623.2,369.5z M558.8,367.5h63.4v-1.2l-27.8-4.1
				h-7.2l-28.3,4V367.5z"/>
		</g>
	</g>
	<g>
		<g>
			<g>
				<path class="st0" d="M545.4,80.4h-27.2c-0.6,0-1-0.4-1-1V43.9c0-0.6,0.4-1,1-1h27.2c0.6,0,1,0.4,1,1v35.5
					C546.4,79.9,546,80.4,545.4,80.4z M519.3,78.4h25.2V44.9h-25.2V78.4z"/>
			</g>
		</g>
		<g>
			<g>
				<path class="st0" d="M541,75.9h-18.2c-0.6,0-1-0.4-1-1V48.3c0-0.6,0.4-1,1-1H541c0.6,0,1,0.4,1,1v26.6
					C542,75.4,541.5,75.9,541,75.9z M523.7,73.9H540V49.3h-16.2V73.9z"/>
			</g>
		</g>
		<g>
			<g>
				<path class="st0" d="M536.4,71.8c-1.1,0-2-0.1-2.8-0.3c-0.7-0.2-1.4-0.3-2-0.5c-1.6-0.5-3-0.8-5-0.5c-1.3,0.2-2.5,0.4-3.7,0.6
					c-0.3,0.1-0.6,0-0.8-0.2c-0.2-0.2-0.4-0.5-0.4-0.8v-3.8c0-0.4,0.2-0.8,0.6-0.9c1.5-0.6,3.1-1.3,4.7-2.2c0.4-0.2,1.1-0.7,1.9-1.2
					c2.7-1.8,4.8-3.2,6.2-2.9c0.9,0.3,1.5,1,2,1.7c0.2,0.3,0.6,0.8,0.8,0.9c0.1,0,0.2,0,0.4,0c0.6,0,1.3-0.2,2.2-0.6
					c0.3-0.1,0.7-0.1,1,0.1c0.3,0.2,0.5,0.5,0.5,0.8v8.4c0,0.5-0.3,0.9-0.8,1C539.4,71.7,537.8,71.8,536.4,71.8z M528.1,68.4
					c1.6,0,2.8,0.3,4.1,0.7c0.6,0.2,1.2,0.3,1.9,0.5c1.5,0.3,3.5,0.3,5.9-0.1v-6.1c-0.6,0.2-1.1,0.3-1.7,0.3h0c-0.3,0-0.6,0-0.8-0.1
					c-0.9-0.3-1.4-1-1.9-1.6c-0.2-0.3-0.6-0.8-0.8-0.9c-0.8,0-3.2,1.6-4.6,2.6c-0.9,0.6-1.6,1.1-2.1,1.4c-1.4,0.8-2.8,1.4-4.2,2V69
					c0.8-0.1,1.7-0.3,2.6-0.4C527,68.4,527.5,68.4,528.1,68.4z"/>
			</g>
		</g>
		<g>
			<g>
				<path class="st0" d="M541,75.9h-18.2c-0.6,0-1-0.4-1-1v-4.7c0-0.5,0.3-0.9,0.8-1c1.2-0.2,2.5-0.4,3.8-0.6
					c0.6-0.1,1.2-0.1,1.8-0.1c1.6,0,2.8,0.3,4.1,0.7c0.6,0.2,1.2,0.3,1.9,0.5c1.6,0.4,3.9,0.3,6.8-0.2c0.3-0.1,0.6,0,0.8,0.2
					c0.2,0.2,0.4,0.5,0.4,0.8v4.5C542,75.4,541.5,75.9,541,75.9z M523.8,73.9H540v-2.4c-1.3,0.2-2.5,0.3-3.5,0.3l0,0
					c-1.1,0-2-0.1-2.8-0.3c-0.7-0.2-1.4-0.3-2-0.5c-1.6-0.5-3-0.8-5-0.5c-1,0.1-1.9,0.3-2.9,0.5V73.9z"/>
			</g>
		</g>
		<g>
			<g>
				<path class="st0" d="M527.9,58L527.9,58c-0.2,0-0.3,0-0.5,0c-1.6-0.2-3-1.2-3.5-2.6c-0.5-1.5,0.1-3,1.6-4c0.6-0.4,1.3-0.6,2-0.5
					c1.2-0.3,2.5-0.1,3.5,0.7c1.4,1.1,1.8,2.9,1,4.4C531.2,57.2,529.6,58,527.9,58z M527.2,52.8c-0.2,0-0.4,0.1-0.6,0.2
					c-0.3,0.2-1.1,0.9-0.8,1.8c0.2,0.8,1.1,1.2,1.8,1.2c1.1,0.1,2.2-0.4,2.6-1.2c0.4-0.7,0-1.4-0.5-1.8c-0.4-0.3-0.8-0.4-1.1-0.4
					c-0.2,0-0.5,0-0.7,0.1c-0.2,0.1-0.4,0.1-0.5,0C527.3,52.8,527.3,52.8,527.2,52.8z"/>
			</g>
		</g>
		<g>
			<g>
				<path class="st0" d="M549.1,80.4c-0.2,0-0.4-0.1-0.6-0.2l-3.6-2.8c-0.2-0.2-0.4-0.5-0.4-0.8V53.1c0-0.5,0.3-0.9,0.8-1
					c0.5-0.1,0.9,0.2,1.1,0.6l7.3,20.1c0.1,0.3,0.1,0.6-0.1,0.8l-3.6,6.2c-0.1,0.2-0.4,0.4-0.7,0.5
					C549.2,80.4,549.1,80.4,549.1,80.4z M546.4,76.1l2.3,1.8l2.8-4.8l-5.2-14.3V76.1z"/>
			</g>
		</g>
	</g>
	<g>
		<g>
			<g>
				<path class="st0" d="M585.1,138.8h-6.7c-0.6,0-1-0.4-1-1v-35.2c0-0.6,0.4-1,1-1h6.7c0.6,0,1,0.4,1,1v35.2
					C586.1,138.4,585.7,138.8,585.1,138.8z M579.4,136.8h4.7v-33.2h-4.7V136.8z"/>
			</g>
		</g>
		<g>
			<g>
				<path class="st0" d="M605.7,138.8H599c-0.6,0-1-0.4-1-1v-35.2c0-0.6,0.4-1,1-1h6.7c0.6,0,1,0.4,1,1v35.2
					C606.7,138.4,606.2,138.8,605.7,138.8z M600,136.8h4.7v-33.2H600V136.8z"/>
			</g>
		</g>
		<g>
			<g>
				<path class="st0" d="M590.5,138.8h-5.3c-0.6,0-1-0.4-1-1V95.9c0-0.6,0.4-1,1-1h5.3c0.6,0,1,0.4,1,1v41.9
					C591.5,138.4,591,138.8,590.5,138.8z M586.1,136.8h3.3V96.9h-3.3V136.8z"/>
			</g>
		</g>
		<g>
			<g>
				<path class="st0" d="M578.4,138.8h-6.9c-0.6,0-1-0.4-1-1V99.4c0-0.6,0.4-1,1-1h6.9c0.6,0,1,0.4,1,1v38.5
					C579.4,138.4,579,138.8,578.4,138.8z M572.5,136.8h4.9v-36.5h-4.9V136.8z"/>
			</g>
		</g>
		<g>
			<g>
				<path class="st0" d="M599,138.8h-8.5c-0.6,0-1-0.4-1-1v-30c0-0.6,0.4-1,1-1h8.5c0.6,0,1,0.4,1,1v30
					C600,138.4,599.5,138.8,599,138.8z M591.5,136.8h6.5v-28h-6.5V136.8z"/>
			</g>
		</g>
		<g>
			<g>
				<path class="st0" d="M562.4,138.8c-0.1,0-0.2,0-0.3,0l-8.1-2.6c-0.5-0.2-0.8-0.7-0.6-1.3l9.1-28.6c0.1-0.3,0.3-0.5,0.5-0.6
					c0.2-0.1,0.5-0.1,0.8-0.1l8.1,2.6c0.3,0.1,0.5,0.3,0.6,0.5c0.1,0.2,0.1,0.5,0.1,0.8l-9.1,28.6c-0.1,0.3-0.3,0.5-0.5,0.6
					C562.7,138.8,562.6,138.8,562.4,138.8z M555.6,134.6l6.2,2l8.5-26.7l-6.2-2L555.6,134.6z"/>
			</g>
		</g>
	</g>
	<g>
		<g>
			<path class="st0" d="M606.9,80.2h-5.5c-0.1,0-0.2,0-0.3,0c-4.5-1.3-7.7-5.6-7.7-10.3c0-5.9,4.8-10.7,10.7-10.7
				c5.9,0,10.7,4.8,10.7,10.7c0,4.7-3.2,9-7.7,10.3C607.1,80.2,607,80.2,606.9,80.2z M601.6,78.2h5.2c3.6-1.1,6.1-4.5,6.1-8.3
				c0-4.8-3.9-8.7-8.7-8.7c-4.8,0-8.7,3.9-8.7,8.7C595.5,73.7,598,77.1,601.6,78.2z"/>
		</g>
	</g>
	<g>
		<g>
			<path class="st0" d="M585,80.2h-4.5c-0.1,0-0.2,0-0.3,0c-3.8-1.1-6.5-4.7-6.5-8.6c0-5,4-9,9-9c4.9,0,9,4,9,9c0,4-2.7,7.5-6.4,8.6
				C585.2,80.2,585.1,80.2,585,80.2z M580.6,78.2h4.2c2.9-0.9,4.9-3.6,4.9-6.7c0-3.8-3.1-7-7-7c-3.8,0-7,3.1-7,7
				C575.8,74.6,577.8,77.3,580.6,78.2z"/>
		</g>
	</g>
	<g>
		<g>
			<path class="st0" d="M566.4,80.2h-3.5c-0.1,0-0.2,0-0.3,0c-3.1-0.9-5.2-3.8-5.2-7c0-4,3.3-7.3,7.3-7.3c4,0,7.3,3.3,7.3,7.3
				c0,3.2-2.2,6.1-5.2,7C566.6,80.2,566.5,80.2,566.4,80.2z M563,78.2h3.2c2.2-0.7,3.7-2.8,3.7-5c0-2.9-2.4-5.3-5.3-5.3
				c-2.9,0-5.3,2.4-5.3,5.3C559.4,75.5,560.9,77.5,563,78.2z"/>
		</g>
	</g>
	<g>
		<g>
			<path class="st0" d="M519.2,138.9h-23.3c-0.6,0-1-0.4-1-1v-2.6h-0.8c-0.6,0-1-0.4-1-1V113c0-0.6,0.4-1,1-1h27.4c0.6,0,1,0.4,1,1
				v21.3c0,0.6-0.4,1-1,1h-1.2v2.6C520.2,138.4,519.8,138.9,519.2,138.9z M496.9,136.9h21.3v-2.6c0-0.6,0.4-1,1-1h1.2V114h-25.4
				v19.3h0.8c0.6,0,1,0.4,1,1V136.9z"/>
		</g>
	</g>
	<g>
		<g>
			<g>
				<path class="st0" d="M623.4,150.4H475.9c-0.6,0-1-0.4-1-1v-11.6c0-0.6,0.4-1,1-1h134.8V92H506.2c-0.6,0-1-0.4-1-1V79.4
					c0-0.6,0.4-1,1-1h117.2c0.6,0,1,0.4,1,1v70.1C624.4,150,623.9,150.4,623.4,150.4z M476.9,148.4h145.4V80.4H507.2V90h104.6
					c0.6,0,1,0.4,1,1v46.9c0,0.6-0.4,1-1,1H476.9V148.4z"/>
			</g>
		</g>
	</g>
	<g>
		<g>
			<path class="st0" d="M273.8,94.4v-2H245c0-1-0.1-1.9-0.2-2.8l17.9-3.2l-0.3-1.9l-17.9,3.1c-0.2-0.9-0.5-1.8-0.7-2.7l17.1-6.2
				l-0.7-1.9L243,83.1c-0.4-0.9-0.8-1.7-1.2-2.6l15.8-9.1l9.2-5.3l-1-1.7l-25,14.4c-0.5-0.8-1-1.6-1.6-2.3l14-11.7l-1.3-1.5L238,75
				c-0.6-0.7-1.3-1.4-2-2l11.7-13.9l-1.5-1.3l-11.7,14c-0.7-0.6-1.5-1.1-2.3-1.6l9.1-15.8l5.3-9.2l-1.7-1l-14.4,25
				c-0.8-0.4-1.7-0.8-2.6-1.2l6.2-17.1l-1.8-0.7l-6.2,17.1c-0.9-0.3-1.8-0.5-2.7-0.7l3.2-17.9l-1.9-0.3l-3.2,17.9
				c-0.9-0.1-1.9-0.2-2.8-0.2V37.2h-2V66c-1,0-1.9,0.1-2.8,0.2l-3.2-17.9l-1.9,0.3l3.2,17.9c-0.9,0.2-1.8,0.4-2.7,0.7l-6.2-17.1
				l-1.8,0.7l6.2,17.1c-0.9,0.4-1.7,0.8-2.6,1.2l-9.1-15.8l-5.3-9.2l-1.7,1l14.4,25c-0.8,0.5-1.6,1-2.3,1.6l-11.7-14l-1.5,1.3
				l11.7,13.9c-0.7,0.6-1.4,1.3-2,2l-13.9-11.7l-1.3,1.5L196,76.6c-0.6,0.7-1.1,1.5-1.6,2.3l-10.2-5.9l-14.7-8.5l-1,1.7l9.2,5.3
				l5.5,3.2l10.2,5.9c-0.4,0.8-0.8,1.7-1.2,2.6l-17.1-6.2l-0.7,1.9l17.1,6.2c-0.3,0.9-0.5,1.8-0.7,2.7l-17.9-3.1l-0.3,1.9l17.9,3.2
				c-0.1,0.9-0.2,1.9-0.2,2.8h-28.8v2h28.8c0,1,0.1,1.9,0.2,2.8l-17.9,3.2l0.3,1.9l17.9-3.2c0.2,0.9,0.4,1.8,0.7,2.7l-17.1,6.2
				l0.7,1.8l17.1-6.2c0.4,0.9,0.8,1.7,1.2,2.5l-24.9,14.4l1,1.7l9.2-5.3l15.8-9.1c0.5,0.8,1,1.6,1.6,2.3L182.1,122l1.3,1.5
				l13.9-11.7c0.6,0.7,1.3,1.4,2,2l-11.7,13.9l1.5,1.3l11.7-13.9c0.7,0.6,1.5,1.1,2.3,1.6l-14.4,24.9l1.7,1l5.3-9.2h0l9.1-15.8
				c0.8,0.4,1.7,0.8,2.5,1.2l-6.2,17.1l1.8,0.7l6.2-17.1c0.9,0.3,1.8,0.5,2.7,0.7l-3.2,17.9l1.9,0.3l3.2-17.9
				c0.9,0.1,1.9,0.2,2.8,0.2v28.8h2v-28.8c1,0,1.9-0.1,2.8-0.2l3.2,17.9l1.9-0.3l-3.2-17.9c0.9-0.2,1.8-0.4,2.7-0.7l6.2,17.1
				l1.8-0.7l-6.2-17.1c0.9-0.4,1.7-0.8,2.6-1.2l9.1,15.8l5.3,9.2l1.7-1l-14.4-24.9c0.8-0.5,1.6-1,2.3-1.6l11.7,13.9l1.5-1.3
				L236,113.8c0.7-0.6,1.4-1.3,2-2l13.9,11.7l1.3-1.5l-14-11.7c0.6-0.7,1.1-1.5,1.6-2.3l15.8,9.1l9.2,5.3l1-1.7l-25-14.4
				c0.4-0.8,0.8-1.7,1.2-2.5l17.1,6.2l0.7-1.8l-17.1-6.2c0.3-0.9,0.5-1.8,0.7-2.7l17.9,3.2l0.3-1.9l-17.9-3.2
				c0.1-0.9,0.2-1.9,0.2-2.8H273.8z M217.6,118.5c-13.9,0-25.1-11.2-25.1-25.1c0-13.9,11.2-25.1,25.1-25.1
				c13.9,0,25.1,11.2,25.1,25.1C242.7,107.3,231.5,118.5,217.6,118.5z"/>
		</g>
	</g>
	<g>
		<g>
			<path class="st0" d="M217.6,116.6c-12.8,0-23.2-10.4-23.2-23.2c0-12.8,10.4-23.2,23.2-23.2c12.8,0,23.2,10.4,23.2,23.2
				C240.8,106.2,230.4,116.6,217.6,116.6z M217.6,72.2c-11.7,0-21.2,9.5-21.2,21.2c0,11.7,9.5,21.2,21.2,21.2
				c11.7,0,21.2-9.5,21.2-21.2C238.8,81.7,229.3,72.2,217.6,72.2z"/>
		</g>
	</g>
	<g>
		<g>
			<path class="st0" d="M206.2,91.3c-0.3,0-0.5-0.1-0.7-0.3c-0.4-0.4-0.4-1,0-1.4L216,79.1c0.4-0.4,1-0.4,1.4,0c0.4,0.4,0.4,1,0,1.4
				L206.9,91C206.7,91.2,206.5,91.3,206.2,91.3z"/>
		</g>
	</g>
	<g>
		<g>
			<path class="st0" d="M205.7,101.5c-0.3,0-0.5-0.1-0.7-0.3c-0.4-0.4-0.4-1,0-1.4l19.7-19.7c0.4-0.4,1-0.4,1.4,0
				c0.4,0.4,0.4,1,0,1.4l-19.7,19.7C206.2,101.4,205.9,101.5,205.7,101.5z"/>
		</g>
	</g>
	<g>
		<g>
			<path class="st0" d="M214.2,103.6c-0.3,0-0.5-0.1-0.7-0.3c-0.4-0.4-0.4-1,0-1.4l15.2-15.2c0.4-0.4,1-0.4,1.4,0
				c0.4,0.4,0.4,1,0,1.4l-15.2,15.2C214.7,103.5,214.4,103.6,214.2,103.6z"/>
		</g>
	</g>
	<g>
		<g>
			<path class="st0" d="M220.6,106.4c-0.3,0-0.5-0.1-0.7-0.3c-0.4-0.4-0.4-1,0-1.4l10.9-10.9c0.4-0.4,1-0.4,1.4,0
				c0.4,0.4,0.4,1,0,1.4l-10.9,10.9C221.1,106.3,220.8,106.4,220.6,106.4z"/>
		</g>
	</g>
	<g>
		<g>
			<path class="st0" d="M497.5,114c-0.6,0-1-0.4-1-1v-7.2c0-0.6,0.4-1,1-1c0.6,0,1,0.4,1,1v7.2C498.5,113.6,498,114,497.5,114z"/>
		</g>
	</g>
	<g>
		<g>
			<path class="st0" d="M500.3,114c-0.6,0-1-0.4-1-1v-5.6c0-0.6,0.4-1,1-1c0.6,0,1,0.4,1,1v5.6C501.3,113.6,500.9,114,500.3,114z"/>
		</g>
	</g>
	<g>
		<g>
			<path class="st0" d="M503.2,114c-0.6,0-1-0.4-1-1v-9.5c0-0.6,0.4-1,1-1c0.6,0,1,0.4,1,1v9.5C504.2,113.6,503.8,114,503.2,114z"/>
		</g>
	</g>
	<g>
		<g>
			<path class="st0" d="M506.3,114c-0.6,0-1-0.4-1-1v-7.6c0-0.6,0.4-1,1-1c0.6,0,1,0.4,1,1v7.6C507.3,113.6,506.9,114,506.3,114z"/>
		</g>
	</g>
	<g>
		<g>
			<path class="st0" d="M509.4,114c-0.6,0-1-0.4-1-1v-11.4c0-0.6,0.4-1,1-1c0.6,0,1,0.4,1,1V113C510.4,113.6,510,114,509.4,114z"/>
		</g>
	</g>
	<g>
		<g>
			<path class="st0" d="M512.2,114c-0.6,0-1-0.4-1-1v-7.6c0-0.6,0.4-1,1-1c0.6,0,1,0.4,1,1v7.6C513.2,113.6,512.8,114,512.2,114z"/>
		</g>
	</g>
	<g>
		<g>
			<path class="st0" d="M515.2,114c-0.6,0-1-0.4-1-1v-10.9c0-0.6,0.4-1,1-1c0.6,0,1,0.4,1,1V113C516.2,113.6,515.8,114,515.2,114z"
				/>
		</g>
	</g>
	<g>
		<g>
			<path class="st0" d="M518.3,114c-0.6,0-1-0.4-1-1v-7.2c0-0.6,0.4-1,1-1c0.6,0,1,0.4,1,1v7.2C519.3,113.6,518.8,114,518.3,114z"/>
		</g>
	</g>
	<g>
		<g>
			<path class="st0" d="M446.5,225.8h-4.7c-0.6,0-1-0.4-1-1c0-0.6,0.4-1,1-1h4.7c0.6,0,1,0.4,1,1
				C447.5,225.4,447.1,225.8,446.5,225.8z"/>
		</g>
	</g>
	<g>
		<g>
			<path class="st0" d="M437.1,225.8h-4.7c-0.6,0-1-0.4-1-1c0-0.6,0.4-1,1-1h4.7c0.6,0,1,0.4,1,1
				C438.1,225.4,437.6,225.8,437.1,225.8z"/>
		</g>
	</g>
	<g>
		<g>
			<path class="st0" d="M328.6,200.2c-0.1,0-0.3,0-0.4-0.1l-33-16c-0.5-0.2-0.7-0.8-0.5-1.3c0.2-0.5,0.8-0.7,1.3-0.5l32.6,15.8
				l37.3-13.9c0.2-0.1,0.4-0.1,0.6,0l8.7,2.6l31.9-12.3c0.3-0.1,0.6-0.1,0.9,0.1l19.1,12.1l7.1-2.7c0.3-0.1,0.7-0.1,1,0.2l7.1,5.8
				c0.4,0.3,0.5,1,0.1,1.4c-0.3,0.4-1,0.5-1.4,0.1l-6.6-5.4l-7.1,2.7c-0.3,0.1-0.6,0.1-0.9-0.1l-19.1-12.1l-31.8,12.2
				c-0.2,0.1-0.4,0.1-0.6,0l-8.7-2.6L329,200.1C328.8,200.1,328.7,200.2,328.6,200.2z"/>
		</g>
	</g>
	<g>
		<g>
			<path class="st0" d="M388.6,188.3c-0.4,0-0.8-0.2-0.9-0.6c-0.2-0.5,0.1-1.1,0.6-1.3l17.5-6.6c0.5-0.2,1.1,0.1,1.3,0.6
				c0.2,0.5-0.1,1.1-0.6,1.3l-17.5,6.6C388.8,188.3,388.7,188.3,388.6,188.3z"/>
		</g>
	</g>
	<g>
		<g>
			<path class="st0" d="M322.1,201.3c-0.1,0-0.3,0-0.4-0.1l-16-7.7l-3.8,2c-0.5,0.3-1.1,0.1-1.4-0.4c-0.3-0.5-0.1-1.1,0.4-1.4
				l4.2-2.2c0.3-0.1,0.6-0.2,0.9,0l16.5,7.9c0.5,0.2,0.7,0.8,0.5,1.3C322.8,201.1,322.5,201.3,322.1,201.3z"/>
		</g>
	</g>
	<g>
		<g>
			<path class="st0" d="M328.3,169.8c-5.9,0-10.6-4.8-10.6-10.6s4.8-10.6,10.6-10.6s10.6,4.8,10.6,10.6S334.2,169.8,328.3,169.8z
				 M328.3,150.6c-4.8,0-8.6,3.9-8.6,8.6c0,4.8,3.9,8.6,8.6,8.6c4.8,0,8.6-3.9,8.6-8.6C336.9,154.5,333.1,150.6,328.3,150.6z"/>
		</g>
	</g>
	<g>
		<g>
			<path class="st0" d="M69.5,113.7c-4.2,0-8.2-1.3-12-3.8c-9.8-6.6-16.1-20.9-16.1-36.4c0-20.7,11-34,28.1-34s28.1,13.3,28.1,34
				c0,15.5-6.3,29.8-16.1,36.4C77.8,112.4,73.7,113.7,69.5,113.7z M69.5,41.5c-15.8,0-26.1,12.6-26.1,32c0,14.9,6,28.5,15.2,34.7
				c3.4,2.3,7.1,3.5,10.8,3.5c3.8,0,7.5-1.2,10.9-3.5c9.2-6.2,15.2-19.9,15.2-34.7C95.6,54,85.4,41.5,69.5,41.5z"/>
		</g>
	</g>
	<g>
		<g>
			<path class="st0" d="M72.6,89.4C72.5,89.4,72.5,89.4,72.6,89.4c-0.6,0-1-0.5-1-1.1l1.5-20.2c0-0.5,0.5-0.9,1-0.9h13.6
				c0.6,0,1,0.4,1,1c0,0.6-0.4,1-1,1H75l-1.5,19.3C73.5,89,73.1,89.4,72.6,89.4z"/>
		</g>
	</g>
	<g>
		<g>
			<path class="st0" d="M77.1,99.2H61.7c-0.6,0-1-0.4-1-1s0.4-1,1-1h15.4c0.6,0,1,0.4,1,1S77.7,99.2,77.1,99.2z"/>
		</g>
	</g>
	<g>
		<g>
			<path class="st0" d="M72,103.8h-6.3c-0.6,0-1-0.4-1-1c0-0.6,0.4-1,1-1H72c0.6,0,1,0.4,1,1C73,103.3,72.5,103.8,72,103.8z"/>
		</g>
	</g>
	<g>
		<g>
			<path class="st0" d="M72.6,89.4h-3.7c-0.6,0-1-0.4-1-1c0-0.6,0.4-1,1-1h3.7c0.6,0,1,0.4,1,1C73.6,88.9,73.1,89.4,72.6,89.4z"/>
		</g>
	</g>
	<g>
		<g>
			<path class="st0" d="M21.7,128.7c-0.5,0-0.9-0.4-1-0.9c-0.1-0.5,0.3-1.1,0.8-1.1l31-4.6l2.8-14.6c0.1-0.5,0.6-0.9,1.2-0.8
				c0.5,0.1,0.9,0.6,0.8,1.2l-2.9,15.3c-0.1,0.4-0.4,0.7-0.8,0.8l-31.7,4.7C21.8,128.6,21.7,128.7,21.7,128.7z"/>
		</g>
	</g>
	<g>
		<g>
			<path class="st0" d="M117.7,128.7c0,0-0.1,0-0.1,0L85.9,124c-0.4-0.1-0.8-0.4-0.8-0.8l-2.9-15.3c-0.1-0.5,0.3-1.1,0.8-1.2
				c0.5-0.1,1.1,0.3,1.2,0.8l2.8,14.6l31,4.6c0.5,0.1,0.9,0.6,0.8,1.1C118.6,128.3,118.2,128.7,117.7,128.7z"/>
		</g>
	</g>
	<g>
		<g>
			<g>
				<path class="st0" d="M350,24h-18.4c-0.5,0-1,0.5-1,1v15.9h2V26H349v20h-7.9v2h8.9c0.5,0,1-0.5,1-1V25C351,24.4,350.6,24,350,24z
					"/>
			</g>
		</g>
	</g>
	<g>
		<g>
			<g>
				<path class="st0" d="M382.1,56.5h-19.4c-0.6,0-1-0.4-1-1V32.2c0-0.6,0.4-1,1-1h19.4c0.6,0,1,0.4,1,1v23.3
					C383.1,56,382.7,56.5,382.1,56.5z M363.7,54.5h17.4V33.2h-17.4V54.5z"/>
			</g>
		</g>
	</g>
	<g>
		<g>
			<g>
				<path class="st0" d="M419.5,21.6h-19.5c-0.5,0-1,0.5-1,1v15.9h2V23.6h17.5v21.4h-7.9v2h8.9c0.5,0,1-0.5,1-1V22.6
					C420.5,22.1,420,21.6,419.5,21.6z"/>
			</g>
		</g>
	</g>
	<g>
		<g>
			<g>
				<path class="st0" d="M452.9,41.6h-20.4c-0.6,0-1,0.5-1,1v9.8h2v-8.8h18.4v22.5h-14.2v2h15.2c0.6,0,1-0.5,1-1V42.6
					C453.9,42.1,453.5,41.6,452.9,41.6z"/>
			</g>
		</g>
	</g>
	<g>
		<g>
			<g>
				<path class="st0" d="M338.2,70.7h-21.6c-0.6,0-1-0.4-1-1V43.8c0-0.6,0.4-1,1-1h21.6c0.6,0,1,0.4,1,1v25.9
					C339.2,70.3,338.7,70.7,338.2,70.7z M317.6,68.7h19.6V44.8h-19.6V68.7z"/>
			</g>
		</g>
	</g>
	<g>
		<g>
			<g>
				<path class="st0" d="M369.9,89.2h-21.1c-0.6,0-1-0.4-1-1V62.9c0-0.6,0.4-1,1-1h21.1c0.6,0,1,0.4,1,1v25.4
					C370.9,88.8,370.4,89.2,369.9,89.2z M349.7,87.2h19.1V63.9h-19.1V87.2z"/>
			</g>
		</g>
	</g>
	<g>
		<g>
			<g>
				<path class="st0" d="M407.5,69.2h-22.2c-0.6,0-1-0.4-1-1V41.6c0-0.6,0.4-1,1-1h22.2c0.6,0,1,0.4,1,1v26.7
					C408.5,68.8,408.1,69.2,407.5,69.2z M386.3,67.2h20.2V42.6h-20.2V67.2z"/>
			</g>
		</g>
	</g>
	<g>
		<g>
			<g>
				<path class="st0" d="M434.8,82h-21.4c-0.6,0-1-0.4-1-1V55.4c0-0.6,0.4-1,1-1h21.4c0.6,0,1,0.4,1,1V81
					C435.8,81.6,435.3,82,434.8,82z M414.4,80h19.4V56.4h-19.4V80z"/>
			</g>
		</g>
	</g>
	<g>
		<g>
			<path class="st0" d="M372.4,32.2c-0.6,0-1-0.4-1-1v-30c0-0.6,0.4-1,1-1c0.6,0,1,0.4,1,1v30C373.4,31.7,373,32.2,372.4,32.2z"/>
		</g>
	</g>
	<g>
		<g>
			<path class="st0" d="M396.4,42.6c-0.6,0-1-0.4-1-1V1.1c0-0.6,0.4-1,1-1c0.6,0,1,0.4,1,1v40.5C397.4,42.2,397,42.6,396.4,42.6z"/>
		</g>
	</g>
	<g>
		<g>
			<path class="st0" d="M409.7,23.6c-0.6,0-1-0.4-1-1V1.1c0-0.6,0.4-1,1-1c0.6,0,1,0.4,1,1v21.5C410.7,23.2,410.2,23.6,409.7,23.6z"
				/>
		</g>
	</g>
	<g>
		<g>
			<path class="st0" d="M424.1,55.9c-0.6,0-1-0.4-1-1V1.1c0-0.6,0.4-1,1-1c0.6,0,1,0.4,1,1v53.8C425.1,55.4,424.6,55.9,424.1,55.9z"
				/>
		</g>
	</g>
	<g>
		<g>
			<path class="st0" d="M443.1,43.5c-0.6,0-1-0.4-1-1V1.1c0-0.6,0.4-1,1-1c0.6,0,1,0.4,1,1v41.4C444.1,43.1,443.6,43.5,443.1,43.5z"
				/>
		</g>
	</g>
	<g>
		<g>
			<path class="st0" d="M340.8,25.4c-0.6,0-1-0.4-1-1V1.1c0-0.6,0.4-1,1-1c0.6,0,1,0.4,1,1v23.3C341.8,25,341.4,25.4,340.8,25.4z"/>
		</g>
	</g>
	<g>
		<g>
			<path class="st0" d="M327.4,44.8c-0.6,0-1-0.4-1-1V1.1c0-0.6,0.4-1,1-1c0.6,0,1,0.4,1,1v42.7C328.4,44.4,327.9,44.8,327.4,44.8z"
				/>
		</g>
	</g>
	<g>
		<g>
			<path class="st0" d="M359.3,63.1c-0.6,0-1-0.4-1-1v-61c0-0.6,0.4-1,1-1c0.6,0,1,0.4,1,1v61C360.3,62.7,359.8,63.1,359.3,63.1z"/>
		</g>
	</g>
	<g>
		<g>
			<g>
				<path class="st0" d="M446.5,316.5H171.1c-0.6,0-1-0.4-1-1v-38.8c0-0.6,0.4-1,1-1h275.4c0.6,0,1,0.4,1,1v38.8
					C447.5,316,447.1,316.5,446.5,316.5z M172.1,314.5h273.4v-36.8H172.1V314.5z"/>
			</g>
		</g>
		<g>
			<g>
				<path class="st0" d="M196.9,364.7h-4.8c-0.3,0-0.6-0.1-0.8-0.4c-0.2-0.2-0.3-0.5-0.2-0.8l2.7-15.9c0-0.1,0-0.1,0-0.2l7.8-21.9
					c0.1-0.4,0.5-0.7,0.9-0.7h7.8c0.3,0,0.6,0.2,0.8,0.4c0.2,0.3,0.2,0.6,0.1,0.9L197.9,364C197.7,364.4,197.3,364.7,196.9,364.7z
					 M193.3,362.7h2.9l12.7-35.8h-5.6l-7.5,21.2L193.3,362.7z"/>
			</g>
		</g>
		<g>
			<g>
				<path class="st0" d="M187.6,369.2h-5.4c-0.3,0-0.6-0.1-0.8-0.4c-0.2-0.2-0.3-0.5-0.2-0.8l7.2-42.3c0.1-0.5,0.5-0.8,1-0.8h13.2
					c0.3,0,0.6,0.2,0.8,0.4c0.2,0.3,0.2,0.6,0.1,0.9l-15,42.3C188.4,369,188,369.2,187.6,369.2z M183.4,367.2h3.5l14.3-40.3h-11
					L183.4,367.2z"/>
			</g>
		</g>
		<g>
			<g>
				<path class="st0" d="M519.9,364.7C519.9,364.7,519.9,364.7,519.9,364.7h-4.8c-0.4,0-0.8-0.3-0.9-0.7l-13.4-37.8
					c-0.1-0.3-0.1-0.6,0.1-0.9c0.2-0.3,0.5-0.4,0.8-0.4h7.7c0.4,0,0.8,0.3,0.9,0.7l7.8,21.9c0,0.1,0,0.1,0,0.2l2.7,15.7
					c0,0.1,0.1,0.2,0.1,0.4C520.9,364.3,520.5,364.7,519.9,364.7z M515.8,362.7h2.9l-2.5-14.6l-7.5-21.2h-5.6L515.8,362.7z"/>
			</g>
		</g>
		<g>
			<g>
				<path class="st0" d="M529.8,369.2C529.8,369.2,529.8,369.2,529.8,369.2h-5.4c-0.4,0-0.8-0.3-0.9-0.7l-15-42.3
					c-0.1-0.3-0.1-0.6,0.1-0.9c0.2-0.3,0.5-0.4,0.8-0.4h13.2c0.5,0,0.9,0.4,1,0.8l7.2,42.1c0,0.1,0.1,0.2,0.1,0.4
					C530.8,368.8,530.4,369.2,529.8,369.2z M525.1,367.2h3.5l-6.9-40.3h-11L525.1,367.2z"/>
			</g>
		</g>
		<g>
			<g>
				<g>
					<path class="st0" d="M517.9,316.3H514c-0.6,0-1-0.4-1-1v-20.5c0-0.6,0.4-1,1-1h3.9c0.6,0,1,0.4,1,1v20.5
						C518.9,315.8,518.5,316.3,517.9,316.3z M515,314.3h1.9v-18.5H515V314.3z"/>
				</g>
			</g>
			<g>
				<g>
					<path class="st0" d="M505.9,316.3H502c-0.6,0-1-0.4-1-1v-20.5c0-0.6,0.4-1,1-1h3.9c0.6,0,1,0.4,1,1v20.5
						C506.9,315.8,506.5,316.3,505.9,316.3z M503,314.3h1.9v-18.5H503V314.3z"/>
				</g>
			</g>
			<g>
				<g>
					<path class="st0" d="M492,316.4c-0.1,0-0.2,0-0.3-0.1l-3.7-1.3c-0.3-0.1-0.5-0.3-0.6-0.5c-0.1-0.2-0.1-0.5,0-0.8l6.6-19.4
						c0.2-0.5,0.7-0.8,1.3-0.6l3.7,1.3c0.3,0.1,0.5,0.3,0.6,0.5c0.1,0.2,0.1,0.5,0,0.8l-6.6,19.4C492.8,316.1,492.4,316.4,492,316.4
						z M489.5,313.5l1.8,0.6l6-17.5l-1.8-0.6L489.5,313.5z"/>
				</g>
			</g>
			<g>
				<g>
					<path class="st0" d="M514,316.3h-3.1c-0.6,0-1-0.4-1-1v-24.4c0-0.6,0.4-1,1-1h3.1c0.6,0,1,0.4,1,1v24.4
						C515,315.8,514.5,316.3,514,316.3z M511.9,314.3h1.1v-22.4h-1.1V314.3z"/>
				</g>
			</g>
			<g>
				<g>
					<path class="st0" d="M498.9,316.3c0,0-0.1,0-0.1,0l-3.1-0.5c-0.5-0.1-0.9-0.6-0.8-1.1l3.6-24.2c0-0.3,0.2-0.5,0.4-0.7
						c0.2-0.2,0.5-0.2,0.7-0.2l3.1,0.5c0.5,0.1,0.9,0.6,0.8,1.1l-3.6,24.2c0,0.3-0.2,0.5-0.4,0.7
						C499.4,316.2,499.2,316.3,498.9,316.3z M497,314l1.1,0.2l3.3-22.2l-1.1-0.2L497,314z"/>
				</g>
			</g>
			<g>
				<g>
					<path class="st0" d="M510.9,316.3h-5c-0.6,0-1-0.4-1-1v-17.5c0-0.6,0.4-1,1-1h5c0.6,0,1,0.4,1,1v17.5
						C511.9,315.8,511.4,316.3,510.9,316.3z M506.9,314.3h3v-15.5h-3V314.3z"/>
				</g>
			</g>
		</g>
		<g>
			<g>
				<g>
					<path class="st0" d="M212.3,277.7c-4.7,0-9.4-1.7-13.1-4.8c-1.8-1.6-3.3-3.4-4.4-5.4c-0.2-0.3-0.4-0.7-0.5-1.1
						c-1.9-4.1-2.3-8.7-1.1-13.5c1-3.5,3.1-6.7,5.9-9.2c0.3-0.5,0.7-0.8,1.1-1.1c0.2-0.1,0.4-0.2,0.6-0.3c1.3-0.9,2.8-1.8,4.3-2.4
						c2.9-1.3,5.9-1.9,8.9-1.9c4.3-0.5,8.9,1,12.5,4.1c3,2.5,5.2,5.9,6.1,9.6c0.1,0.2,0.2,0.4,0.2,0.6c0.3,0.8,0.4,1.7,0.3,2.7
						c0,0.1,0,0.3,0,0.4c0.3,5.5-0.9,10.1-3.7,13.8c-0.3,0.9-0.9,1.7-1.8,2.5c-0.5,0.4-1,0.7-1.5,0.9c-1.7,1.4-3.7,2.6-6.1,3.6
						C217.7,277.2,215,277.7,212.3,277.7z M208.9,274.1c0,0.1,0,0.2,0.1,0.3c0.3,0.6,1.2,1,2.1,1
						C210.4,274.9,209.6,274.5,208.9,274.1z M204.9,274.1c0.7,0.3,1.5,0.6,2.2,0.8c-0.2-0.6-0.3-1.4,0-2.3c0,0-0.1-0.1-0.1-0.1
						C206.4,273.2,205.7,273.8,204.9,274.1z M215.2,274.7c1.1,0.2,2,0.1,2.5-0.4c0.9-0.8,1.3-2.5,1.1-5.3c-0.5-0.6-1.1-1.2-1.6-1.8
						c-0.9,0.4-1.7,0.8-2.6,1.3c0.5,0.8,0.8,1.8,1,3C215.8,272.8,215.6,273.8,215.2,274.7z M209.7,272.2c1,0.7,2.2,1.4,3.6,1.9
						c0.3-0.5,0.5-1.3,0.3-2.3c-0.1-0.9-0.4-1.6-0.7-2.2C211.4,270.5,210.4,271.4,209.7,272.2z M220.9,270.9c0,1-0.2,2-0.5,2.8
						c1-0.5,1.9-0.9,2.7-1.5C222.4,272,221.6,271.5,220.9,270.9z M203.7,268.7c-1,0.8-1.6,1.7-1.6,2.9c0.1,1,0.5,1,0.7,1
						c0.7,0.1,1.9-0.6,2.8-1.5C204.9,270.3,204.3,269.5,203.7,268.7z M199,269.9c0.4,0.4,0.8,0.8,1.2,1.2c0-0.4,0.1-0.8,0.2-1.2
						C199.9,270,199.4,270,199,269.9z M208.1,270.8C208.1,270.8,208.2,270.9,208.1,270.8c0.8-0.8,1.9-1.8,3.4-2.8
						c-0.7-0.5-1.5-0.8-2.6-1.1C209,268.3,208.8,269.6,208.1,270.8z M220.8,268.1c1.3,1.4,2.7,2.4,4,2.5c0.2,0,0.4,0,0.7,0
						c0.9-0.8,1.7-1.6,2.4-2.4c0.4-1.3,0.1-2.9-0.8-4.6c-1.6,0.6-3.3,0.9-4.9,1.1c-0.6,0.3-1.1,0.6-1.7,0.9
						C220.6,266.5,220.7,267.3,220.8,268.1z M205.4,267.6c0.4,0.6,0.8,1.1,1.2,1.6c0.3-0.8,0.4-1.6,0.3-2.4
						C206.5,267,205.9,267.3,205.4,267.6z M196.5,266.5c0.6,0.8,1.4,1.2,2,1.4c1.3,0.3,2.9,0,4.2-0.8c-0.2-0.3-0.4-0.6-0.5-0.9
						c-2.4-0.2-4.7-0.6-6.4-1.6c-0.1,0-0.1-0.1-0.2-0.1C195.8,265.1,196.1,265.8,196.5,266.5z M210.6,265.4c1,0.4,2,0.9,2.8,1.6
						c0.9-0.5,1.8-0.9,2.6-1.4c-0.2-0.2-0.4-0.5-0.5-0.7C213.8,264.9,212.2,265,210.6,265.4z M228.8,262.8c0.4,0.8,0.7,1.6,0.9,2.3
						c0.6-1.3,1.1-2.8,1.4-4.3C230.4,261.6,229.7,262.3,228.8,262.8z M203.3,264.2c0.2,0,0.4,0,0.6,0c0.3,0,0.6,0,0.9,0.1
						c0.4-0.8,0.6-1.7,0.8-2.6c-0.6-1.2-1.3-2.5-2-3.7c-1.8-0.4-3.7-1-5.3-1.7c0.5,0.8,1,1.4,1.3,1.9c1.2,1.7,2.1,3.3,3.1,4.9
						C202.9,263.5,203.1,263.9,203.3,264.2z M196.6,257.4c-0.9,0.9-1.5,1.9-1.5,2.9c0,1,0.5,1.8,1.7,2.5c1.1,0.7,2.5,1,4.1,1.2
						c-0.9-1.5-1.8-3-2.8-4.5C197.6,259,197.1,258.3,196.6,257.4z M207.6,261.5c0.4,0.8,0.7,1.6,0.9,2.4c1.9-0.7,3.7-0.9,5.5-1
						c-0.6-0.9-1.2-1.6-1.6-2.1c-0.3-0.4-0.8-1-1.5-1.7c0,0-0.1,0-0.1,0c-0.4,0-1.5-0.1-3-0.3C207.8,259.7,207.8,260.6,207.6,261.5z
						 M218.3,258.1c0.6,1.5,1.1,3.1,1.6,4.8c0.6,0,1.1,0,1.7-0.1c1.2-0.7,2.3-1.6,3.2-2.7c-0.5-0.6-1-1.3-1.5-2
						c-0.6-0.8-1.2-1.5-1.6-2.2c-0.2,0.3-0.5,0.5-0.8,0.7C220,257.3,219.2,257.7,218.3,258.1z M216.5,262.8c0.4,0,0.7,0,1.1,0
						c0.1,0,0.1,0,0.2,0c-0.4-1.5-0.9-2.9-1.4-4.2c-0.9,0.2-1.8,0.3-2.7,0.4c0.2,0.2,0.3,0.3,0.4,0.5c0.5,0.6,1.2,1.5,1.9,2.6
						C216.1,262.3,216.3,262.6,216.5,262.8z M227.2,260.1c0.2,0.3,0.4,0.6,0.6,1c2.1-1.4,3.3-3.8,3.5-6c-0.1-0.9-0.2-1.8-0.4-2.6
						c-0.2-0.5-0.6-0.9-1-1.2c0,2-0.4,4.2-1.3,6.4C228.2,258.5,227.7,259.3,227.2,260.1z M222.9,254.2c0.5,0.8,1.2,1.7,2,2.7
						c0.3,0.4,0.7,0.9,1.1,1.4c0.3-0.5,0.5-1,0.7-1.6c0.9-2.2,1.3-4.3,1.2-6.3c-0.6,0-1.3,0-2,0.1c-1.2,0.3-1.8,1.3-2.5,2.8
						C223.2,253.7,223,253.9,222.9,254.2z M209.6,255.2c0.8,0.7,1.5,1.3,2.1,1.9c1.2,0,2.6-0.1,3.8-0.3c-0.5-1.2-1.1-2.3-1.8-3.4
						C212.7,254.5,211.3,255,209.6,255.2z M207.8,256.8c0.3,0,0.5,0.1,0.7,0.1c-0.3-0.2-0.5-0.5-0.8-0.7
						C207.7,256.4,207.8,256.6,207.8,256.8z M194.9,254c-0.2,0.9-0.4,1.8-0.4,2.7c0.3-0.4,0.7-0.7,1.1-1.1
						C195.3,255.1,195.1,254.6,194.9,254z M204.8,256.3c0.3,0.1,0.6,0.1,0.9,0.2c0-0.4-0.1-0.7-0.2-1.1c-0.3,0-0.6,0-0.9,0
						c-0.1,0-0.3,0-0.4,0C204.4,255.7,204.6,256,204.8,256.3z M215.4,252.2c0.8,1.3,1.5,2.6,2.1,4c0.8-0.3,1.5-0.7,2.2-1.2
						c0.3-0.2,0.6-0.6,0.9-0.9c-0.5-0.9-0.9-1.9-1.3-3C218,251.7,216.6,252,215.4,252.2z M201.3,255.4c0.2,0.1,0.5,0.2,0.7,0.2
						c-0.1-0.1-0.1-0.2-0.2-0.3C201.6,255.3,201.5,255.4,201.3,255.4z M196.7,253c0.3,0.4,0.8,0.7,1.4,1c0.8-0.3,1.7-0.5,2.6-0.6
						c-0.5-0.9-1-1.8-1.3-2.7c-0.6-0.2-1.1-0.4-1.6-0.4c-0.6,0-0.8,0.1-0.8,0.2c-0.1,0.1-0.2,0.2-0.2,0.3c-0.1,0.2-0.1,0.3-0.1,0.5
						C196.5,251.9,196.6,252.5,196.7,253z M207,253.2c0.1,0.1,0.2,0.2,0.3,0.3c0.2,0,0.4,0,0.6,0c1.7-0.1,2.9-0.3,3.9-1
						c-0.1,0-0.1,0-0.2,0c-2-0.3-3.7-0.6-4.6-1.9c-0.7-1-0.9-2.4-0.5-4.6c0-0.1,0-0.2,0.1-0.4c-1.8-1.1-3.7-1.7-4.9-1.4
						c-0.4,0.3-0.7,0.5-1,0.8c-0.2,0.4-0.2,0.8-0.2,1.4c0.3,0,0.6,0.1,0.8,0.2C204.1,247.4,206.1,250.7,207,253.2z M203,253.3
						c0.3,0,0.6,0,0.9,0c-0.5-0.4-1-0.7-1.5-1C202.6,252.7,202.8,253,203,253.3z M221.1,250.3c0.2,0.6,0.4,1.2,0.7,1.7
						c0.7-1.4,1.7-2.9,3.6-3.3c0.8-0.1,1.5-0.2,2.1-0.2c-0.5-1.9-1.4-3.6-2.9-4.9c0.5,1.9,0,3.3-0.7,4.3
						C223.3,248.8,222.3,249.6,221.1,250.3z M200.9,249.3c0.8,0.4,1.6,0.8,2.4,1.3c-0.8-1-1.7-1.8-2.6-2.2
						C200.8,248.7,200.9,249,200.9,249.3z M208.5,246.9c-0.2,1.2-0.1,2,0.2,2.4c0.4,0.5,1.3,0.8,2.9,1c-0.8-1-1.6-1.9-2.4-2.8
						C209,247.3,208.7,247.1,208.5,246.9z M214.8,240c2.1,2.1,1.7,7.1,1.1,9.2c-0.1,0.3-0.2,0.7-0.2,1c1-0.2,2.1-0.5,3.2-0.9
						c-0.3-1.2-0.5-2.4-0.6-3.5c-0.1-1.5,0.2-3.8,1.1-5.1C217.8,240.2,216.3,240,214.8,240z M209,244.8c0.6,0.5,1.2,0.9,1.7,1.4
						c1.1,1.1,2.1,2.3,3,3.5c0.1-0.3,0.2-0.6,0.3-1c0.7-2.3,0.7-6.9-1-7.6c-0.5-0.2-0.9-0.2-1.4,0.1
						C210.5,241.7,209.5,243.2,209,244.8z M221.1,241.5c-0.4,0.1-1.1,2.1-1,4c0.1,0.9,0.2,1.8,0.4,2.7c0.7-0.5,1.4-1,1.8-1.6
						c0.8-1.1,0.7-2.4-0.1-3.8C221.5,241.6,221.1,241.5,221.1,241.5z M204.5,242.4c0.9,0.3,1.9,0.7,2.8,1.2c0.4-1,1-2.1,1.7-2.9
						c-1,0.3-2,0.6-3,1C205.5,242,205,242.2,204.5,242.4z"/>
				</g>
			</g>
			<g>
				<g>
					<path class="st0" d="M254.6,277.7c-1.7,0-3.3-0.2-4.8-0.5c-6.9-1.6-11.3-6.2-11.6-12.1c-0.2-6.9,1.9-11.9,6.9-16.2
						c1.9-1.5,4.3-2.4,6.7-2.5l0,0c7.3-1,14,1.6,17.5,6.7c1.4,2,2.2,4.3,2.4,6.8c0.4,1.1,0.4,2.4-0.1,3.8c0,0.1-0.1,0.3-0.2,0.4
						c-0.4,2.2-1.2,4.4-2.4,6.6c-1.5,2.6-3.8,4.5-6.5,5.7c-0.2,0.1-0.5,0.3-0.7,0.4c-0.7,0.3-1.4,0.5-2,0.5
						C258.1,277.5,256.4,277.7,254.6,277.7z M253.5,275.7c0.2,0,0.4,0,0.5,0l-0.3-0.1c0,0,0-0.1,0-0.1
						C253.7,275.6,253.6,275.6,253.5,275.7C253.6,275.7,253.5,275.7,253.5,275.7z M255.8,274.3c0.1,0.5,0,1,0,1.4
						c0.3,0,0.6,0,0.9-0.1C256.4,275.2,256.2,274.7,255.8,274.3C255.9,274.2,255.9,274.2,255.8,274.3z M257.6,272.9
						c0.3,0.8,0.7,1.5,1.2,1.9c0.1,0.1,0.4,0.3,0.9,0.3c0.6-0.2,1.3-0.4,1.9-0.6c1.7-1,1.5-2.2,1.5-2.6c-0.1-0.9-0.6-1.9-1.4-2.8
						C260.4,270.4,258.9,271.8,257.6,272.9z M243.4,271.8c1.2,1.1,2.6,2,4.3,2.7c-0.1-0.1-0.1-0.3-0.1-0.4c-0.1,0-0.3-0.1-0.4-0.1
						c-0.8-0.2-1.7-0.9-2-2.9C244.5,271.4,243.9,271.7,243.4,271.8z M249.6,273.7C249.6,273.7,249.6,273.8,249.6,273.7
						c0.3,0.4,1.8,0.6,3.3,0.1c0.2-0.1,0.5-0.2,0.8-0.4c-0.2-0.7-0.6-1.4-1-1.9C251.8,272.3,250.7,273.2,249.6,273.7z M262.9,267.4
						c1.1,1.3,1.9,2.8,2.1,4.2c0,0.2,0,0.5,0,0.7c0.9-0.8,1.7-1.7,2.3-2.8c0.5-0.9,1-1.9,1.3-2.8c-0.1,0-0.1,0-0.2,0.1
						c-1.4,0.5-3.2,0.4-4.9-0.2C263.4,266.9,263.2,267.1,262.9,267.4z M253.9,270c0.6,0.5,1,1.3,1.4,2.1c-0.3-1.4-0.3-2.8-0.1-3.8
						c0.2-1.3,0.7-2.4,1.2-3.4c-0.3-0.1-0.6-0.2-0.9-0.3c-0.1,0-0.1,0-0.2,0C255.4,266.4,254.9,268.3,253.9,270z M247.1,269.7
						c0,0.3,0,0.6,0,0.9c0.1,0.8,0.3,1.4,0.6,1.5c0,0,0.1,0,0.1,0c0.2-0.4,0.5-0.8,0.8-1.3c1.2-1.6,2.5-1.8,3.4-1.7
						c0.9-1.3,1.2-2.9,1.2-4.4c-0.9,0.3-1.6,0.9-2.5,1.5c-0.6,0.5-1.3,1-2,1.4C248.4,268.3,247.9,269,247.1,269.7z M258.2,265.9
						c-0.5,0.8-0.9,1.6-1,2.7c-0.1,0.7-0.1,1.4,0,2.1c1.1-1,2.2-2.1,3.2-3.2C259.6,266.9,258.9,266.3,258.2,265.9z M242,267.5
						c-0.1,1,0,1.8,0.3,2.2c0.3,0.3,1.3,0.1,2.9-1c0,0,0.1-0.1,0.1-0.1c0,0,0-0.1,0-0.1C243.8,268.5,242.7,268.1,242,267.5z
						 M242.4,265.2c0.6,0.9,1.7,1.3,3.3,1.3c0.1,0,0.2,0,0.3,0c0.5-1.1,1.2-2.2,1.8-3.2c0-1.3-0.1-2.7-0.3-4.2c0-0.2,0-0.3-0.1-0.5
						c-0.1-0.1-0.1-0.1-0.2-0.2c-0.7,0.3-1.5,0.9-2.2,1.6C244,261.1,243,263.2,242.4,265.2z M259.4,264.3c0.7,0.5,1.4,1,2.1,1.7
						c0.1-0.1,0.1-0.2,0.2-0.2c-0.6-0.4-1.4-0.9-2.1-1.6C259.6,264.2,259.5,264.2,259.4,264.3z M240.2,265.2c0,0.2,0,0.5,0.1,0.7
						c0-0.1,0-0.2,0.1-0.3C240.3,265.4,240.2,265.3,240.2,265.2z M264.6,264.8c1.1,0.3,2.3,0.4,3.2,0c0.8-0.3,1.4-0.8,1.8-1.7
						c0.2-1,0.2-2,0.2-2.9c-0.1-0.1-0.1-0.3-0.2-0.4c-0.8-1.3-2.7-2.3-4.8-2.9c0,1-0.3,1.9-0.7,2.7c0.9,0.6,1.2,1.4,1.3,2.2
						C265.4,262.7,265.1,263.7,264.6,264.8z M249.8,264c0,0.2,0,0.3,0,0.5c1-0.8,2-1.5,3.3-1.9c-0.1-0.6-0.4-1.2-0.6-1.7
						c-0.2,0-0.4-0.1-0.7-0.1c-0.5,1-1.1,1.9-1.8,2.9C249.9,263.8,249.8,263.9,249.8,264z M261.2,262.7c0.5,0.5,1.1,1,1.6,1.3
						c0.4-0.8,0.6-1.5,0.5-2c0-0.2-0.1-0.5-0.5-0.8C262.3,261.8,261.7,262.3,261.2,262.7z M255.1,262.5c0.3,0,0.6,0.1,0.9,0.2
						c0.5,0.1,1.1,0.3,1.7,0.6c0.3-0.3,0.5-0.5,0.8-0.8c-0.4-0.8-0.6-1.5-0.4-2.2c0.1-0.2,0.2-0.4,0.3-0.6c-0.4,0.3-0.8,0.6-1.3,0.8
						c-0.7,0.3-1.5,0.5-2.4,0.6C254.8,261.5,255,262,255.1,262.5z M247.6,252.1c-2.2,0.1-3.2,1.8-4.6,4.8c-0.7,1.4-1.1,3.1-1.3,4.7
						c0.6-1.2,1.3-2.3,1.9-3c0.8-0.9,1.7-1.5,2.6-2c-0.1-0.4-0.2-0.8-0.2-1.2c-0.1-1.4,0.5-2.2,1-2.6c0.1-0.1,0.3-0.2,0.4-0.3
						C247.5,252.4,247.6,252.2,247.6,252.1z M260.4,260.8c-0.4,0-0.5,0.1-0.5,0.1c0,0.1,0,0.2,0.1,0.3
						C260.1,261,260.2,260.9,260.4,260.8z M249.6,260.1c0,0.1,0,0.3,0,0.4c0.1-0.1,0.1-0.2,0.2-0.3
						C249.8,260.1,249.7,260.1,249.6,260.1z M260.3,255.9c-0.1,1.3-0.6,2.4-1.5,3.3c0.5-0.3,1.4-0.6,2.7-0.4c0.2,0,0.4,0.1,0.7,0.1
						c0.5-0.7,0.7-1.5,0.6-2.5C261.9,256.2,261.1,256,260.3,255.9z M253.7,259c1,0.1,1.9-0.1,2.5-0.4c1.7-0.8,2.1-2.1,2.1-3.1
						c-0.1,0-0.2,0-0.3,0c-1-0.2-1.9-0.3-2.5-0.4c-0.4-0.1-1-0.2-1.6-0.3c0,1.1-0.4,2.3-0.9,3.4C253.3,258.4,253.5,258.7,253.7,259z
						 M249.2,256.1c0.8,0.1,1.5,0.3,2.2,0.7c0.3-0.9,0.5-1.8,0.4-2.5c-0.9-0.2-1.9-0.3-2.6-0.2C249.2,254.7,249.2,255.4,249.2,256.1
						z M264.5,254.8c1.7,0.5,3.3,1.1,4.5,1.9c-0.3-0.9-0.8-1.8-1.3-2.6c-1.6-2.3-4-4-6.8-5c1.2,1,2.1,2.2,2.8,3.5
						C264,253.3,264.3,254.1,264.5,254.8z M260.1,253.8c0.7,0.1,1.4,0.2,2.1,0.4c-0.1-0.3-0.2-0.5-0.4-0.8c-1-2-2.7-3.5-4.9-4.4
						C258.5,250.2,259.7,252,260.1,253.8z M253.4,252.6c0.3,0.1,0.6,0.1,0.9,0.2c0.6,0.1,1.2,0.3,1.6,0.3c0.6,0.1,1.3,0.2,2.1,0.4
						c-0.6-1.4-1.7-2.7-3-3.4c-1-0.5-2.5-0.8-4,0.5c0,0,0,0,0,0C252,251,252.9,251.7,253.4,252.6z M250.4,248.5
						c-1.4,0.3-2.7,0.9-3.8,1.7c0.6-0.1,1.3-0.1,2-0.1c0.3-0.4,0.6-0.7,1-1.1C249.9,248.8,250.1,248.7,250.4,248.5z"/>
				</g>
			</g>
		</g>
		<g>
			<g>
				<path class="st0" d="M264.7,313.2c-0.6,0-1-0.4-1-1v-32.1c0-0.6,0.4-1,1-1c0.6,0,1,0.4,1,1v32.1
					C265.7,312.8,265.2,313.2,264.7,313.2z"/>
			</g>
		</g>
		<g>
			<g>
				<path class="st0" d="M357.2,313.2c-0.6,0-1-0.4-1-1v-32.1c0-0.6,0.4-1,1-1c0.6,0,1,0.4,1,1v32.1
					C358.2,312.8,357.7,313.2,357.2,313.2z"/>
			</g>
		</g>
		<g>
			<g>
				<path class="st0" d="M533.8,326.9h-87.2c-0.6,0-1-0.4-1-1v-49.2c0-0.6,0.4-1,1-1h87.2c0.6,0,1,0.4,1,1v49.2
					C534.8,326.4,534.3,326.9,533.8,326.9z M447.5,324.9h85.2v-47.2h-85.2V324.9z"/>
			</g>
		</g>
		<g>
			<g>
				<path class="st0" d="M446.5,326.9H176.9c-0.6,0-1-0.4-1-1v-10.6c0-0.6,0.4-1,1-1h269.6c0.6,0,1,0.4,1,1v10.6
					C447.5,326.4,447.1,326.9,446.5,326.9z M177.9,324.9h267.6v-8.6H177.9V324.9z"/>
			</g>
		</g>
		<g>
			<g>
				<path class="st0" d="M523.8,316.5h-77.2c-0.6,0-1-0.4-1-1v-29.2c0-0.6,0.4-1,1-1h77.2c0.6,0,1,0.4,1,1v29.2
					C524.8,316,524.3,316.5,523.8,316.5z M447.5,314.5h75.2v-27.2h-75.2V314.5z"/>
			</g>
		</g>
		<g>
			<g>
				<path class="st0" d="M264.7,326.9c-0.6,0-1-0.4-1-1v-10.4c0-0.6,0.4-1,1-1c0.6,0,1,0.4,1,1v10.4
					C265.7,326.4,265.2,326.9,264.7,326.9z"/>
			</g>
		</g>
		<g>
			<g>
				<path class="st0" d="M357.2,323.3c-0.6,0-1-0.4-1-1v-6.8c0-0.6,0.4-1,1-1c0.6,0,1,0.4,1,1v6.8
					C358.2,322.8,357.7,323.3,357.2,323.3z"/>
			</g>
		</g>
		<g>
			<g>
				<path class="st0" d="M446.5,281.4c-0.5,0-1-0.4-1-1c0-0.6,0.4-1,1-1l87.2-1.5c0.5,0,1,0.4,1,1c0,0.6-0.4,1-1,1L446.5,281.4
					C446.5,281.4,446.5,281.4,446.5,281.4z"/>
			</g>
		</g>
		<g>
			<g>
				<path class="st0" d="M533.8,284.7C533.8,284.7,533.8,284.7,533.8,284.7l-87.2-0.5c-0.6,0-1-0.5-1-1c0-0.5,0.5-1,1-1c0,0,0,0,0,0
					l87.2,0.5c0.6,0,1,0.5,1,1C534.8,284.2,534.3,284.7,533.8,284.7z"/>
			</g>
		</g>
		<g>
			<g>
				<path class="st0" d="M523.8,289.3c-0.5,0-0.9-0.4-1-0.9c-0.1-0.5,0.3-1,0.9-1.1l10-1c0.6,0,1,0.3,1.1,0.9c0.1,0.5-0.3,1-0.9,1.1
					l-10,1C523.8,289.3,523.8,289.3,523.8,289.3z"/>
			</g>
		</g>
		<g>
			<g>
				<path class="st0" d="M533.8,291.9h-10c-0.6,0-1-0.4-1-1c0-0.6,0.4-1,1-1h10c0.6,0,1,0.4,1,1
					C534.8,291.4,534.3,291.9,533.8,291.9z"/>
			</g>
		</g>
		<g>
			<g>
				<path class="st0" d="M523.8,295.7c-0.5,0-0.9-0.4-1-0.9c0-0.6,0.4-1,0.9-1.1l10-0.9c0.6-0.1,1,0.4,1.1,0.9c0,0.6-0.4,1-0.9,1.1
					L523.8,295.7C523.8,295.7,523.8,295.7,523.8,295.7z"/>
			</g>
		</g>
		<g>
			<g>
				<path class="st0" d="M533.8,301C533.7,301,533.7,301,533.8,301l-10.1-0.5c-0.6,0-1-0.5-0.9-1c0-0.6,0.5-1,1-0.9l10,0.5
					c0.6,0,1,0.5,0.9,1C534.7,300.6,534.3,301,533.8,301z"/>
			</g>
		</g>
		<g>
			<g>
				<path class="st0" d="M523.8,304.1c-0.5,0-1-0.4-1-1c0-0.6,0.4-1,1-1l10-0.1c0,0,0,0,0,0c0.5,0,1,0.4,1,1c0,0.6-0.4,1-1,1
					L523.8,304.1C523.8,304.1,523.8,304.1,523.8,304.1z"/>
			</g>
		</g>
		<g>
			<g>
				<path class="st0" d="M523.8,308.5c-0.5,0-0.9-0.4-1-0.9c-0.1-0.5,0.4-1,0.9-1.1l10-1c0.6-0.1,1,0.4,1.1,0.9
					c0.1,0.5-0.4,1-0.9,1.1L523.8,308.5C523.8,308.5,523.8,308.5,523.8,308.5z"/>
			</g>
		</g>
		<g>
			<g>
				<path class="st0" d="M533.8,311.8C533.7,311.8,533.7,311.8,533.8,311.8l-10.1-0.7c-0.6,0-1-0.5-0.9-1.1c0-0.6,0.5-1,1.1-0.9
					l10,0.7c0.6,0,1,0.5,0.9,1.1C534.7,311.4,534.3,311.8,533.8,311.8z"/>
			</g>
		</g>
		<g>
			<g>
				<path class="st0" d="M523.8,314.8c-0.5,0-1-0.4-1-1c0-0.6,0.4-1,1-1l9.2-0.2c0,0,0,0,0,0c0.5,0,1,0.4,1,1c0,0.6-0.4,1-1,1
					L523.8,314.8C523.8,314.8,523.8,314.8,523.8,314.8z"/>
			</g>
		</g>
		<g>
			<g>
				<path class="st0" d="M446.5,319.8c-0.5,0-1-0.4-1-1c0-0.6,0.4-1,1-1l87.2-1.3c0,0,0,0,0,0c0.5,0,1,0.4,1,1c0,0.6-0.4,1-1,1
					L446.5,319.8C446.5,319.8,446.5,319.8,446.5,319.8z"/>
			</g>
		</g>
		<g>
			<g>
				<path class="st0" d="M533.8,322.5C533.8,322.5,533.8,322.5,533.8,322.5l-87.2-0.2c-0.6,0-1-0.4-1-1c0-0.6,0.4-1,1-1c0,0,0,0,0,0
					l87.2,0.2c0.6,0,1,0.4,1,1C534.8,322,534.3,322.5,533.8,322.5z"/>
			</g>
		</g>
		<g>
			<g>
				<path class="st0" d="M445.8,321.6C445.8,321.6,445.8,321.6,445.8,321.6l-88.6-1.8c-0.6,0-1-0.5-1-1c0-0.6,0.5-1,1-1l88.6,1.8
					c0.6,0,1,0.5,1,1C446.8,321.1,446.3,321.6,445.8,321.6z"/>
			</g>
		</g>
		<g>
			<g>
				<path class="st0" d="M435.3,326.9C435.2,326.9,435.2,326.9,435.3,326.9l-78.1-4.6c-0.6,0-1-0.5-0.9-1.1c0-0.6,0.5-1,1.1-0.9
					l78.1,4.6c0.6,0,1,0.5,0.9,1.1C436.2,326.5,435.8,326.9,435.3,326.9z"/>
			</g>
		</g>
		<g>
			<g>
				<path class="st0" d="M357.2,319.8C357.2,319.8,357.2,319.8,357.2,319.8l-92.5-0.2c-0.6,0-1-0.4-1-1c0-0.6,0.4-1,1-1c0,0,0,0,0,0
					l92.5,0.2c0.6,0,1,0.4,1,1C358.2,319.4,357.7,319.8,357.2,319.8z"/>
			</g>
		</g>
		<g>
			<g>
				<path class="st0" d="M357.2,323.3C357.2,323.3,357.2,323.3,357.2,323.3l-92.5-0.8c-0.6,0-1-0.5-1-1c0-0.5,0.5-1,1-1c0,0,0,0,0,0
					l92.5,0.8c0.6,0,1,0.5,1,1C358.2,322.8,357.7,323.3,357.2,323.3z"/>
			</g>
		</g>
		<g>
			<g>
				<path class="st0" d="M318.1,326.9C318.1,326.9,318.1,326.9,318.1,326.9l-53.5-2.3c-0.6,0-1-0.5-1-1c0-0.6,0.5-1,1-1l53.4,2.3
					c0.6,0,1,0.5,1,1C319.1,326.5,318.6,326.9,318.1,326.9z"/>
			</g>
		</g>
		<g>
			<g>
				<path class="st0" d="M264.7,319.7C264.6,319.7,264.6,319.7,264.7,319.7l-77.3-3.4c-0.6,0-1-0.5-1-1c0-0.6,0.5-1,1-1l77.2,3.4
					c0.6,0,1,0.5,1,1C265.6,319.2,265.2,319.7,264.7,319.7z"/>
			</g>
		</g>
		<g>
			<g>
				<path class="st0" d="M264.7,322.2C264.7,322.2,264.6,322.2,264.7,322.2l-87.8-2.8c-0.6,0-1-0.5-1-1c0-0.6,0.5-1,1-1l87.7,2.8
					c0.6,0,1,0.5,1,1C265.6,321.8,265.2,322.2,264.7,322.2z"/>
			</g>
		</g>
		<g>
			<g>
				<path class="st0" d="M250.2,326.9C250.2,326.9,250.1,326.9,250.2,326.9l-73.3-3.6c-0.6,0-1-0.5-0.9-1c0-0.6,0.5-1,1-1l73.2,3.6
					c0.6,0,1,0.5,0.9,1C251.2,326.5,250.7,326.9,250.2,326.9z"/>
			</g>
		</g>
	</g>
	<g>
		<path class="st0" d="M592,198.9c-0.2,0-0.4,0-0.5-0.1l-17.1-10.3c-0.5-0.3-0.6-0.9-0.3-1.4c0.3-0.5,0.9-0.6,1.4-0.3l17.1,10.3
			c0.5,0.3,0.6,0.9,0.3,1.4C592.7,198.7,592.3,198.9,592,198.9z"/>
	</g>
	<g>
		<path class="st0" d="M15,352.3H1.7c-0.6,0-1-0.4-1-1c0-0.6,0.4-1,1-1H15c0.6,0,1,0.4,1,1C16,351.9,15.6,352.3,15,352.3z"/>
	</g>
	<g>
		<path class="st0" d="M103.2,352.3H42.9c-0.6,0-1-0.4-1-1c0-0.6,0.4-1,1-1h60.3c0.6,0,1,0.4,1,1
			C104.2,351.9,103.7,352.3,103.2,352.3z"/>
	</g>
	<g>
		<path class="st0" d="M175.9,352.3H133c-0.6,0-1-0.4-1-1c0-0.6,0.4-1,1-1h42.9c0.6,0,1,0.4,1,1
			C176.9,351.9,176.5,352.3,175.9,352.3z"/>
	</g>
	<g>
		<path class="st0" d="M503.5,352.3H207.7c-0.6,0-1-0.4-1-1c0-0.6,0.4-1,1-1h295.8c0.6,0,1,0.4,1,1
			C504.5,351.9,504.1,352.3,503.5,352.3z"/>
	</g>
	<g>
		<path class="st0" d="M577.3,352.3h-43.3c-0.6,0-1-0.4-1-1c0-0.6,0.4-1,1-1h43.3c0.6,0,1,0.4,1,1
			C578.3,351.9,577.8,352.3,577.3,352.3z"/>
	</g>
	<g>
		<path class="st0" d="M624.2,352.3H599c-0.6,0-1-0.4-1-1c0-0.6,0.4-1,1-1h25.1c0.6,0,1,0.4,1,1
			C625.2,351.9,624.7,352.3,624.2,352.3z"/>
	</g>
</g>
</svg>
